<?xml version="1.0" standalone="no"?>
<!DOCTYPE svg PUBLIC "-//W3C//DTD SVG 1.1//EN" "http://www.w3.org/Graphics/SVG/1.1/DTD/svg11.dtd">
<svg xmlns="http://www.w3.org/2000/svg">
<defs >
<font id="Sora" horiz-adv-x="590" ><font-face
    font-family="Sora SemiBold"
    units-per-em="1000"
    panose-1="0 0 0 0 0 0 0 0 0 0"
    ascent="970"
    descent="-290"
    alphabetic="0" />
<glyph unicode=" " horiz-adv-x="216" />
<glyph unicode="!" horiz-adv-x="310" d="M84 237V730H226V237H84ZM73 0V148H237V0H73Z" />
<glyph unicode="&quot;" horiz-adv-x="473" d="M71 434V730H195V434H71ZM278 434V730H402V434H278Z" />
<glyph unicode="#" horiz-adv-x="712" d="M120 0L233 730H346L233 0H120ZM367 0L480 730H593L480 0H367ZM34 193V287H640V193H34ZM72 443V537H678V443H72Z" />
<glyph unicode="$" horiz-adv-x="651" d="M327 -3Q233 -3 170 25T74 106T41 231H169Q169 200 185 172T235 127T327 109Q402 109 441 138T480 210Q480 249 447 275T343 307L287 312Q184 322 123 374T62 524Q62 591 92 637T180 706T317 730Q399 730 456 703T544
626T575 503H447Q447 534 433 560T390 602T317 618Q277 618 249 606T206 573T191 524Q191 489 216 462T299 430L355 425Q470 415 539 361T609 210Q609 143 576 96T479 23T327 -3ZM266 -129V17H382V-129H266ZM262 681V827H378V681H262Z" />
<glyph unicode="%" horiz-adv-x="877" d="M249 0L518 730H633L364 0H249ZM197 332Q139 332 101 358T45 429T26 525V551Q26 608 45 651T102 719T197 744Q255 744 293 720T350 652T369 551V525Q369 473 351 429T295 359T197 332ZM197 425Q233 425 250 451T268 537Q268
601 250 626T197 651Q162 651 145 626T127 538Q127 479 144 452T197 425ZM680 -15Q622 -15 584 11T528 82T509 178V204Q509 261 528 304T585 372T680 397Q738 397 776 373T833 305T852 204V178Q852 126 834 82T778 12T680 -15ZM680 78Q716 78 733 104T751 190Q751
254 733 279T680 304Q645 304 628 279T610 191Q610 132 627 105T680 78Z" />
<glyph unicode="&amp;" horiz-adv-x="717" d="M534 0L248 308Q202 358 176 395T138 466T126 540Q126 602 152 646T233 715T377 739Q412 739 451 736T521 728V612Q501 615 471 617T412 621T363 623Q300 623 278 600T255 534Q255 496 273 463T330 386L690 0H534ZM292
-20Q212 -20 153 11T60 95T26 213V227Q26 299 67 355T171 443L231 365Q199 346 177 310T155 226Q155 186 172 157T222 111T298 95Q360 95 409 129T487 233T516 414H638Q638 310 612 230T539 94T429 9T292 -20ZM415 396V499H692V396H415Z" />
<glyph unicode="&apos;" horiz-adv-x="266" d="M71 434V730H195V434H71Z" />
<glyph unicode="(" horiz-adv-x="387" d="M219 -182Q170 -121 133 -50T76 107T56 302Q56 411 77 496T136 650T222 776H377Q323 710 281 638T216 483T193 302Q193 205 212 121T273 -38T377 -182H219Z" />
<glyph unicode=")" horiz-adv-x="387" d="M168 -182Q217 -121 254 -50T311 107T331 302Q331 411 310 496T251 650T165 776H10Q64 710 106 638T171 483T194 302Q194 205 175 121T114 -38T10 -182H168Z" />
<glyph unicode="*" horiz-adv-x="569" d="M473 367L321 477V585L473 695L528 598L403 546V516L528 464L473 367ZM326 782L307 595L213 541L42 618L98 714L206 632L232 647L214 781L326 782ZM42 444L213 521L307 467L326 280L215 282L232 415L206 430L98 349L42 444Z" />
<glyph unicode="+" horiz-adv-x="594" d="M236 97V591H358V97H236ZM55 288V400H539V288H55Z" />
<glyph unicode="," horiz-adv-x="269" d="M121 -166L13 -125L115 165L231 122L121 -166Z" />
<glyph unicode="-" horiz-adv-x="507" d="M51 220V342H456V220H51Z" />
<glyph unicode="." horiz-adv-x="269" d="M57 0V160H213V0H57Z" />
<glyph unicode="/" horiz-adv-x="386" d="M21 -60L227 780H366L160 -60H21Z" />
<glyph unicode="0" horiz-adv-x="756" d="M379 -19Q293 -19 233 9T135 87T80 201T62 337V393Q62 494 96 575T200 703T379 751Q487 751 557 704T660 575T694 393V337Q694 266 677 202T622 88T524 10T379 -19ZM379 111Q468 111 510 172T552 364Q552 502 509 561T379
621Q291 621 248 562T204 366Q204 235 247 173T379 111Z" />
<glyph unicode="1" horiz-adv-x="425" d="M185 0V642L229 608H36V730H326V0H185Z" />
<glyph unicode="2" horiz-adv-x="627" d="M65 0V140Q65 186 79 220T127 280T216 331L340 386Q386 407 410 437T435 516Q435 569 404 600T314 632Q256 632 225 600T193 511H56Q56 579 85 633T171 719T314 751Q400 751 457 720T543 638T572 523V510Q572 428 526
374T391 279L267 224Q232 209 218 193T204 148V84L170 121H575V0H65Z" />
<glyph unicode="3" horiz-adv-x="626" d="M306 -19Q222 -19 162 13T69 98T37 218H174Q174 165 209 133T306 100Q347 100 376 115T422 158T438 222Q438 276 403 310T307 345Q277 345 255 337T215 316L150 428L390 592L381 609H67V730H544V584L297 420L220 434Q239
440 261 443T309 447Q392 447 451 419T543 340T575 225V212Q575 149 543 97T451 13T306 -19Z" />
<glyph unicode="4" horiz-adv-x="662" d="M38 151V305L324 750L431 677L179 283L191 263H639V151H38ZM420 0V523H551V0H420Z" />
<glyph unicode="5" horiz-adv-x="637" d="M323 -19Q237 -19 176 15T82 105T49 229H186Q186 191 203 162T252 117T324 100Q367 100 398 118T445 167T462 238Q462 277 446 308T399 358T325 377Q289 377 257 363T207 326H76L113 730H536V609H175L225 648L201 396L167
406Q196 439 238 461T344 483Q425 483 482 450T569 363T599 244V231Q599 166 567 109T474 17T323 -19Z" />
<glyph unicode="6" horiz-adv-x="678" d="M356 -21Q275 -21 219 6T127 82T76 193T60 328V372Q60 551 150 643T416 736Q454 736 487 734T553 728V609Q520 613 486 615T411 617Q327 617 279 588T211 503T190 364V299L158 253Q159 330 188 380T270 456T389 482Q467
482 522 451T606 365T636 237Q636 161 602 103T506 12T356 -21ZM353 98Q400 98 433 115T483 164T500 235Q500 276 484 307T435 355T358 372Q315 372 280 357T224 311T203 235Q203 196 219 165T269 116T353 98Z" />
<glyph unicode="7" horiz-adv-x="596" d="M144 0L417 600L408 613H38V730H570V622L293 0H144ZM38 496V730H153V496H38Z" />
<glyph unicode="8" horiz-adv-x="657" d="M328 -20Q244 -20 180 7T80 84T44 203Q44 249 60 284T104 345T170 384V396Q141 409 118 430T81 481T67 550Q67 616 101 660T195 727T328 750Q402 750 461 728T555 661T590 550Q590 511 577 481T540 430T487 396V384Q525
371 553 345T597 284T613 203Q613 134 578 84T478 7T328 -20ZM328 97Q374 97 407 111T458 152T476 217Q476 255 459 281T408 322T328 336Q283 336 250 322T199 282T181 217Q181 179 199 152T250 111T328 97ZM328 442Q386 442 419 466T453 538Q453 587 419 610T328
633Q271 633 238 610T204 538Q204 491 238 467T328 442Z" />
<glyph unicode="9" horiz-adv-x="678" d="M322 751Q403 751 459 724T551 648T602 537T618 402V358Q618 179 528 87T262 -6Q224 -6 191 -4T125 2V121Q158 117 192 115T267 113Q351 113 399 142T467 227T488 366V431L520 477Q519 400 490 350T408 274T289 248Q211
248 156 279T72 365T42 493Q42 569 76 627T172 718T322 751ZM325 632Q278 632 245 615T195 566T178 495Q178 454 194 423T243 375T320 358Q363 358 398 373T454 419T475 495Q475 534 459 565T409 614T325 632Z" />
<glyph unicode=":" horiz-adv-x="269" d="M57 0V160H213V0H57ZM57 345V505H213V345H57Z" />
<glyph unicode=";" horiz-adv-x="269" d="M123 -166L15 -125L117 165L233 122L123 -166ZM63 345V505H219V345H63Z" />
<glyph unicode="&lt;" horiz-adv-x="594" d="M522 564V447L72 306V418L522 564ZM72 352L522 211V93L72 239V352ZM172 368V286H142V368H172Z" />
<glyph unicode="=" d="M55 376V488H535V376H55ZM55 173V285H535V173H55Z" />
<glyph unicode="&gt;" horiz-adv-x="594" d="M72 93V210L522 351V239L72 93ZM522 305L72 446V564L522 418V305ZM422 289V371H452V289H422Z" />
<glyph unicode="?" horiz-adv-x="559" d="M186 236V414H271Q331 414 359 445T388 523Q388 556 375 580T337 618T279 631Q243 631 218 616T178 576T164 518H31Q31 582 60 635T145 719T282 751Q356 751 409 723T492 645T521 534V522Q521 461 492 413T407 338T269
308L326 360L324 236H186ZM175 0V148H335V0H175Z" />
<glyph unicode="@" horiz-adv-x="1126" d="M566 -245Q456 -245 363 -210T200 -110T93 46T55 251Q55 361 91 452T196 610T359 713T571 750Q673 750 762 721T920 636T1028 496T1067 304Q1067 216 1041 148T965 41T845 1Q796 1 760 21T703 79T683 167V224H715Q712
153 686 105T617 33T519 8Q457 8 408 38T329 121T300 244V260Q300 330 328 382T406 462T517 491Q574 491 618 466T688 395T718 283H692V474H794V174Q794 151 801 136T821 113T851 105Q882 105 905 129T941 196T955 300Q955 389 925 454T842 561T719 624T572 645Q478
645 403 617T276 536T195 411T167 250Q167 132 218 45T359 -90T566 -138Q599 -138 633 -134T696 -124V-232Q667 -238 633 -241T566 -245ZM544 111Q578 111 606 126T651 172T668 245V267Q668 307 651 333T606 374T544 388Q506 388 478 371T435 324T420 252Q420 212
435 180T477 130T544 111Z" />
<glyph unicode="A" horiz-adv-x="773" d="M18 0L267 730H499L755 0H609L392 633L443 611H318L370 633L160 0H18ZM192 194L237 314H533L577 194H192Z" />
<glyph unicode="B" horiz-adv-x="688" d="M209 -5V109H392Q442 109 468 136T494 212Q494 260 468 286T392 313H209V400H382Q455 400 512 383T602 324T635 214V200Q635 135 607 90T522 20T382 -5H209ZM90 -5V735H229V-5H90ZM209 336V423H365Q416 423 440 450T464
522Q464 567 440 594T365 621H209V735H352Q476 735 540 683T605 534V520Q605 452 573 412T483 354T352 336H209Z" />
<glyph unicode="C" horiz-adv-x="799" d="M419 -19Q320 -19 249 16T134 107T68 229T47 356V378Q47 446 68 512T135 632T249 718T414 751Q513 751 586 716T704 616T757 465H614Q606 515 579 549T509 601T414 619Q360 619 318 601T248 548T206 468T191 366Q191 312
205 266T249 186T320 132T419 113Q501 113 557 153T626 267H769Q759 189 716 124T598 20T419 -19Z" />
<glyph unicode="D" horiz-adv-x="785" d="M212 -4V128H363Q420 128 464 145T540 195T587 270T604 367Q604 422 588 465T540 540T465 587T363 603H212V735H354Q453 735 527 706T650 627T723 512T748 378V356Q748 290 724 226T650 110T527 27T354 -4H212ZM90 -4V735H232V-4H90Z"
/>
<glyph unicode="E" horiz-adv-x="596" d="M90 0V730H229V0H90ZM209 0V120H540V0H209ZM209 311V431H514V311H209ZM209 610V730H532V610H209Z" />
<glyph unicode="F" horiz-adv-x="560" d="M90 0V730H232V0H90ZM212 304V424L504 425V305L212 304ZM212 610V730H518V610H212Z" />
<glyph unicode="G" horiz-adv-x="832" d="M430 -19Q336 -19 265 12T145 97T72 218T47 359V381Q47 450 71 516T141 635T256 719T414 751Q510 751 584 716T703 617T756 469H613Q606 516 578 549T508 601T414 619Q363 619 322 601T251 550T207 471T191 369Q191 308
208 260T256 179T331 128T430 110Q503 110 558 140T638 220L613 105V293H744V131Q697 60 616 21T430 -19ZM407 265V371H805V265H407Z" />
<glyph unicode="H" horiz-adv-x="801" d="M569 0V730H711V0H569ZM90 0V730H232V0H90ZM206 303V428H595V303H206Z" />
<glyph unicode="I" horiz-adv-x="326" d="M92 0V730H234V0H92Z" />
<glyph unicode="J" horiz-adv-x="642" d="M300 -19Q221 -19 161 12T68 103T35 250V282H176V238Q176 180 210 147T299 113Q355 113 388 146T422 238V625H564V250Q564 163 531 103T439 12T300 -19ZM124 605V730H564V605H124Z" />
<glyph unicode="K" horiz-adv-x="728" d="M563 0L296 341H193L510 730H673L387 380L383 450L736 0H563ZM90 0V730H232V0H90Z" />
<glyph unicode="L" horiz-adv-x="553" d="M90 0V730H232V0H90ZM212 0V125H527V0H212Z" />
<glyph unicode="M" horiz-adv-x="954" d="M90 0V730H284L467 294H485L667 730H864V0H723V623L741 621L544 149H399L201 621L220 623V0H90Z" />
<glyph unicode="N" horiz-adv-x="867" d="M90 0V730H323L630 118H663L643 100V730H777V0H543L236 612H202L222 630V0H90Z" />
<glyph unicode="O" horiz-adv-x="865" d="M433 -19Q334 -19 262 16T142 107T71 229T47 356V378Q47 445 71 511T143 632T264 718T433 751Q529 751 601 719T721 632T794 512T818 378V356Q818 295 795 230T724 108T604 16T433 -19ZM433 113Q489 113 533 133T609 188T657
269T674 366Q674 421 658 467T610 547T533 600T433 619Q377 619 332 600T256 547T208 467T191 366Q191 315 207 270T255 189T332 133T433 113Z" />
<glyph unicode="P" horiz-adv-x="658" d="M212 224V347H354Q397 347 426 364T471 411T487 480Q487 519 472 549T427 595T354 612H212V735H342Q434 735 498 705T597 620T631 488V472Q631 396 597 341T499 255T342 224H212ZM90 0V735H232V0H90Z" />
<glyph unicode="Q" horiz-adv-x="865" d="M573 -215Q510 -215 464 -200T391 -144T365 -29V75H497V-38Q497 -69 514 -85T562 -102H676V-215H573ZM433 -19Q334 -19 262 16T142 107T71 229T47 356V378Q47 445 71 511T143 632T264 718T433 751Q529 751 601 719T721
632T794 512T818 378V356Q818 295 795 230T724 108T604 16T433 -19ZM433 113Q489 113 533 133T609 188T657 269T674 366Q674 421 658 467T610 547T533 600T433 619Q377 619 332 600T256 547T208 467T191 366Q191 315 207 270T255 189T332 133T433 113Z" />
<glyph unicode="R" horiz-adv-x="720" d="M90 0V735H232V0H90ZM536 0L312 318H471L702 0H536ZM190 244V359H376Q415 359 443 375T488 420T504 486Q504 524 488 553T444 598T376 614H190V735H361Q449 735 513 709T613 630T648 497V481Q648 400 613 348T513 270T361
244H190Z" />
<glyph unicode="S" horiz-adv-x="674" d="M339 -19Q242 -19 176 12T74 97T39 221H178Q178 192 194 165T245 120T339 103Q391 103 426 118T478 157T495 213Q495 252 462 275T360 305L296 310Q191 319 129 375T66 525Q66 595 99 645T191 723T331 751Q414 751 474
722T567 641T600 517H461Q461 547 447 572T404 613T331 629Q289 629 261 615T219 577T205 525Q205 491 230 466T309 436L373 430Q451 424 510 397T601 324T634 213Q634 144 598 92T496 10T339 -19Z" />
<glyph unicode="T" horiz-adv-x="610" d="M234 0V625H376V0H234ZM23 605V730H587V605H23Z" />
<glyph unicode="U" horiz-adv-x="780" d="M391 -19Q289 -19 219 20T113 129T76 295V730H218V287Q218 235 238 196T296 135T391 113Q446 113 484 134T542 195T562 287V730H704V295Q704 200 669 130T563 20T391 -19Z" />
<glyph unicode="V" horiz-adv-x="729" d="M254 0L21 730H168L361 98L319 118H427L384 98L562 730H704L488 0H254Z" />
<glyph unicode="W" horiz-adv-x="1062" d="M210 0L24 730H171L322 95L283 118H383L339 95L458 702H580L432 0H210ZM646 0L485 702H612L749 95L706 118H804L766 95L899 730H1038L872 0H646Z" />
<glyph unicode="X" horiz-adv-x="713" d="M11 0L268 389L269 372L33 730H191L349 485H370L527 730H679L440 369L438 386L701 0H544L360 274H339L163 0H11Z" />
<glyph unicode="Y" horiz-adv-x="655" d="M230 279L10 730H156L324 377L292 387H387L353 377L506 730H644L441 279H230ZM266 0V301H405V0H266Z" />
<glyph unicode="Z" horiz-adv-x="650" d="M46 0V122L449 610L451 589L421 629L441 613H58V730H606V608L202 121L199 144L232 99L208 117H611V0H46Z" />
<glyph unicode="[" horiz-adv-x="387" d="M94 -182V776H227V-182H94ZM179 -182V-68H341V-182H179ZM179 662V776H341V662H179Z" />
<glyph unicode="\" horiz-adv-x="386" d="M235 -60L14 780H152L372 -60H235Z" />
<glyph unicode="]" horiz-adv-x="387" d="M293 -182V776H160V-182H293ZM208 -182V-68H46V-182H208ZM208 662V776H46V662H208Z" />
<glyph unicode="^" horiz-adv-x="602" d="M55 310L219 733H385L547 310H431L315 633H291L173 310H55Z" />
<glyph unicode="_" horiz-adv-x="585" d="M0 -158V-54H585V-158H0Z" />
<glyph unicode="`" horiz-adv-x="300" d="M112 612L0 817H148L235 612H112Z" />
<glyph unicode="a" horiz-adv-x="588" d="M408 0V161H385V340Q385 387 362 410T291 433Q266 433 231 432T161 430T97 426V544Q120 546 149 548T208 550T266 551Q350 551 405 529T489 460T518 337V0H408ZM233 -14Q174 -14 130 7T61 67T36 161Q36 221 65 259T148
316T274 335H400V252H272Q224 252 199 229T173 168Q173 131 198 108T272 85Q301 85 325 95T366 131T385 201L419 162Q414 105 392 66T330 7T233 -14Z" />
<glyph unicode="b" horiz-adv-x="699" d="M398 -18Q331 -18 280 10T200 94T168 227H189V0H79V730H218V365L181 308Q185 392 214 448T294 532T407 560Q463 560 509 539T588 481T638 393T656 284V263Q656 204 638 153T586 64T505 4T398 -18ZM367 99Q412 99 445 121T498
183T517 273Q517 325 498 363T446 422T367 443Q326 443 292 425T236 372T214 288V248Q214 201 236 168T293 117T367 99Z" />
<glyph unicode="c" horiz-adv-x="610" d="M320 -19Q249 -19 198 5T112 69T60 159T43 261V280Q43 335 60 385T113 475T199 538T319 562Q390 562 446 535T535 458T573 344H438Q433 386 403 414T319 442Q273 442 243 420T197 360T182 271Q182 223 196 184T241 123T320
101Q356 101 382 114T423 150T443 202H578Q574 136 540 87T449 9T320 -19Z" />
<glyph unicode="d" horiz-adv-x="699" d="M304 -18Q247 -18 199 3T116 62T62 150T43 260V281Q43 339 61 390T113 479T194 538T300 560Q364 560 412 533T490 450T522 312L481 360V730H620V0H510V231H534Q531 148 500 93T419 10T304 -18ZM335 99Q376 99 410 117T464
171T485 255V295Q485 343 464 375T409 425T335 443Q290 443 256 422T202 361T182 270Q182 218 202 180T256 120T335 99Z" />
<glyph unicode="e" horiz-adv-x="620" d="M322 -19Q252 -19 200 5T113 69T61 160T43 262V281Q43 335 60 385T112 475T198 538T316 562Q404 562 463 524T553 423T583 288V238H102V323H496L453 281Q453 333 438 370T393 427T316 447Q270 447 238 426T190 366T173
271Q173 220 189 181T238 119T322 96Q373 96 405 116T446 167H574Q562 111 528 69T442 4T322 -19Z" />
<glyph unicode="f" horiz-adv-x="381" d="M92 0V556Q92 649 143 693T296 738H364V631H286Q255 631 239 615T222 568V0H92ZM24 432V534H373V432H24Z" />
<glyph unicode="g" horiz-adv-x="683" d="M291 -214Q252 -214 212 -211T136 -203V-87Q172 -91 213 -94T290 -98Q357 -98 398 -82T459 -32T479 56V163L509 231Q506 156 478 104T402 24T291 -4Q235 -4 190 17T112 75T61 162T43 269V290Q43 347 61 396T114 483T195
540T299 560Q366 560 415 531T493 447T524 312L500 308V543H610V64Q610 -35 576 -96T472 -185T291 -214ZM331 115Q371 115 404 133T457 185T477 267V302Q477 348 457 380T403 428T331 445Q287 445 254 425T201 367T182 279Q182 229 201 192T253 135T331 115Z" />
<glyph unicode="h" horiz-adv-x="648" d="M79 0V730H218V304H194Q194 386 215 443T277 530T383 560H389Q482 560 530 496T578 310V0H439V323Q439 375 410 405T332 435Q281 435 250 402T218 314V0H79Z" />
<glyph unicode="i" horiz-adv-x="325" d="M105 0V543H244V0H105ZM29 439V543H244V439H29ZM156 608Q115 608 96 629T76 684Q76 717 95 738T156 759Q197 759 216 738T235 684Q235 651 216 630T156 608Z" />
<glyph unicode="j" horiz-adv-x="332" d="M2 -205V-86H44Q81 -86 101 -66T121 -9V543H255V-1Q255 -76 232 -120T161 -185T35 -205H2ZM42 439V543H255V439H42ZM166 612Q126 612 107 633T87 688Q87 721 106 742T166 763Q207 763 226 742T246 688Q246 655 227 634T166 612Z" />
<glyph unicode="k" horiz-adv-x="617" d="M459 0L277 254H196L427 543H572L359 276L362 346L616 0H459ZM79 0V730H218V0H79Z" />
<glyph unicode="l" horiz-adv-x="305" d="M86 0V730H225V0H86ZM18 626V730H225V626H18Z" />
<glyph unicode="m" horiz-adv-x="978" d="M79 0V543H189V310H179Q179 392 200 447T262 531T366 560H372Q435 560 476 532T538 448T559 310H524Q524 392 545 447T608 531T712 560H718Q781 560 823 532T886 448T908 310V0H769V323Q769 374 743 404T669 435Q621 435
592 404T563 319V0H424V323Q424 374 398 404T324 435Q276 435 247 404T218 319V0H79Z" />
<glyph unicode="n" horiz-adv-x="648" d="M79 0V543H189V310H179Q179 393 201 448T266 532T375 560H381Q478 560 528 498T578 311V0H439V323Q439 373 411 404T332 435Q281 435 250 404T218 319V0H79Z" />
<glyph unicode="o" horiz-adv-x="679" d="M340 -19Q268 -19 213 4T120 66T63 156T43 260V281Q43 337 63 387T122 477T216 539T340 562Q409 562 464 540T557 478T616 388T636 281V260Q636 206 617 156T559 67T466 4T340 -19ZM340 100Q391 100 426 122T479 183T497
271Q497 321 479 359T425 420T340 443Q291 443 256 421T201 360T182 271Q182 222 200 184T254 123T340 100Z" />
<glyph unicode="p" horiz-adv-x="699" d="M79 -200V543H189V309L172 310Q176 393 206 449T288 532T402 560Q460 560 506 539T586 480T638 392T656 283V262Q656 203 639 153T588 64T507 4T402 -18Q341 -18 291 7T209 86T174 225L218 158V-200H79ZM367 99Q412 99
445 121T498 182T517 272Q517 324 498 362T446 421T367 443Q326 443 292 425T236 372T214 288V248Q214 201 236 168T293 117T367 99Z" />
<glyph unicode="q" horiz-adv-x="699" d="M481 -200V161L522 225Q519 147 490 93T412 10T299 -18Q241 -18 194 3T114 63T62 152T43 262V283Q43 341 62 391T115 479T197 538T304 560Q372 560 422 531T500 447T532 311H510V543H620V-200H481ZM335 101Q376 101 410
119T464 173T485 257V297Q485 345 464 377T409 427T335 445Q290 445 256 424T202 363T182 272Q182 221 202 183T256 123T335 101Z" />
<glyph unicode="r" horiz-adv-x="417" d="M79 0V543H189V313H186Q186 430 236 490T383 550H403V429H365Q295 429 257 392T218 283V0H79Z" />
<glyph unicode="s" horiz-adv-x="549" d="M276 -17Q164 -17 101 30T34 162H159Q162 134 190 111T278 88Q328 88 357 106T387 155Q387 182 365 198T288 219L240 224Q149 234 100 276T51 388Q51 444 79 482T156 539T270 559Q370 559 432 515T497 386H372Q370 414
344 434T269 454Q225 454 201 437T177 393Q177 367 196 353T260 334L308 329Q404 319 458 276T513 160Q513 106 484 67T401 5T276 -17Z" />
<glyph unicode="t" horiz-adv-x="431" d="M315 -7Q240 -7 192 12T119 78T95 204L96 696H226L225 195Q225 155 246 134T308 112H393V-7H315ZM9 441V543H393V441H9Z" />
<glyph unicode="u" horiz-adv-x="639" d="M264 -17Q170 -17 119 45T67 229V544H206V217Q206 167 234 138T310 108Q358 108 388 139T419 223V544H558V0H448V231H459Q459 149 438 94T375 11T270 -17H264Z" />
<glyph unicode="v" horiz-adv-x="584" d="M188 0L18 543H161L324 0H188ZM229 0V114H376V0H229ZM284 0L424 543H558L411 0H284Z" />
<glyph unicode="w" horiz-adv-x="897" d="M265 0L368 525H528L647 0H537L416 522H474L367 0H265ZM224 0L223 114H334V0H224ZM168 0L20 543H155L296 0H168ZM572 0V114H683L682 0H572ZM616 0L741 543H867L736 0H616Z" />
<glyph unicode="x" horiz-adv-x="587" d="M17 0L194 290L191 267L24 543H175L284 352H299L402 543H544L386 268L389 288L576 0H425L296 205H281L159 0H17Z" />
<glyph unicode="y" horiz-adv-x="562" d="M63 -214V-95H165Q194 -95 213 -88T246 -64T266 -18L412 543H545L384 -48Q368 -109 339 -145T265 -198T152 -214H63ZM232 12V122H348V12H232ZM185 12L9 543H149L316 12H185Z" />
<glyph unicode="z" horiz-adv-x="497" d="M44 0V110L312 432V416L291 444L308 436H43V543H457V433L189 111V126L211 98L194 107H468V0H44Z" />
<glyph unicode="{" horiz-adv-x="387" d="M324 -182Q232 -182 176 -135T120 11V175Q120 206 101 221T47 237V362Q82 362 101 377T120 424V583Q120 682 176 729T324 776H348V662H324Q288 662 270 642T252 584V423Q252 367 227 339T152 305V293Q202 288 227 261T252
175V10Q252 -28 270 -48T324 -68H348V-182H324Z" />
<glyph unicode="|" horiz-adv-x="375" d="M128 -200V730L247 731V-199L128 -200Z" />
<glyph unicode="}" horiz-adv-x="387" d="M63 -182Q155 -182 211 -135T267 11V175Q267 206 286 221T340 237V362Q305 362 286 377T267 424V583Q267 682 211 729T63 776H39V662H63Q99 662 117 642T135 584V423Q135 367 160 339T235 305V293Q185 288 160 261T135
175V10Q135 -28 117 -48T63 -68H39V-182H63Z" />
<glyph unicode="~" horiz-adv-x="527" d="M364 223Q328 223 300 236T249 267T204 298T161 312Q141 312 126 297T104 246L20 245Q23 304 44 342T98 400T164 419Q200 419 228 406T279 375T324 345T366 331Q387 331 402 346T423 397H507Q505 337 483 299T430 242T364 223Z" />
<glyph unicode="&#xa0;" horiz-adv-x="216" />
<glyph unicode="&#xa1;" horiz-adv-x="310" d="M84 306V-187H226V306H84ZM73 543V395H237V543H73Z" />
<glyph unicode="&#xa2;" horiz-adv-x="611" d="M318 97Q250 97 199 118T113 175T61 259T43 356V376Q43 428 61 475T113 559T199 616T318 637Q389 637 443 613T531 542T571 430H439Q434 470 402 495T317 521Q274 521 243 502T195 448T178 366Q178 320 194 286T241
232T317 213Q370 213 404 239T444 307H576Q571 243 537 196T447 123T318 97ZM261 0V146H377V0H261ZM261 579V725H377V579H261Z" />
<glyph unicode="&#xa3;" horiz-adv-x="632" d="M114 0V488Q114 610 187 675T391 740Q414 740 445 739T505 735T554 730V616Q535 619 505 621T443 624T390 626Q339 626 306 611T256 563T240 481V0H114ZM42 0V108H526V0H42ZM48 314V407H482V314H48ZM490 0V198H600V0H490Z" />
<glyph unicode="&#xa4;" horiz-adv-x="677" d="M339 138Q264 138 211 170T129 253T100 358V374Q100 430 128 480T210 562T339 594Q414 594 467 563T549 481T578 374V358Q578 304 550 254T468 171T339 138ZM115 75L35 156L143 264L223 183L115 75ZM143 468L35 576L115
657L223 549L143 468ZM339 246Q378 246 404 261T444 304T458 366Q458 403 444 430T403 471T339 486Q302 486 275 472T234 430T220 366Q220 331 233 304T274 262T339 246ZM562 75L454 183L534 264L642 156L562 75ZM534 468L454 549L562 657L642 576L534 468Z" />
<glyph unicode="&#xa5;" horiz-adv-x="652" d="M236 301L18 730H163L327 396L294 404H382L348 396L497 730H634L432 301H236ZM269 0V323H399V0H269ZM60 149V225H606V149H60ZM60 301V377H606V301H60Z" />
<glyph unicode="&#xa6;" horiz-adv-x="375" d="M128 335V730H247V335H128ZM128 -200V191H247V-200H128Z" />
<glyph unicode="&#xa7;" horiz-adv-x="593" d="M287 -93Q175 -93 112 -45T45 92H170Q173 61 201 37T288 12Q333 12 358 30T384 79Q384 102 366 117T318 143T253 165Q217 176 180 189T112 223T62 272T43 344Q43 393 65 429T124 488T203 519L302 469Q264 465 234
450T186 414T169 367Q169 338 189 320T242 290T312 265Q347 255 381 242T445 210T491 163T508 93Q508 8 450 -42T287 -93ZM365 168L298 236Q363 250 394 279T425 346Q425 373 406 390T355 419T286 443Q250 455 213 469T145 503T96 553T77 628Q77 678 103 716T177
778T286 801Q385 801 444 756T504 628H381Q380 659 357 677T287 696Q244 696 224 678T203 632Q203 607 221 591T270 564T337 543Q373 532 411 519T480 485T531 435T551 358Q551 310 530 274T468 211T365 168Z" />
<glyph unicode="&#xa8;" horiz-adv-x="300" d="M77 635Q37 635 19 657T0 711Q0 743 18 764T77 786Q118 786 136 765T154 711Q154 679 136 657T77 635ZM287 635Q247 635 229 657T210 711Q210 743 228 764T287 786Q328 786 346 765T364 711Q364 679 346 657T287 635Z" />
<glyph unicode="&#xa9;" horiz-adv-x="716" d="M358 111Q277 111 218 139T120 213T64 313T45 420V438Q45 492 64 546T121 646T218 718T358 745Q439 745 497 718T594 646T652 547T671 438V420Q671 368 653 314T597 213T500 139T358 111ZM358 165Q436 165 493 201T580
298T611 428Q611 501 581 560T493 655T358 691Q280 691 223 656T136 561T105 428Q105 358 135 298T223 202T358 165ZM362 242Q301 242 262 268T205 335T186 420V433Q186 480 205 521T264 587T362 613Q432 613 477 575T527 472H435Q432 498 415 515T363 532Q320
532 302 504T283 427Q283 397 291 373T316 336T363 323Q397 323 415 340T437 386H530Q526 320 479 281T362 242Z" />
<glyph unicode="&#xaa;" horiz-adv-x="428" d="M280 350V461H260V578Q260 602 249 615T211 628Q199 628 175 628T122 626T70 623V727Q87 729 110 730T157 732T199 733Q260 733 299 715T359 662T379 578V350H280ZM163 340Q105 340 68 372T30 461Q30 503 52 529T114
568T203 580H274V515H204Q180 515 167 503T153 469Q153 450 166 438T204 425Q219 425 231 431T251 451T260 489L289 461Q284 404 253 372T163 340Z" />
<glyph unicode="&#xab;" horiz-adv-x="614" d="M157 39L26 236V282L163 483H312L172 275V247L312 39H157ZM422 39L291 236V282L428 483H577L437 275V247L577 39H422Z" />
<glyph unicode="&#xac;" horiz-adv-x="622" d="M55 263V375H567V79H459V326L521 263H55Z" />
<glyph unicode="&#xad;" horiz-adv-x="432" d="M46 220V342H386V220H46Z" />
<glyph unicode="&#xae;" horiz-adv-x="678" d="M339 178Q269 178 216 202T126 267T72 357T54 455V471Q54 522 72 570T127 659T217 722T339 746Q408 746 461 723T550 659T605 571T624 471V455Q624 406 606 357T552 268T463 203T339 178ZM339 230Q408 230 459 261T539
345T568 462Q568 528 540 580T460 663T339 694Q270 694 219 664T139 581T110 462Q110 398 138 346T218 262T339 230ZM222 312V624H296V312H222ZM406 312L325 432H403L489 312H406ZM257 406V469H343Q371 469 383 481T396 515Q396 538 384 549T343 561H257V624H338Q401
624 436 596T471 515Q471 463 436 435T338 406H257Z" />
<glyph unicode="&#xaf;" horiz-adv-x="300" d="M0 654V752H319V654H0Z" />
<glyph unicode="&#xb0;" horiz-adv-x="406" d="M203 378Q150 378 110 402T46 466T23 555Q23 603 46 642T109 706T203 730Q257 730 297 706T360 643T383 555Q383 506 361 466T298 402T203 378ZM203 473Q240 473 261 497T282 555Q282 588 261 611T203 635Q166 635
145 612T124 555Q124 521 145 497T203 473Z" />
<glyph unicode="&#xb1;" horiz-adv-x="610" d="M68 40V147H542V40H68ZM248 206V656L363 657V207L248 206ZM68 378V485H542V378H68Z" />
<glyph unicode="&#xb2;" horiz-adv-x="380" d="M41 420V502Q41 540 62 566T132 613L197 639Q220 649 233 662T247 700Q247 722 232 736T189 750Q162 750 148 736T133 698H36Q36 756 75 795T189 834Q263 834 302 797T342 705V699Q342 654 318 623T233 568L169 541Q152
535 144 528T135 509V488L111 504H342V420H41Z" />
<glyph unicode="&#xb3;" horiz-adv-x="381" d="M187 409Q113 409 70 447T27 542H124Q124 520 141 506T187 492Q216 492 232 507T249 546Q249 569 233 584T187 599Q171 599 158 594T136 582L90 657L210 726L205 735H45V822H330V734L183 647L136 663Q148 667 162
668T188 670Q261 670 304 637T347 546V540Q347 484 304 447T187 409Z" />
<glyph unicode="&#xb4;" horiz-adv-x="300" d="M0 612L89 817H233L119 612H0Z" />
<glyph unicode="&#xb5;" horiz-adv-x="676" d="M67 -200V544H206V217Q206 167 234 138T310 108Q342 108 366 122T405 162T419 223V544H558V156Q558 138 567 129T595 119H646V0H588Q532 0 497 18T446 73T430 166L448 231H459Q459 149 438 94T376 11T279 -17H274Q240
-17 207 -1T152 45T128 117L168 125Q168 93 175 60T189 -9T197 -82V-200H67Z" />
<glyph unicode="&#xb6;" horiz-adv-x="639" d="M202 381Q103 381 56 428T9 552V563Q9 641 56 687T202 734H304V381H202ZM266 0V734H374V0H266ZM444 0V734H550V0H444Z" />
<glyph unicode="&#xb7;" horiz-adv-x="269" d="M57 200V360H213V200H57Z" />
<glyph unicode="&#xb8;" horiz-adv-x="300" d="M120 -261Q98 -261 78 -258T43 -250V-163Q57 -167 76 -170T115 -174Q145 -174 159 -166T173 -143Q173 -130 163 -123T127 -116H80V12H164V-86L112 -45H127Q191 -45 228 -70T266 -144Q266 -193 228 -227T120 -261Z" />
<glyph unicode="&#xb9;" horiz-adv-x="263" d="M107 420V753L132 734H27V822H207V420H107Z" />
<glyph unicode="&#xba;" horiz-adv-x="473" d="M237 336Q173 336 128 362T59 433T34 529V545Q34 600 59 644T129 714T237 740Q298 740 343 714T414 644T439 545V529Q439 477 415 433T346 363T237 336ZM237 441Q262 441 279 453T305 487T314 537Q314 565 305 587T279
622T237 635Q212 635 195 623T168 588T159 537Q159 509 168 488T194 454T237 441Z" />
<glyph unicode="&#xbb;" horiz-adv-x="614" d="M457 483L588 286V240L451 39H302L442 247V275L302 483H457ZM192 483L323 286V240L186 39H37L177 247V275L37 483H192Z" />
<glyph unicode="&#xbc;" horiz-adv-x="843" d="M107 255V588L132 569H27V657H207V255H107ZM135 -22L529 680H630L236 -22H135ZM465 72V175L624 422L701 375L567 164L575 152H823V72H465ZM683 0V291H776V0H683Z" />
<glyph unicode="&#xbd;" horiz-adv-x="866" d="M107 255V588L132 569H27V657H207V255H107ZM135 -22L529 680H630L236 -22H135ZM528 0V82Q528 120 549 146T619 193L684 219Q707 229 720 242T734 280Q734 302 719 316T676 330Q649 330 635 316T620 278H523Q523 336
562 375T676 414Q750 414 789 377T829 285V279Q829 234 805 203T720 148L656 121Q639 115 631 108T622 89V68L598 84H829V0H528Z" />
<glyph unicode="&#xbe;" horiz-adv-x="944" d="M187 244Q113 244 70 282T27 377H124Q124 355 141 341T187 327Q216 327 232 342T249 381Q249 404 233 419T187 434Q171 434 158 429T136 417L90 492L210 561L205 570H45V657H330V569L183 482L136 498Q148 502 162
503T188 505Q261 505 304 472T347 381V375Q347 319 304 282T187 244ZM236 -22L630 680H731L337 -22H236ZM566 72V175L725 422L802 375L668 164L676 152H924V72H566ZM784 0V291H877V0H784Z" />
<glyph unicode="&#xbf;" horiz-adv-x="559" d="M373 307V129H288Q228 129 200 98T171 20Q171 -13 184 -37T222 -75T280 -88Q316 -88 341 -73T381 -33T395 25H528Q528 -39 499 -92T414 -176T277 -208Q203 -208 150 -180T67 -102T38 9V21Q38 82 67 130T152 205T290
235L233 183L235 307H373ZM384 543V395H224V543H384Z" />
<glyph unicode="&#xc0;" horiz-adv-x="773" d="M18 0L267 730H499L755 0H609L392 633L443 611H318L370 633L160 0H18ZM192 194L237 314H533L577 194H192ZM318 786L183 960H337L451 786H318Z" />
<glyph unicode="&#xc1;" horiz-adv-x="773" d="M18 0L267 730H499L755 0H609L392 633L443 611H318L370 633L160 0H18ZM192 194L237 314H533L577 194H192ZM306 786L432 960H584L437 786H306Z" />
<glyph unicode="&#xc2;" horiz-adv-x="773" d="M18 0L267 730H499L755 0H609L392 633L443 611H318L370 633L160 0H18ZM192 194L237 314H533L577 194H192ZM173 786L302 960H467L598 786H471L392 893H375L298 786H173Z" />
<glyph unicode="&#xc3;" horiz-adv-x="773" d="M18 0L267 730H499L755 0H609L392 633L443 611H318L370 633L160 0H18ZM192 194L237 314H533L577 194H192ZM470 795Q440 795 419 802T381 820T345 838T303 846Q273 846 250 835T213 805L191 898Q207 919 235 933T304
948Q334 948 355 940T393 922T429 905T471 897Q501 897 524 908T561 937L583 844Q567 824 539 810T470 795Z" />
<glyph unicode="&#xc4;" horiz-adv-x="773" d="M18 0L267 730H499L755 0H609L392 633L443 611H318L370 633L160 0H18ZM192 194L237 314H533L577 194H192ZM272 801Q233 801 213 822T192 877Q192 910 212 931T272 952Q314 952 333 931T353 876Q353 843 334 822T272
801ZM492 801Q453 801 433 822T412 877Q412 910 432 931T492 952Q534 952 553 931T573 876Q573 843 554 822T492 801Z" />
<glyph unicode="&#xc5;" horiz-adv-x="773" d="M18 0L267 730H499L755 0H609L392 633L443 611H318L370 633L160 0H18ZM192 194L237 314H533L577 194H192ZM383 764Q325 764 291 795T256 875Q256 923 290 954T383 986Q440 986 474 955T509 875Q509 827 475 796T383
764ZM382 830Q407 830 420 843T433 875Q433 895 420 908T383 921Q359 921 346 908T332 875Q332 856 345 843T382 830Z" />
<glyph unicode="&#xc6;" horiz-adv-x="979" d="M2 0L291 730H496V611H343L394 633L144 0H2ZM198 213L244 334H496V213H198ZM475 0V730H613V0H475ZM592 0V120H923V0H592ZM592 311V431H898V311H592ZM592 610V730H915V610H592Z" />
<glyph unicode="&#xc7;" horiz-adv-x="799" d="M419 -19Q320 -19 249 16T134 107T68 229T47 356V378Q47 446 68 512T135 632T249 718T414 751Q513 751 586 716T704 616T757 465H614Q606 515 579 549T509 601T414 619Q360 619 318 601T248 548T206 468T191 366Q191
312 205 266T249 186T320 132T419 113Q501 113 557 153T626 267H769Q759 189 716 124T598 20T419 -19ZM413 -267Q390 -267 368 -264T332 -255V-164Q347 -169 367 -172T409 -176Q440 -176 455 -168T471 -145Q471 -132 459 -126T421 -119H372V12H462V-86L407 -45H421Q487
-45 526 -70T566 -146Q566 -196 527 -231T413 -267Z" />
<glyph unicode="&#xc8;" horiz-adv-x="596" d="M90 0V730H229V0H90ZM209 0V120H540V0H209ZM209 311V431H514V311H209ZM209 610V730H532V610H209ZM249 786L114 960H268L382 786H249Z" />
<glyph unicode="&#xc9;" horiz-adv-x="596" d="M90 0V730H229V0H90ZM209 0V120H540V0H209ZM209 311V431H514V311H209ZM209 610V730H532V610H209ZM237 786L363 960H515L368 786H237Z" />
<glyph unicode="&#xca;" horiz-adv-x="596" d="M90 0V730H229V0H90ZM209 0V120H540V0H209ZM209 311V431H514V311H209ZM209 610V730H532V610H209ZM104 786L233 960H398L529 786H402L323 893H306L229 786H104Z" />
<glyph unicode="&#xcb;" horiz-adv-x="596" d="M90 0V730H229V0H90ZM209 0V120H540V0H209ZM209 311V431H514V311H209ZM209 610V730H532V610H209ZM203 801Q164 801 144 822T123 877Q123 910 143 931T203 952Q245 952 264 931T284 876Q284 843 265 822T203 801ZM423
801Q384 801 364 822T343 877Q343 910 363 931T423 952Q465 952 484 931T504 876Q504 843 485 822T423 801Z" />
<glyph unicode="&#xcc;" horiz-adv-x="326" d="M92 0V730H234V0H92ZM354 786L219 960H373L487 786H354Z" />
<glyph unicode="&#xcd;" horiz-adv-x="326" d="M92 0V730H234V0H92ZM87 786L213 960H365L218 786H87Z" />
<glyph unicode="&#xce;" horiz-adv-x="326" d="M92 0V730H234V0H92ZM209 786L338 960H503L634 786H507L428 893H411L334 786H209Z" />
<glyph unicode="&#xcf;" horiz-adv-x="326" d="M92 0V730H234V0H92ZM309 801Q270 801 250 822T229 877Q229 910 249 931T309 952Q351 952 370 931T390 876Q390 843 371 822T309 801ZM529 801Q490 801 470 822T449 877Q449 910 469 931T529 952Q571 952 590 931T610
876Q610 843 591 822T529 801Z" />
<glyph unicode="&#xd0;" horiz-adv-x="785" d="M212 -4V128H363Q420 128 464 145T540 195T587 270T604 367Q604 422 588 465T540 540T465 587T363 603H212V735H354Q453 735 527 706T650 627T723 512T748 378V356Q748 290 724 226T650 110T527 27T354 -4H212ZM90
-4V735H232V-4H90ZM17 307V423H397V307H17Z" />
<glyph unicode="&#xd1;" horiz-adv-x="867" d="M90 0V730H323L630 118H663L643 100V730H777V0H543L236 612H202L222 630V0H90ZM536 795Q506 795 485 802T447 820T411 838T369 846Q339 846 316 835T279 805L257 898Q273 919 301 933T370 948Q400 948 421 940T459
922T495 905T537 897Q567 897 590 908T627 937L649 844Q633 824 605 810T536 795Z" />
<glyph unicode="&#xd2;" horiz-adv-x="865" d="M433 -19Q334 -19 262 16T142 107T71 229T47 356V378Q47 445 71 511T143 632T264 718T433 751Q529 751 601 719T721 632T794 512T818 378V356Q818 295 795 230T724 108T604 16T433 -19ZM433 113Q489 113 533 133T609
188T657 269T674 366Q674 421 658 467T610 547T533 600T433 619Q377 619 332 600T256 547T208 467T191 366Q191 315 207 270T255 189T332 133T433 113ZM368 786L233 960H387L501 786H368Z" />
<glyph unicode="&#xd3;" horiz-adv-x="865" d="M433 -19Q334 -19 262 16T142 107T71 229T47 356V378Q47 445 71 511T143 632T264 718T433 751Q529 751 601 719T721 632T794 512T818 378V356Q818 295 795 230T724 108T604 16T433 -19ZM433 113Q489 113 533 133T609
188T657 269T674 366Q674 421 658 467T610 547T533 600T433 619Q377 619 332 600T256 547T208 467T191 366Q191 315 207 270T255 189T332 133T433 113ZM356 786L482 960H634L487 786H356Z" />
<glyph unicode="&#xd4;" horiz-adv-x="865" d="M433 -19Q334 -19 262 16T142 107T71 229T47 356V378Q47 445 71 511T143 632T264 718T433 751Q529 751 601 719T721 632T794 512T818 378V356Q818 295 795 230T724 108T604 16T433 -19ZM433 113Q489 113 533 133T609
188T657 269T674 366Q674 421 658 467T610 547T533 600T433 619Q377 619 332 600T256 547T208 467T191 366Q191 315 207 270T255 189T332 133T433 113ZM223 786L352 960H517L648 786H521L442 893H425L348 786H223Z" />
<glyph unicode="&#xd5;" horiz-adv-x="865" d="M433 -19Q334 -19 262 16T142 107T71 229T47 356V378Q47 445 71 511T143 632T264 718T433 751Q529 751 601 719T721 632T794 512T818 378V356Q818 295 795 230T724 108T604 16T433 -19ZM433 113Q489 113 533 133T609
188T657 269T674 366Q674 421 658 467T610 547T533 600T433 619Q377 619 332 600T256 547T208 467T191 366Q191 315 207 270T255 189T332 133T433 113ZM520 795Q490 795 469 802T431 820T395 838T353 846Q323 846 300 835T263 805L241 898Q257 919 285 933T354
948Q384 948 405 940T443 922T479 905T521 897Q551 897 574 908T611 937L633 844Q617 824 589 810T520 795Z" />
<glyph unicode="&#xd6;" horiz-adv-x="865" d="M433 -19Q334 -19 262 16T142 107T71 229T47 356V378Q47 445 71 511T143 632T264 718T433 751Q529 751 601 719T721 632T794 512T818 378V356Q818 295 795 230T724 108T604 16T433 -19ZM433 113Q489 113 533 133T609
188T657 269T674 366Q674 421 658 467T610 547T533 600T433 619Q377 619 332 600T256 547T208 467T191 366Q191 315 207 270T255 189T332 133T433 113ZM322 801Q283 801 263 822T242 877Q242 910 262 931T322 952Q364 952 383 931T403 876Q403 843 384 822T322
801ZM542 801Q503 801 483 822T462 877Q462 910 482 931T542 952Q584 952 603 931T623 876Q623 843 604 822T542 801Z" />
<glyph unicode="&#xd7;" horiz-adv-x="594" d="M460 101L541 182L134 588L53 507L460 101ZM130 101L541 511L464 588L53 178L130 101Z" />
<glyph unicode="&#xd8;" horiz-adv-x="865" d="M88 -61L660 781H776L204 -61H88ZM433 -19Q334 -19 262 16T142 107T71 229T47 356V378Q47 445 71 511T143 632T264 718T433 751Q529 751 601 719T721 632T794 512T818 378V356Q818 295 795 230T724 108T604 16T433
-19ZM433 113Q489 113 533 133T609 188T657 269T674 366Q674 421 658 467T610 547T533 600T433 619Q377 619 332 600T256 547T208 467T191 366Q191 315 207 270T255 189T332 133T433 113Z" />
<glyph unicode="&#xd9;" horiz-adv-x="780" d="M391 -19Q289 -19 219 20T113 129T76 295V730H218V287Q218 235 238 196T296 135T391 113Q446 113 484 134T542 195T562 287V730H704V295Q704 200 669 130T563 20T391 -19ZM326 786L191 960H345L459 786H326Z" />
<glyph unicode="&#xda;" horiz-adv-x="780" d="M391 -19Q289 -19 219 20T113 129T76 295V730H218V287Q218 235 238 196T296 135T391 113Q446 113 484 134T542 195T562 287V730H704V295Q704 200 669 130T563 20T391 -19ZM314 786L440 960H592L445 786H314Z" />
<glyph unicode="&#xdb;" horiz-adv-x="780" d="M391 -19Q289 -19 219 20T113 129T76 295V730H218V287Q218 235 238 196T296 135T391 113Q446 113 484 134T542 195T562 287V730H704V295Q704 200 669 130T563 20T391 -19ZM181 786L310 960H475L606 786H479L400 893H383L306
786H181Z" />
<glyph unicode="&#xdc;" horiz-adv-x="780" d="M391 -19Q289 -19 219 20T113 129T76 295V730H218V287Q218 235 238 196T296 135T391 113Q446 113 484 134T542 195T562 287V730H704V295Q704 200 669 130T563 20T391 -19ZM280 801Q241 801 221 822T200 877Q200 910
220 931T280 952Q322 952 341 931T361 876Q361 843 342 822T280 801ZM500 801Q461 801 441 822T420 877Q420 910 440 931T500 952Q542 952 561 931T581 876Q581 843 562 822T500 801Z" />
<glyph unicode="&#xdd;" horiz-adv-x="655" d="M230 279L10 730H156L324 377L292 387H387L353 377L506 730H644L441 279H230ZM266 0V301H405V0H266ZM252 786L378 960H530L383 786H252Z" />
<glyph unicode="&#xde;" horiz-adv-x="642" d="M212 122V246H345Q387 246 415 261T457 305T471 371Q471 410 457 438T415 481T345 497H212V620H336Q425 620 487 591T582 507T615 379V364Q615 291 583 237T488 152T336 122H212ZM90 0V730H232V0H90Z" />
<glyph unicode="&#xdf;" horiz-adv-x="658" d="M377 -13Q351 -13 326 -10T281 -2V112Q300 108 324 105T367 101Q424 101 454 131T485 212Q485 247 470 275T424 321T347 338H305V442H333Q363 442 382 455T411 489T421 535Q421 562 411 584T379 619T328 632Q296
632 273 617T238 574T225 508V0H86V498Q86 616 149 681T326 746H330Q401 746 452 720T532 647T560 544Q560 494 538 456T472 396T362 374L365 412Q449 412 507 386T594 313T624 202Q624 133 592 85T504 12T377 -13ZM26 420V524H116V420H26Z" />
<glyph unicode="&#xe0;" horiz-adv-x="588" d="M408 0V161H385V340Q385 387 362 410T291 433Q266 433 231 432T161 430T97 426V544Q120 546 149 548T208 550T266 551Q350 551 405 529T489 460T518 337V0H408ZM233 -14Q174 -14 130 7T61 67T36 161Q36 221 65 259T148
316T274 335H400V252H272Q224 252 199 229T173 168Q173 131 198 108T272 85Q301 85 325 95T366 131T385 201L419 162Q414 105 392 66T330 7T233 -14ZM231 612L119 817H267L354 612H231Z" />
<glyph unicode="&#xe1;" horiz-adv-x="588" d="M408 0V161H385V340Q385 387 362 410T291 433Q266 433 231 432T161 430T97 426V544Q120 546 149 548T208 550T266 551Q350 551 405 529T489 460T518 337V0H408ZM233 -14Q174 -14 130 7T61 67T36 161Q36 221 65 259T148
316T274 335H400V252H272Q224 252 199 229T173 168Q173 131 198 108T272 85Q301 85 325 95T366 131T385 201L419 162Q414 105 392 66T330 7T233 -14ZM218 612L307 817H451L337 612H218Z" />
<glyph unicode="&#xe2;" horiz-adv-x="588" d="M408 0V161H385V340Q385 387 362 410T291 433Q266 433 231 432T161 430T97 426V544Q120 546 149 548T208 550T266 551Q350 551 405 529T489 460T518 337V0H408ZM233 -14Q174 -14 130 7T61 67T36 161Q36 221 65 259T148
316T274 335H400V252H272Q224 252 199 229T173 168Q173 131 198 108T272 85Q301 85 325 95T366 131T385 201L419 162Q414 105 392 66T330 7T233 -14ZM99 612L205 817H371L476 612H360L292 751H281L213 612H99Z" />
<glyph unicode="&#xe3;" horiz-adv-x="588" d="M408 0V161H385V340Q385 387 362 410T291 433Q266 433 231 432T161 430T97 426V544Q120 546 149 548T208 550T266 551Q350 551 405 529T489 460T518 337V0H408ZM233 -14Q174 -14 130 7T61 67T36 161Q36 221 65 259T148
316T274 335H400V252H272Q224 252 199 229T173 168Q173 131 198 108T272 85Q301 85 325 95T366 131T385 201L419 162Q414 105 392 66T330 7T233 -14ZM362 630Q334 630 315 637T280 655T248 673T210 681Q185 681 166 671T132 644L111 738Q128 756 152 769T211 783Q240
783 259 775T294 757T326 740T364 732Q389 732 408 742T442 769L463 675Q447 656 422 643T362 630Z" />
<glyph unicode="&#xe4;" horiz-adv-x="588" d="M408 0V161H385V340Q385 387 362 410T291 433Q266 433 231 432T161 430T97 426V544Q120 546 149 548T208 550T266 551Q350 551 405 529T489 460T518 337V0H408ZM233 -14Q174 -14 130 7T61 67T36 161Q36 221 65 259T148
316T274 335H400V252H272Q224 252 199 229T173 168Q173 131 198 108T272 85Q301 85 325 95T366 131T385 201L419 162Q414 105 392 66T330 7T233 -14ZM182 635Q142 635 124 657T105 711Q105 743 123 764T182 786Q223 786 241 765T259 711Q259 679 241 657T182 635ZM392
635Q352 635 334 657T315 711Q315 743 333 764T392 786Q433 786 451 765T469 711Q469 679 451 657T392 635Z" />
<glyph unicode="&#xe5;" horiz-adv-x="588" d="M408 0V161H385V340Q385 387 362 410T291 433Q266 433 231 432T161 430T97 426V544Q120 546 149 548T208 550T266 551Q350 551 405 529T489 460T518 337V0H408ZM233 -14Q174 -14 130 7T61 67T36 161Q36 221 65 259T148
316T274 335H400V252H272Q224 252 199 229T173 168Q173 131 198 108T272 85Q301 85 325 95T366 131T385 201L419 162Q414 105 392 66T330 7T233 -14ZM287 602Q232 602 198 635T164 720Q164 772 198 805T287 839Q341 839 375 806T409 720Q409 669 375 636T287 602ZM287
670Q309 670 322 684T336 720Q336 742 323 756T287 770Q264 770 251 756T238 720Q238 699 251 685T287 670Z" />
<glyph unicode="&#xe6;" horiz-adv-x="957" d="M660 -19Q606 -19 564 -4T492 36T442 93T411 163H450Q445 105 417 66T342 6T236 -14Q176 -14 131 6T61 66T36 161Q36 220 65 258T148 315T274 334H400V251H272Q224 251 199 228T173 167Q173 130 198 108T272 85Q301
85 326 96T367 132T385 203V340Q385 386 362 409T292 433Q267 433 232 432T161 430T97 426V544Q120 546 149 547T208 550T265 551Q347 551 398 529T473 460T498 340H409Q419 400 448 450T528 530T655 560Q742 560 800 522T889 421T920 287V238H497V321H832L790
281Q790 333 775 369T729 425T653 444Q607 444 575 423T527 363T511 270Q511 219 526 180T575 119T659 97Q709 97 741 117T782 166H910Q899 111 865 69T778 4T660 -19Z" />
<glyph unicode="&#xe7;" horiz-adv-x="610" d="M320 -19Q249 -19 198 5T112 69T60 159T43 261V280Q43 335 60 385T113 475T199 538T319 562Q390 562 446 535T535 458T573 344H438Q433 386 403 414T319 442Q273 442 243 420T197 360T182 271Q182 223 196 184T241
123T320 101Q356 101 382 114T423 150T443 202H578Q574 136 540 87T449 9T320 -19ZM315 -261Q293 -261 273 -258T238 -250V-163Q252 -167 271 -170T310 -174Q340 -174 354 -166T368 -143Q368 -130 358 -123T322 -116H275V12H359V-86L307 -45H322Q386 -45 423 -70T461
-144Q461 -193 423 -227T315 -261Z" />
<glyph unicode="&#xe8;" horiz-adv-x="620" d="M322 -19Q252 -19 200 5T113 69T61 160T43 262V281Q43 335 60 385T112 475T198 538T316 562Q404 562 463 524T553 423T583 288V238H102V323H496L453 281Q453 333 438 370T393 427T316 447Q270 447 238 426T190 366T173
271Q173 220 189 181T238 119T322 96Q373 96 405 116T446 167H574Q562 111 528 69T442 4T322 -19ZM261 612L149 817H297L384 612H261Z" />
<glyph unicode="&#xe9;" horiz-adv-x="620" d="M322 -19Q252 -19 200 5T113 69T61 160T43 262V281Q43 335 60 385T112 475T198 538T316 562Q404 562 463 524T553 423T583 288V238H102V323H496L453 281Q453 333 438 370T393 427T316 447Q270 447 238 426T190 366T173
271Q173 220 189 181T238 119T322 96Q373 96 405 116T446 167H574Q562 111 528 69T442 4T322 -19ZM247 612L336 817H480L366 612H247Z" />
<glyph unicode="&#xea;" horiz-adv-x="620" d="M322 -19Q252 -19 200 5T113 69T61 160T43 262V281Q43 335 60 385T112 475T198 538T316 562Q404 562 463 524T553 423T583 288V238H102V323H496L453 281Q453 333 438 370T393 427T316 447Q270 447 238 426T190 366T173
271Q173 220 189 181T238 119T322 96Q373 96 405 116T446 167H574Q562 111 528 69T442 4T322 -19ZM128 612L234 817H400L505 612H389L321 751H310L242 612H128Z" />
<glyph unicode="&#xeb;" horiz-adv-x="620" d="M322 -19Q252 -19 200 5T113 69T61 160T43 262V281Q43 335 60 385T112 475T198 538T316 562Q404 562 463 524T553 423T583 288V238H102V323H496L453 281Q453 333 438 370T393 427T316 447Q270 447 238 426T190 366T173
271Q173 220 189 181T238 119T322 96Q373 96 405 116T446 167H574Q562 111 528 69T442 4T322 -19ZM211 635Q171 635 153 657T134 711Q134 743 152 764T211 786Q252 786 270 765T288 711Q288 679 270 657T211 635ZM421 635Q381 635 363 657T344 711Q344 743 362
764T421 786Q462 786 480 765T498 711Q498 679 480 657T421 635Z" />
<glyph unicode="&#xec;" horiz-adv-x="325" d="M105 0V543H244V0H105ZM29 439V543H244V439H29ZM347 612L235 817H383L470 612H347Z" />
<glyph unicode="&#xed;" horiz-adv-x="325" d="M105 0V543H244V0H105ZM29 439V543H244V439H29ZM78 612L167 817H311L197 612H78Z" />
<glyph unicode="&#xee;" horiz-adv-x="325" d="M105 0V543H244V0H105ZM29 439V543H244V439H29ZM215 612L321 817H487L592 612H476L408 751H397L329 612H215Z" />
<glyph unicode="&#xef;" horiz-adv-x="325" d="M105 0V543H244V0H105ZM29 439V543H244V439H29ZM298 635Q258 635 240 657T221 711Q221 743 239 764T298 786Q339 786 357 765T375 711Q375 679 357 657T298 635ZM508 635Q468 635 450 657T431 711Q431 743 449 764T508
786Q549 786 567 765T585 711Q585 679 567 657T508 635Z" />
<glyph unicode="&#xf0;" horiz-adv-x="665" d="M334 -19Q262 -19 208 2T117 60T62 144T43 242V260Q43 332 75 389T167 478T304 511Q363 511 408 492T482 439T517 357H506Q505 458 486 518T430 605Q408 621 376 629T299 637Q268 637 237 635T176 627V733Q207 738
237 740T299 743Q413 743 484 698T587 564T620 340V314Q620 214 589 139T495 23T334 -19ZM334 100Q383 100 417 118T468 171T486 251Q486 299 468 333T415 386T333 404Q286 404 252 386T200 334T182 251Q182 205 199 171T251 119T334 100ZM375 519L326 572L556
783L604 730L375 519Z" />
<glyph unicode="&#xf1;" horiz-adv-x="648" d="M79 0V543H189V310H179Q179 393 201 448T266 532T375 560H381Q478 560 528 498T578 311V0H439V323Q439 373 411 404T332 435Q281 435 250 404T218 319V0H79ZM407 630Q379 630 360 637T325 655T293 673T255 681Q230
681 211 671T177 644L156 738Q173 756 197 769T256 783Q285 783 304 775T339 757T371 740T409 732Q434 732 453 742T487 769L508 675Q492 656 467 643T407 630Z" />
<glyph unicode="&#xf2;" horiz-adv-x="679" d="M340 -19Q268 -19 213 4T120 66T63 156T43 260V281Q43 337 63 387T122 477T216 539T340 562Q409 562 464 540T557 478T616 388T636 281V260Q636 206 617 156T559 67T466 4T340 -19ZM340 100Q391 100 426 122T479
183T497 271Q497 321 479 359T425 420T340 443Q291 443 256 421T201 360T182 271Q182 222 200 184T254 123T340 100ZM284 612L172 817H320L407 612H284Z" />
<glyph unicode="&#xf3;" horiz-adv-x="679" d="M340 -19Q268 -19 213 4T120 66T63 156T43 260V281Q43 337 63 387T122 477T216 539T340 562Q409 562 464 540T557 478T616 388T636 281V260Q636 206 617 156T559 67T466 4T340 -19ZM340 100Q391 100 426 122T479
183T497 271Q497 321 479 359T425 420T340 443Q291 443 256 421T201 360T182 271Q182 222 200 184T254 123T340 100ZM271 612L360 817H504L390 612H271Z" />
<glyph unicode="&#xf4;" horiz-adv-x="679" d="M340 -19Q268 -19 213 4T120 66T63 156T43 260V281Q43 337 63 387T122 477T216 539T340 562Q409 562 464 540T557 478T616 388T636 281V260Q636 206 617 156T559 67T466 4T340 -19ZM340 100Q391 100 426 122T479
183T497 271Q497 321 479 359T425 420T340 443Q291 443 256 421T201 360T182 271Q182 222 200 184T254 123T340 100ZM152 612L258 817H424L529 612H413L345 751H334L266 612H152Z" />
<glyph unicode="&#xf5;" horiz-adv-x="679" d="M340 -19Q268 -19 213 4T120 66T63 156T43 260V281Q43 337 63 387T122 477T216 539T340 562Q409 562 464 540T557 478T616 388T636 281V260Q636 206 617 156T559 67T466 4T340 -19ZM340 100Q391 100 426 122T479
183T497 271Q497 321 479 359T425 420T340 443Q291 443 256 421T201 360T182 271Q182 222 200 184T254 123T340 100ZM415 630Q387 630 368 637T333 655T301 673T263 681Q238 681 219 671T185 644L164 738Q181 756 205 769T264 783Q293 783 312 775T347 757T379
740T417 732Q442 732 461 742T495 769L516 675Q500 656 475 643T415 630Z" />
<glyph unicode="&#xf6;" horiz-adv-x="679" d="M340 -19Q268 -19 213 4T120 66T63 156T43 260V281Q43 337 63 387T122 477T216 539T340 562Q409 562 464 540T557 478T616 388T636 281V260Q636 206 617 156T559 67T466 4T340 -19ZM340 100Q391 100 426 122T479
183T497 271Q497 321 479 359T425 420T340 443Q291 443 256 421T201 360T182 271Q182 222 200 184T254 123T340 100ZM235 635Q195 635 177 657T158 711Q158 743 176 764T235 786Q276 786 294 765T312 711Q312 679 294 657T235 635ZM445 635Q405 635 387 657T368
711Q368 743 386 764T445 786Q486 786 504 765T522 711Q522 679 504 657T445 635Z" />
<glyph unicode="&#xf7;" horiz-adv-x="594" d="M55 288V400H539V288H55ZM230 69V204H364V69H230ZM230 484V619H364V484H230Z" />
<glyph unicode="&#xf8;" horiz-adv-x="679" d="M71 -59L514 593H607L164 -59H71ZM340 -19Q268 -19 213 4T120 66T63 156T43 260V281Q43 337 63 387T122 477T216 539T340 562Q409 562 464 540T557 478T616 388T636 281V260Q636 206 617 156T559 67T466 4T340 -19ZM340
100Q391 100 426 122T479 183T497 271Q497 321 479 359T425 420T340 443Q291 443 256 421T201 360T182 271Q182 222 200 184T254 123T340 100Z" />
<glyph unicode="&#xf9;" horiz-adv-x="639" d="M264 -17Q170 -17 119 45T67 229V544H206V217Q206 167 234 138T310 108Q358 108 388 139T419 223V544H558V0H448V231H459Q459 149 438 94T375 11T270 -17H264ZM257 612L145 817H293L380 612H257Z" />
<glyph unicode="&#xfa;" horiz-adv-x="639" d="M264 -17Q170 -17 119 45T67 229V544H206V217Q206 167 234 138T310 108Q358 108 388 139T419 223V544H558V0H448V231H459Q459 149 438 94T375 11T270 -17H264ZM244 612L333 817H477L363 612H244Z" />
<glyph unicode="&#xfb;" horiz-adv-x="639" d="M264 -17Q170 -17 119 45T67 229V544H206V217Q206 167 234 138T310 108Q358 108 388 139T419 223V544H558V0H448V231H459Q459 149 438 94T375 11T270 -17H264ZM125 612L231 817H397L502 612H386L318 751H307L239 612H125Z" />
<glyph unicode="&#xfc;" horiz-adv-x="639" d="M264 -17Q170 -17 119 45T67 229V544H206V217Q206 167 234 138T310 108Q358 108 388 139T419 223V544H558V0H448V231H459Q459 149 438 94T375 11T270 -17H264ZM208 635Q168 635 150 657T131 711Q131 743 149 764T208
786Q249 786 267 765T285 711Q285 679 267 657T208 635ZM418 635Q378 635 360 657T341 711Q341 743 359 764T418 786Q459 786 477 765T495 711Q495 679 477 657T418 635Z" />
<glyph unicode="&#xfd;" horiz-adv-x="562" d="M63 -214V-95H165Q194 -95 213 -88T246 -64T266 -18L412 543H545L384 -48Q368 -109 339 -145T265 -198T152 -214H63ZM232 12V122H348V12H232ZM185 12L9 543H149L316 12H185ZM213 612L302 817H446L332 612H213Z" />
<glyph unicode="&#xfe;" horiz-adv-x="699" d="M79 -200V730H218V349L189 325Q193 400 222 452T300 532T413 559Q469 559 513 539T590 482T639 394T656 282V260Q656 200 639 150T588 62T508 4T403 -17Q341 -17 291 8T209 86T174 225L218 158V-200H79ZM367 100Q412
100 445 122T498 184T517 273Q517 325 498 362T446 421T367 442Q326 442 292 424T236 372T214 288V248Q214 201 236 168T293 118T367 100Z" />
<glyph unicode="&#xff;" horiz-adv-x="562" d="M63 -214V-95H165Q194 -95 213 -88T246 -64T266 -18L412 543H545L384 -48Q368 -109 339 -145T265 -198T152 -214H63ZM232 12V122H348V12H232ZM185 12L9 543H149L316 12H185ZM177 635Q137 635 119 657T100 711Q100
743 118 764T177 786Q218 786 236 765T254 711Q254 679 236 657T177 635ZM387 635Q347 635 329 657T310 711Q310 743 328 764T387 786Q428 786 446 765T464 711Q464 679 446 657T387 635Z" />
<glyph unicode="&#x2013;" horiz-adv-x="521" d="M18 227V336H503V227H18Z" />
<glyph unicode="&#x2014;" horiz-adv-x="909" d="M18 227V336H891V227H18Z" />
<glyph unicode="&#x2018;" horiz-adv-x="261" d="M219 740V662H195Q166 662 149 653T124 623T116 565V491L87 547Q94 552 107 555T134 559Q167 559 189 539T211 482Q211 448 190 425T130 401Q105 401 84 412T49 452T36 531V548Q36 619 55 661T112 721T202 740H219Z" />
<glyph unicode="&#x2019;" horiz-adv-x="261" d="M42 401V479H66Q95 479 112 488T137 518T145 576V650L174 594Q167 589 154 586T127 582Q94 582 72 602T50 659Q50 693 71 716T131 740Q156 740 177 729T212 689T225 610V593Q225 522 206 480T149 420T59 401H42Z" />
<glyph unicode="&#x201a;" horiz-adv-x="261" d="M42 -192V-114H66Q95 -114 112 -105T137 -75T145 -17V57L174 1Q167 -4 154 -7T127 -11Q94 -11 72 9T50 66Q50 100 71 123T131 147Q156 147 177 136T212 96T225 17V0Q225 -71 206 -113T149 -173T59 -192H42Z" />
<glyph unicode="&#x201c;" horiz-adv-x="482" d="M440 740V662H416Q387 662 370 653T345 623T337 565V491L308 547Q315 552 328 555T355 559Q388 559 410 539T432 482Q432 448 411 425T351 401Q326 401 305 412T270 452T257 531V548Q257 619 276 661T333 721T423
740H440ZM219 740V662H195Q166 662 149 653T124 623T116 565V491L87 547Q94 552 107 555T134 559Q167 559 189 539T211 482Q211 448 190 425T130 401Q105 401 84 412T49 452T36 531V548Q36 619 55 661T112 721T202 740H219Z" />
<glyph unicode="&#x201d;" horiz-adv-x="482" d="M42 401V479H66Q95 479 112 488T137 518T145 576V650L174 594Q167 589 154 586T127 582Q94 582 72 602T50 659Q50 693 71 716T131 740Q156 740 177 729T212 689T225 610V593Q225 522 206 480T149 420T59 401H42ZM263
401V479H287Q316 479 333 488T358 518T366 576V650L395 594Q388 589 375 586T348 582Q315 582 293 602T271 659Q271 693 292 716T352 740Q377 740 398 729T433 689T446 610V593Q446 522 427 480T370 420T280 401H263Z" />
<glyph unicode="&#x201e;" horiz-adv-x="482" d="M42 -192V-114H66Q95 -114 112 -105T137 -75T145 -17V57L174 1Q167 -4 154 -7T127 -11Q94 -11 72 9T50 66Q50 100 71 123T131 147Q156 147 177 136T212 96T225 17V0Q225 -71 206 -113T149 -173T59 -192H42ZM263
-192V-114H287Q316 -114 333 -105T358 -75T366 -17V57L395 1Q388 -4 375 -7T348 -11Q315 -11 293 9T271 66Q271 100 292 123T352 147Q377 147 398 136T433 96T446 17V0Q446 -71 427 -113T370 -173T280 -192H263Z" />
<glyph unicode="&#x2022;" horiz-adv-x="434" d="M87 153V424H347V153H87Z" />
<glyph unicode="&#x2039;" horiz-adv-x="349" d="M157 39L26 236V282L163 483H312L172 275V247L312 39H157Z" />
<glyph unicode="&#x203a;" horiz-adv-x="349" d="M192 483L323 286V240L186 39H37L177 247V275L37 483H192Z" />
</font>
</defs>
</svg>
