<svg width="262" height="113" viewBox="0 0 262 113" fill="none" xmlns="http://www.w3.org/2000/svg">
<path fill-rule="evenodd" clip-rule="evenodd" d="M111.984 65.3304H116.141L111.306 77.9701H115.947L120.779 65.3304L122.437 60.9973L123.819 57.3862H130.622L128.997 53.0484H125.476L131.66 36.8761L126.366 22.5538L126.355 22.5235L125.058 19.0146L102.512 77.9692H107.149L111.984 65.3304ZM115.023 57.3862L116.681 53.0484L124.985 31.3279L127.029 36.8524L120.835 53.0484L119.178 57.3824L117.794 60.9973H113.639L115.023 57.3862Z" fill="black"/>
<path fill-rule="evenodd" clip-rule="evenodd" d="M133.98 55.6446L134.625 57.3858L135.96 60.9968H126.838L125.213 65.3299H137.561L142.232 77.9697H146.851L142.18 65.3299L140.576 60.9968L139.242 57.3858H143.46L144.795 60.9968L146.396 65.3299L151.068 77.9697H155.692L151.022 65.3299L149.42 60.9968L148.086 57.3858L146.484 53.0517L133.831 19L131.516 25.0705L141.858 53.0517H137.641L131.662 36.8794L129.315 43.0218L133.98 55.6446Z" fill="black"/>
<path d="M103.411 92.2576V93.765H95V91.2791C94.9991 90.9431 95.0687 90.6108 95.2044 90.3034C95.3868 89.867 95.6905 89.4919 96.0794 89.2226C96.4683 88.9533 96.9261 88.801 97.3989 88.7837H101.052C101.304 88.7615 101.538 88.6428 101.705 88.4523C101.872 88.2619 101.959 88.0143 101.949 87.7612C101.938 87.508 101.83 87.2688 101.647 87.0934C101.464 86.9179 101.221 86.8197 100.967 86.8192H95.0237V85.3174H100.967C101.294 85.317 101.617 85.381 101.918 85.5057C102.22 85.6304 102.494 85.8134 102.724 86.0442C102.955 86.2749 103.138 86.5489 103.262 86.8505C103.387 87.152 103.451 87.4752 103.45 87.8014C103.449 88.4469 103.193 89.0658 102.739 89.5246C102.29 89.9875 101.68 90.2587 101.036 90.2817H97.3989C97.1574 90.3067 96.9337 90.4204 96.7712 90.6008C96.6086 90.7812 96.5187 91.0154 96.5188 91.2583V92.2348L103.411 92.2576Z" fill="black"/>
<path d="M112.793 93.7389H111.106L110.335 92.2324L108.489 88.6157L106.645 92.2324L105.871 93.7389H104.186L104.958 92.2324L108.489 85.3008L112.022 92.2334L112.793 93.7389Z" fill="black"/>
<path d="M116.108 89.5198C116.109 90.2389 116.395 90.9283 116.903 91.4368C117.412 91.9454 118.101 92.2316 118.82 92.2329H123.039V93.7384H118.82C118.26 93.7468 117.705 93.6439 117.186 93.4356C116.667 93.2273 116.194 92.9179 115.795 92.5253C115.397 92.1327 115.08 91.6647 114.864 91.1487C114.648 90.6327 114.537 90.0788 114.537 89.5194C114.537 88.9599 114.648 88.4061 114.864 87.89C115.08 87.374 115.397 86.906 115.795 86.5134C116.194 86.1208 116.667 85.8114 117.186 85.6031C117.705 85.3948 118.26 85.2919 118.82 85.3003H123.039V86.8068H118.82C118.101 86.808 117.412 87.0943 116.903 87.6029C116.395 88.1114 116.109 88.8008 116.108 89.5198Z" fill="black"/>
<path d="M131.057 92.2462L131.829 93.7527H130.141L129.37 92.2462L128.562 90.6668L128.526 90.594C128.393 90.3736 128.206 90.1912 127.982 90.0646C127.758 89.9379 127.505 89.8712 127.247 89.871H125.743V93.7508H124.234V85.3174H129.562C129.86 85.3167 130.155 85.3749 130.43 85.4886C130.705 85.6022 130.955 85.7692 131.166 85.9798C131.59 86.4109 131.827 86.9908 131.828 87.5951C131.828 88.0311 131.704 88.458 131.469 88.8253C131.234 89.1927 130.899 89.4852 130.504 89.6685C130.298 89.7653 130.078 89.8264 129.853 89.8492L131.057 92.2462ZM129.562 88.3664C129.671 88.367 129.778 88.3424 129.876 88.2945C130.012 88.2349 130.128 88.1371 130.209 88.0129C130.291 87.8887 130.334 87.7436 130.334 87.5951C130.333 87.3875 130.251 87.1885 130.105 87.0406C130.034 86.9703 129.949 86.9149 129.855 86.8777C129.762 86.8405 129.662 86.8222 129.562 86.8239H125.743V88.3787L129.562 88.3664Z" fill="black"/>
<path d="M132.035 93.7386H132.06L132.035 93.7632V93.7386ZM140.474 85.2881L137.208 89.519L137.027 89.748V93.7225H135.519V89.7735L135.315 89.5199L132.047 85.289H133.952L136.267 88.2907L138.582 85.289L140.474 85.2881ZM140.462 93.7386H140.474V93.7632L140.462 93.7386Z" fill="black"/>
<path d="M148.154 85.9888C148.365 86.1991 148.532 86.449 148.646 86.7241C148.759 86.9992 148.818 87.2941 148.817 87.5918C148.817 88.0278 148.692 88.4546 148.457 88.822C148.222 89.1894 147.887 89.4819 147.492 89.6652C147.287 89.7619 147.067 89.823 146.841 89.8459H146.768V89.8592H142.73V93.739H141.223V85.3018H146.539C146.838 85.3004 147.134 85.3583 147.41 85.472C147.686 85.5857 147.937 85.753 148.148 85.9642L148.154 85.9888ZM146.865 88.2911C147.001 88.2311 147.116 88.1325 147.197 88.0077C147.278 87.8828 147.321 87.7369 147.321 87.588C147.32 87.3803 147.238 87.1811 147.092 87.0335C147.02 86.9633 146.935 86.908 146.842 86.8708C146.749 86.8336 146.65 86.8152 146.549 86.8168H142.73V88.3716H146.551C146.66 88.3722 146.767 88.3476 146.865 88.2997V88.2911Z" fill="black"/>
<path d="M158.436 85.3174V86.8248H154.976V93.7565H153.469V86.8211H150.01V85.3174H158.436Z" fill="black"/>
<path d="M166.998 89.5204C166.998 90.355 166.751 91.1709 166.287 91.8649C165.824 92.5589 165.165 93.0999 164.394 93.4194C163.623 93.7389 162.774 93.8226 161.956 93.6599C161.137 93.4972 160.385 93.0954 159.795 92.5053C159.205 91.9152 158.803 91.1634 158.64 90.3449C158.477 89.5263 158.56 88.6779 158.88 87.9068C159.199 87.1357 159.74 86.4766 160.434 86.0129C161.128 85.5493 161.944 85.3018 162.778 85.3018C163.897 85.303 164.969 85.7478 165.76 86.5387C166.551 87.3295 166.996 88.4018 166.998 89.5204ZM165.49 89.5204C165.49 88.984 165.331 88.4597 165.033 88.0139C164.735 87.568 164.311 87.2205 163.815 87.0154C163.32 86.8103 162.775 86.7567 162.248 86.8614C161.722 86.9662 161.239 87.2246 160.86 87.6039C160.481 87.9832 160.223 88.4665 160.118 88.9926C160.014 89.5186 160.067 90.0639 160.273 90.5594C160.478 91.0549 160.826 91.4784 161.271 91.7764C161.717 92.0744 162.242 92.2334 162.778 92.2334C163.497 92.2322 164.186 91.9459 164.695 91.4373C165.203 90.9287 165.489 90.2393 165.489 89.5204H165.49Z" fill="black"/>
</svg>
