<svg width="262" height="113" viewBox="0 0 262 113" fill="none" xmlns="http://www.w3.org/2000/svg">
<path d="M121.33 55.9581V53.9026H123.913V66.481H121.33V64.3816C120.891 65.1204 120.311 65.6926 119.584 66.0985C118.858 66.5043 118.044 66.7087 117.139 66.7087C116.264 66.7087 115.455 66.554 114.714 66.2445C113.973 65.935 113.341 65.4912 112.811 64.913C112.281 64.3349 111.874 63.64 111.587 62.8342C111.3 62.0283 111.156 61.1524 111.156 60.2034C111.156 59.2545 111.297 58.3786 111.575 57.5727C111.853 56.7669 112.257 56.0749 112.787 55.4938C113.315 54.9157 113.953 54.4661 114.703 54.1507C115.449 53.8354 116.269 53.6777 117.16 53.6777C118.065 53.6777 118.882 53.8763 119.605 54.2763C120.334 54.6763 120.908 55.2369 121.33 55.9581ZM113.856 60.183C113.856 60.6356 113.909 61.1057 114.014 61.5933C114.12 62.0838 114.313 62.5393 114.591 62.9597C114.87 63.3802 115.256 63.7422 115.745 64.043C116.234 64.3437 116.843 64.4955 117.57 64.4955C118.296 64.4955 118.931 64.3262 119.485 63.9875C120.035 63.6488 120.486 63.1553 120.832 62.5071C121.178 61.859 121.353 61.0852 121.353 60.1801C121.353 59.2925 121.18 58.5246 120.832 57.8764C120.483 57.2282 120.035 56.7347 119.485 56.396C118.934 56.0574 118.296 55.888 117.57 55.888C117.148 55.888 116.712 55.961 116.266 56.1041C115.821 56.2471 115.42 56.4953 115.066 56.8486C114.711 57.2019 114.422 57.6574 114.193 58.2151C113.971 58.7757 113.856 59.4297 113.856 60.183Z" fill="black"/>
<path d="M128.893 66.4806V49.251H131.496V66.4806H128.893Z" fill="black"/>
<path d="M139.065 64.4284V71.5643H136.482V53.9055H139.065V56.0048C139.502 55.2661 140.084 54.6938 140.811 54.288C141.534 53.8821 142.351 53.6777 143.256 53.6777C144.132 53.6777 144.94 53.8325 145.681 54.1391C146.422 54.4486 147.054 54.8924 147.584 55.4705C148.111 56.0515 148.521 56.7435 148.808 57.5494C149.095 58.3552 149.239 59.2312 149.239 60.1801C149.239 61.129 149.098 62.0049 148.82 62.8108C148.542 63.6167 148.138 64.3086 147.608 64.8897C147.078 65.4707 146.442 65.9174 145.692 66.2328C144.946 66.5481 144.126 66.7058 143.235 66.7058C142.331 66.7058 141.516 66.5072 140.802 66.1072C140.082 65.7101 139.502 65.1495 139.065 64.4284ZM146.539 60.2034C146.539 59.7509 146.486 59.2808 146.381 58.7932C146.275 58.3056 146.082 57.8472 145.804 57.4267C145.523 57.0063 145.139 56.6442 144.65 56.3435C144.158 56.0428 143.552 55.8909 142.826 55.8909C142.404 55.8909 141.967 55.9668 141.522 56.1158C141.077 56.2676 140.673 56.5187 140.31 56.872C139.947 57.2253 139.648 57.6808 139.417 58.2384C139.182 58.7961 139.065 59.4501 139.065 60.2034C139.065 60.6239 139.121 61.0765 139.235 61.5582C139.349 62.04 139.549 62.4984 139.836 62.9364C140.123 63.3743 140.515 63.7422 141.013 64.043C141.511 64.3437 142.114 64.4955 142.826 64.4955C143.247 64.4955 143.684 64.4254 144.129 64.2795C144.574 64.1364 144.975 63.8882 145.329 63.5349C145.684 63.1816 145.974 62.7261 146.202 62.1685C146.428 61.6137 146.539 60.9567 146.539 60.2034Z" fill="black"/>
<path d="M153.424 66.4806V49.251H156.007V55.8234C156.385 55.146 156.912 54.6205 157.591 54.2438C158.27 53.8671 159.017 53.6803 159.834 53.6803C160.47 53.6803 161.073 53.7971 161.647 54.0307C162.221 54.2642 162.722 54.6029 163.152 55.0467C163.583 55.4905 163.919 56.0511 164.16 56.7285C164.4 57.4059 164.523 58.1592 164.523 58.9855V66.4835H161.94V59.3914C161.94 58.276 161.676 57.4205 161.146 56.8161C160.619 56.2147 159.893 55.9139 158.973 55.9139C158.068 55.9139 157.345 56.2147 156.809 56.8161C156.273 57.4176 156.004 58.276 156.004 59.3914V66.4835H153.424V66.4806Z" fill="black"/>
<path d="M178.879 55.9581V53.9026H181.462V66.481H178.879V64.3816C178.439 65.1204 177.86 65.6926 177.133 66.0985C176.407 66.5043 175.593 66.7087 174.688 66.7087C173.812 66.7087 173.004 66.554 172.263 66.2445C171.522 65.935 170.89 65.4912 170.36 64.913C169.83 64.3349 169.423 63.64 169.136 62.8342C168.849 62.0283 168.705 61.1524 168.705 60.2034C168.705 59.2545 168.846 58.3786 169.124 57.5727C169.402 56.7669 169.806 56.0749 170.336 55.4938C170.863 54.9157 171.502 54.4661 172.251 54.1507C172.998 53.8354 173.818 53.6777 174.708 53.6777C175.613 53.6777 176.43 53.8763 177.154 54.2763C177.877 54.6763 178.457 55.2369 178.879 55.9581ZM171.405 60.183C171.405 60.6356 171.458 61.1057 171.563 61.5933C171.669 62.0838 171.862 62.5393 172.14 62.9597C172.418 63.3802 172.805 63.7422 173.294 64.043C173.783 64.3437 174.392 64.4955 175.118 64.4955C175.845 64.4955 176.48 64.3262 177.034 63.9875C177.584 63.6488 178.035 63.1553 178.381 62.5071C178.726 61.859 178.902 61.0852 178.902 60.1801C178.902 59.2925 178.729 58.5246 178.381 57.8764C178.032 57.2282 177.584 56.7347 177.034 56.396C176.483 56.0574 175.845 55.888 175.118 55.888C174.697 55.888 174.26 55.961 173.815 56.1041C173.37 56.2471 172.969 56.4953 172.615 56.8486C172.26 57.2019 171.97 57.6574 171.742 58.2151C171.519 58.7757 171.405 59.4297 171.405 60.183Z" fill="black"/>
<path d="M189.028 56.0044C189.465 55.2657 190.047 54.6934 190.774 54.2876C191.497 53.8817 192.314 53.6774 193.219 53.6774C194.109 53.6774 194.926 53.835 195.664 54.1504C196.402 54.4657 197.038 54.9095 197.568 55.4818C198.095 56.0541 198.499 56.7431 198.78 57.549C199.058 58.3548 199.199 59.2308 199.199 60.1797C199.199 61.1286 199.055 62.0046 198.768 62.8104C198.481 63.6163 198.074 64.3083 197.544 64.8893C197.014 65.4704 196.379 65.9171 195.629 66.2324C194.882 66.5478 194.068 66.7054 193.195 66.7054C192.291 66.7054 191.476 66.5069 190.762 66.1069C190.044 65.7069 189.468 65.1463 189.028 64.4251V66.4806H186.445V49.251H189.028V56.0044ZM196.502 60.1826C196.502 59.5812 196.42 59.0147 196.253 58.4892C196.086 57.9636 195.846 57.5081 195.527 57.1227C195.21 56.7373 194.818 56.4366 194.349 56.2205C193.881 56.0015 193.359 55.8935 192.785 55.8935C192.364 55.8935 191.927 55.9665 191.482 56.1095C191.037 56.2526 190.613 56.5271 190.214 56.9329C189.813 57.3388 189.517 57.8351 189.321 58.422C189.125 59.0089 189.028 59.5958 189.028 60.1826C189.028 60.6206 189.084 61.079 189.198 61.5608C189.312 62.0425 189.529 62.5272 189.854 63.0177C190.179 63.5083 190.604 63.8762 191.134 64.1243C191.661 64.3725 192.214 64.4981 192.788 64.4981C193.228 64.4981 193.664 64.428 194.103 64.282C194.543 64.1389 194.938 63.8937 195.292 63.5491C195.647 63.2017 195.937 62.7462 196.165 62.1827C196.393 61.6192 196.502 60.9505 196.502 60.1826Z" fill="black"/>
<path d="M204.7 52.481C204.247 52.481 203.86 52.3204 203.535 51.9963C203.21 51.6722 203.049 51.2839 203.049 50.8343C203.049 50.3846 203.21 49.9963 203.535 49.6722C203.86 49.3481 204.25 49.1875 204.7 49.1875C205.154 49.1875 205.538 49.3481 205.857 49.6722C206.174 49.9963 206.332 50.3846 206.332 50.8343C206.332 51.2839 206.174 51.6752 205.857 51.9963C205.538 52.3204 205.154 52.481 204.7 52.481ZM203.386 66.4814V53.9059H205.969V66.4843H203.386V66.4814Z" fill="black"/>
<path d="M211.293 63.2507V55.9805H209.709V53.9016H211.293V50.8066H213.876V53.9016H216.98V55.9805H213.876V62.9354C213.876 63.4639 213.99 63.8464 214.216 64.0858C214.441 64.3281 214.813 64.4479 215.326 64.4479C215.584 64.4479 215.871 64.4099 216.187 64.334C216.503 64.2581 216.775 64.1617 217.001 64.042V66.2085C216.351 66.5384 215.598 66.7048 214.737 66.7048C213.604 66.7048 212.749 66.4158 212.166 65.8347C211.583 65.2596 211.293 64.3953 211.293 63.2507Z" fill="black"/>
<path d="M77.4713 59.4751L82.5991 54.3626L78.9063 50.6807L73.7785 55.7933L69.4649 51.4924C69.0168 51.0282 68.5746 50.5698 68.1295 50.1084C66.1938 48.0967 63.8832 46.7011 61.1421 46.1434C55.7362 45.0426 51.0447 46.4441 47.4603 50.634C44.0603 54.6049 43.0793 59.2065 44.9564 64.1759C48.5643 73.7236 60.4188 76.3543 67.7927 69.2622C69.705 67.4227 71.5207 65.4752 73.6438 63.2912L73.7756 63.1599L78.9034 68.2724L79.9547 67.2242C79.9576 67.2271 79.9606 67.23 79.9664 67.2359C80.3003 66.8913 80.5287 66.6607 80.6985 66.4826L82.5991 64.5876L77.4713 59.4751ZM51.6714 65.2241C48.6492 61.9306 48.7312 56.786 51.853 53.6355C55.0743 50.3887 60.2197 50.123 63.6138 53.1713C65.8131 55.148 67.8308 57.3174 69.951 59.4196C68.598 60.7948 67.33 62.1905 66.0327 63.5161L65.1981 64.3482L65.201 64.3511C64.5802 64.9614 63.9476 65.5541 63.2916 66.1176C59.88 69.0374 54.6936 68.5177 51.6714 65.2241Z" fill="black"/>
<path d="M102.706 54.9004C100.003 47.7469 92.6728 44.4767 86.0632 46.2666V35.3203H80.6191V49.1017L84.435 52.9061C87.8466 50.0418 92.9861 50.5762 95.9907 53.8492C99.0129 57.1457 98.9309 62.2903 95.8092 65.4408C92.7782 68.4949 88.0487 68.9124 84.6722 66.4101L80.8681 70.2029C82.5051 71.5519 84.3822 72.4949 86.52 72.93C91.926 74.0308 96.6174 72.6293 100.202 68.4394C103.602 64.4685 104.583 59.8698 102.706 54.9004Z" fill="black"/>
</svg>
