<svg width="262" height="113" viewBox="0 0 262 113" fill="none" xmlns="http://www.w3.org/2000/svg">
<path d="M47.7497 36.7305L42.1797 43.2305L45.8897 41.4905L47.7497 36.7305Z" fill="#FFCAC3"/>
<path d="M42.1797 43.2302L47.9797 45.9002L45.8897 41.4902L42.1797 43.2302Z" fill="#F26670"/>
<path d="M42.1797 43.2305L42.7397 52.4605L47.9797 45.9005L42.1797 43.2305Z" fill="#F75268"/>
<path d="M47.9802 45.9004V49.8104L42.7402 52.4604L47.9802 45.9004Z" fill="#FFCAC3"/>
<path d="M47.9805 45.9004L56.3505 51.2204L47.9805 49.8104V45.9004Z" fill="#FF9DA4"/>
<path d="M56.3505 48.7104V51.2204L47.9805 45.9004L56.3505 48.7104Z" fill="#F26670"/>
<path d="M42.7402 52.4605L48.1402 53.6305L47.9802 49.8105L42.7402 52.4605Z" fill="#F26670"/>
<path d="M56.3505 51.2205L48.1405 53.6305L47.9805 49.8105L56.3505 51.2205Z" fill="#F75268"/>
<path d="M45.9802 60.4109L48.1402 53.6309L42.7402 52.4609L45.9802 60.4109Z" fill="#F75268"/>
<path d="M56.3506 51.2207L50.6606 57.6707L48.1406 53.6307L56.3506 51.2207Z" fill="#FF9DA4"/>
<path d="M45.9805 60.4109L50.6605 57.6709L48.1405 53.6309L45.9805 60.4109Z" fill="#FFCAC3"/>
<path d="M56.3496 48.7109L64.2696 53.1309L56.3496 51.2209V48.7109Z" fill="#ED4768"/>
<path d="M62.0896 55.7707L64.2696 53.1307L56.3496 51.2207L62.0896 55.7707Z" fill="#F66776"/>
<path d="M60.6996 57.4607L62.0896 55.7707L56.3496 51.2207L60.6996 57.4607Z" fill="#444446"/>
<path d="M50.6602 57.6707L60.7002 57.4607L56.3502 51.2207L50.6602 57.6707Z" fill="#ED4768"/>
<path d="M50.4905 64.2109L50.6605 57.6709L45.9805 60.4109L50.4905 64.2109Z" fill="#F26670"/>
<path d="M57.1002 65.5609L50.6602 57.6709L50.4902 64.2109L57.1002 65.5609Z" fill="#F66776"/>
<path d="M60.7002 57.4609L57.1002 65.5609L50.6602 57.6709L60.7002 57.4609Z" fill="#F75268"/>
<path d="M62.0898 55.7705L67.4898 56.0405L65.2698 58.1405L62.0898 55.7705Z" fill="#444446"/>
<path d="M65.2692 58.1405L62.7092 60.4105L60.6992 57.4605L62.0892 55.7705L65.2692 58.1405Z" fill="#444446"/>
<path d="M60.6996 57.4609L62.7096 60.4109L57.0996 65.5609L60.6996 57.4609Z" fill="#444446"/>
<path d="M67.779 60.0806L65.269 58.1406L62.709 60.4106L65.269 64.2106L67.779 60.0806Z" fill="#584345"/>
<path d="M67.4895 56.04L67.7795 60.08L65.2695 58.14L67.4895 56.04Z" fill="#444446"/>
<path d="M57.0996 65.5602L65.2696 64.2102L62.7096 60.4102L57.0996 65.5602Z" fill="#ED4768"/>
<path d="M56.9702 71.9509L57.1002 65.5609L50.4902 64.2109L56.9702 71.9509Z" fill="#F75268"/>
<path d="M63.4387 67.6606L57.0987 65.5605L56.9688 71.9505L63.4387 67.6606Z" fill="#FFCAC3"/>
<path d="M65.2696 64.2109L63.4396 67.6609L57.0996 65.5609L65.2696 64.2109Z" fill="#FF9DA4"/>
<path d="M61.2987 76.2701L63.4387 67.6602L56.9688 71.9501L61.2987 76.2701Z" fill="#F26670"/>
<path d="M65.5988 74.2302L61.2988 76.2701L63.4388 67.6602L65.5988 74.2302Z" fill="#F66776"/>
<path d="M68.1395 68.5802L65.5995 74.2302L63.4395 67.6602L68.1395 68.5802Z" fill="#F75268"/>
<path d="M65.2695 64.2109L68.1395 68.5809L63.4395 67.6609L65.2695 64.2109Z" fill="#ED4768"/>
<path d="M72.9195 66.5609L65.2695 64.2109L68.1395 68.5809L72.9195 66.5609Z" fill="#9B3E42"/>
<path d="M67.7795 60.0801L72.9195 66.5601L65.2695 64.2101L67.7795 60.0801Z" fill="#7B4144"/>
<path d="M72.9206 75.2101L68.1406 68.5801L72.9206 70.4901V75.2101Z" fill="#444446"/>
<path d="M72.9206 66.5605V70.4905L68.1406 68.5806L72.9206 66.5605Z" fill="#584345"/>
<path d="M67.4902 56.04L72.9202 60.08H67.7802L67.4902 56.04Z" fill="#584345"/>
<path d="M64.2698 53.1302L68.0098 52.2002L67.4898 56.0402L62.0898 55.7702L64.2698 53.1302Z" fill="#584345"/>
<path d="M68.8895 47.4805L64.2695 53.1305L68.0095 52.2005L68.8895 47.4805Z" fill="#7B4144"/>
<path d="M72.9202 50.9209L67.4902 56.0409L68.0102 52.2009L72.9202 50.9209Z" fill="#7B4144"/>
<path d="M68.8898 47.4805L72.9198 50.9205L68.0098 52.2005L68.8898 47.4805Z" fill="#9B3E42"/>
<path d="M72.9206 46.2705L68.8906 47.4805L72.9206 50.9205V46.2705Z" fill="#BB3A3E"/>
<path d="M72.9206 42.6807V46.2707L68.8906 47.4807L72.9206 42.6807Z" fill="#DD3539"/>
<path d="M72.9202 56.13V60.08L67.4902 56.04L72.9202 56.13Z" fill="#7B4144"/>
<path d="M98.0996 36.7305L103.67 43.2305L99.9496 41.4905L98.0996 36.7305Z" fill="#1CF9E5"/>
<path d="M103.669 43.2302L97.8691 45.9002L99.9491 41.4902L103.669 43.2302Z" fill="#1DABE3"/>
<path d="M103.669 43.2305L103.109 52.4605L97.8691 45.9005L103.669 43.2305Z" fill="#1687D1"/>
<path d="M97.8691 45.9004V49.8104L103.109 52.4604L97.8691 45.9004Z" fill="#1CF9E5"/>
<path d="M97.8702 45.9004L89.4902 51.2204L97.8702 49.8104V45.9004Z" fill="#26D5F6"/>
<path d="M89.4902 48.7104V51.2204L97.8702 45.9004L89.4902 48.7104Z" fill="#1DABE3"/>
<path d="M103.109 52.4605L97.6992 53.6305L97.8692 49.8105L103.109 52.4605Z" fill="#1DABE3"/>
<path d="M89.4902 51.2205L97.7002 53.6305L97.8702 49.8105L89.4902 51.2205Z" fill="#1687D1"/>
<path d="M99.8592 60.4109L97.6992 53.6309L103.109 52.4609L99.8592 60.4109Z" fill="#1687D1"/>
<path d="M89.4902 51.2207L95.1902 57.6707L97.7002 53.6307L89.4902 51.2207Z" fill="#26D5F6"/>
<path d="M99.8595 60.4109L95.1895 57.6709L97.6994 53.6309L99.8595 60.4109Z" fill="#1CF9E5"/>
<path d="M89.4903 48.7109L81.5703 53.1309L89.4903 51.2209V48.7109Z" fill="#2648A2"/>
<path d="M83.7503 55.7707L81.5703 53.1307L89.4903 51.2207L83.7503 55.7707Z" fill="#186EB7"/>
<path d="M85.15 57.4607L83.75 55.7707L89.49 51.2207L85.15 57.4607Z" fill="#1A1C1A"/>
<path d="M95.1904 57.6707L85.1504 57.4607L89.4904 51.2207L95.1904 57.6707Z" fill="#2648A2"/>
<path d="M95.3494 64.2109L95.1895 57.6709L99.8595 60.4109L95.3494 64.2109Z" fill="#1DABE3"/>
<path d="M88.7402 65.5609L95.1902 57.6709L95.3502 64.2109L88.7402 65.5609Z" fill="#1687D1"/>
<path d="M85.1504 57.4609L88.7404 65.5609L95.1904 57.6709L85.1504 57.4609Z" fill="#186EB7"/>
<path d="M83.7496 55.7705L78.3496 56.0405L80.5696 58.1405L83.7496 55.7705Z" fill="#1A1C1A"/>
<path d="M78.3505 56.04L78.0605 60.08L80.5705 58.14L78.3505 56.04Z" fill="#1A1C1A"/>
<path d="M85.1489 57.4609L83.1289 60.4109L88.7389 65.5609L85.1489 57.4609Z" fill="#1A1C1A"/>
<path d="M80.5703 58.1405L83.1303 60.4105L85.1503 57.4605L83.7503 55.7705L80.5703 58.1405Z" fill="#1A1C1A"/>
<path d="M78.0605 60.0806L80.5705 58.1406L83.1305 60.4106L80.5705 64.2106L78.0605 60.0806Z" fill="#27322E"/>
<path d="M88.7403 65.5602L80.5703 64.2102L83.1303 60.4102L88.7403 65.5602Z" fill="#2648A2"/>
<path d="M88.8702 71.9509L88.7402 65.5609L95.3502 64.2109L88.8702 71.9509Z" fill="#1687D1"/>
<path d="M82.4004 67.6606L88.7404 65.5605L88.8704 71.9505L82.4004 67.6606Z" fill="#1CF9E5"/>
<path d="M80.5703 64.2109L82.4003 67.6609L88.7403 65.5609L80.5703 64.2109Z" fill="#26D5F6"/>
<path d="M84.5404 76.2701L82.4004 67.6602L88.8704 71.9501L84.5404 76.2701Z" fill="#1DABE3"/>
<path d="M80.2402 74.2302L84.5402 76.2701L82.4002 67.6602L80.2402 74.2302Z" fill="#1687D1"/>
<path d="M77.709 68.5802L80.239 74.2302L82.399 67.6602L77.709 68.5802Z" fill="#186EB7"/>
<path d="M80.569 64.2109L77.709 68.5809L82.399 67.6609L80.569 64.2109Z" fill="#2648A2"/>
<path d="M72.9297 66.5609L80.5697 64.2109L77.7097 68.5809L72.9297 66.5609Z" fill="#3F4753"/>
<path d="M78.0597 60.0801L72.9297 66.5601L80.5697 64.2101L78.0597 60.0801Z" fill="#354045"/>
<path d="M72.9297 75.2101L77.7097 68.5801L72.9297 70.4901V75.2101Z" fill="#1D2620"/>
<path d="M72.9297 66.5605V70.4905L77.7097 68.5806L72.9297 66.5605Z" fill="#27322E"/>
<path d="M78.3497 56.04L72.9297 60.08H78.0597L78.3497 56.04Z" fill="#27322E"/>
<path d="M81.5701 53.1302L77.8301 52.2002L78.3501 56.0402L83.7501 55.7702L81.5701 53.1302Z" fill="#1D2620"/>
<path d="M76.959 47.4805L81.569 53.1305L77.829 52.2005L76.959 47.4805Z" fill="#27322E"/>
<path d="M72.9297 50.9209L78.3497 56.0409L77.8297 52.2009L72.9297 50.9209Z" fill="#27322E"/>
<path d="M76.9597 47.4805L72.9297 50.9205L77.8297 52.2005L76.9597 47.4805Z" fill="#354045"/>
<path d="M72.9297 46.2705L76.9597 47.4805L72.9297 50.9205V46.2705Z" fill="#3F4753"/>
<path d="M72.9297 42.6807V46.2707L76.9597 47.4807L72.9297 42.6807Z" fill="#868279"/>
<path d="M72.9297 56.13V60.08L78.3497 56.04L72.9297 56.13Z" fill="#354045"/>
<path d="M120.179 43.0801V55.4701L115.619 52.2001L120.179 43.0801Z" fill="#1CF9E5"/>
<path d="M109.24 64.9602L120.18 55.4702L115.62 52.2002L109.24 64.9602Z" fill="#26D5F6"/>
<path d="M109.24 64.9597L113.89 70.4497L120.18 55.4697L109.24 64.9597Z" fill="#1687D1"/>
<path d="M112.16 74.57L109.24 64.96L113.89 70.45L112.16 74.57Z" fill="#186EB7"/>
<path d="M104.43 74.57H112.16L109.24 64.96L104.43 74.57Z" fill="#2648A2"/>
<path d="M113.99 70.21H120.18L116.19 64.96L113.99 70.21Z" fill="#1DABE3"/>
<path d="M120.179 70.21V64.96H116.189L120.179 70.21Z" fill="#26D5F6"/>
<path d="M120.18 43.0801V55.4701L124.74 52.2001L120.18 43.0801Z" fill="#1CF9E5"/>
<path d="M131.12 64.9602L120.18 55.4702L124.74 52.2002L131.12 64.9602Z" fill="#26D5F6"/>
<path d="M131.12 64.9597L126.47 70.4497L120.18 55.4697L131.12 64.9597Z" fill="#1687D1"/>
<path d="M128.199 74.57L131.119 64.96L126.469 70.45L128.199 74.57Z" fill="#186EB7"/>
<path d="M135.929 74.57H128.199L131.119 64.96L135.929 74.57Z" fill="#2648A2"/>
<path d="M126.37 70.21H120.18L124.16 64.96L126.37 70.21Z" fill="#1DABE3"/>
<path d="M120.18 70.21V64.96H124.16L120.18 70.21Z" fill="#26D5F6"/>
<path d="M138.489 44.0801L136.409 56.4301L130.709 44.0801H138.489Z" fill="#FFCAC3"/>
<path d="M142.398 53.3301L136.408 56.4301L138.488 44.0801L142.398 53.3301Z" fill="#FF9DA4"/>
<path d="M145.618 60.9401L136.408 56.4301L142.398 53.3301L145.618 60.9401Z" fill="#F26670"/>
<path d="M141.298 67.0397L145.618 60.9397L136.408 56.4297L141.298 67.0397Z" fill="#F66776"/>
<path d="M145.619 67.0404H141.299L145.619 60.9404V67.0404Z" fill="#F75268"/>
<path d="M145.619 75.72H145.309L141.299 67.04H145.619V75.72Z" fill="#ED4768"/>
<path d="M152.76 44.0801L154.84 56.4301L160.54 44.0801H152.76Z" fill="#FFCAC3"/>
<path d="M148.85 53.3301L154.84 56.4301L152.76 44.0801L148.85 53.3301Z" fill="#FF9DA4"/>
<path d="M145.619 60.9401L154.839 56.4301L148.849 53.3301L145.619 60.9401Z" fill="#F26670"/>
<path d="M149.949 67.0397L145.619 60.9397L154.839 56.4297L149.949 67.0397Z" fill="#F66776"/>
<path d="M145.619 67.0404H149.949L145.619 60.9404V67.0404Z" fill="#F75268"/>
<path d="M145.619 75.72H145.939L149.949 67.04H145.619V75.72Z" fill="#ED4768"/>
<path d="M189.219 44.5205H174.039V48.3005H189.219V44.5205Z" fill="black"/>
<path d="M183.758 62.045V47.625H179.498V62.045H183.758Z" fill="black"/>
<path d="M209.768 62.0427V44.5127H205.648V62.0427H209.768Z" fill="black"/>
<path d="M214.89 62.0408L209.98 54.8408H214.68L219.82 62.0408H214.89Z" fill="black"/>
<path d="M217.65 49.8805C217.65 51.3605 217.05 52.7005 216.08 53.6705C215.11 54.6405 213.77 55.2405 212.29 55.2405H209.77V52.4705H211.53C212.16 52.4705 212.73 52.2205 213.14 51.8005C213.55 51.3905 213.81 50.8205 213.81 50.1905C213.81 48.9305 212.79 47.9105 211.53 47.9105H209.77V44.5205H212.29C215.25 44.5205 217.65 46.9205 217.65 49.8805Z" fill="black"/>
<path d="M197.14 47.3201L195.52 44.0801L193.9 47.3201L186.52 62.0401H190.92L191.98 59.5301H199.07L200.13 62.0401H204.53L197.14 47.3201ZM193.3 56.4001L195.52 51.1601L197.74 56.4001H193.3Z" fill="black"/>
<path d="M171.689 44.8103V49.1003C169.049 47.3203 166.409 47.0303 165.739 48.0803C164.299 50.9603 173.089 51.2903 173.089 56.8003C173.089 63.3603 166.479 63.2103 162.149 61.7403L161.769 57.0103C164.629 58.5503 168.799 59.9003 168.979 57.1403C168.859 54.1503 161.629 54.8403 161.629 48.3103C161.629 45.9503 164.699 42.5403 171.689 44.8103Z" fill="black"/>
<path d="M172.71 67.04H171.31L166.4 75.51H167.81L172.71 67.04Z" fill="black"/>
<path d="M171.379 67.04H172.779L177.689 75.51H176.289L171.379 67.04Z" fill="black"/>
<path d="M179.499 67.04H178.359V75.51H179.499V67.04Z" fill="black"/>
<path d="M190.359 67.04H189.219V75.51H190.359V67.04Z" fill="black"/>
<path d="M213.249 67.04H212.109V75.51H213.249V67.04Z" fill="black"/>
<path d="M219.691 75.5091V74.3691H212.121V75.5091H219.691Z" fill="black"/>
<path d="M196.65 67.04H195.51V75.51H196.65V67.04Z" fill="black"/>
<path d="M175.449 72.7705H168.469V73.6805H175.449V72.7705Z" fill="black"/>
<path d="M206.47 67.04H205.07L200.16 75.51H201.56L206.47 67.04Z" fill="black"/>
<path d="M205.129 67.04H206.539L211.449 75.51H210.039L205.129 67.04Z" fill="black"/>
<path d="M209.21 72.7705H202.23V73.6805H209.21V72.7705Z" fill="black"/>
<path d="M187.619 69.6508C187.619 70.3708 187.329 71.0208 186.859 71.5008C186.389 71.9708 185.729 72.2608 185.009 72.2608H178.359V71.3908H184.779C185.259 71.3908 185.689 71.2008 186.009 70.8808C186.319 70.5608 186.519 70.1308 186.519 69.6508C186.519 68.6908 185.739 67.9208 184.789 67.9208H178.369V67.0508H185.019C186.449 67.0508 187.619 68.2108 187.619 69.6508Z" fill="black"/>
<path d="M200.84 67.0508H191.32V68.1008H200.84V67.0508Z" fill="black"/>
<path d="M164.819 72.94C164.819 73.75 164.169 74.4 163.359 74.4H158.799C157.989 74.4 157.339 73.74 157.339 72.94V69.61C157.339 68.8 157.989 68.15 158.799 68.15H163.359C164.169 68.15 164.819 68.81 164.819 69.61V69.83H166.049C166.039 68.29 164.779 67.04 163.239 67.04H158.919C157.369 67.04 156.109 68.3 156.109 69.85V72.69C156.109 74.24 157.369 75.5 158.919 75.5H163.239C164.779 75.5 166.039 74.25 166.049 72.71H164.819V72.94Z" fill="black"/>
</svg>
