<svg width="262" height="113" viewBox="0 0 262 113" fill="none" xmlns="http://www.w3.org/2000/svg">
<path d="M108.902 50.1929H102.572V54.75H108.902V58.5035H102.572V62.8942H108.902V66.7456H98.459V46.4736H108.902V50.1929Z" fill="url(#paint0_linear_2602_10441)"/>
<path d="M120.631 55.1448L117.564 56.6259L120.631 58.0745V64.5075L116.943 66.7456H110.188V62.8942H116.519V58.5035H110.188V54.75H116.519V50.1929H110.188V46.4736H116.943L120.631 48.7459V55.1448Z" fill="url(#paint1_linear_2602_10441)"/>
<path d="M125.55 48.8438H131.065V51.8963H125.87V55.0825H131.065V58.163H125.87V64.38H122.498V50.7073L125.55 48.8438ZM137.785 48.8438H132.27V51.8963H137.571V55.0825H132.27V58.163H137.571V64.38H140.945V50.7073L137.785 48.8438Z" fill="url(#paint2_linear_2602_10441)"/>
<path d="M151.3 48.8434V52.0311H146.106V55.0821H151.3V58.2434H146.106V64.3749H142.732V48.8434H151.3ZM161.184 57.9466L158.668 56.6223L161.184 55.4069V50.7069L158.024 48.8418H152.509V52.0296H157.81V55.0805H152.504V58.2419H157.805V64.3734H161.184V57.9466Z" fill="url(#paint3_linear_2602_10441)"/>
<path d="M166.05 48.8438L171.565 54.0831V58.163L166.37 53.2189V64.3753H162.998V48.8438H166.05ZM178.419 48.8438L172.873 54.0831V58.163L178.066 53.2189V64.3753H181.44V48.8438H178.419Z" fill="url(#paint4_linear_2602_10441)"/>
<path d="M190.309 57.5172L182.193 48.8135H187.102L192.364 54.7802L197.673 48.8135H202L193.928 57.4286V64.3885H190.309V57.5172Z" fill="url(#paint5_linear_2602_10441)"/>
<path d="M97.2613 39.2227L86.7069 45.3697L78.6297 40.6619L70.5463 45.3697L59.998 39.2273L60.9455 48.4891L61.7451 56.3069L64.4133 57.8611V65.5065L78.6266 73.7797L92.8414 65.5065V57.8596L95.5112 56.3053L96.3123 48.4875L97.2613 39.2227Z" fill="url(#paint6_linear_2602_10441)"/>
<path d="M83.7812 49.2267L95.049 42.6631L94.5699 47.3491L91.2438 49.2842L87.5649 51.4321L83.7812 49.2267Z" fill="url(#paint7_linear_2602_10441)"/>
<path d="M66.2619 64.4271V56.7817L63.4889 55.1669L63.0098 50.4746L69.1905 54.082V62.7174L77.5219 67.5697L78.3754 68.0702C78.4522 68.1149 78.5394 68.1385 78.6281 68.1385C78.7168 68.1385 78.8039 68.1149 78.8807 68.0702L88.0702 62.7174V54.082L91.7506 51.934L94.2525 50.4777L93.7719 55.1669L90.9988 56.7817V64.4271L78.6327 71.6248L66.2619 64.4271Z" fill="url(#paint8_linear_2602_10441)"/>
<path d="M66.0111 49.2859L62.6881 47.3509L62.209 42.668L73.4736 49.2284L69.69 51.4339L66.0111 49.2859Z" fill="url(#paint9_linear_2602_10441)"/>
<path d="M84.1938 46.0605L81.2683 47.764L78.6293 46.2253L75.9857 47.764L73.0586 46.0605L78.6293 42.8184L84.1938 46.0605Z" fill="url(#paint10_linear_2602_10441)"/>
<path d="M78.6373 56.6655L84.9644 52.9741L78.625 49.2812L72.2871 52.9726L78.6373 56.6655Z" fill="url(#paint11_linear_2602_10441)"/>
<path d="M78.0451 57.6968L71.6934 54.0039V61.3881L78.0328 65.081L78.0451 57.6968Z" fill="url(#paint12_linear_2602_10441)"/>
<path d="M79.2311 57.6962L79.2188 65.0789L85.5566 61.3875V54.0049L79.2311 57.6962Z" fill="url(#paint13_linear_2602_10441)"/>
<defs>
<linearGradient id="paint0_linear_2602_10441" x1="103.682" y1="66.7456" x2="103.682" y2="46.4736" gradientUnits="userSpaceOnUse">
<stop stop-color="#1D3850"/>
<stop offset="0.87" stop-color="#245471"/>
</linearGradient>
<linearGradient id="paint1_linear_2602_10441" x1="115.41" y1="66.7456" x2="115.41" y2="46.4736" gradientUnits="userSpaceOnUse">
<stop stop-color="#1D3850"/>
<stop offset="0.87" stop-color="#245471"/>
</linearGradient>
<linearGradient id="paint2_linear_2602_10441" x1="131.721" y1="64.3753" x2="131.721" y2="48.8438" gradientUnits="userSpaceOnUse">
<stop stop-color="#1D3850"/>
<stop offset="0.87" stop-color="#245471"/>
</linearGradient>
<linearGradient id="paint3_linear_2602_10441" x1="151.956" y1="64.3749" x2="151.956" y2="48.8434" gradientUnits="userSpaceOnUse">
<stop stop-color="#1D3850"/>
<stop offset="0.87" stop-color="#245471"/>
</linearGradient>
<linearGradient id="paint4_linear_2602_10441" x1="172.221" y1="64.3753" x2="172.221" y2="48.8438" gradientUnits="userSpaceOnUse">
<stop stop-color="#1D3850"/>
<stop offset="0.87" stop-color="#245471"/>
</linearGradient>
<linearGradient id="paint5_linear_2602_10441" x1="192.096" y1="64.3854" x2="192.096" y2="48.8104" gradientUnits="userSpaceOnUse">
<stop stop-color="#1D3850"/>
<stop offset="0.87" stop-color="#245471"/>
</linearGradient>
<linearGradient id="paint6_linear_2602_10441" x1="63.9049" y1="64.992" x2="93.6147" y2="35.5437" gradientUnits="userSpaceOnUse">
<stop stop-color="#1D3850"/>
<stop offset="0.87" stop-color="#245471"/>
</linearGradient>
<linearGradient id="paint7_linear_2602_10441" x1="86.0135" y1="51.4788" x2="94.9781" y2="42.5915" gradientUnits="userSpaceOnUse">
<stop stop-color="#F7931E"/>
<stop offset="0.31" stop-color="#F9B61F"/>
<stop offset="0.62" stop-color="#FAD320"/>
<stop offset="0.8" stop-color="#FBDE20"/>
</linearGradient>
<linearGradient id="paint8_linear_2602_10441" x1="68.1738" y1="66.3559" x2="89.2656" y2="45.4496" gradientUnits="userSpaceOnUse">
<stop stop-color="#F7931E"/>
<stop offset="0.31" stop-color="#F9B61F"/>
<stop offset="0.62" stop-color="#FAD320"/>
<stop offset="0.8" stop-color="#FBDE20"/>
</linearGradient>
<linearGradient id="paint9_linear_2602_10441" x1="64.5691" y1="49.2502" x2="69.0716" y2="44.7873" gradientUnits="userSpaceOnUse">
<stop stop-color="#F7931E"/>
<stop offset="0.31" stop-color="#F9B61F"/>
<stop offset="0.62" stop-color="#FAD320"/>
<stop offset="0.8" stop-color="#FBDE20"/>
</linearGradient>
<linearGradient id="paint10_linear_2602_10441" x1="75.8439" y1="48.869" x2="81.4608" y2="43.3016" gradientUnits="userSpaceOnUse">
<stop stop-color="#F7931E"/>
<stop offset="0.31" stop-color="#F9B61F"/>
<stop offset="0.62" stop-color="#FAD320"/>
<stop offset="0.8" stop-color="#FBDE20"/>
</linearGradient>
<linearGradient id="paint11_linear_2602_10441" x1="75.4561" y1="56.1712" x2="81.85" y2="49.8336" gradientUnits="userSpaceOnUse">
<stop stop-color="#F7931E"/>
<stop offset="0.31" stop-color="#F9B61F"/>
<stop offset="0.62" stop-color="#FAD320"/>
<stop offset="0.8" stop-color="#FBDE20"/>
</linearGradient>
<linearGradient id="paint12_linear_2602_10441" x1="72.3635" y1="62.0642" x2="77.413" y2="57.0591" gradientUnits="userSpaceOnUse">
<stop stop-color="#F7931E"/>
<stop offset="0.31" stop-color="#F9B61F"/>
<stop offset="0.62" stop-color="#FAD320"/>
<stop offset="0.8" stop-color="#FBDE20"/>
</linearGradient>
<linearGradient id="paint13_linear_2602_10441" x1="78.0618" y1="63.9132" x2="86.7947" y2="55.2555" gradientUnits="userSpaceOnUse">
<stop stop-color="#F7931E"/>
<stop offset="0.31" stop-color="#F9B61F"/>
<stop offset="0.62" stop-color="#FAD320"/>
<stop offset="0.8" stop-color="#FBDE20"/>
</linearGradient>
</defs>
</svg>
