<svg width="262" height="113" viewBox="0 0 262 113" fill="none" xmlns="http://www.w3.org/2000/svg">
<g clip-path="url(#clip0_3251_10400)">
<path d="M125.742 33.4302C123.916 25.4334 111.321 26.5827 111.146 34.8178C109.159 35.0791 109.076 35.9324 109.076 37.5836V38.0554L111.376 37.5928C114.823 45.8764 127.837 42.6065 125.742 33.4302ZM118.965 39.6533C112.944 40.1205 112.257 31.1431 118.275 30.7962C123.93 30.4702 124.654 39.2093 118.965 39.6533Z" fill="#153E59"/>
<path d="M84.4703 49.1549C83.1342 43.5007 78.3946 43.6302 73.8918 44.2985C73.8918 42.6011 73.7814 41.0123 74.5311 39.4421C75.0784 38.2997 75.8534 37.3585 76.8814 36.6185C79.4708 34.7522 82.0717 34.7939 84.1805 35.8715C85.5833 36.4473 86.8274 37.4811 87.6898 38.9796C87.768 38.79 87.837 38.6073 87.8945 38.4269C88.2716 37.266 88.2348 36.2878 87.9083 35.4807C86.7078 32.5391 81.6325 31.8315 78.4911 32.6802C71.9854 34.4331 70.6217 40.0804 71.3967 45.9173C71.6979 48.1928 70.3319 48.8334 72.742 50.5424L72.765 50.4083V50.3875L72.9719 48.9236C75.9454 51.028 77.9484 52.5566 81.7107 52.855C80.8184 54.7605 79.2431 55.4843 77.661 55.3826C77.661 55.3826 77.6594 55.3826 77.6564 55.3826C77.6564 55.3826 77.6541 55.3849 77.6518 55.3826C77.6219 55.3895 77.6012 55.3942 77.5713 55.3988C80.5493 59.6331 82.6972 54.6079 84.6312 52.5081C85.3763 51.6987 86.9033 51.146 87.9198 50.7737V46.463C87.2322 47.5731 86.1122 48.5189 84.4703 49.1549ZM75.0416 46.3798C78.2451 45.1796 81.5359 46.2179 82.4006 49.8486C79.4593 49.8486 76.5295 49.2612 75.0416 46.3798Z" fill="#E4B960"/>
<path d="M92.2878 55.8617C91.0482 54.2267 88.767 52.7374 88.0564 50.7741C88.0035 50.626 87.9575 50.478 87.9184 50.33C87.647 49.294 87.7229 48.2534 87.9184 47.215C87.9966 46.7941 88.0955 46.3756 88.1967 45.957C88.6336 45.0597 88.8153 44.0792 88.7854 43.0894C88.7992 42.953 88.8084 42.8165 88.8153 42.6801C88.8705 41.4059 88.261 40.4115 88.0081 39.2112C87.9552 38.9569 87.9184 38.6932 87.8931 38.4273C87.8034 37.4653 87.877 36.4477 87.9069 35.4811C87.9138 35.2568 87.9184 35.0348 87.9184 34.8174C89.4178 35.5528 90.6136 37.3427 90.908 38.98C93.6354 38.4481 96.349 37.0351 96.4272 40.83L91.5979 41.7551C91.5979 43.1819 91.6485 44.5533 91.1678 45.9177C90.9195 46.6276 89.972 47.807 90.1445 48.5586C90.7746 51.3175 97.3516 53.5908 92.2878 55.8617Z" fill="#A3C06D"/>
<path d="M105.627 35.974L100.344 37.3015L100.107 39.9054L106.087 38.7491L105.627 35.974ZM108.386 35.2803L108.846 37.8241H109.076V35.2803H108.386Z" fill="#6FA56B"/>
<path d="M99.418 37.1299L99.8779 40.1362H100.108V37.1299H99.418Z" fill="#A3C06D"/>
<path d="M62.8526 51.9299H60.7829L59.1731 56.0925C56.4917 54.8299 58.5039 53.1278 58.6258 51.0049C58.6879 49.955 58.3314 48.9259 57.768 48.031C57.768 48.031 57.7657 48.0217 57.7634 48.0194C56.7424 45.8317 54.5186 44.2707 51.3542 44.8697C50.8046 44.9737 50.3056 45.131 49.8549 45.3368C49.8503 45.3368 49.8457 45.3391 49.8411 45.3414C49.0109 45.5727 48.3003 45.582 47.2148 44.5297V44.2985C48.889 43.1006 51.5773 42.0484 53.6539 42.8184C53.8287 42.8832 53.9966 42.9688 54.1621 43.0659C55.1096 43.6417 55.9076 44.7171 56.6412 45.4548C57.9451 46.766 59.4077 48.0471 60.7369 49.4208H60.7392C60.8726 49.5619 61.0082 49.7029 61.1393 49.8463C61.5786 50.3181 61.9994 50.8014 62.3834 51.3009C62.5467 51.5067 62.7008 51.7149 62.8503 51.9276L62.8526 51.9299Z" fill="#6FA56B"/>
<path d="M53.8848 42.6797C55.6026 45.131 58.3461 47.8899 60.7838 49.6174C60.018 45.8988 57.5826 43.4498 53.8848 42.6797Z" fill="#A3C06D"/>
<path d="M152.081 43.6055V58.1746H154.38V43.6055H152.081ZM161.049 50.3119C163.855 46.1655 159.784 43.6378 155.99 43.6055V45.918C156.816 45.918 157.752 45.8278 158.51 46.2233C161.594 47.8328 157.749 49.8355 155.99 49.8494V51.6994C157.28 51.6994 158.754 51.6231 159.874 52.3932C161.311 53.383 160.67 55.1243 159.21 55.6909C158.255 56.0586 156.997 55.862 155.99 55.862V58.1746C157.919 58.1746 160.095 58.3457 161.73 57.1016C164.069 55.3209 163.347 51.6763 161.049 50.3119ZM165.189 43.6055V58.1746H167.488V43.6055H165.189ZM174.387 50.5432C176.172 46.1354 173.803 43.6425 169.328 43.6055V45.918C173.5 45.9203 173.472 49.7638 169.328 49.8494V51.6994C170.519 51.6994 171.963 51.6324 172.998 52.3331C174.456 53.3182 174.144 55.0341 172.548 55.6562C171.575 56.0332 170.351 55.862 169.328 55.862V58.1746C171.207 58.1746 173.47 58.3226 175.034 57.0646C177.147 55.3672 176.813 51.6902 174.387 50.5432ZM181.252 48.2075C180.631 47.1252 182.664 45.0832 182.666 43.6055C179.203 43.9107 176.503 48.1103 179.909 50.6264C181.475 51.7827 184.706 51.6162 185.605 53.5587C186.173 54.7913 184.825 55.2538 184.414 56.1812C184.131 56.8194 184.276 57.7213 184.276 58.4059C185.166 58.1515 186.051 57.9272 186.801 57.3513C187.392 56.8981 187.866 56.3361 188.126 55.6308C188.312 55.122 188.399 54.5531 188.397 54.012C188.381 49.262 182.94 51.1583 181.252 48.2075ZM185.886 43.9269C185.352 43.735 184.835 43.654 184.276 43.6055C184.276 44.2322 184.161 45.0416 184.513 45.5966C186.024 47.9855 189.602 45.252 185.886 43.9269ZM56.4466 55.425C55.6348 56.1465 54.5563 56.6784 53.1949 56.9096C49.6373 57.5132 47.3238 55.2006 46.673 52.4348C46.2982 51.149 46.3396 49.7569 46.8915 48.4988C47.2502 47.5368 47.8528 46.6673 48.7197 46.0059C46.1142 42.5625 44.0307 48.3416 44.0008 50.7744C43.8973 58.9701 53.7008 61.3567 58.944 56.3246V56.0933C58.0265 55.203 57.2354 55.1567 56.4466 55.425Z" fill="#153E59"/>
<path d="M79.4104 57.4801C77.2441 57.4801 75.501 56.9482 74.3511 59.0989C71.8514 58.6433 73.3186 57.6466 72.7368 56.0926C72.1595 54.5455 70.8533 53.7222 70.6717 51.93H66.9922V49.8487C68.3881 49.8487 70.099 50.258 70.6717 48.6924L73.3416 52.5867L73.9349 53.4563L74.1441 53.7592L74.3971 53.9396L75.6113 54.7952C75.6113 54.7952 75.6182 54.7999 75.6228 54.8022L79.4104 57.4801Z" fill="#A3C06D"/>
<path d="M72.7642 50.3877C72.7573 49.9182 72.8239 49.428 72.9711 48.9238L72.7642 50.3877Z" fill="white"/>
<path d="M73.3418 52.5869L73.9351 53.4564C73.7097 53.1882 73.5097 52.8968 73.3418 52.5869Z" fill="white"/>
<path d="M74.3965 53.9404L75.6107 54.7961C75.1738 54.5671 74.7621 54.2781 74.3965 53.9404Z" fill="white"/>
<path d="M61.0137 49.8486C62.0186 51.2847 62.95 51.923 64.6931 51.9299V49.8486H61.0137Z" fill="#A3C06D"/>
<path d="M178.066 56.7867L182.666 58.4054C182.666 55.9333 178.991 53.5468 178.066 56.7867Z" fill="#153E59"/>
<path d="M100.095 78.9133C100.252 79.8291 100.146 80.8744 100.116 81.7994C100.109 81.9451 100.107 82.0861 100.107 82.2249C93.3871 78.7191 93.1249 67.2881 98.4969 62.5681V62.3369C96.3008 60.6464 93.3756 57.9176 97.1171 56.3242C97.9657 57.4435 99.4812 58.4656 99.9687 59.7931C100.022 59.9364 100.068 60.0775 100.107 60.2186C100.475 61.4789 100.396 62.6468 100.107 63.7776C99.8951 64.5963 99.5755 65.3941 99.2328 66.1896C98.5107 67.3089 98.0646 68.5137 97.8645 69.7417C97.6898 70.4147 97.5886 71.1038 97.607 71.8184C97.6369 72.97 97.9473 73.9321 98.3521 74.8478C98.6234 75.6064 98.9799 76.3371 99.4099 77.024C99.6031 77.431 99.7847 77.8495 99.9388 78.2935C100.008 78.4901 100.058 78.6982 100.095 78.9133Z" fill="#A3C06D"/>
<path d="M109.076 58.6367V61.4095C108.267 61.3447 107.423 61.3748 106.546 61.5135C105.086 61.7448 103.649 62.2374 102.407 63.0537C101.501 63.648 100.738 64.3164 100.107 65.0333V60.0243L100.797 60.718H101.027C103.037 58.676 106.415 58.6367 109.076 58.6367Z" fill="#6FA56B"/>
<path d="M120.282 77.5997C117.9 82.3867 113.866 83.839 109.076 84.9999V82.019C109.377 82.0005 109.686 81.9681 109.996 81.9242C111.374 81.7253 112.735 81.1495 113.905 80.4025C116.978 78.4461 118.404 75.5739 118.56 72.6531C118.742 71.002 118.503 69.2884 117.741 67.6557C117.185 66.4601 116.458 65.4518 115.598 64.6124C113.956 62.8456 111.714 61.6199 109.076 61.4095V58.6367C118.394 58.7153 124.374 69.3786 120.282 77.5997Z" fill="#153E59"/>
<path d="M71.1324 64.4183C71.4337 63.9604 71.7326 63.5049 72.0063 63.0285C72.48 62.2052 72.6341 59.9112 70.953 60.5448C68.8005 61.3565 69.4077 63.7778 71.1347 64.416L71.1324 64.4183Z" fill="#6FA56B"/>
<path d="M72.0508 60.7178L72.2807 60.949L72.0508 60.7178Z" fill="#A3C06D"/>
<path d="M145.644 60.8935C143.221 61.7815 144.669 65.2619 146.999 64.3739C149.197 63.5367 147.854 60.0841 145.644 60.8935Z" fill="#153E59"/>
<path d="M72.2812 60.9492L72.9711 61.4117L72.2812 60.9492Z" fill="#A3C06D"/>
<path d="M109.077 81.9935V82.0189C106.055 82.2155 103.426 81.1679 101.465 79.4404C103.852 81.0107 105.876 81.9935 109.077 81.9935Z" fill="white"/>
<path d="M67.9117 65.1122L67.6818 65.806C61.3209 64.2843 58.0347 73.4952 64.4622 75.5072C71.106 77.5862 73.7828 67.8757 67.9117 65.1122ZM66.7619 73.4305C63.0088 74.2977 61.8038 68.5325 65.6121 67.7878C69.0984 67.1079 70.354 72.598 66.7619 73.4305ZM134.832 61.4121V64.1872H141.961V61.4121H134.832ZM129.773 61.4121V79.4501H132.762V61.4121H129.773Z" fill="#153E59"/>
<path d="M155.99 69.5062C160.892 68.632 159.439 76.3999 159.439 79.4502H162.199C162.199 76.3814 163.093 71.5898 161.638 68.8124C160.941 67.4827 157.567 65.4661 156.226 67.1335C155.78 67.6885 155.99 68.8402 155.99 69.5062ZM166.798 70.2C168.093 69.8276 169.321 69.1107 170.707 69.1223C175.143 69.1639 173.697 76.5179 173.697 79.4502H176.227C176.227 76.6266 177.399 70.2948 175.258 68.195C173.069 66.0489 164.986 65.7182 166.798 70.2ZM184.505 69.5062C189.261 68.41 187.955 76.6913 187.955 79.4502H190.715C190.715 76.3051 191.549 71.6916 190.096 68.8124C189.418 67.4665 186.083 65.4661 184.742 67.1335C184.296 67.6885 184.505 68.8402 184.505 69.5062ZM201.063 66.7311C201.063 68.8263 201.353 69.7999 203.593 70.2L204.513 67.8874L201.063 66.7311ZM211.412 66.7311C209.751 67.3948 208.321 68.077 207.422 69.7374C205.423 73.4306 207.008 79.2721 211.641 79.6815C211.641 77.1492 210.257 76.5572 209.342 74.3626H219C218.991 70.6463 217.586 67.5451 213.711 66.7311L216.011 72.05H209.572C210.174 70.0126 212.414 69.1316 211.412 66.7311ZM144.951 66.9624V79.4502H147.711V66.9624H144.951ZM151.16 66.9624V79.4502H153.92V66.9624H151.16ZM179.676 66.9624V79.4502H182.436V66.9624H179.676ZM198.993 79.6815C198.993 78.9183 199.161 77.8938 198.756 77.2116C197.88 75.7316 196.367 75.2298 196.404 73.2063C196.438 71.2984 197.906 70.8151 198.756 69.4183C199.166 68.7477 198.993 67.714 198.993 66.9624C191.788 67.337 191.736 79.3022 198.993 79.6815Z" fill="#153E59"/>
<path d="M134.832 68.5811V71.3561H140.581V68.5811H134.832ZM171.627 77.1375C170.744 77.2069 166.676 77.4104 168.097 75.3384C168.899 74.1705 170.348 74.8527 171.259 74.1243C171.838 73.6618 171.627 72.4708 171.627 71.8186C170.334 71.9828 168.966 71.9921 167.717 72.3829C167.032 72.598 166.42 72.9264 165.93 73.4606C161.773 78.0001 171.627 83.245 171.627 77.1352M203.592 75.9789L201.062 77.1352V79.9103C203.429 79.4177 205.186 78.5251 203.592 75.9789ZM213.711 77.1352V79.9103C214.934 79.7438 216.44 79.3622 217.277 78.3655C218.039 77.459 216.65 76.46 215.78 76.4415C215.1 76.4276 214.359 76.941 213.711 77.1329V77.1352Z" fill="#153E59"/>
<path d="M109.076 81.9933V84.9996C106.684 84.9973 101.786 84.6897 100.344 82.3679C100.24 82.2014 100.167 82.0094 100.116 81.799C99.9023 80.9434 100.052 79.7824 100.095 78.9129C100.102 78.7742 100.107 78.6447 100.107 78.5244C100.578 78.8482 101.027 79.1534 101.464 79.4402C103.851 81.0104 105.875 81.9933 109.076 81.9933Z" fill="#6FA56B"/>
</g>
<defs>
<clipPath id="clip0_3251_10400">
<rect width="175" height="57" fill="white" transform="translate(44 28)"/>
</clipPath>
</defs>
</svg>
