<svg width="262" height="113" viewBox="0 0 262 113" fill="none" xmlns="http://www.w3.org/2000/svg">
<mask id="mask0_2602_10431" style="mask-type:alpha" maskUnits="userSpaceOnUse" x="55" y="38" width="30" height="20">
<path d="M55.998 53.594L75.2468 53.7482C75.2468 53.7482 79.4952 54.2837 83.1241 57.4457C83.3306 57.6242 84.1382 57.4457 84.1382 57.4457L84.0401 38.4814L55.998 38.5139V53.594Z" fill="white"/>
</mask>
<g mask="url(#mask0_2602_10431)">
<path fill-rule="evenodd" clip-rule="evenodd" d="M80.0502 42.7544C77.7604 40.8843 74.6099 39.9473 70.5986 39.9473C65.236 39.9473 62.8582 39.9473 60.6052 39.9473V41.3326C60.6052 41.3326 66.0292 41.3326 70.4146 41.3326C73.8248 41.3326 76.912 42.0303 78.797 43.6448C80.682 45.2613 82.1111 47.6668 82.1111 50.6362C82.1111 53.5022 80.8742 55.6257 78.9135 57.2321C76.9529 58.8385 73.4568 59.5464 69.9567 59.5464C65.7798 59.5464 58.6875 59.5464 58.6875 59.5464V60.9317C58.6875 60.9317 68.2822 60.9297 70.0343 60.9297C74.2562 60.9297 77.5539 60.019 79.9276 58.2016C82.3012 56.3823 83.487 53.8247 83.487 50.5247C83.487 47.2166 82.3421 44.6265 80.0502 42.7544Z" fill="#1C1E1D"/>
<path fill-rule="evenodd" clip-rule="evenodd" d="M79.2039 44.7612C77.7789 43.6883 76.1412 42.8242 71.5085 42.8242C66.5118 42.8262 65.9005 42.8242 63.8008 42.8242V44.175C63.8008 44.175 67.2498 44.1304 71.3367 44.175C75.2866 44.2156 76.7362 44.6578 78.0651 45.6334C79.7661 46.8807 80.821 48.4202 80.821 50.5742C80.821 52.6512 79.7497 54.1217 78.0406 55.369C76.2925 56.6468 73.6204 56.661 72.5327 56.6854C72.1218 56.6955 66.8102 56.6854 66.8102 56.6854V58.0362C66.8102 58.0362 69.4538 58.0727 71.0873 58.0342C74.8369 57.951 77.0612 57.7299 79.1323 56.2027C81.0766 54.7727 82.105 52.8844 82.105 50.4931C82.105 47.3391 80.5144 45.749 79.2039 44.7612Z" fill="#1C1E1D"/>
<path fill-rule="evenodd" clip-rule="evenodd" d="M78.5146 46.5442C77.4454 45.8789 76.507 45.4307 72.0807 45.4307C67.5828 45.4307 68.4313 45.4307 66.5401 45.4307V46.319C66.5401 46.319 68.2493 46.319 71.9273 46.319C75.8486 46.319 77.335 47.0107 77.7848 47.2845C78.6659 47.82 79.8272 48.6921 79.8272 50.4689C79.8272 51.6047 79.1505 53.0306 78.1507 53.5904C77.2389 54.0995 75.5726 54.5558 72.6368 54.5558C72.2667 54.5558 54.5391 54.5558 54.5391 54.5558V55.4442C54.5391 55.4442 71.2322 55.4442 72.7042 55.4442C76.2432 55.4442 77.4576 55.0548 78.7048 54.3713C79.956 53.6877 80.7901 52.2821 80.7901 50.477C80.7901 48.4609 79.6555 47.252 78.5146 46.5442Z" fill="#1C1E1D"/>
</g>
<path fill-rule="evenodd" clip-rule="evenodd" d="M82.0365 56.3453C79.7467 54.4732 76.5942 53.5382 72.5849 53.5382C67.2202 53.5382 68.1546 53.5361 65.8995 53.5361V54.9214C65.8995 54.9214 68.0135 54.9214 72.3989 54.9214C75.8091 54.9214 78.8983 55.6192 80.7833 57.2337C82.6683 58.8502 84.0953 61.2557 84.0953 64.2271C84.0953 67.091 82.8605 69.2146 80.8998 70.821C78.9392 72.4274 75.4411 73.1353 71.9409 73.1353C67.7661 73.1353 60.6738 73.1353 60.6738 73.1353V74.5206C60.6738 74.5206 70.2665 74.5185 72.0207 74.5185C76.2425 74.5185 79.5382 73.6099 81.9118 71.7905C84.2855 69.9732 85.4733 67.4135 85.4733 64.1156C85.4733 60.8054 84.3284 58.2153 82.0365 56.3453Z" fill="#1C1E1D"/>
<path fill-rule="evenodd" clip-rule="evenodd" d="M81.1929 58.3511C79.7679 57.2801 78.1302 56.4141 73.4975 56.4141C68.4987 56.4161 65.1192 56.4141 63.0195 56.4141V57.7649C63.0195 57.7649 69.2368 57.7203 73.3257 57.7649C77.2757 57.8055 78.7231 58.2476 80.0521 59.2232C81.7551 60.4726 82.8101 62.01 82.8101 64.1641C82.8101 66.241 81.7387 67.7115 80.0296 68.9609C78.2815 70.2367 75.6094 70.2529 74.5197 70.2772C74.1088 70.2854 68.7972 70.2772 68.7972 70.2772V71.626C68.7972 71.626 71.4407 71.6626 73.0763 71.626C76.8238 71.5409 79.0503 71.3198 81.1213 69.7945C83.0636 68.3626 84.0919 66.4743 84.0919 64.0829C84.0919 60.931 82.5034 59.3388 81.1929 58.3511Z" fill="#1C1E1D"/>
<path fill-rule="evenodd" clip-rule="evenodd" d="M65.2598 62.9352H75.0794V62.1807H65.2598V62.9352Z" fill="#1C1E1D"/>
<path fill-rule="evenodd" clip-rule="evenodd" d="M69.3125 65.5729H75.0248V64.9238H69.3125V65.5729Z" fill="#1C1E1D"/>
<path fill-rule="evenodd" clip-rule="evenodd" d="M60.6738 62.9352H63.5831V62.1807H60.6738V62.9352Z" fill="#1C1E1D"/>
<path fill-rule="evenodd" clip-rule="evenodd" d="M58.8613 65.6266H67.6976V64.8721H58.8613V65.6266Z" fill="#1C1E1D"/>
<path fill-rule="evenodd" clip-rule="evenodd" d="M61.0371 46.2604H64.48V45.6377H61.0371V46.2604Z" fill="#1C1E1D"/>
<path fill-rule="evenodd" clip-rule="evenodd" d="M58.6406 51.311H66.5262V50.5869H58.6406V51.311Z" fill="#1C1E1D"/>
<path fill-rule="evenodd" clip-rule="evenodd" d="M58.8613 71.5325H67.1762V70.6279H58.8613V71.5325Z" fill="#1C1E1D"/>
<path fill-rule="evenodd" clip-rule="evenodd" d="M56.7891 74.4655H58.8683V73.1553H56.7891V74.4655Z" fill="#1C1E1D"/>
<path fill-rule="evenodd" clip-rule="evenodd" d="M61.9863 49.1001H75.0424V48.376H61.9863V49.1001Z" fill="#1C1E1D"/>
<path fill-rule="evenodd" clip-rule="evenodd" d="M68.5137 51.311H74.7943V50.5869H68.5137V51.311Z" fill="#1C1E1D"/>
<path fill-rule="evenodd" clip-rule="evenodd" d="M80.5029 60.2703C79.4316 59.6273 78.4932 59.1953 74.0689 59.1953C69.5711 59.1953 68.8985 59.1953 67.0094 59.1953V60.0533C67.0094 60.0533 70.2356 60.0533 73.9136 60.0533C77.8349 60.0533 79.3232 60.7206 79.773 60.9863C80.6522 61.5035 81.8155 62.3432 81.8155 64.0591C81.8155 65.1564 81.1387 66.5315 80.1369 67.0711C79.2251 67.5639 77.5589 68.0041 74.623 68.0041C74.2529 68.0041 56.5273 68.0041 56.5273 68.0041V68.862C56.5273 68.862 73.2205 68.86 74.6905 68.86C78.2315 68.86 79.4459 68.4848 80.693 67.8256C81.9422 67.1644 82.7764 65.8075 82.7764 64.0652C82.7764 62.1201 81.6437 60.9538 80.5029 60.2703Z" fill="#1C1E1D"/>
<path fill-rule="evenodd" clip-rule="evenodd" d="M99.0962 58.3307V66.2247H103.443C105.322 66.2247 106.779 65.8677 107.816 65.1538C108.85 64.4398 109.368 63.4602 109.368 62.2169C109.368 59.6247 107.17 58.3307 102.774 58.3307H99.0962ZM99.0962 48.9338V56.0185H102.376C104.128 56.0185 105.506 55.6798 106.509 55.0023C107.513 54.3229 108.016 53.3676 108.016 52.1323C108.016 50.0006 106.268 48.9338 102.774 48.9338H99.0962ZM95.8945 68.5511V46.6094H103.672C106.033 46.6094 107.908 47.0738 109.292 48.0008C110.676 48.9297 111.369 50.1386 111.369 51.6273C111.369 52.8727 110.95 53.9537 110.112 54.8725C109.274 55.7893 108.116 56.4424 106.644 56.8298V56.8906C108.486 57.0651 109.958 57.6228 111.065 58.566C112.171 59.5112 112.723 60.7383 112.723 62.2473C112.723 64.1234 111.884 65.6446 110.208 66.8068C108.529 67.969 106.415 68.5511 103.862 68.5511H95.8945Z" fill="#1C1E1D"/>
<path fill-rule="evenodd" clip-rule="evenodd" d="M116.288 68.5518H119.412V52.8834H116.288V68.5518ZM117.889 48.904C117.329 48.904 116.853 48.7518 116.46 48.4456C116.065 48.1393 115.869 47.7519 115.869 47.2834C115.869 46.8128 116.065 46.4234 116.46 46.111C116.853 45.8007 117.329 45.6445 117.889 45.6445C118.459 45.6445 118.946 45.8007 119.347 46.111C119.748 46.4234 119.946 46.8128 119.946 47.2834C119.946 47.7316 119.748 48.115 119.347 48.4293C118.946 48.7457 118.459 48.904 117.889 48.904Z" fill="#1C1E1D"/>
<path fill-rule="evenodd" clip-rule="evenodd" d="M133.232 68.3999C132.494 68.7265 131.523 68.8887 130.316 68.8887C126.898 68.8887 125.189 67.3594 125.189 64.2988V55.0255H121.836V52.8837H125.189V49.0584L128.315 48.2471V52.8837H133.232V55.0255H128.315V63.8546C128.315 64.9052 128.538 65.6557 128.981 66.1039C129.427 66.5522 130.163 66.7773 131.193 66.7773C131.981 66.7773 132.659 66.6049 133.232 66.256V68.3999Z" fill="#1C1E1D"/>
<path fill-rule="evenodd" clip-rule="evenodd" d="M161.606 68.5525H158.679V55.0118C158.679 53.9409 158.76 52.6326 158.924 51.083H158.854C158.574 51.9937 158.321 52.6448 158.1 53.0403L149.509 68.5525H148.072L139.499 53.1519C139.254 52.7016 139.002 52.012 138.745 51.083H138.675C138.769 51.8903 138.816 53.2087 138.816 55.0381V68.5525H135.975V48.3672H139.867L147.581 62.4433C148.178 63.5224 148.562 64.3296 148.738 64.8651H148.843C149.345 63.7577 149.748 62.9322 150.053 62.3866L157.924 48.3672H161.606V68.5525Z" fill="#1C1E1D"/>
<path fill-rule="evenodd" clip-rule="evenodd" d="M177.491 60.6256L172.784 61.1469C171.335 61.3091 170.243 61.5971 169.505 62.0109C168.769 62.4247 168.401 63.1569 168.401 64.2055C168.401 64.9722 168.74 65.5969 169.421 66.0816C170.1 66.5664 171.006 66.8078 172.136 66.8078C173.686 66.8078 174.966 66.3717 175.976 65.4995C176.986 64.6274 177.491 63.524 177.491 62.1874V60.6256ZM180.617 68.5521H177.491V66.1039H177.415C176.055 67.9801 174.054 68.9192 171.412 68.9192C169.468 68.9192 167.947 68.5054 166.847 67.6799C165.749 66.8544 165.199 65.7571 165.199 64.3901C165.199 61.4633 167.346 59.7595 171.641 59.2788L177.491 58.6217C177.491 55.9586 176.149 54.628 173.469 54.628C171.12 54.628 168.998 55.271 167.105 56.5549V53.9851C169.022 53.0054 171.235 52.5166 173.737 52.5166C178.323 52.5166 180.617 54.4637 180.617 58.3621V68.5521Z" fill="#1C1E1D"/>
<path fill-rule="evenodd" clip-rule="evenodd" d="M195.119 55.4217C194.573 55.085 193.784 54.9166 192.755 54.9166C191.422 54.9166 190.306 55.4217 189.411 56.4318C188.515 57.4418 188.067 58.819 188.067 60.5633V68.5506H184.941V52.8823H188.067V56.1113H188.143C188.589 55.0079 189.268 54.15 190.183 53.5313C191.097 52.9147 192.12 52.6064 193.25 52.6064C194.064 52.6064 194.685 52.6774 195.119 52.8214V55.4217Z" fill="#1C1E1D"/>
<path fill-rule="evenodd" clip-rule="evenodd" d="M206.001 68.3999C205.263 68.7265 204.292 68.8887 203.086 68.8887C199.668 68.8887 197.958 67.3594 197.958 64.2988V55.0255H194.605V52.8837H197.958V49.0584L201.084 48.2471V52.8837H206.001V55.0255H201.084V63.8546C201.084 64.9052 201.307 65.6557 201.751 66.1039C202.197 66.5522 202.933 66.7773 203.963 66.7773C204.75 66.7773 205.429 66.6049 206.001 66.256V68.3999Z" fill="#1C1E1D"/>
</svg>
