<svg width="262" height="113" viewBox="0 0 262 113" fill="none" xmlns="http://www.w3.org/2000/svg">
<path d="M117.367 55.0059C117.367 64.0436 117.367 73.0892 117.367 82.1428C117.367 82.5971 117.261 82.7166 116.801 82.7166H63.2849C62.813 82.7166 62.7305 82.5732 62.7305 82.1309C62.7305 64.0476 62.7305 45.9563 62.7305 27.857C62.7305 27.4027 62.8366 27.2832 63.2967 27.2832C81.1314 27.2832 98.974 27.2832 116.825 27.2832C117.296 27.2832 117.379 27.4267 117.379 27.869C117.371 36.9146 117.367 45.9603 117.367 55.0059Z" fill="#B8A881"/>
<path d="M194.851 37.0137C193.943 38.2091 193.011 39.4046 192.126 40.7196C191.761 41.2336 191.313 41.2695 190.947 40.7196C190.18 39.5241 189.343 38.4721 188.588 37.3484C188.505 37.2288 188.411 37.1213 188.305 36.9898C188.253 37.1367 188.253 37.2971 188.305 37.444C188.305 39.548 188.305 41.652 188.305 43.7441C188.305 44.2342 188.163 44.3538 187.727 44.306C187.413 44.2761 187.097 44.2761 186.783 44.306C186.429 44.306 186.323 44.2103 186.335 43.8517C186.335 41.5325 186.335 39.2253 186.335 36.9061C186.335 35.9736 186.335 35.0292 186.335 34.0967C186.335 33.774 186.335 33.6425 186.748 33.6544C188.022 33.6544 188.022 33.6544 188.788 34.6706C189.555 35.6867 190.558 37.0615 191.43 38.2569C191.619 38.5199 191.702 38.508 191.891 38.2569C192.929 36.8343 193.99 35.4357 195.016 34.0131C195.082 33.8874 195.184 33.7848 195.308 33.7186C195.432 33.6525 195.573 33.626 195.712 33.6425C195.995 33.6664 196.279 33.6664 196.562 33.6425C196.939 33.6425 197.01 33.762 196.998 34.1087C196.998 37.3364 196.998 40.5761 196.998 43.8158C196.998 44.1864 196.904 44.3299 196.526 44.294C196.169 44.2701 195.81 44.2701 195.453 44.294C195.099 44.294 195.028 44.1745 195.028 43.8517C195.028 41.7357 195.028 39.6198 195.028 37.5038V37.0256L194.851 37.0137Z" fill="#B8A981"/>
<path d="M148.589 37.0264C148.589 39.2619 148.589 41.4974 148.589 43.733C148.589 44.1753 148.494 44.3665 148.022 44.3068C147.697 44.2769 147.369 44.2769 147.043 44.3068C146.737 44.3068 146.666 44.1992 146.666 43.9123C146.666 42.6331 146.666 41.342 146.666 40.0509C146.666 38.0784 146.666 36.094 146.666 34.0736C146.666 33.727 146.76 33.6552 147.102 33.6074C147.502 33.5346 147.914 33.594 148.277 33.7771C148.64 33.9601 148.936 34.2569 149.119 34.6236C149.922 35.819 150.865 37.0145 151.738 38.2099C151.915 38.461 152.021 38.4849 152.21 38.2099C153.248 36.7754 154.321 35.3647 155.359 33.9182C155.429 33.8044 155.529 33.7134 155.648 33.6561C155.768 33.5989 155.901 33.5778 156.032 33.5955C156.298 33.6194 156.567 33.6194 156.834 33.5955C157.199 33.5955 157.341 33.6791 157.329 34.0617C157.329 37.3133 157.329 40.565 157.329 43.8166C157.329 44.1633 157.223 44.2709 156.893 44.247C156.535 44.2231 156.177 44.2231 155.819 44.247C155.465 44.247 155.371 44.1514 155.371 43.7927C155.371 41.6648 155.371 39.5249 155.371 37.397V36.871C154.734 37.7437 154.192 38.4849 153.614 39.2619C153.224 39.7879 152.847 40.3139 152.434 40.828C152.021 41.342 151.762 41.3062 151.42 40.828L148.943 37.3253L148.683 36.9786L148.589 37.0264Z" fill="#B8A981"/>
<path d="M133.314 56.9548C133.314 57.3851 133.314 57.8275 133.314 58.2698C133.329 58.4345 133.303 58.6004 133.24 58.7526C133.176 58.9049 133.076 59.0388 132.949 59.1425C129.964 61.8562 124.692 60.8878 123.512 56.8113C123.237 55.9144 123.189 54.9615 123.375 54.041C123.56 53.1206 123.972 52.2626 124.572 51.5469C125.173 50.8311 125.942 50.2808 126.808 49.9472C127.675 49.6136 128.61 49.5074 129.528 49.6386C130.716 49.7727 131.833 50.2783 132.725 51.0851C132.949 51.2883 132.96 51.4079 132.725 51.5991C132.421 51.822 132.134 52.0656 131.863 52.3284C131.71 52.4718 131.604 52.4957 131.427 52.3284C131.1 51.9818 130.709 51.7051 130.275 51.5146C129.841 51.3241 129.374 51.2237 128.901 51.2192C128.428 51.2147 127.959 51.3064 127.522 51.4887C127.085 51.6709 126.688 51.9402 126.355 52.2805C125.676 52.973 125.269 53.8915 125.208 54.8656C125.147 55.8396 125.438 56.8029 126.025 57.5764C126.625 58.3361 127.486 58.8373 128.436 58.9792C129.386 59.1211 130.353 58.8933 131.144 58.3415C131.242 58.2886 131.322 58.2063 131.373 58.1058C131.424 58.0053 131.442 57.8914 131.427 57.7797C131.427 57.3612 131.592 56.8233 131.356 56.5842C131.12 56.3451 130.566 56.4766 130.177 56.4886C129.787 56.5005 129.705 56.381 129.705 55.9984C129.705 55.0899 129.705 55.0899 130.601 55.0899C131.498 55.0899 132.158 55.0899 132.96 55.0899C133.255 55.0899 133.35 55.1855 133.338 55.4844C133.303 55.9506 133.314 56.4527 133.314 56.9548Z" fill="#B8A981"/>
<path d="M170.74 55.1372C170.74 53.5353 170.74 51.9334 170.74 50.3554C170.74 49.9967 170.835 49.8652 171.212 49.8652C173.288 49.8652 175.364 49.8652 177.44 49.8652C177.806 49.8652 177.9 49.9848 177.9 50.3315C177.9 51.5269 177.9 51.5269 176.721 51.5269C175.541 51.5269 174.361 51.5269 173.182 51.5269C172.816 51.5269 172.722 51.6345 172.734 51.9812C172.734 52.6387 172.734 53.2842 172.734 53.9298C172.734 54.2526 172.828 54.3482 173.147 54.3482C174.326 54.3482 175.588 54.3482 176.815 54.3482C177.133 54.3482 177.228 54.4319 177.228 54.7547C177.228 55.9501 177.228 55.9501 176.048 55.9501C175.081 55.9501 174.102 55.9501 173.135 55.9501C172.852 55.9501 172.734 56.0218 172.745 56.3327C172.745 56.9782 172.745 57.6357 172.745 58.2813C172.745 58.616 172.863 58.6877 173.158 58.6877C174.645 58.6877 176.119 58.6877 177.593 58.6877C177.959 58.6877 178.053 58.7953 178.053 59.1539C178.053 60.3494 178.053 60.3494 176.874 60.3494H171.318C170.74 60.3494 170.74 60.3494 170.74 59.7397V55.1372Z" fill="#B8A981"/>
<path d="M176.72 37.2893C176.72 38.3652 176.72 39.4411 176.72 40.517C176.732 41.0443 176.915 41.553 177.241 41.9638C177.568 42.3747 178.019 42.6646 178.525 42.7884C179.052 42.9478 179.614 42.9329 180.132 42.7459C180.65 42.5588 181.095 42.2094 181.403 41.7483C181.695 41.3029 181.843 40.7766 181.828 40.242C181.828 38.2337 181.828 36.2253 181.757 34.2648C181.757 33.8463 181.757 33.6431 182.276 33.7029C182.669 33.7294 183.063 33.7294 183.456 33.7029C183.691 33.7029 183.774 33.7746 183.774 34.0137C183.774 36.2134 183.774 38.401 183.774 40.6007C183.729 41.6658 183.286 42.6738 182.535 43.4199C181.783 44.1659 180.78 44.5941 179.728 44.6174C179.096 44.6869 178.457 44.6264 177.849 44.4395C177.241 44.2525 176.677 43.943 176.189 43.5296C175.736 43.1334 175.374 42.641 175.13 42.0874C174.885 41.5337 174.764 40.9323 174.774 40.3257C174.774 38.2337 174.774 36.1536 174.774 34.0615C174.774 33.7148 174.88 33.6192 175.21 33.6431C175.603 33.668 175.997 33.668 176.39 33.6431C176.673 33.6431 176.756 33.7387 176.744 34.0137C176.744 35.1016 176.744 36.1894 176.744 37.2773L176.72 37.2893Z" fill="#B8A981"/>
<path d="M154.876 68.5873C154.685 67.8575 154.265 67.2102 153.68 66.7425C153.095 66.2748 152.377 66.0119 151.632 65.9932C150.228 65.9932 148.825 65.9932 147.421 65.9932C147.067 65.9932 146.961 66.0768 146.961 66.4474C146.961 68.0613 146.961 69.6871 146.961 71.301C146.961 72.9149 146.961 74.5766 146.961 76.2024C146.961 76.5491 147.055 76.6686 147.386 76.6447C147.778 76.6047 148.173 76.6047 148.565 76.6447C148.919 76.6447 148.99 76.5252 148.99 76.1904C148.99 75.3297 148.99 74.469 148.99 73.6082C148.99 73.2735 149.061 73.1659 149.403 73.1659C150.181 73.1659 150.96 73.1659 151.762 73.1061C152.39 73.0887 153.001 72.8986 153.531 72.5562C154.138 72.1216 154.595 71.5043 154.836 70.7919C155.077 70.0795 155.091 69.3082 154.876 68.5873ZM151.219 71.4086C150.582 71.4086 149.933 71.4086 149.296 71.4086C149.002 71.4086 148.907 71.313 148.919 71.0141C148.919 70.5 148.919 69.986 148.919 69.4719C148.919 68.9579 148.919 68.4439 148.919 67.9298C148.919 67.6668 149.002 67.5831 149.249 67.5951H151.266C151.519 67.5949 151.768 67.6463 152.001 67.7463C152.233 67.8463 152.443 67.9927 152.618 68.1769C152.793 68.3611 152.93 68.5792 153.02 68.8181C153.11 69.0571 153.151 69.312 153.142 69.5676C153.144 69.8192 153.095 70.0685 152.998 70.3C152.9 70.5315 152.757 70.7402 152.577 70.913C152.396 71.0858 152.182 71.219 151.949 71.3042C151.715 71.3895 151.467 71.425 151.219 71.4086Z" fill="#B8A981"/>
<path d="M129.069 76.8107C127.705 76.8696 126.37 76.4082 125.326 75.5176C124.283 74.627 123.607 73.372 123.432 72.0006C123.257 70.6292 123.596 69.2413 124.382 68.111C125.168 66.9807 126.344 66.1904 127.677 65.8961C128.572 65.6694 129.508 65.6674 130.404 65.8903C131.301 66.1132 132.13 66.5543 132.82 67.1753C133.067 67.3905 133.114 67.5459 132.82 67.785C132.525 68.0241 132.312 68.4664 131.982 68.5859C131.652 68.7055 131.404 68.2034 131.086 68.0001C130.455 67.6028 129.722 67.4023 128.98 67.4235C128.238 67.4448 127.518 67.6869 126.91 68.1197C126.29 68.5193 125.808 69.1046 125.531 69.7944C125.254 70.4842 125.196 71.2443 125.365 71.9691C125.468 72.651 125.754 73.2911 126.191 73.82C126.628 74.3489 127.2 74.7464 127.844 74.9694C128.488 75.1923 129.18 75.2322 129.845 75.0848C130.51 74.9373 131.123 74.6081 131.616 74.1329C131.876 73.9057 132.006 73.8818 132.194 74.1329C132.251 74.2024 132.314 74.2665 132.383 74.3241C133.103 75.1012 133.114 75.1251 132.242 75.7467C131.334 76.4562 130.215 76.8314 129.069 76.8107Z" fill="#B8A981"/>
<path d="M123.381 38.9512C123.397 37.595 123.899 36.2908 124.793 35.2815C125.687 34.2721 126.912 33.6262 128.241 33.464C129.05 33.3494 129.874 33.4117 130.657 33.6468C131.44 33.8819 132.165 34.2843 132.782 34.8269C133.089 35.0899 133.089 35.2453 132.782 35.4963C132.475 35.7474 132.275 36.2016 131.944 36.2853C131.614 36.369 131.39 35.8908 131.083 35.6876C130.444 35.286 129.704 35.0813 128.952 35.0983C128.2 35.1152 127.47 35.3532 126.849 35.7832C126.245 36.2085 125.776 36.8016 125.498 37.4909C125.22 38.1803 125.144 38.9365 125.28 39.6685C125.395 40.3538 125.693 40.9942 126.141 41.5204C126.59 42.0466 127.171 42.4386 127.823 42.654C128.476 42.8694 129.174 42.9 129.842 42.7425C130.51 42.5851 131.123 42.2455 131.614 41.7605C131.803 41.5932 131.909 41.5573 132.086 41.7605C132.346 42.0542 132.622 42.3335 132.912 42.5974C133.1 42.7647 133.077 42.8723 132.912 43.0158C132.161 43.7291 131.231 44.2183 130.223 44.4293C129.216 44.6403 128.171 44.5648 127.203 44.2112C126.25 43.9236 125.395 43.3733 124.732 42.6219C124.07 41.8704 123.627 40.9473 123.452 39.9554C123.413 39.7942 123.385 39.6304 123.369 39.4652C123.369 39.3218 123.381 39.1305 123.381 38.9512Z" fill="#B8A981"/>
<path d="M164.1 57.8394C164.702 56.3331 165.28 54.9225 165.846 53.5118C166.282 52.424 166.731 51.3361 167.167 50.2363C167.193 50.1035 167.269 49.9864 167.38 49.9103C167.49 49.8342 167.626 49.8053 167.757 49.8298C168.15 49.8528 168.544 49.8528 168.936 49.8298C169.243 49.8298 169.302 49.8896 169.184 50.1885C168.02 52.9858 166.841 55.7752 165.645 58.5567C165.445 59.0468 165.233 59.537 165.044 60.0271C164.949 60.2542 164.832 60.3738 164.584 60.3379H164.395C163.133 60.3379 163.133 60.3379 162.649 59.1425L159.146 50.4276C159.146 50.32 159.052 50.2004 159.016 50.0928C158.981 49.9852 159.016 49.8418 159.182 49.8418H160.715C160.986 49.8418 161.01 50.045 161.081 50.2243L163.546 56.3929C163.723 56.8472 163.911 57.2895 164.1 57.8394Z" fill="#B8A981"/>
<path d="M163.829 72.1495C163.829 70.7986 163.829 69.4478 163.829 68.1089C163.829 67.7144 163.711 67.6187 163.345 67.6307C162.602 67.6307 161.859 67.6307 161.104 67.6307C160.809 67.6307 160.738 67.535 160.727 67.2362C160.727 65.957 160.727 65.957 161.977 65.957H168.429C168.806 65.957 168.913 66.0646 168.913 66.4352C168.913 67.6307 168.913 67.6307 167.733 67.6307C167.226 67.6307 166.719 67.6307 166.211 67.6307C165.704 67.6307 165.763 67.7502 165.763 68.0969C165.763 70.7628 165.763 73.4286 165.763 76.0945C165.763 76.501 165.657 76.6564 165.244 76.6086C164.899 76.5787 164.552 76.5787 164.206 76.6086C163.876 76.6086 163.77 76.5249 163.782 76.1782C163.841 74.8393 163.829 73.4884 163.829 72.1495Z" fill="#B8A981"/>
<path d="M181.938 71.2637C181.938 69.6379 181.938 68.024 181.938 66.3982C181.938 66.0634 182.032 65.9439 182.374 65.9678C182.715 65.9977 183.059 65.9977 183.4 65.9678C183.801 65.9678 183.907 66.0754 183.907 66.4818C183.907 69.0999 183.907 71.7179 183.907 74.324C183.907 74.7783 184.002 74.9218 184.474 74.9098C185.712 74.9098 186.951 74.9098 188.189 74.9098C188.519 74.9098 188.637 74.9816 188.637 75.3282C188.637 76.6193 188.637 76.6193 187.458 76.6193H182.433C182.126 76.6193 182.02 76.5357 182.02 76.2129C181.949 74.5512 181.938 72.9015 181.938 71.2637Z" fill="#B8A982"/>
<path d="M158.897 71.3132C158.897 72.9271 158.897 74.541 158.897 76.1668C158.897 76.5254 158.79 76.645 158.437 76.6091C158.083 76.5733 157.363 76.8123 157.068 76.5015C156.773 76.1907 157.021 75.6169 157.021 75.1507C157.021 72.2457 157.021 69.3407 157.021 66.4477C157.021 66.0652 157.127 65.9337 157.493 65.9695C157.807 65.9994 158.123 65.9994 158.437 65.9695C158.814 65.9695 158.956 66.0413 158.944 66.4597C158.885 68.0735 158.897 69.6994 158.897 71.3132Z" fill="#B8A981"/>
<path d="M172.452 38.9752C172.452 40.613 172.452 42.2388 172.452 43.8766C172.452 44.2233 172.358 44.3308 172.027 44.3069C171.697 44.283 171.272 44.3069 170.848 44.3069C170.423 44.3069 170.47 44.2472 170.47 43.9483C170.47 40.6409 170.47 37.3294 170.47 34.014C170.47 33.7271 170.565 33.6434 170.836 33.6554C171.107 33.6673 171.614 33.6554 172.016 33.6554C172.417 33.6554 172.405 33.7749 172.405 34.0738C172.44 35.7116 172.452 37.3374 172.452 38.9752Z" fill="#B8A981"/>
<path d="M100.31 62.6812C100.31 65.3829 100.31 68.0966 100.31 70.7984C100.31 71.2287 100.18 71.3363 99.7794 71.3363C97.5986 71.447 95.4135 71.2376 93.2919 70.7147C90.978 70.0733 88.8372 68.9101 87.0294 67.3119C85.2217 65.7137 83.7939 63.722 82.8529 61.4857C81.7829 59.052 81.3483 56.3803 81.5908 53.7272C81.8571 50.0432 83.3454 46.5588 85.8135 43.8407C88.0829 41.2644 91.1478 39.5448 94.5068 38.9633C96.0943 38.7545 97.6963 38.6825 99.2958 38.7481C100.275 38.7481 100.275 38.7481 100.275 39.7403C100.275 40.5532 100.275 40.5293 99.4727 40.5532C97.9334 40.4836 96.3911 40.5395 94.8607 40.7206C93.0843 41.0087 91.3842 41.6595 89.8635 42.6335C88.3428 43.6076 87.0331 44.8846 86.0141 46.3871C83.9485 49.2341 83.0025 52.7583 83.3601 56.2735C83.6898 59.9638 85.4043 63.3851 88.1499 65.8318C90.8955 68.2786 94.4628 69.5642 98.1162 69.4236C98.3993 69.4236 98.4937 69.3399 98.4937 69.041V56.1779C98.4937 55.9029 98.4229 55.7834 98.1398 55.8192C97.8567 55.8551 97.8567 55.7236 97.8685 55.5204C97.8685 55.0542 97.6798 54.4564 97.9393 54.1576C98.1988 53.8587 98.8122 54.0619 99.2722 54.05C100.287 54.05 100.287 54.05 100.287 55.0542V62.6812H100.31Z" fill="white"/>
<path d="M98.423 35.0411H99.9918C100.239 35.0411 100.346 35.1128 100.334 35.3758C100.322 35.6388 100.334 36.0931 100.334 36.4637C100.334 36.8343 100.239 36.8701 99.9328 36.8701C98.7532 36.8701 97.6563 36.8701 96.5239 36.8701C92.4026 37.0468 88.4755 38.6939 85.4362 41.5205C82.3739 44.2227 80.3555 47.9372 79.7389 52.0046C79.2898 54.5241 79.3875 57.1124 80.0251 59.5897C80.6626 62.0671 81.8248 64.374 83.4309 66.3501C86.1217 69.8192 89.998 72.1397 94.2945 72.8534C96.0981 73.1226 97.9227 73.2187 99.7441 73.1404C100.346 73.1404 100.346 73.1404 100.346 73.75V74.6586C100.346 74.8618 100.346 74.9694 100.074 74.9694C96.5739 75.2476 93.0568 74.7162 89.7887 73.4153C86.7145 72.1621 84.0126 70.124 81.9456 67.4992C79.8787 64.8744 78.5171 61.7522 77.9932 58.4362C77.4491 55.6313 77.5322 52.7385 78.2364 49.9704C78.9406 47.2024 80.2481 44.6295 82.0626 42.441C84.9691 38.7229 89.1195 36.2135 93.7284 35.3878C95.2783 35.1167 96.8507 35.0005 98.423 35.0411Z" fill="white"/>
<path d="M98.1153 42.3095C98.8466 42.3095 99.3538 42.3095 99.861 42.3095C100.144 42.3095 100.262 42.3812 100.262 42.692C100.262 43.5647 100.262 44.4494 100.262 45.322C100.262 45.597 100.179 45.7046 99.9082 45.6807H98.8348C98.5989 45.6807 98.5163 45.597 98.5163 45.3699C98.5163 45.1427 98.5163 44.7602 98.5163 44.4613C98.5163 44.1624 98.4338 44.1385 98.1978 44.1266C95.5303 43.9002 92.8791 44.7222 90.7931 46.4224C88.7071 48.1226 87.3462 50.5707 86.9921 53.2599C86.7202 54.7924 86.7776 56.3664 87.1603 57.8745C87.5429 59.3825 88.242 60.7892 89.2097 61.9987C90.0425 63.0617 91.0748 63.947 92.247 64.6036C93.4192 65.2602 94.7081 65.675 96.0393 65.8242C96.9475 65.9317 96.9593 65.9198 97.0301 66.8522C97.1009 67.7847 97.1127 67.7608 96.1454 67.6652C94.096 67.4881 92.1279 66.771 90.4364 65.5851C88.9295 64.5633 87.671 63.2083 86.7557 61.6221C85.8403 60.0359 85.292 58.2599 85.1521 56.4278C84.8185 53.7042 85.3648 50.9443 86.7091 48.5617C87.5977 46.9495 88.8371 45.5636 90.3332 44.5092C91.8293 43.4549 93.5427 42.7599 95.3433 42.4768C96.2599 42.3314 97.1881 42.2754 98.1153 42.3095Z" fill="white"/>
<path d="M166.777 38.7842L166.576 38.6646C166.986 38.4305 167.317 38.0778 167.527 37.6519C167.737 37.2259 167.817 36.746 167.756 36.2737C167.702 35.5688 167.383 34.9118 166.865 34.4381C166.347 33.9643 165.67 33.71 164.972 33.7274C163.415 33.7274 161.858 33.7274 160.254 33.7274C159.995 33.7274 159.924 33.823 159.924 34.0741C159.924 37.3855 159.924 40.6969 159.924 44.0084C159.924 44.3192 160.042 44.3909 160.313 44.3789H162.023C163.202 44.4551 164.384 44.4551 165.562 44.3789C166.201 44.3235 166.805 44.0611 167.285 43.6304C167.765 43.1998 168.096 42.6239 168.228 41.988C168.395 41.3663 168.341 40.705 168.076 40.1195C167.811 39.5339 167.351 39.0613 166.777 38.7842ZM161.929 35.5445C161.929 35.3293 162.012 35.2456 162.224 35.2576H164.453C164.642 35.2607 164.829 35.3015 165.002 35.3777C165.176 35.4539 165.333 35.564 165.464 35.7016C165.595 35.8393 165.699 36.0018 165.768 36.18C165.838 36.3581 165.872 36.5484 165.869 36.74C165.858 37.098 165.715 37.4389 165.468 37.6955C165.221 37.9522 164.889 38.106 164.536 38.1267C163.757 38.1267 162.979 38.1267 162.177 38.1267C161.953 38.1267 161.894 38.0311 161.894 37.8278C161.933 37.1026 161.945 36.3415 161.929 35.5445ZM164.76 42.7173H163.58C163.132 42.7173 162.684 42.7173 162.236 42.7173C161.988 42.7173 161.905 42.6336 161.905 42.3825C161.905 41.5696 161.905 40.7447 161.905 39.9916C161.905 39.7525 161.988 39.6808 162.224 39.6808C163.085 39.6808 163.946 39.6808 164.819 39.6808C165.039 39.6459 165.263 39.6602 165.477 39.7226C165.69 39.7851 165.888 39.8942 166.055 40.0424C166.223 40.1905 166.356 40.374 166.446 40.58C166.536 40.786 166.58 41.0094 166.576 41.2347C166.572 41.4599 166.519 41.6814 166.421 41.8837C166.323 42.0859 166.182 42.264 166.009 42.4053C165.836 42.5466 165.635 42.6478 165.419 42.7017C165.203 42.7556 164.978 42.7609 164.76 42.7173Z" fill="#B8A981"/>
<path d="M155.455 50.8451C154.818 50.3466 154.088 49.9852 153.309 49.7832C152.53 49.5811 151.718 49.5428 150.924 49.6704C150.129 49.7981 149.369 50.089 148.69 50.5254C148.011 50.9618 147.427 51.5344 146.974 52.2079C146.525 52.9106 146.254 53.7142 146.184 54.5481C146.114 55.382 146.248 56.2205 146.573 56.9898C146.932 57.9867 147.569 58.8563 148.406 59.4931C149.244 60.1298 150.246 60.5061 151.291 60.5761C152.069 60.6339 152.85 60.5278 153.586 60.2645C154.321 60.0012 154.995 59.5864 155.564 59.0463C156.134 58.5061 156.587 57.8523 156.895 57.1259C157.203 56.3996 157.359 55.6165 157.354 54.826C157.39 54.0545 157.236 53.2861 156.904 52.5907C156.572 51.8954 156.074 51.2953 155.455 50.8451ZM151.798 58.8905C150.8 58.8811 149.846 58.4726 149.144 57.754C148.441 57.0354 148.047 56.0647 148.047 55.0531C148.056 54.0511 148.456 53.0934 149.158 52.3882C149.861 51.683 150.809 51.2874 151.798 51.2874C152.292 51.284 152.782 51.3816 153.239 51.5743C153.695 51.767 154.108 52.0509 154.454 52.409C154.8 52.7672 155.071 53.1922 155.251 53.6588C155.431 54.1255 155.516 54.624 155.502 55.1248C155.515 55.6219 155.428 56.1165 155.246 56.5785C155.065 57.0405 154.793 57.4603 154.447 57.8125C154.1 58.1646 153.687 58.4418 153.231 58.6271C152.776 58.8124 152.289 58.9021 151.798 58.8905Z" fill="#B8A981"/>
<path d="M144.448 59.9914C143.799 58.9275 143.185 57.8635 142.548 56.8115C142.395 56.5485 142.395 56.4409 142.678 56.3094C143.451 55.894 144.034 55.1897 144.302 54.3459C144.571 53.5022 144.505 52.5855 144.117 51.7906C143.809 51.1825 143.332 50.6788 142.745 50.3412C142.159 50.0036 141.488 49.8467 140.815 49.8898C139.482 49.8898 138.125 49.8898 136.792 49.8898C136.427 49.8898 136.297 49.9854 136.297 50.368C136.297 51.9819 136.297 53.5838 136.297 55.1498C136.297 56.7159 136.297 58.3536 136.297 59.9317C136.297 60.3022 136.415 60.4098 136.757 60.3859C137.114 60.362 137.473 60.362 137.83 60.3859C138.161 60.3859 138.279 60.3022 138.267 59.9556C138.267 59.0231 138.267 58.0787 138.267 57.1462C138.267 56.8354 138.337 56.7039 138.668 56.7278C139.127 56.7517 139.588 56.7517 140.048 56.7278C140.187 56.7085 140.329 56.7384 140.449 56.8124C140.569 56.8864 140.661 57 140.708 57.1343C141.027 57.732 141.345 58.3297 141.699 58.9036C142.053 59.4774 142.112 60.099 142.56 60.3022C143.008 60.5055 143.669 60.3022 144.235 60.3859C144.613 60.4098 144.624 60.2903 144.448 59.9914ZM141.168 55.0064C140.293 55.0661 139.414 55.0661 138.538 55.0064C138.314 55.0064 138.255 54.8988 138.255 54.6955C138.255 54.2054 138.255 53.7272 138.255 53.249C138.255 52.7709 138.255 52.3046 138.255 51.8384C138.255 51.5754 138.255 51.4559 138.609 51.4678C139.375 51.4678 140.154 51.4678 140.968 51.4678C141.396 51.4791 141.805 51.6518 142.115 51.9522C142.424 52.2527 142.612 52.6592 142.641 53.0925C142.671 53.5258 142.54 53.9546 142.274 54.2953C142.008 54.6359 141.627 54.8639 141.204 54.9346L141.168 55.0064Z" fill="#B8A981"/>
<path d="M180.13 76.1182L176.509 67.3316C176.332 66.8893 176.273 66.3035 175.907 66.0525C175.541 65.8014 174.975 66.0525 174.503 65.9688C174.032 65.8851 174.067 66.0883 173.949 66.3633C173.147 68.3478 172.321 70.3203 171.507 72.3406C170.929 73.7393 170.328 75.1499 169.762 76.6084C170.409 76.7241 171.072 76.7241 171.72 76.6084C172.156 76.4171 172.18 75.6401 172.427 75.138V75.0543C172.427 74.7554 172.663 74.6717 172.97 74.6717C174.256 74.6717 175.541 74.6717 176.827 74.6717C177.264 74.6717 177.511 74.7554 177.641 75.2097C177.729 75.7173 177.949 76.1919 178.278 76.5845C178.644 76.8953 179.281 76.6681 179.788 76.6801C180.295 76.6921 180.33 76.6084 180.13 76.1182ZM176.379 72.9025H173.654C173.524 72.9025 173.253 72.9981 173.383 72.6873L175.081 68.8259L175.718 70.38L176.603 72.5438C176.697 72.771 176.733 72.9144 176.379 72.9025Z" fill="#B8A982"/>
<path d="M144.849 43.9121C143.611 40.9474 142.396 37.9348 141.169 35.0059C140.981 34.5636 140.945 33.942 140.568 33.7388C140.19 33.5355 139.636 33.7388 139.152 33.667C138.869 33.667 138.739 33.7746 138.633 34.0257C137.371 37.1219 136.097 40.2182 134.835 43.3263C134.422 44.3186 134.434 44.3186 135.484 44.3186C135.661 44.3066 135.838 44.3066 136.015 44.3186C136.086 44.3379 136.161 44.342 136.234 44.3304C136.307 44.3188 136.377 44.2919 136.439 44.2514C136.501 44.2109 136.554 44.1576 136.595 44.0951C136.636 44.0326 136.663 43.9621 136.675 43.8882C136.817 43.4459 137.041 43.0275 137.206 42.5971C137.226 42.5019 137.281 42.418 137.36 42.3624C137.439 42.3069 137.536 42.284 137.631 42.2982H141.794C141.895 42.2832 141.998 42.3067 142.083 42.3641C142.168 42.4215 142.229 42.5088 142.254 42.6091C142.408 43.0514 142.596 43.4818 142.75 43.9241C142.76 43.9861 142.782 44.0455 142.815 44.0989C142.847 44.1523 142.89 44.1987 142.94 44.2353C142.991 44.272 143.048 44.2982 143.108 44.3125C143.169 44.3268 143.231 44.3288 143.292 44.3186C143.725 44.2947 144.158 44.2947 144.59 44.3186C144.956 44.3305 144.979 44.211 144.849 43.9121ZM141.205 40.6485H138.256C138.032 40.6485 137.961 40.5768 138.067 40.3497C138.645 39.1542 139.247 37.8751 139.836 36.5122L141.405 40.3257C141.5 40.5887 141.382 40.6366 141.205 40.6366V40.6485Z" fill="#B8A981"/>
<path d="M145.121 76.1897C143.859 73.1412 142.608 70.0809 141.346 67.0205C140.898 65.9326 140.898 65.9326 139.73 65.9326H139.506C139.188 65.9326 139.022 66.0283 138.904 66.3271C138.409 67.5824 137.878 68.8376 137.371 70.0928C136.545 72.1012 135.716 74.0936 134.882 76.0701C134.741 76.4168 134.776 76.5483 135.177 76.5244C135.57 76.5019 135.964 76.5019 136.357 76.5244C136.467 76.5392 136.579 76.512 136.67 76.4479C136.762 76.3838 136.827 76.2875 136.852 76.1777C137.017 75.7354 137.23 75.2931 137.395 74.8388C137.423 74.7312 137.488 74.6377 137.58 74.576C137.671 74.5143 137.781 74.4887 137.89 74.5041H141.205C142.384 74.5041 142.384 74.5041 142.809 75.6039C143.186 76.5244 143.186 76.5244 144.177 76.5244C144.401 76.5124 144.625 76.5124 144.849 76.5244C145.227 76.5602 145.227 76.4407 145.121 76.1897ZM141.452 72.8663H138.456C138.161 72.8663 138.315 72.6631 138.362 72.5555C138.787 71.5632 139.223 70.5949 139.648 69.6146C139.754 69.3516 139.872 69.1006 140.025 68.7539L141.594 72.6033C141.688 72.8065 141.617 72.8663 141.452 72.8663Z" fill="#B8A981"/>
</svg>
