<svg xmlns="http://www.w3.org/2000/svg" xmlns:xlink="http://www.w3.org/1999/xlink" version="1.1" id="Layer_1" x="0px" y="0px" viewBox="0 0 262 113" style="enable-background:new 0 0 262 113;" xml:space="preserve">
<style type="text/css">
	.st0{fill:#0667D0;}
	.st1{fill:#AAB4C0;}
	.st2{fill:#2E3742;}
</style>
<g>
	<path id="Shape" class="st0" d="M49.43,61.97c0.33,0.76,0.79,1.45,1.33,2.06c-1.18,0.64-2.39,0.94-3.76,0.94   c-4,0-6.88-2.67-6.88-6.94c0-4.3,3.03-6.97,6.88-6.97c1.36,0,2.45,0.3,3.54,0.88c-0.52,0.64-0.94,1.36-1.24,2.15   c-0.67-0.27-1.33-0.39-2.03-0.39c-2.36,0-4.21,1.55-4.21,4.33c0,2.64,1.79,4.33,4.3,4.33C48.13,62.37,48.79,62.24,49.43,61.97z    M57.46,51.1c3.94,0,6.76,2.82,6.76,6.97c0,4.12-2.85,6.94-6.76,6.94s-6.73-2.82-6.73-6.94C50.73,53.91,53.58,51.1,57.46,51.1   L57.46,51.1z M57.46,53.64c-2.18,0-3.79,1.7-3.79,4.42c0,2.67,1.61,4.39,3.79,4.39c2.24,0,3.82-1.7,3.82-4.39   C61.28,55.34,59.73,53.64,57.46,53.64z M66.09,64.67v-13.3h2.94v13.3H66.09z M65.73,47.31c0-1.03,0.85-1.82,1.82-1.82   s1.82,0.82,1.82,1.82c0,1.06-0.85,1.88-1.82,1.88C66.58,49.19,65.73,48.34,65.73,47.31L65.73,47.31z M71.58,52.22   c1.82-0.73,4.09-1.15,6-1.15c3.33,0,5.48,1.3,5.48,5.03v8.54h-2.91V56.4c0-1.91-1.18-2.61-2.82-2.61c-1.03,0-2.06,0.15-2.85,0.39   V64.7h-2.94V52.22H71.58z M85.51,44.28h2.94v7.48c0.61-0.33,1.82-0.67,3-0.67c3.79,0,6.63,2.45,6.63,6.73   c0,4.3-2.82,7.18-7.66,7.18c-1.88,0-3.54-0.39-4.88-0.88V44.28H85.51z M88.42,62.15c0.58,0.18,1.3,0.27,2.03,0.27   c2.7,0,4.6-1.51,4.6-4.57c0-2.58-1.82-4.12-4.03-4.12c-1.15,0-2.03,0.3-2.64,0.64v7.79H88.42z M106.48,55.76   c0-1.45-1.06-2.09-2.51-2.09c-1.51,0-2.7,0.45-3.79,1.09v-2.61c1.15-0.67,2.64-1.09,4.24-1.09c2.88,0,4.91,1.21,4.91,4.54v8.79   c-1.24,0.33-3,0.55-4.48,0.55c-3.39,0-5.88-1.06-5.88-4.06c0-2.7,2.27-4.03,6.06-4.03h1.45V55.76L106.48,55.76z M106.48,58.85   h-1.24c-2.03,0-3.36,0.61-3.36,1.94c0,1.39,1.24,1.91,3.03,1.91c0.45,0,1.06-0.06,1.61-0.15L106.48,58.85L106.48,58.85z    M111.47,61.06c1.21,0.94,2.67,1.51,4,1.51c1.3,0,2.15-0.45,2.15-1.51c0-1.09-0.76-1.48-2.45-1.91c-2.73-0.64-3.88-1.73-3.88-4.06   c0-2.7,2-4.03,4.67-4.03c1.48,0,2.67,0.33,3.76,1.03v2.73c-1.15-0.85-2.27-1.36-3.67-1.36c-1.27,0-1.94,0.64-1.94,1.51   s0.58,1.33,2.06,1.73c3,0.67,4.27,1.79,4.27,4.21c0,2.79-2.09,4.06-4.94,4.06c-1.55,0-3.06-0.42-4.06-1.09v-2.82H111.47z    M124.47,58.7v0.06c0.18,2.36,2.18,3.67,4.24,3.67c1.82,0,3.09-0.42,4.39-1.3v2.61c-1.18,0.85-2.94,1.24-4.6,1.24   c-4.09,0-6.85-2.64-6.85-6.85c0-4.24,2.73-7.06,6.33-7.06c3.82,0,5.6,2.48,5.6,6.12v1.51L124.47,58.7L124.47,58.7z M130.83,56.79   c-0.06-2.06-1.06-3.21-2.97-3.21c-1.7,0-2.94,1.21-3.3,3.21H130.83z"/>
	<path id="Rectangle-path" class="st1" d="M144.01,43.64h0.27c0.27,0,0.48,0.21,0.48,0.48v27.27c0,0.27-0.21,0.48-0.48,0.48h-0.27   c-0.27,0-0.48-0.21-0.48-0.48V44.13C143.53,43.85,143.77,43.64,144.01,43.64z"/>
	<path id="a" class="st2" d="M160.89,64.7h-1.64l-5.03-13.42h1.48l4.42,12.03l4.42-12.03h1.42L160.89,64.7z M173.94,59.85h-7.27   v0.03c0,2.42,1.7,3.85,3.57,3.85c1.36,0,2.3-0.36,3.27-1.12v1.36c-0.85,0.67-2.09,0.94-3.27,0.94c-2.79,0-4.91-1.94-4.91-5.15   c0-2.97,1.97-5.15,4.57-5.15c2.42,0,4.03,1.48,4.03,4.3L173.94,59.85L173.94,59.85z M166.76,58.7h5.88   c-0.09-2.06-1.18-2.88-2.79-2.88C168.37,55.82,167.16,56.85,166.76,58.7z M175.43,64.7v-9.33c1.27-0.48,2.73-0.76,4.03-0.76   c2.42,0,3.91,0.97,3.91,3.42v6.63h-1.33v-6.36c0-2-1.39-2.45-2.7-2.45c-1,0-1.91,0.18-2.61,0.36v8.45h-1.3V64.7z M184.18,56v-1.15   h1.48v-2.39H187v2.39h2.7V56H187v6c0,1.27,0.48,1.76,1.39,1.76c0.61,0,1.12-0.21,1.79-0.55v1.21c-0.58,0.3-1.24,0.48-2.06,0.48   c-1.39,0-2.42-0.76-2.42-2.79v-6.15h-1.51V56z M198.91,54.85v9.72c-1.18,0.21-2.36,0.33-3.36,0.33c-2.79,0-4.36-0.97-4.36-3.42   v-6.63h1.33v6.57c0,1.85,1.42,2.33,2.97,2.33c0.67,0,1.42-0.03,2.12-0.12v-8.76h1.3V54.85z M202.48,56.49v8.21h-1.33v-8.94   c1-0.67,2.24-1.06,3.57-1.06c0.52,0,1.06,0.06,1.61,0.21v1.33c-0.58-0.21-1.24-0.24-1.7-0.24   C203.69,55.97,202.97,56.19,202.48,56.49z M214.9,59.85h-7.27v0.03c0,2.42,1.7,3.85,3.57,3.85c1.36,0,2.3-0.36,3.27-1.12v1.36   c-0.85,0.67-2.09,0.94-3.27,0.94c-2.79,0-4.91-1.94-4.91-5.15c0-2.97,1.97-5.15,4.57-5.15c2.42,0,4.03,1.48,4.03,4.3L214.9,59.85   L214.9,59.85z M207.72,58.7h5.88c-0.09-2.06-1.18-2.88-2.79-2.88C209.3,55.82,208.09,56.85,207.72,58.7z M215.9,64.12v-1.55   c0.82,0.76,1.67,1.18,2.7,1.18c1.21,0,1.97-0.48,1.97-1.58c0-1.18-0.85-1.48-2.36-2c-1.7-0.58-2.42-1.3-2.42-2.88   c0-1.73,1.27-2.67,3.03-2.67c0.94,0,1.88,0.21,2.64,0.76v1.45c-0.76-0.64-1.51-1.06-2.64-1.06c-1.06,0-1.73,0.58-1.73,1.51   c0,0.91,0.52,1.36,2,1.85c1.67,0.52,2.79,1.18,2.79,2.97c0,1.94-1.48,2.82-3.27,2.82C217.54,64.91,216.51,64.61,215.9,64.12z"/>
</g>
</svg>