<svg width="262" height="113" viewBox="0 0 262 113" fill="none" xmlns="http://www.w3.org/2000/svg">
<path d="M195.5 31.8164H66.5V81.1849H195.5V31.8164Z" fill="black"/>
<path d="M109.843 70.2999C109.78 70.4938 109.696 70.6706 109.589 70.8274C109.481 70.9852 109.353 71.1192 109.206 71.2285C109.059 71.3378 108.893 71.4234 108.711 71.4842C108.529 71.5451 108.333 71.5745 108.121 71.5745C107.862 71.5745 107.621 71.5232 107.397 71.4205C107.173 71.3179 106.978 71.1772 106.815 70.9976C106.651 70.8179 106.521 70.6069 106.427 70.3655C106.332 70.124 106.285 69.8636 106.285 69.5841C106.285 69.3056 106.332 69.0452 106.427 68.8028C106.521 68.5604 106.651 68.3504 106.815 68.1707C106.979 67.9911 107.173 67.8504 107.397 67.7477C107.62 67.6451 107.862 67.5938 108.121 67.5938C108.336 67.5938 108.536 67.6232 108.72 67.6821C108.904 67.7411 109.069 67.8247 109.217 67.935C109.365 68.0452 109.492 68.1793 109.6 68.3361C109.708 68.4939 109.791 68.6697 109.848 68.8636H109.067C108.983 68.6878 108.859 68.5433 108.696 68.4293C108.532 68.3152 108.341 68.2591 108.122 68.2591C107.965 68.2591 107.82 68.2943 107.685 68.3637C107.55 68.4331 107.433 68.5291 107.332 68.6498C107.232 68.7705 107.153 68.9121 107.094 69.0728C107.036 69.2343 107.007 69.4045 107.007 69.5841C107.007 69.7676 107.036 69.9396 107.094 70.1012C107.153 70.2628 107.232 70.4035 107.332 70.5252C107.433 70.6459 107.55 70.7419 107.685 70.8113C107.82 70.8806 107.965 70.9158 108.122 70.9158C108.34 70.9158 108.532 70.8569 108.696 70.74C108.86 70.6231 108.984 70.4757 109.067 70.2999H109.843Z" fill="white"/>
<path d="M121.268 70.7445L121.011 71.5087H120.246L121.568 67.6924H122.48L123.803 71.5087H123.038L122.781 70.7445H121.268ZM122.021 68.5013L121.492 70.0687H122.551L122.021 68.5013Z" fill="white"/>
<path d="M137.292 68.9243C137.292 69.1001 137.262 69.2636 137.205 69.4138C137.146 69.564 137.063 69.6932 136.956 69.8016C136.849 69.9099 136.718 69.9936 136.565 70.0544C136.412 70.1153 136.243 70.1447 136.057 70.1447H135.167V71.5087H134.445V67.6924H136.04C136.237 67.6924 136.413 67.7219 136.57 67.7798C136.727 67.8388 136.858 67.9215 136.964 68.027C137.07 68.1334 137.151 68.2627 137.207 68.4148C137.263 68.5678 137.292 68.737 137.292 68.9243ZM135.166 68.3692V69.4803H136.035C136.202 69.4803 136.333 69.4366 136.428 69.3482C136.523 69.2598 136.57 69.1191 136.57 68.9243C136.57 68.7304 136.523 68.5887 136.428 68.5013C136.334 68.4129 136.203 68.3692 136.035 68.3692H135.166Z" fill="white"/>
<path d="M148.757 71.5097H148.035V67.6934H148.757V71.5097Z" fill="white"/>
<path d="M161.181 68.3692V71.5097H160.459V68.3692H159.443V67.6924H162.197V68.3692H161.181Z" fill="white"/>
<path d="M173.578 70.7445L173.322 71.5087H172.557L173.879 67.6924H174.791L176.113 71.5087H175.348L175.091 70.7445H173.578ZM174.333 68.5013L173.803 70.0687H174.863L174.333 68.5013Z" fill="white"/>
<path d="M187.477 70.8329H189.362V71.5097H186.756V67.6934H187.477V70.8329Z" fill="white"/>
<path d="M119.793 50.5869C119.793 53.1799 119.033 55.4013 117.586 57.0067C116.801 57.8955 115.82 58.5865 114.666 59.0314C113.489 59.5009 112.164 59.7471 110.693 59.7471H107.332H106.375V41.4268H109.22H110.693C112.165 41.4268 113.489 41.6492 114.666 42.1425C115.82 42.5873 116.801 43.2784 117.586 44.1671C119.032 45.7725 119.793 47.9949 119.793 50.5869ZM116.947 50.5869C116.947 48.7106 116.432 47.1546 115.475 46.0929C114.395 44.8829 112.801 44.2907 110.692 44.2907H109.219V56.8832H110.692C112.801 56.8832 114.395 56.2663 115.475 55.081C116.432 54.0193 116.947 52.4385 116.947 50.5869Z" fill="white"/>
<path d="M137.577 60.5617L132.769 49.5252L128.255 60.5617L119.914 41.4268H123.054L128.181 53.5003L131.198 45.8952L132.671 42.1178L134.265 45.8457L137.503 53.5003L142.286 41.4268H145.402L137.577 60.5617Z" fill="white"/>
<path d="M173.882 54.3149C173.882 55.2283 173.685 56.0429 173.293 56.7843C172.901 57.4754 172.337 58.0685 171.626 58.5371C170.374 59.327 168.682 59.7471 166.622 59.7471H165.002H162.598V41.4268H165.443H166.621C168.632 41.4268 170.104 41.7975 171.135 42.5626C171.699 42.9828 172.116 43.5255 172.386 44.1424C172.632 44.7099 172.754 45.3524 172.754 46.0682C172.754 47.0557 172.435 48.2658 171.331 49.4263C171.626 49.6241 171.895 49.8465 172.165 50.0927C172.704 50.6354 173.122 51.2285 173.416 51.8948C173.735 52.6363 173.882 53.4508 173.882 54.3149ZM165.443 43.9941V49.5499C166.007 49.4263 166.67 49.2286 167.307 48.9577C168.215 48.587 168.926 48.1679 169.417 47.6736C169.932 47.1803 170.177 46.6613 170.177 46.0691C170.177 45.1804 169.858 44.8344 169.589 44.6367C168.902 44.1186 167.577 43.9951 166.621 43.9951H165.443V43.9941ZM171.33 54.3149C171.33 53.352 171.011 52.5868 170.374 51.969C170.005 51.5983 169.54 51.3027 168.975 51.0555C168.729 51.1544 168.484 51.278 168.215 51.3768C167.209 51.7969 166.203 52.0431 165.443 52.2161V57.1541H166.621C168.166 57.1541 169.417 56.8822 170.226 56.3642C170.986 55.8709 171.33 55.2293 171.33 54.3149Z" fill="white"/>
<path d="M182.146 59.7471C180.282 59.6235 178.369 58.8831 176.406 57.5248L178.025 55.1789C180.723 57.0799 183.275 57.4012 184.991 56.1171C186.218 55.1789 186.807 53.5497 186.366 52.2161C186.145 51.5992 185.753 51.105 185.139 50.7343C184.379 50.2647 183.348 50.0432 182.072 50.0432L179.644 50.0679L182.784 44.266H177.558V41.4268H187.591L184.329 47.4017C185.187 47.5994 185.947 47.896 186.635 48.2905C187.788 49.0062 188.622 50.0432 189.039 51.3027C189.456 52.5127 189.432 53.8957 189.014 55.1789C188.572 56.4383 187.763 57.5989 186.708 58.3888C185.531 59.2775 184.108 59.7471 182.563 59.7471C182.416 59.7471 182.269 59.7471 182.146 59.7471Z" fill="white"/>
<path d="M159.237 41.4268H147.934V43.9941H159.237V41.4268Z" fill="white"/>
<path d="M159.134 48.8838H147.934V51.4768H159.134V48.8838Z" fill="white"/>
<path d="M159.237 57.1553H147.934V59.7483H159.237V57.1553Z" fill="white"/>
<path d="M72.6387 41.4482V71.3611H102.358V41.4482H72.6387ZM82.308 67.2159H78.7241V57.5301H82.308V67.2159ZM89.3001 67.2159H85.6558V52.499H89.3001V67.2159ZM96.2723 67.2159H92.6072V45.5925H96.2723V67.2159Z" fill="white"/>
</svg>
