<svg width="262" height="113" viewBox="0 0 262 113" fill="none" xmlns="http://www.w3.org/2000/svg">
<path d="M96.0547 87.9922C95.7734 87.7109 95.6328 87.2891 95.6328 86.7969V66.2656H97.3906V86.8672H109.414V88.4141H97.25C96.7578 88.4141 96.3359 88.2734 96.0547 87.9922Z" fill="#0C72FA"/>
<path d="M125.375 81.9453H115.461L113 88.4141H111.172L119.609 66.2656H120.453C120.945 66.2656 121.367 66.6172 121.578 67.25L129.594 88.4141H127.766L125.375 81.9453ZM115.953 80.4688H124.813L120.453 68.6563L115.953 80.4688Z" fill="#0C72FA"/>
<path d="M132.477 87.9922C132.195 87.7109 132.055 87.2891 132.055 86.7969V66.2656H141.266C143.023 66.2656 144.43 66.6875 145.484 67.5313C146.539 68.375 147.102 69.5703 147.102 70.9766V72.8047C147.102 73.6484 146.891 74.4922 146.539 75.1953C146.188 75.8984 145.625 76.4609 144.992 76.8828C146.047 77.1641 146.891 77.6563 147.523 78.4297C148.156 79.2031 148.508 80.1172 148.508 81.1719V82.8594C148.508 84.4766 147.945 85.8125 146.891 86.7969C145.836 87.7813 144.359 88.2734 142.602 88.2734H133.672C133.18 88.4141 132.758 88.2734 132.477 87.9922ZM141.898 76.5312C142.953 76.5312 143.797 76.1797 144.43 75.5469C145.062 74.8438 145.344 74 145.344 72.875V71.0469C145.344 70.1328 144.992 69.3594 144.219 68.7969C143.445 68.2344 142.461 67.8828 141.266 67.8828H133.813V76.5312H141.898ZM142.391 86.8672C143.727 86.8672 144.781 86.5156 145.555 85.8125C146.328 85.1094 146.75 84.1953 146.75 83V81.3125C146.75 80.3281 146.398 79.5547 145.695 78.9219C144.992 78.2891 144.078 78.0078 143.023 78.0078H133.813V86.8672H142.391Z" fill="#0C72FA"/>
<path d="M152.656 87.0078C151.531 85.8828 150.969 84.4063 150.969 82.4375H152.656C152.656 83.8438 153.078 85.0391 153.852 85.8125C154.625 86.6563 155.75 87.0781 157.086 87.0781H160.602C161.937 87.0781 162.992 86.7969 163.836 86.1641C164.68 85.5313 165.031 84.7578 165.031 83.7734V81.5938C165.031 80.8203 164.75 80.1172 164.117 79.5547C163.555 78.9922 162.711 78.6406 161.656 78.4297L155.961 77.4453C154.414 77.1641 153.289 76.6719 152.375 75.8281C151.531 74.9844 151.109 73.9297 151.109 72.6641V70.8359C151.109 69.3594 151.672 68.2344 152.727 67.3203C153.852 66.4063 155.258 65.9844 157.086 65.9844H160.672C162.359 65.9844 163.766 66.4766 164.82 67.5313C165.875 68.5859 166.367 69.9219 166.367 71.6094H164.68C164.68 70.4141 164.328 69.4297 163.555 68.6563C162.852 67.8828 161.867 67.5313 160.672 67.5313H157.086C155.82 67.5313 154.766 67.8125 153.992 68.4453C153.219 69.0781 152.867 69.8516 152.867 70.8359V72.6641C152.867 73.5078 153.148 74.2109 153.711 74.7734C154.273 75.3359 155.047 75.6875 156.102 75.8984L161.727 76.8828C163.273 77.1641 164.539 77.7266 165.383 78.5C166.227 79.3438 166.719 80.3281 166.719 81.5938V83.7734C166.719 85.25 166.156 86.4453 165.031 87.3594C163.906 88.2734 162.43 88.6953 160.602 88.6953H157.016C155.258 88.6953 153.781 88.1328 152.656 87.0078Z" fill="#0C72FA"/>
<path d="M113.633 24.2187C112.156 23.5859 110.539 23.3047 108.711 23.3047H95.7031V46.7891C95.7031 47.8438 96.0547 48.7578 96.7578 49.4609C97.4609 50.1641 98.375 50.4453 99.5 50.4453H108.852C112.227 50.4453 114.758 49.6016 116.516 47.8438C117.078 47.2813 117.57 46.5781 117.992 45.875L113.633 24.2187ZM113.703 40.0391C113.703 41.8672 113.281 43.3438 112.438 44.2578C111.594 45.2422 110.328 45.6641 108.641 45.6641H101.047V28.0156H108.5C110.047 28.0156 111.312 28.4375 112.227 29.3516C113.211 30.2656 113.633 31.4609 113.633 32.8672V40.0391H113.703Z" fill="#0C72FA"/>
<path d="M166.508 27.9453V23.3047H150.617L150.547 23.7266L146.188 45.3125V50.5156H151.531V39.9688H165.102V35.3281H151.531V27.9453H166.508Z" fill="#0C72FA"/>
<path d="M148.367 23.3047L146.188 34.2734L143.516 47.4219C143.305 48.4766 142.953 49.25 142.391 49.7422C141.828 50.2344 141.055 50.4453 140.141 50.4453H137.891L132.125 31.8125H132.055L126.148 50.4453H123.898C122.984 50.4453 122.281 50.2344 121.719 49.8125C121.156 49.3906 120.734 48.6172 120.453 47.4219L119.047 40.5312L116.094 25.8359L115.602 23.3047H121.016L124.32 42.5703H124.391L130.016 24.7109H131.984C132.617 24.7109 133.18 24.8516 133.672 25.2031C134.164 25.5547 134.516 26.1172 134.797 27.0312L139.508 42.5H139.578L142.953 23.3047H148.367Z" fill="#0C72FA"/>
<path d="M112.437 53.3984C114.055 53.3984 115.531 53.8203 116.727 54.7344C117.641 55.4375 118.344 56.2109 118.977 56.9844C119.469 57.5469 119.961 58.1797 120.523 58.6016C120.875 58.8125 121.156 59.0234 121.648 59.0234C122.141 59.0234 122.492 58.8828 122.773 58.6016C123.266 58.25 123.828 57.6172 124.32 56.9844C124.953 56.2109 125.656 55.4375 126.57 54.7344C127.836 53.8203 129.242 53.3984 130.859 53.3984C132.477 53.3984 133.953 53.8203 135.148 54.7344C136.062 55.4375 136.766 56.2109 137.398 56.9844C137.891 57.5469 138.383 58.1797 138.945 58.6016C139.297 58.8125 139.578 59.0234 140.07 59.0234C140.562 59.0234 140.914 58.8828 141.195 58.6016C141.688 58.25 142.25 57.6172 142.742 56.9844C143.375 56.2109 144.078 55.4375 144.992 54.7344C146.258 53.8203 147.664 53.3984 149.281 53.3984C150.898 53.3984 152.375 53.8203 153.57 54.7344C154.484 55.4375 155.188 56.2109 155.82 56.9844C156.313 57.5469 156.805 58.1797 157.367 58.6016C157.719 58.8125 158 59.0234 158.492 59.0234C158.984 59.0234 159.336 58.8828 159.617 58.6016C160.109 58.25 160.672 57.6172 161.164 56.9844C161.797 56.2109 162.5 55.4375 163.414 54.7344C164.328 54.0313 165.453 53.6094 166.578 53.4688V57.2656C166.086 57.6172 165.523 58.25 165.031 58.8828C164.398 59.6562 163.695 60.4297 162.781 61.1328C161.516 62.0469 160.109 62.4687 158.492 62.4687C156.875 62.4687 155.398 62.0469 154.203 61.1328C153.289 60.4297 152.586 59.6562 151.953 58.8828C151.461 58.3203 150.969 57.6875 150.406 57.2656C150.055 57.0547 149.773 56.8437 149.281 56.8437C148.789 56.8437 148.438 56.9844 148.156 57.2656C147.664 57.6172 147.102 58.25 146.609 58.8828C145.977 59.6562 145.273 60.4297 144.359 61.1328C143.094 62.0469 141.688 62.4687 140.07 62.4687C138.453 62.4687 136.977 62.0469 135.781 61.1328C134.867 60.4297 134.164 59.6562 133.531 58.8828C133.039 58.3203 132.547 57.6875 131.984 57.2656C131.633 57.0547 131.352 56.8437 130.859 56.8437C130.367 56.8437 130.016 56.9844 129.734 57.2656C129.242 57.6172 128.68 58.25 128.188 58.8828C127.555 59.6562 126.852 60.4297 125.938 61.1328C124.672 62.0469 123.266 62.4687 121.648 62.4687C120.031 62.4687 118.555 62.0469 117.359 61.1328C116.445 60.4297 115.742 59.6562 115.109 58.8828C114.617 58.3203 114.125 57.6875 113.562 57.2656C113.211 57.0547 112.93 56.8437 112.437 56.8437C111.945 56.8437 111.594 56.9844 111.312 57.2656C110.82 57.6172 110.258 58.25 109.766 58.8828C109.133 59.6562 108.43 60.4297 107.516 61.1328C106.25 62.0469 104.844 62.4687 103.227 62.4687C101.609 62.4687 100.133 62.0469 98.9375 61.1328C98.0234 60.4297 97.3203 59.6562 96.6875 58.8828C96.1953 58.3203 95.7031 57.6875 95.1406 57.2656V53.4688C96.3359 53.6094 97.3906 54.0313 98.3047 54.7344C99.2188 55.4375 99.9219 56.2109 100.555 56.9844C101.047 57.5469 101.539 58.1797 102.102 58.6016C102.453 58.8125 102.734 59.0234 103.227 59.0234C103.719 59.0234 104.07 58.8828 104.352 58.6016C104.844 58.25 105.406 57.6172 105.898 56.9844C106.531 56.2109 107.234 55.4375 108.148 54.7344C109.344 53.8906 110.75 53.3984 112.437 53.3984Z" fill="#F27518"/>
</svg>
