<svg width="262" height="113" viewBox="0 0 262 113" fill="none" xmlns="http://www.w3.org/2000/svg">
<path d="M192.999 28.042H65.0801V83.9589H192.999V28.042Z" fill="black"/>
<path d="M77.2383 36.4258V53.8414H80.4196V46.6709H84.1958V44.0823H80.4196V38.9925H84.3922C84.6323 38.9925 84.8506 38.8396 84.9324 38.6157L85.7291 36.4258H77.2383Z" fill="white"/>
<path d="M94.2119 52.0783V41.6748H91.1888V50.1778C91.1888 50.6966 91.0524 51.1281 90.7904 51.4612C90.5231 51.7998 90.1738 51.9636 89.7482 51.9636C89.2734 51.9636 88.9515 51.8326 88.7769 51.565C88.6022 51.2974 88.5149 50.8987 88.5149 50.3635V41.6748H85.5137V50.8168C85.5137 51.9473 85.792 52.7828 86.3486 53.3125C86.9052 53.8477 87.6418 54.1153 88.5586 54.1153C89.3498 54.1153 89.9774 53.9733 90.4248 53.6894C90.8723 53.4054 91.2543 53.0996 91.5599 52.761H91.6035C91.6035 52.8975 91.6253 53.0777 91.6745 53.3016C91.7181 53.5255 91.7563 53.7003 91.789 53.8423H94.4247V53.7986C94.3483 53.5365 94.2937 53.247 94.2665 52.9303C94.2283 52.6081 94.2119 52.3241 94.2119 52.0783Z" fill="white"/>
<path d="M101.811 41.3301C101.09 41.3301 100.468 41.5212 99.9445 41.9035C99.4152 42.2858 98.9841 42.7391 98.6512 43.2579H98.6075C98.6075 43.1814 98.6021 43.0667 98.5857 42.9138C98.5693 42.7609 98.553 42.6025 98.5421 42.4442C98.5257 42.2858 98.5093 42.1329 98.4875 41.9854C98.4657 41.838 98.4438 41.7397 98.4329 41.6741H95.6172C95.6936 41.8871 95.7372 42.1165 95.7536 42.3622C95.77 42.608 95.7754 42.8756 95.7754 43.165V53.8471H98.7985V45.8738C98.7985 45.5352 98.8422 45.2457 98.935 45.0054C99.0277 44.7597 99.1423 44.5576 99.2896 44.3993C99.437 44.2409 99.6007 44.1207 99.7808 44.0443C99.9663 43.9678 100.141 43.9296 100.31 43.9296C100.676 43.9296 100.965 44.0497 101.167 44.2846C101.374 44.5194 101.478 44.929 101.478 45.5133V53.858H104.501V44.6996C104.501 43.6893 104.272 42.8756 103.813 42.2585C103.344 41.6359 102.684 41.3301 101.811 41.3301Z" fill="white"/>
<path d="M114.705 53.7973C114.628 53.628 114.568 53.3713 114.536 53.0272C114.497 52.6832 114.481 52.361 114.481 52.0551V36.6328H111.48V42.5254H111.436C111.36 42.4162 111.261 42.3015 111.136 42.1704C111.016 42.0394 110.852 41.9138 110.656 41.7936C110.459 41.6735 110.214 41.5697 109.925 41.4823C109.635 41.4004 109.281 41.3567 108.871 41.3567C108.004 41.3567 107.267 41.6571 106.672 42.2524C106.077 42.8476 105.777 43.7432 105.777 44.9338V50.4823C105.777 51.5527 106.039 52.4101 106.558 53.0491C107.076 53.6935 107.862 54.0102 108.915 54.0102C109.297 54.0102 109.63 53.9665 109.925 53.8737C110.214 53.7809 110.47 53.6662 110.694 53.5297C110.912 53.3931 111.103 53.2457 111.256 53.0818C111.409 52.9235 111.529 52.7706 111.622 52.634H111.643C111.676 52.8033 111.714 53.0163 111.769 53.2784C111.824 53.5406 111.862 53.7317 111.894 53.8519H114.71V53.7973H114.705ZM111.474 50.3786C111.474 50.7772 111.349 51.1104 111.098 51.378C110.847 51.6456 110.53 51.7766 110.148 51.7766C109.723 51.7766 109.39 51.6565 109.15 51.4107C108.915 51.165 108.795 50.8482 108.795 50.4496V45.2232C108.795 44.7809 108.904 44.4095 109.128 44.1091C109.352 43.8088 109.679 43.6613 110.126 43.6613C110.618 43.6613 110.961 43.8306 111.169 44.1638C111.376 44.5024 111.48 44.8573 111.48 45.2396V50.3786H111.474Z" fill="white"/>
<path d="M121.546 52.608C121.546 52.7937 121.574 53.0121 121.628 53.2743C121.683 53.5364 121.732 53.7275 121.776 53.8477H124.455V53.804C124.379 53.6347 124.324 53.3889 124.297 53.0722C124.264 52.75 124.253 52.4278 124.253 52.111V45.4757C124.253 44.1323 123.931 43.1056 123.293 42.4065C122.649 41.7021 121.568 41.3525 120.04 41.3525C118.818 41.3525 117.858 41.6474 117.154 42.2372C116.45 42.8271 116.101 43.6462 116.101 44.7002C116.101 44.9733 116.111 45.23 116.133 45.4539C116.155 45.6832 116.177 45.858 116.188 45.9836H118.638C118.605 45.8635 118.583 45.7215 118.567 45.5576C118.551 45.3993 118.545 45.2245 118.545 45.0443C118.545 44.6456 118.66 44.307 118.889 44.023C119.118 43.7391 119.446 43.5971 119.871 43.5971C120.373 43.5971 120.723 43.7391 120.913 44.023C121.104 44.307 121.197 44.6238 121.197 44.9733V45.9126C121.104 45.9563 120.935 46.0328 120.695 46.142C120.45 46.2512 120.182 46.3659 119.882 46.497C119.582 46.628 119.298 46.7591 119.025 46.8847C118.753 47.0158 118.534 47.1086 118.382 47.1687C117.558 47.551 116.892 48.037 116.39 48.6377C115.888 49.233 115.637 49.9211 115.637 50.7021V51.1608C115.637 52.0947 115.893 52.8155 116.406 53.3289C116.919 53.8422 117.667 54.0989 118.66 54.0989C119.347 54.0989 119.926 53.9405 120.401 53.6183C120.875 53.2961 121.241 52.963 121.497 52.608H121.546ZM121.208 50.429C121.208 50.844 121.055 51.1717 120.75 51.412C120.444 51.6578 120.133 51.7779 119.811 51.7779C119.462 51.7779 119.162 51.6687 118.916 51.4448C118.671 51.2209 118.551 50.9423 118.551 50.6092V50.2215C118.551 49.8556 118.687 49.5443 118.965 49.2821C119.238 49.02 119.555 48.8016 119.904 48.6159C120.09 48.523 120.264 48.4302 120.433 48.3428C120.57 48.2664 120.712 48.1899 120.859 48.1135C121.006 48.037 121.121 47.9769 121.214 47.9278V50.429H121.208Z" fill="white"/>
<path d="M134.398 53.8422V45.7051C134.398 45.2627 134.518 44.8586 134.763 44.4927C135.009 44.1268 135.342 43.9411 135.773 43.9411C136.138 43.9411 136.422 44.0613 136.619 44.2961C136.815 44.5309 136.919 44.9187 136.919 45.4539V53.8422H139.942V44.8149C139.942 43.7281 139.685 42.8817 139.172 42.27C138.66 41.6584 137.961 41.3525 137.077 41.3525C136.357 41.3525 135.751 41.5382 135.244 41.915C134.741 42.2919 134.338 42.7233 134.032 43.2093C133.863 42.7069 133.606 42.27 133.252 41.9041C132.903 41.5382 132.395 41.3525 131.74 41.3525C131.375 41.3525 131.036 41.4072 130.731 41.5218C130.425 41.6365 130.147 41.784 129.896 41.9587C129.645 42.1335 129.421 42.3301 129.23 42.5431C129.039 42.7561 128.875 42.969 128.739 43.182H128.695C128.663 42.8598 128.635 42.5649 128.603 42.2973C128.57 42.0297 128.532 41.8222 128.488 41.6693H125.65C125.71 41.8386 125.76 42.0461 125.787 42.2973C125.82 42.5485 125.83 42.8762 125.83 43.2694V53.8368H128.854V45.6996C128.854 45.503 128.886 45.2955 128.957 45.0825C129.028 44.8695 129.126 44.6784 129.257 44.5091C129.388 44.3398 129.541 44.2033 129.716 44.094C129.89 43.9848 130.087 43.9357 130.3 43.9357C131.014 43.9357 131.375 44.378 131.375 45.2627V53.8368H134.398V53.8422Z" fill="white"/>
<path d="M145.526 41.3525C144.107 41.3525 143.032 41.6911 142.307 42.3738C141.581 43.0564 141.221 44.105 141.221 45.5249V50.1778C141.221 51.5048 141.619 52.4988 142.41 53.1432C143.202 53.7931 144.255 54.1153 145.57 54.1153C146.852 54.1153 147.802 53.8095 148.424 53.1978C149.04 52.5862 149.351 51.7615 149.351 50.7239C149.351 50.4181 149.346 50.1614 149.341 49.9539C149.335 49.7463 149.313 49.5607 149.286 49.3914H146.907C146.923 49.4678 146.934 49.5934 146.939 49.7682C146.945 49.943 146.95 50.145 146.95 50.3744C146.95 50.8331 146.847 51.1936 146.639 51.4502C146.432 51.7124 146.11 51.838 145.668 51.838C145.133 51.838 144.762 51.7069 144.555 51.4393C144.347 51.1717 144.244 50.8004 144.244 50.3252V48.3101H149.466C149.499 47.9715 149.515 47.5673 149.526 47.0813C149.531 46.6007 149.537 46.1584 149.537 45.7652C149.537 44.236 149.188 43.1165 148.484 42.4065C147.78 41.7075 146.798 41.3525 145.526 41.3525ZM146.836 45.4102C146.836 45.5303 146.83 45.6614 146.825 45.787C146.819 45.9181 146.814 46.0382 146.814 46.142C146.814 46.2512 146.814 46.3277 146.814 46.3714H144.249V45.017C144.249 44.591 144.369 44.236 144.604 43.963C144.839 43.6899 145.171 43.5479 145.603 43.5479C146.028 43.5479 146.345 43.6899 146.541 43.9739C146.738 44.2579 146.841 44.6292 146.841 45.088C146.836 45.1808 146.836 45.2846 146.836 45.4102Z" fill="white"/>
<path d="M156.889 41.3301C156.169 41.3301 155.546 41.5212 155.023 41.9035C154.493 42.2858 154.062 42.7391 153.729 43.2579H153.686C153.686 43.1814 153.68 43.0667 153.664 42.9138C153.647 42.7609 153.631 42.6025 153.62 42.4442C153.604 42.2858 153.587 42.1329 153.566 41.9854C153.544 41.838 153.522 41.7397 153.511 41.6741H150.695C150.772 41.8871 150.815 42.1165 150.832 42.3622C150.848 42.608 150.854 42.8756 150.854 43.165V53.8471H153.877V45.8738C153.877 45.5352 153.92 45.2457 154.013 45.0054C154.106 44.7597 154.22 44.5576 154.368 44.3993C154.515 44.2409 154.679 44.1207 154.859 44.0443C155.044 43.9678 155.219 43.9296 155.388 43.9296C155.754 43.9296 156.043 44.0497 156.245 44.2846C156.452 44.5194 156.556 44.929 156.556 45.5133V53.858H159.579V44.6996C159.579 43.6893 159.35 42.8756 158.891 42.2585C158.422 41.6359 157.756 41.3301 156.889 41.3301Z" fill="white"/>
<path d="M165.908 51.7559C165.04 51.7559 164.604 51.3354 164.604 50.4944V43.8263V42.9744H166.737V41.134H164.604V39.583H161.624V41.134H160.342V42.9744H161.624V43.8263V50.6091C161.624 51.6795 161.902 52.5041 162.47 53.0721C162.961 53.5745 163.698 53.853 164.669 53.9186H164.675C166.95 53.9131 167.146 51.6631 167.146 51.6631C167.021 51.6904 166.841 51.7177 166.595 51.7341C166.355 51.7505 166.126 51.7559 165.908 51.7559Z" fill="white"/>
<path d="M176.28 52.1001V45.4757C176.28 44.1323 175.958 43.1056 175.32 42.4065C174.676 41.7021 173.596 41.3525 172.068 41.3525C170.845 41.3525 169.885 41.6474 169.181 42.2372C168.477 42.8271 168.128 43.6462 168.128 44.7002C168.128 44.9733 168.139 45.23 168.161 45.4539C168.182 45.6832 168.204 45.858 168.215 45.9836H170.665C170.633 45.8635 170.611 45.7215 170.594 45.5576C170.578 45.3993 170.573 45.2245 170.573 45.0443C170.573 44.6456 170.687 44.307 170.916 44.023C171.146 43.7391 171.473 43.5971 171.899 43.5971C172.401 43.5971 172.75 43.7391 172.941 44.023C173.132 44.307 173.225 44.6238 173.225 44.9733V45.9126C173.132 45.9563 172.963 46.0328 172.723 46.142C172.477 46.2512 172.21 46.3659 171.909 46.497C171.609 46.628 171.326 46.7591 171.053 46.8847C170.78 47.0158 170.562 47.1086 170.409 47.1687C169.585 47.551 168.919 48.037 168.417 48.6377C167.915 49.233 167.664 49.9211 167.664 50.7021V51.1608C167.664 52.0947 167.921 52.8155 168.433 53.3289C168.946 53.8422 169.694 54.0989 170.687 54.0989C171.375 54.0989 171.953 53.9405 172.428 53.6183C172.903 53.2961 173.268 52.963 173.525 52.608H173.568C173.568 52.7937 173.596 53.0121 173.65 53.2743C173.705 53.5364 173.754 53.7275 173.798 53.8477H176.477V53.804C176.4 53.6347 176.346 53.3889 176.319 53.0722C176.297 52.7445 176.28 52.4223 176.28 52.1001ZM173.236 50.429C173.236 50.844 173.083 51.1717 172.777 51.412C172.472 51.6578 172.161 51.7779 171.839 51.7779C171.489 51.7779 171.189 51.6687 170.944 51.4448C170.698 51.2209 170.578 50.9423 170.578 50.6092V50.2215C170.578 49.8556 170.714 49.5443 170.993 49.2821C171.266 49.02 171.582 48.8016 171.931 48.6159C172.117 48.523 172.291 48.4302 172.461 48.3428C172.597 48.2664 172.739 48.1899 172.886 48.1135C173.034 48.037 173.148 47.9769 173.241 47.9278V50.429H173.236Z" fill="white"/>
<path d="M180.843 36.6328H177.842V53.8464H180.843V36.6328Z" fill="white"/>
<path d="M116.49 57.9043H113.309V75.32H119.862C120.184 75.32 120.463 75.0906 120.523 74.7738L120.91 72.7532H116.49V57.9043Z" fill="white"/>
<path d="M130.116 73.5835V66.9591C130.116 65.6157 129.794 64.589 129.156 63.8899C128.512 63.1855 127.432 62.8359 125.904 62.8359C124.681 62.8359 123.721 63.1308 123.017 63.7206C122.313 64.3105 121.964 65.1296 121.964 66.1836C121.964 66.4567 121.975 66.7134 121.997 66.9373C122.018 67.1666 122.04 67.3414 122.051 67.467H124.501C124.469 67.3469 124.447 67.2049 124.43 67.041C124.414 66.8827 124.409 66.7079 124.409 66.5277C124.409 66.129 124.523 65.7904 124.752 65.5064C124.981 65.2225 125.309 65.0805 125.735 65.0805C126.237 65.0805 126.586 65.2225 126.777 65.5064C126.968 65.7904 127.061 66.1072 127.061 66.4567V67.396C126.968 67.4397 126.799 67.5162 126.558 67.6254C126.313 67.7346 126.046 67.8493 125.745 67.9804C125.445 68.1114 125.162 68.2425 124.889 68.3681C124.616 68.4992 124.398 68.592 124.245 68.6521C123.421 69.0344 122.755 69.5204 122.253 70.1211C121.751 70.7164 121.5 71.4045 121.5 72.1854V72.6442C121.5 73.578 121.756 74.2989 122.269 74.8123C122.782 75.3256 123.53 75.5823 124.523 75.5823C125.211 75.5823 125.789 75.4239 126.264 75.1017C126.739 74.7795 127.104 74.4464 127.361 74.0914H127.404C127.404 74.2771 127.432 74.4955 127.486 74.7577C127.541 75.0198 127.59 75.2109 127.633 75.3311H130.313V75.2874C130.236 75.1181 130.182 74.8723 130.155 74.5556C130.133 74.2225 130.116 73.9003 130.116 73.5835ZM127.071 71.9069C127.071 72.322 126.919 72.6496 126.613 72.8899C126.307 73.1357 125.996 73.2558 125.674 73.2558C125.325 73.2558 125.025 73.1466 124.78 72.9227C124.534 72.6988 124.414 72.4203 124.414 72.0871V71.6994C124.414 71.3335 124.55 71.0222 124.829 70.7601C125.102 70.498 125.418 70.2795 125.767 70.0938C125.953 70.001 126.127 69.9081 126.297 69.8208C126.433 69.7443 126.575 69.6679 126.722 69.5914C126.87 69.5149 126.984 69.4549 127.077 69.4057V71.9069H127.071Z" fill="white"/>
<path d="M139.582 63.7865C139.331 63.4861 139.026 63.2567 138.666 63.0874C138.305 62.9181 137.913 62.8362 137.487 62.8362C136.843 62.8362 136.297 62.9782 135.839 63.2622C135.381 63.5462 135.01 63.8848 134.715 64.2834H134.693V58.1123H131.67V75.3259H132.974L133.618 73.8842H133.662C134.044 74.3757 134.497 74.7634 135.026 75.0528C135.555 75.3423 136.205 75.4897 136.985 75.4897C137.503 75.4897 137.967 75.3969 138.382 75.2167C138.797 75.031 139.151 74.7852 139.446 74.474C139.746 74.1627 139.97 73.7913 140.133 73.3599C140.292 72.9339 140.374 72.4642 140.374 71.9618V66.2003C140.374 65.7088 140.303 65.261 140.166 64.8459C140.03 64.4363 139.833 64.0814 139.582 63.7865ZM137.372 71.8854C137.372 72.2676 137.263 72.6008 137.05 72.8848C136.838 73.1687 136.532 73.3107 136.134 73.3107C135.659 73.3107 135.304 73.1633 135.059 72.8629C134.813 72.5625 134.693 72.2076 134.693 71.798V66.9157C134.693 66.4733 134.813 66.0692 135.059 65.7033C135.304 65.3374 135.659 65.1517 136.134 65.1517C136.576 65.1517 136.892 65.3101 137.083 65.6323C137.274 65.9545 137.367 66.3423 137.367 66.801V71.8854H137.372Z" fill="white"/>
<path d="M147.404 68.5645L145.183 67.2593C144.801 67.0463 144.555 66.8443 144.451 66.6531C144.342 66.462 144.293 66.2545 144.293 66.0251C144.293 65.7356 144.402 65.5008 144.615 65.326C144.828 65.1513 145.112 65.0639 145.461 65.0639C145.996 65.0639 146.383 65.1841 146.629 65.4298C146.874 65.6756 146.994 66.0633 146.994 66.5985C146.994 66.7186 146.989 66.8661 146.972 67.0354C146.956 67.2047 146.94 67.3412 146.929 67.4504H149.172C149.188 67.3576 149.204 67.1883 149.215 66.9371C149.232 66.6859 149.237 66.4729 149.237 66.3091C149.237 65.0858 148.899 64.2065 148.228 63.6604C147.556 63.1197 146.64 62.8467 145.477 62.8467C144.271 62.8467 143.311 63.1634 142.591 63.7969C141.87 64.4304 141.516 65.3206 141.516 66.4674C141.516 67.1992 141.674 67.8163 141.985 68.3133C142.296 68.8103 142.765 69.2362 143.393 69.5858L145.406 70.7545C145.908 71.0439 146.236 71.2951 146.389 71.4972C146.541 71.7047 146.618 71.9614 146.618 72.2672C146.618 72.5566 146.52 72.8079 146.318 73.0208C146.121 73.2338 145.821 73.343 145.423 73.343C144.888 73.343 144.506 73.2229 144.277 72.9881C144.048 72.7532 143.933 72.3491 143.933 71.7866C143.933 71.6501 143.944 71.5026 143.966 71.3388C143.988 71.1804 144.009 71.0603 144.02 70.9838H141.641C141.625 71.0603 141.608 71.2132 141.587 71.4426C141.565 71.6719 141.554 71.8795 141.554 72.0597C141.554 72.5348 141.619 72.9826 141.75 73.3977C141.881 73.8182 142.094 74.1895 142.394 74.5117C142.694 74.8339 143.082 75.0852 143.562 75.2654C144.042 75.4511 144.642 75.5384 145.357 75.5384C146.596 75.5384 147.573 75.2381 148.298 74.6319C149.024 74.0312 149.384 73.2011 149.384 72.1471C149.384 71.2896 149.215 70.5797 148.871 70.0063C148.539 69.4219 148.047 68.9468 147.404 68.5645Z" fill="white"/>
</svg>
