<svg width="262" height="113" viewBox="0 0 262 113" fill="none" xmlns="http://www.w3.org/2000/svg">
<path d="M73.9133 56.5128L73.5201 56.1105C73.2184 55.8087 72.7063 56.019 72.7063 56.4488V62.1456C72.7063 62.4108 72.9258 62.6211 73.1818 62.6211H78.8786C79.2992 62.6211 79.5187 62.109 79.2169 61.8072C79.034 61.6244 79.034 61.3226 79.2169 61.1306L85.2703 55.0589C85.4532 54.876 85.4532 54.5743 85.2703 54.3822L84.7217 53.8336C84.4199 53.5318 84.6394 53.0198 85.06 53.0198H90.7476C91.0128 53.0198 91.2231 53.2301 91.2231 53.4952V59.192C91.2231 59.6127 90.711 59.8321 90.4093 59.5304L90.0252 59.1463C89.8332 58.9543 89.5406 58.9543 89.3486 59.1463L79.1346 69.3511C78.9517 69.534 78.65 69.534 78.4579 69.3511L65.9671 56.8511C65.7842 56.6683 65.7751 56.3665 65.9671 56.1745L83.2586 38.883C83.4415 38.7001 83.4415 38.3892 83.2586 38.2063L79.1895 34.1372C79.0066 33.9543 78.7048 33.9543 78.5128 34.1372L56.1372 56.5311C55.9543 56.714 55.9543 57.0249 56.1372 57.2078L78.5219 79.5925C78.7048 79.7754 79.0157 79.7754 79.1986 79.5925L101.583 57.2078C101.766 57.0249 101.766 56.7231 101.583 56.5311L88.4159 43.3636C88.233 43.1807 87.9312 43.1807 87.7392 43.3636L74.59 56.5128C74.4071 56.6957 74.1053 56.6957 73.9133 56.5128ZM177.242 62.173C176.666 62.173 176.163 62.3833 175.751 62.7948C175.34 63.2154 175.129 63.7001 175.129 64.267C175.129 65.1357 175.568 65.8124 176.446 66.2879C177.406 66.553 178.174 66.3793 178.751 65.7849C179.171 65.3643 179.372 64.8614 179.372 64.2762C179.372 63.6818 179.162 63.188 178.751 62.7857C178.33 62.3833 177.836 62.173 177.242 62.173ZM143.226 46.0794H141.644C140.958 46.0794 140.409 46.628 140.409 47.3138V48.1917C138.727 46.4451 136.834 45.5764 134.703 45.5764C132.253 45.5764 130.204 46.4909 128.577 48.3105C126.94 50.1302 126.126 52.4071 126.126 55.132C126.126 57.9119 126.94 60.2253 128.568 62.0907C130.214 63.9104 132.298 64.8248 134.813 64.8248C136.807 64.8248 138.672 64.011 140.4 62.3925V64.1298C140.4 64.9711 141.086 65.6661 141.927 65.6661H144.625V47.4967C144.634 46.7195 144.003 46.0794 143.226 46.0794ZM139.239 59.4481C138.279 60.5179 137.017 61.0574 135.462 61.0574C133.999 61.0574 132.792 60.4996 131.832 59.3932C130.899 58.2959 130.424 56.8694 130.424 55.132C130.424 53.5044 130.909 52.1236 131.869 51.0172C132.838 49.9199 134.054 49.3713 135.499 49.3713C137.035 49.3713 138.279 49.9108 139.239 50.9989C140.199 52.1053 140.684 53.5135 140.684 55.2235C140.674 56.9334 140.19 58.3416 139.239 59.4481ZM126.126 49.1518V47.3504C126.126 46.6463 125.559 46.0794 124.855 46.0794H123.191C122.487 46.0794 121.92 46.6463 121.92 47.3504V48.1368C120.402 46.4268 118.491 45.5673 116.196 45.5673C113.58 45.5673 111.468 46.5549 109.877 48.5208C108.396 50.3771 107.655 52.6357 107.655 55.2875C107.655 58.0216 108.451 60.2985 110.051 62.109C111.633 63.9104 113.663 64.7974 116.15 64.7974C118.326 64.7974 120.256 63.947 121.929 62.237V64.7791C121.929 68.5556 120.393 70.4484 117.311 70.4484C115.638 70.4484 114.367 69.8815 113.498 68.7476C113.279 68.4642 113.087 68.0984 112.94 67.6686C112.73 67.0651 112.163 66.6719 111.532 66.6719H109.941C109.136 66.6719 108.542 67.44 108.743 68.2173C109.182 69.8724 110.023 71.2165 111.276 72.259C112.849 73.5666 114.852 74.2249 117.275 74.2249C120.155 74.2249 122.414 73.274 124.06 71.3811C124.928 70.3936 125.514 69.214 125.815 67.8424C125.916 67.3486 125.998 66.7634 126.053 66.1141C126.108 65.4649 126.135 64.7059 126.135 63.8464V61.2037C124.956 59.5029 124.361 57.4821 124.361 55.1138C124.352 52.8094 124.947 50.8252 126.126 49.1518ZM120.795 59.3018C119.862 60.4722 118.591 61.0574 116.982 61.0574C115.373 61.0574 114.111 60.4813 113.206 59.32C112.373 58.2593 111.953 56.906 111.953 55.2418C111.953 53.5593 112.373 52.1876 113.206 51.1269C114.129 49.9473 115.391 49.353 116.982 49.353C118.482 49.353 119.707 49.8925 120.667 50.9806C121.618 52.0413 122.094 53.4587 122.094 55.2235C122.084 56.8786 121.655 58.241 120.795 59.3018ZM161.102 46.0977V46.0794H152.379V40.7392C152.379 40.0534 151.821 39.4956 151.135 39.4956H149.435C148.74 39.4956 148.173 40.0625 148.173 40.7575V46.0794H146.38V50.0022H148.173V65.6478H150.568C151.565 65.6478 152.37 64.8431 152.379 63.8464V63.8372V50.0113H156.695C157.033 49.3621 157.454 48.7586 157.939 48.2099C158.826 47.2315 159.886 46.5274 161.102 46.0977ZM182.573 39.4956C181.823 39.4956 181.183 39.7608 180.653 40.3003C180.122 40.8398 179.848 41.4707 179.848 42.2114C179.848 42.9887 180.113 43.6379 180.653 44.1774C181.192 44.7169 181.841 44.9821 182.6 44.9821C183.359 44.9821 183.999 44.7169 184.52 44.1774C185.06 43.6379 185.325 42.9978 185.325 42.2297C185.325 41.4707 185.06 40.8307 184.52 40.3094C183.981 39.7608 183.332 39.4956 182.573 39.4956ZM183.423 48.1459H181.896C181.11 48.1459 180.479 48.7769 180.479 49.5633V62.9228C180.799 63.2977 180.954 63.7458 180.954 64.2579C180.954 64.7699 180.799 65.2271 180.479 65.6021V66.3519H183.185C184.018 66.3519 184.685 65.6752 184.685 64.8522V49.3987C184.685 48.7037 184.118 48.1459 183.423 48.1459ZM203.202 50.7246C201.309 48.8683 198.996 47.9356 196.28 47.9356C193.573 47.9356 191.278 48.8592 189.394 50.7063C187.511 52.5534 186.569 54.7846 186.569 57.4181C186.569 60.207 187.492 62.5296 189.339 64.3767C191.187 66.2421 193.473 67.184 196.198 67.184C198.95 67.184 201.282 66.2696 203.174 64.4316C205.049 62.5845 206 60.2985 206 57.5644C206 54.8577 205.067 52.5808 203.202 50.7246ZM200.221 61.8347C199.243 62.8954 197.926 63.4166 196.28 63.4166C194.643 63.4166 193.326 62.8862 192.33 61.8072C191.36 60.7465 190.867 59.3018 190.867 57.4912C190.867 55.7996 191.369 54.4097 192.366 53.3398C193.363 52.2699 194.661 51.7304 196.271 51.7304C197.898 51.7304 199.215 52.2699 200.212 53.3398C201.199 54.4005 201.693 55.8179 201.693 57.5827C201.702 59.3566 201.208 60.7648 200.221 61.8347Z" fill="#DE5959"/>
<path d="M162.665 61.0949C161.796 60.2171 161.311 59.0192 161.202 57.5287H173.263C173.811 57.5287 174.269 57.0898 174.278 56.5411C174.278 53.5327 173.5 51.1827 171.964 49.491C170.401 47.7811 168.279 46.9307 165.6 46.9307C162.948 46.9307 160.818 47.8085 159.208 49.5642C157.608 51.3473 156.812 53.679 156.812 56.5594C156.812 59.4672 157.635 61.799 159.281 63.5547C160.434 64.78 161.842 65.5664 163.506 65.9321C164.21 66.0967 164.932 66.179 165.664 66.1699C168.663 66.2339 171.269 66.2979 174.259 66.3528V65.9138C173.894 65.5115 173.711 65.036 173.711 64.4782C173.711 63.9296 173.903 63.4632 174.278 63.0609V62.5305C171.909 62.4757 166.185 62.4116 165.957 62.4116C164.631 62.4116 163.524 61.9727 162.665 61.0949ZM162.08 52.6823C162.345 52.2708 162.656 51.9233 163.021 51.6307C163.387 51.3381 163.799 51.1095 164.247 50.9541C164.695 50.7986 165.179 50.7163 165.691 50.7163C167.932 50.7163 169.349 51.8411 169.934 54.0814H161.476C161.622 53.5601 161.823 53.0938 162.08 52.6823Z" fill="#DE5959"/>
</svg>
