<svg width="262" height="113" viewBox="0 0 262 113" fill="none" xmlns="http://www.w3.org/2000/svg">
<path d="M142.211 56.2359V50.574C142.198 50.2426 142.253 49.9121 142.374 49.6036C142.494 49.2952 142.676 49.0155 142.909 48.7824C143.142 48.5493 143.42 48.368 143.726 48.2499C144.032 48.1319 144.359 48.0798 144.686 48.0969C147.514 48.0969 150.339 48.0969 153.16 48.0969C153.478 48.0847 153.796 48.1376 154.094 48.2524C154.392 48.3672 154.664 48.5416 154.894 48.7652C155.124 48.9888 155.308 49.257 155.433 49.5539C155.559 49.8507 155.624 50.1702 155.625 50.4931C155.625 51.0896 155.625 51.6963 155.625 52.2928C155.625 52.6163 155.545 52.7478 155.216 52.7376C154.617 52.7376 154.028 52.7376 153.429 52.7376C153.13 52.7376 153.03 52.6163 153.06 52.3332V52.2726C153.06 51.7771 153.27 51.12 152.97 50.8268C152.671 50.5336 151.972 50.7155 151.433 50.7155C149.437 50.7155 147.381 50.7155 145.355 50.7155C144.926 50.7155 144.796 50.8268 144.796 51.2716C144.796 54.6081 144.796 57.9445 144.796 61.281C144.796 61.6955 144.916 61.8169 145.315 61.8169C147.73 61.8169 150.146 61.8169 152.561 61.8169C152.92 61.8169 153.08 61.7461 153.07 61.3417C153.07 60.4722 153.07 59.5926 153.07 58.723C153.07 58.2883 152.91 58.2175 152.531 58.2276C151.423 58.2276 150.315 58.2276 149.217 58.2276C148.878 58.2276 148.728 58.1468 148.748 57.7727C148.748 57.1964 148.748 56.6201 148.748 56.0337C148.748 55.7202 148.838 55.5989 149.168 55.5989C151.164 55.5989 153.16 55.5989 155.156 55.5989C155.525 55.5989 155.605 55.7405 155.605 56.0741C155.605 58.0254 155.605 59.9767 155.605 61.9281C155.614 62.2569 155.555 62.5841 155.434 62.8892C155.313 63.1944 155.131 63.4712 154.9 63.7024C154.669 63.9336 154.394 64.1143 154.091 64.2334C153.788 64.3526 153.464 64.4076 153.14 64.395C150.319 64.4355 147.494 64.4355 144.666 64.395C144.336 64.4071 144.008 64.3489 143.701 64.224C143.395 64.0992 143.118 63.9105 142.889 63.6703C142.659 63.4301 142.482 63.1436 142.368 62.8296C142.255 62.5155 142.208 62.1808 142.231 61.8472L142.211 56.2359Z" fill="#F1D052"/>
<path d="M181.376 60.7765C181.928 59.2936 182.484 57.8108 183.043 56.3279C184.041 53.7699 184.959 51.2221 185.897 48.654C185.936 48.465 186.047 48.2992 186.206 48.193C186.365 48.0869 186.559 48.049 186.746 48.0878C187.414 48.0878 188.093 48.0878 188.862 48.0878C188.442 49.1798 188.073 50.2009 187.684 51.2221C186.097 55.3876 184.49 59.5632 182.923 63.7389C182.733 64.2444 182.494 64.4668 181.925 64.4062C181.437 64.3606 180.946 64.3606 180.458 64.4062C180.048 64.4062 179.879 64.2646 179.749 63.9006C177.813 58.805 175.87 53.7059 173.92 48.6035C173.75 48.1687 173.84 48.0676 174.279 48.0878C174.791 48.1232 175.305 48.1232 175.817 48.0878C175.918 48.0672 176.023 48.0671 176.124 48.0874C176.226 48.1078 176.323 48.1482 176.409 48.2064C176.495 48.2646 176.569 48.3395 176.627 48.4267C176.684 48.5139 176.724 48.6118 176.745 48.7147C178.169 52.6173 179.619 56.5099 181.096 60.3923C181.156 60.5136 181.146 60.6956 181.376 60.7765Z" fill="#F1D052"/>
<path d="M129.175 60.8776C129.208 60.5447 129.136 60.21 128.972 59.92C128.807 59.63 128.557 59.3993 128.257 59.2599C124.265 56.9345 120.273 54.5586 116.28 52.1826C116.092 52.0955 115.936 51.9515 115.832 51.7704C115.728 51.5893 115.683 51.38 115.701 51.1715C115.701 46.733 115.641 42.2945 115.761 37.856C115.827 37.3088 115.714 36.7547 115.44 36.2783C115.167 35.8019 114.746 35.4293 114.244 35.2172C110.162 32.9322 106.169 30.536 102.157 28.1601C101.996 28.0556 101.809 28 101.618 28C101.427 28 101.24 28.0556 101.079 28.1601C96.7209 30.6675 92.3559 33.1951 87.9843 35.7429C87.8119 35.8307 87.6683 35.9671 87.5709 36.1358C87.4735 36.3045 87.4264 36.4981 87.4353 36.6933C87.4353 41.3846 87.4353 46.0657 87.4353 50.757C87.4748 51.0752 87.4115 51.3979 87.255 51.6767C87.0985 51.9555 86.8571 52.1755 86.567 52.3039C82.5746 54.5889 78.5823 56.9244 74.5899 59.2296C74.3622 59.3391 74.1736 59.5176 74.0502 59.7404C73.9269 59.9631 73.8748 60.2192 73.9012 60.4732C73.9012 62.9503 73.9012 65.4172 73.9012 67.8842C73.9012 70.3713 73.9012 72.8585 73.9012 75.3457C73.8857 75.6225 73.9564 75.8973 74.1032 76.1313C74.25 76.3653 74.4657 76.5467 74.7197 76.65C78.9383 79.1102 83.1469 81.5906 87.3455 84.0913C87.5778 84.2661 87.8596 84.3605 88.149 84.3605C88.4384 84.3605 88.7201 84.2661 88.9524 84.0913C93.0246 81.6951 97.1168 79.3292 101.189 76.9533C101.3 76.8703 101.435 76.8256 101.573 76.8256C101.712 76.8256 101.846 76.8703 101.958 76.9533C106.09 79.4 110.242 81.8265 114.364 84.2834C114.552 84.4193 114.777 84.4923 115.008 84.4923C115.238 84.4923 115.463 84.4193 115.651 84.2834C119.883 81.7962 124.125 79.3259 128.377 76.8724C128.641 76.7475 128.861 76.5419 129.004 76.2844C129.147 76.0269 129.207 75.7305 129.175 75.4367C129.146 70.5837 129.136 65.7306 129.175 60.8776ZM87.4653 81.8265C87.4653 82.3523 87.3455 82.3725 86.9363 82.1298C83.2434 79.9392 79.5371 77.7621 75.8176 75.5985C75.681 75.5344 75.5674 75.429 75.4923 75.2969C75.4172 75.1647 75.3844 75.0122 75.3984 74.8604C75.3984 72.7069 75.3984 70.5533 75.3984 68.3998C75.3984 66.2463 75.3984 64.1231 75.3984 61.9898C75.3984 61.5449 75.3984 61.3225 75.9174 61.646C79.6003 63.8299 83.3033 66.0036 86.9962 68.1673C87.1329 68.2292 87.2475 68.3323 87.3243 68.4626C87.4011 68.5928 87.4364 68.7439 87.4254 68.8952C87.4453 73.2292 87.4586 77.5397 87.4653 81.8265ZM87.8745 67.0248L76.127 60.089L80.808 57.349L87.6649 53.3049C87.7938 53.214 87.947 53.1652 88.1041 53.1652C88.2611 53.1652 88.4144 53.214 88.5432 53.3049C92.2495 55.5089 95.959 57.6962 99.6719 59.8666C100.041 60.089 100.131 60.2002 99.6719 60.453C95.9291 62.6166 92.1962 64.8005 88.4634 66.9742C88.382 67.0423 88.282 67.0837 88.1767 67.0927C88.0715 67.1017 87.9661 67.078 87.8745 67.0248ZM100.58 75.6187C96.8008 77.8026 93.0213 79.9999 89.2419 82.2107C89.1421 82.2107 89.0423 82.3725 88.8726 82.2815C88.8726 82.14 88.8726 81.9782 88.8726 81.8265C88.8726 77.5296 88.8726 73.2326 88.8726 68.9357C88.8547 68.787 88.8824 68.6364 88.9521 68.5043C89.0217 68.3722 89.1299 68.2651 89.2618 68.1976L100.52 61.646C100.571 61.5991 100.631 61.5654 100.698 61.5478C100.764 61.5301 100.833 61.5291 100.9 61.5449V74.8907C100.9 75.1839 100.91 75.3963 100.58 75.6187ZM100.9 58.8252C100.67 58.9162 100.53 58.7443 100.391 58.6533C96.6976 56.4897 93.0047 54.3058 89.3118 52.132C89.0323 51.9703 88.8327 51.8186 88.8327 51.4344C88.8327 46.9757 88.8327 42.517 88.8327 38.0582C88.8327 38.0077 88.8327 37.947 88.8327 37.8156L91.3379 39.2816C94.3255 41.0408 97.3198 42.7967 100.321 44.5492C100.503 44.6409 100.653 44.7869 100.752 44.9676C100.85 45.1483 100.891 45.3551 100.87 45.5602C100.89 49.9583 100.9 54.3867 100.9 58.8252ZM101.169 43.3966C97.4894 41.206 93.7998 39.0289 90.1002 36.8652C89.6711 36.6226 89.5812 36.5012 90.1002 36.2181C93.8131 34.0747 97.5194 31.9178 101.219 29.7474C101.325 29.6708 101.453 29.6296 101.583 29.6296C101.714 29.6296 101.841 29.6708 101.948 29.7474L113.366 36.481C113.443 36.5291 113.516 36.5832 113.585 36.6428L107.996 39.8984C106 41.0577 104.004 42.2238 102.007 43.3966C101.886 43.4869 101.739 43.5357 101.588 43.5357C101.437 43.5357 101.291 43.4869 101.169 43.3966ZM102.766 44.5694C106.449 42.4563 110.112 40.3028 113.745 38.1695C113.875 38.0886 114.024 38.0279 114.244 37.9066V51.576C114.257 51.6874 114.236 51.8002 114.184 51.8994C114.133 51.9987 114.053 52.0797 113.955 52.132L102.526 58.8151H102.287V58.2691C102.287 53.9957 102.287 49.7224 102.287 45.449C102.273 45.2709 102.311 45.0926 102.396 44.9362C102.481 44.7797 102.61 44.6522 102.766 44.5694ZM114.274 82.2815C114.261 82.3443 114.241 82.4053 114.214 82.4635L107.657 78.6013L102.766 75.6996C102.626 75.6396 102.508 75.5376 102.428 75.4073C102.348 75.2771 102.309 75.125 102.317 74.9716C102.317 70.5567 102.317 66.1384 102.317 61.7168C102.326 61.6344 102.342 61.5532 102.367 61.4741L104.932 62.9604L113.915 68.2481C114.174 68.3998 114.364 68.5312 114.364 68.8952C114.294 73.3742 114.304 77.8228 114.294 82.2815H114.274ZM115.392 67.0551C115.288 67.1323 115.162 67.174 115.033 67.174C114.903 67.174 114.778 67.1323 114.673 67.0551C110.934 64.8308 107.188 62.62 103.435 60.4226L103.035 60.2305L114.743 53.3655C114.834 53.3011 114.942 53.2666 115.052 53.2666C115.163 53.2666 115.271 53.3011 115.362 53.3655L126.87 60.1699L127.01 60.3114L124.365 61.8684L115.392 67.0551ZM127.369 75.7602C123.636 77.9138 119.913 80.0976 116.18 82.2613L115.741 82.4736V77.8329C115.741 74.9008 115.741 71.9789 115.741 69.057C115.714 68.9069 115.734 68.752 115.799 68.6141C115.863 68.4762 115.969 68.3624 116.1 68.2886C119.863 66.1148 123.626 63.9209 127.379 61.737L127.688 61.5955C127.688 61.8078 127.688 61.9695 127.688 62.1313V75.0121C127.714 75.157 127.696 75.3065 127.635 75.4403C127.574 75.5742 127.474 75.6859 127.349 75.7602H127.369Z" fill="#F1D052"/>
<path d="M171.984 58.2988C171.911 57.7725 171.708 57.2734 171.394 56.8475C171.08 56.4217 170.665 56.0828 170.188 55.8622C170.654 55.5126 171.031 55.0546 171.286 54.5267C171.542 53.9989 171.668 53.4167 171.655 52.829C171.805 50.0486 170.876 48.0872 167.563 48.1175C165.008 48.1175 162.442 48.1175 159.887 48.1175C159.418 48.1175 159.299 48.249 159.308 48.7141C159.308 50.0385 159.308 51.363 159.308 52.6875V63.809C159.308 64.1022 159.209 64.4359 159.728 64.4257C162.632 64.4257 165.547 64.4257 168.451 64.4257C169.249 64.5022 170.048 64.2771 170.692 63.7938C171.337 63.3105 171.783 62.603 171.944 61.8071C172.184 60.6516 172.197 59.4597 171.984 58.2988ZM161.864 51.1305C161.864 50.7463 161.993 50.6452 162.353 50.6553C164.069 50.6553 165.786 50.6553 167.503 50.6553C168.691 50.6553 169.13 51.1305 169.14 52.3235C169.14 52.738 169.14 53.1526 169.14 53.5671C169.155 53.7498 169.129 53.9336 169.065 54.1049C169 54.2762 168.899 54.4306 168.767 54.5568C168.636 54.683 168.479 54.7777 168.306 54.8339C168.134 54.8901 167.952 54.9063 167.772 54.8814C166.874 54.8814 165.976 54.8814 165.067 54.8814H162.373C162.023 54.8814 161.864 54.8208 161.864 54.4164C161.884 53.284 161.884 52.1921 161.864 51.1305ZM169.529 60.7354C169.526 60.8863 169.494 61.0352 169.433 61.1731C169.373 61.311 169.285 61.4351 169.176 61.538C169.067 61.6409 168.939 61.7204 168.799 61.7719C168.659 61.8233 168.51 61.8456 168.361 61.8375C166.365 61.8375 164.269 61.8375 162.223 61.8375C161.963 61.8375 161.864 61.7364 161.864 61.4735C161.864 60.2467 161.864 59.0234 161.864 57.8034C161.864 57.4192 162.083 57.4394 162.343 57.4394H165.337C166.335 57.4394 167.253 57.4394 168.221 57.4394C169.19 57.4394 169.399 57.7528 169.529 58.592C169.649 59.2877 169.649 59.9992 169.529 60.695V60.7354Z" fill="#F1D052"/>
</svg>
