<svg width="262" height="113" viewBox="0 0 262 113" fill="none" xmlns="http://www.w3.org/2000/svg">
<path d="M93.4657 47.7637V60.6506V61.1548H93.4574C93.3593 63.6587 92.5334 66.0797 91.0806 68.1215C89.6279 70.1633 87.6114 71.7372 85.278 72.6507C82.9445 73.5641 80.3954 73.7775 77.9426 73.2646C75.4898 72.7517 73.2398 71.5348 71.4679 69.7629C69.696 67.991 68.4791 65.741 67.9662 63.2882C67.4533 60.8354 67.6666 58.2862 68.5801 55.9528C69.4936 53.6194 71.0675 51.6029 73.1093 50.1502C75.151 48.6974 77.5721 47.8715 80.076 47.7734V47.7637H93.4657ZM68.9878 60.6506C68.9888 63.6804 70.1761 66.5893 72.2954 68.7545C74.4147 70.9197 77.2976 72.169 80.3266 72.2349C83.3557 72.3008 86.2902 71.1781 88.5016 69.1072C90.7131 67.0362 92.0258 64.1816 92.1586 61.1548H80.0746V49.0701C77.0905 49.2 74.2718 50.4769 72.2062 52.6344C70.1406 54.792 68.9876 57.6637 68.9878 60.6506ZM92.1698 49.0596H81.3705V59.8588H92.1698V49.0596ZM89.5062 51.6515V52.1146C88.9672 52.2266 88.4833 52.5209 88.1359 52.948C87.7885 53.375 87.5989 53.9087 87.5989 54.4592C87.5989 55.0097 87.7885 55.5434 88.1359 55.9705C88.4833 56.3975 88.9672 56.6918 89.5062 56.8039V57.267C88.8895 57.2693 88.2889 57.0707 87.7952 56.7012C87.3015 56.3316 86.9417 55.8113 86.7702 55.219C86.6011 55.8032 86.2487 56.3177 85.7649 56.6864C85.2812 57.0552 84.6918 57.2587 84.0836 57.267H84.0341V56.8053C84.575 56.6949 85.0611 56.401 85.4101 55.9734C85.7592 55.5459 85.9499 55.0109 85.9499 54.4589C85.9499 53.9069 85.7592 53.3719 85.4101 52.9443C85.0611 52.5167 84.575 52.2229 84.0341 52.1125V51.6508C84.6508 51.6484 85.2515 51.847 85.7451 52.2166C86.2388 52.5861 86.5987 53.1064 86.7702 53.6988C86.9393 53.1145 87.2917 52.6001 87.7754 52.2313C88.2591 51.8626 88.8485 51.6591 89.4567 51.6508L89.5062 51.6515Z" fill="black" stroke="black"/>
<path d="M107.049 73.5375C110.809 73.5375 113.788 71.6998 113.788 67.8816C113.788 65.4443 112.411 63.6902 109.916 62.7982C110.867 62.3145 111.694 61.6196 112.334 60.7668C112.974 59.9141 113.411 58.926 113.61 57.8784C113.809 56.8308 113.766 55.7515 113.484 54.7232C113.202 53.6949 112.687 52.7449 111.981 51.946L113.358 50.3381L112.44 49.5345L111.062 51.1438C109.883 50.3214 108.484 49.8714 107.047 49.852C103.376 49.852 100.393 52.3499 100.393 56.7711C100.393 60.5607 102.945 63.6324 107.047 63.6324C109.685 63.6324 112.409 64.8385 112.409 67.8802C112.409 70.8948 109.885 72.158 107.047 72.158C104.208 72.158 101.741 70.7799 101.741 67.8802H100.338C100.338 71.47 103.292 73.5375 107.049 73.5375ZM107.049 62.2257C103.808 62.2257 101.8 59.6993 101.8 56.7711C101.8 53.0679 104.152 51.2587 107.049 51.2587C109.973 51.2587 112.354 53.1821 112.354 56.7711C112.359 58.1935 111.806 59.561 110.814 60.5806C109.822 61.6002 108.471 62.1908 107.049 62.2257ZM118.463 64.2926V56.0246C118.456 54.777 118.944 53.5776 119.82 52.6897C120.697 51.8018 121.89 51.2982 123.138 51.2893C123.986 51.2805 124.821 51.5092 125.546 51.9495L126.177 50.8012C125.267 50.2334 124.21 49.9431 123.138 49.9655C122.18 49.9106 121.227 50.1333 120.392 50.6069C119.558 51.0805 118.878 51.7849 118.434 52.6354L118.377 50.109H117.058V64.294L118.463 64.2926ZM135.154 64.5224C136.32 64.5394 137.469 64.2484 138.487 63.6787C139.504 63.1091 140.353 62.2809 140.947 61.278V64.294H142.352V50.1104H140.947V53.2113C140.372 52.189 139.528 51.3436 138.507 50.7667C137.486 50.1898 136.326 49.9033 135.154 49.9384C133.241 49.9708 131.418 50.7533 130.077 52.1172C128.736 53.4812 127.984 55.3175 127.984 57.2304C127.984 59.1432 128.736 60.9795 130.077 62.3435C131.418 63.7075 133.241 64.49 135.154 64.5224ZM135.154 63.1443C133.607 63.1067 132.135 62.4657 131.054 61.358C129.973 60.2502 129.368 58.7637 129.368 57.2158C129.368 55.6678 129.973 54.1813 131.054 53.0735C132.135 51.9658 133.607 51.3247 135.154 51.2872C143.04 51.2879 143.04 63.1443 135.156 63.1443H135.154ZM151.845 64.2926L157.782 50.1104H156.233L151.071 62.6561L145.908 50.1104H144.359L150.296 64.2926H151.845ZM160.132 45.4907C160.132 45.7912 160.251 46.0794 160.464 46.2918C160.676 46.5043 160.964 46.6237 161.265 46.6237C161.565 46.6237 161.854 46.5043 162.066 46.2918C162.279 46.0794 162.398 45.7912 162.398 45.4907C162.391 45.1952 162.269 44.9141 162.057 44.7075C161.846 44.5008 161.562 44.385 161.266 44.3847C160.971 44.3845 160.687 44.4998 160.475 44.706C160.263 44.9122 160.14 45.1931 160.133 45.4886L160.132 45.4907ZM161.939 64.2926V50.0533H160.534V64.294L161.939 64.2926ZM172.235 64.4938C173.167 64.4585 174.078 64.2131 174.902 63.7759L174.414 62.6276C173.738 62.9746 172.994 63.1706 172.235 63.2021C170.049 63.2021 169.633 61.879 169.625 59.9869V51.2879H174.443V50.1111H169.626V45.8326L168.25 45.9761V50.1104H165.239V51.2872H168.25V59.9291C168.249 62.7139 169.224 64.4938 172.236 64.4938H172.235ZM178.859 50.1104L182.161 58.4939L183.824 62.6025L185.459 58.4682L189.015 50.1118H190.535L181.9 70.2082H180.409L183.019 64.1219L177.341 50.1118L178.859 50.1104ZM200 39.1775V39.8139C199.144 39.9245 198.357 40.343 197.787 40.9912C197.217 41.6394 196.903 42.473 196.903 43.3361C196.903 44.1993 197.217 45.0329 197.787 45.6811C198.357 46.3293 199.144 46.7478 200 46.8584V47.4948C199.091 47.4959 198.206 47.2002 197.481 46.6527C196.755 46.1052 196.228 45.3358 195.98 44.4615C195.735 45.3244 195.218 46.0854 194.507 46.6317C193.795 47.1779 192.927 47.4804 192.03 47.4941H191.96V46.8591C192.818 46.7509 193.608 46.3333 194.18 45.6845C194.752 45.0358 195.068 44.2005 195.068 43.3355C195.068 42.4704 194.752 41.6351 194.18 40.9864C193.608 40.3376 192.818 39.92 191.96 39.8118V39.1768C192.869 39.1757 193.753 39.4714 194.479 40.0189C195.204 40.5664 195.731 41.3358 195.979 42.2101C196.225 41.3472 196.741 40.5862 197.453 40.0399C198.164 39.4937 199.033 39.1912 199.93 39.1775H200Z" fill="black" stroke="black" stroke-linecap="square"/>
</svg>
