<svg width="262" height="113" viewBox="0 0 262 113" fill="none" xmlns="http://www.w3.org/2000/svg">
<path d="M85.0586 71.6791C85.0586 71.5888 85.0586 71.4985 85.0586 71.4082V64.7533C85.0586 64.5303 85.0586 64.5303 85.2851 64.5303H86.1491C86.265 64.5303 86.3125 64.5781 86.3072 64.6949C86.3019 64.8118 86.3072 64.8118 86.3072 64.8755C86.3072 67.0531 86.3072 69.2324 86.3072 71.4135C86.3072 71.5038 86.3072 71.5941 86.3072 71.6844L85.0586 71.6791Z" fill="#5194CB"/>
<path d="M85.0625 39.7854V39.6846H86.2795V39.7323C86.2613 39.7518 86.2392 39.7671 86.2147 39.7772C86.1901 39.7872 86.1637 39.7919 86.1372 39.7907C85.7792 39.8104 85.4203 39.8086 85.0625 39.7854Z" fill="#DEE6F4"/>
<path d="M181.958 70.4521H182V70.5901H181.952C181.936 70.5708 181.927 70.5457 181.928 70.5201C181.929 70.4945 181.939 70.4702 181.958 70.4521Z" fill="#C3C1C1"/>
<path d="M129.658 63.4478C129.658 62.0404 129.658 60.6382 129.658 59.2361C129.665 58.7898 129.61 58.3447 129.495 57.9136C129.431 57.6563 129.306 57.4184 129.13 57.2205C128.955 57.0225 128.735 56.8704 128.489 56.777C128.061 56.6137 127.615 56.5049 127.161 56.453C126.813 56.4052 126.466 56.3628 126.107 56.3309C126.012 56.3309 125.96 56.299 125.965 56.1875C125.97 56.076 125.965 55.821 125.965 55.6564C125.965 55.582 125.965 55.5448 126.065 55.5502H133.968C134.257 55.5502 134.215 55.513 134.221 55.7945C134.221 55.9272 134.221 56.0547 134.221 56.1822C134.221 56.3096 134.221 56.3415 134.078 56.3574C133.805 56.3916 133.533 56.4448 133.267 56.5168L132.856 56.6442C132.595 56.734 132.362 56.8895 132.177 57.0958C131.993 57.3022 131.864 57.5526 131.802 57.8233C131.665 58.3644 131.603 58.9221 131.618 59.4804C131.618 62.3272 131.618 65.1739 131.618 68.0207C131.625 68.0971 131.609 68.1739 131.573 68.2411C131.536 68.3084 131.48 68.363 131.413 68.3978C129.861 69.3649 128.168 70.0817 126.397 70.5222C125.596 70.7117 124.783 70.8431 123.963 70.9153C123.21 70.9851 122.454 71.01 121.698 70.9896C119.331 70.9693 116.997 70.4406 114.849 69.4388C113.127 68.6327 111.596 67.4643 110.36 66.0123C109.123 64.5604 108.209 62.8583 107.679 61.0206C107.35 59.9617 107.134 58.8702 107.036 57.7649C106.931 56.6663 106.931 55.56 107.036 54.4614C107.237 51.6925 108.211 49.0374 109.844 46.8019C111.477 44.5664 113.703 42.8416 116.266 41.8262C117.666 41.2541 119.134 40.8684 120.634 40.679C122.137 40.4932 123.655 40.4612 125.164 40.5834C126.724 40.6886 128.268 40.9646 129.769 41.4066C130.771 41.7091 131.749 42.0891 132.693 42.5432C132.747 42.5622 132.794 42.5994 132.824 42.6487C132.855 42.6979 132.868 42.7563 132.861 42.8141C132.861 44.2905 132.861 45.7635 132.861 47.2329V47.3445C132.861 47.4135 132.83 47.4401 132.766 47.4401H132.134C132.05 47.4401 132.029 47.3869 131.997 47.3179C131.881 47.0364 131.771 46.7443 131.639 46.4681C130.922 44.9127 129.707 43.6461 128.188 42.8725C127.328 42.4463 126.407 42.1561 125.459 42.0121C124.475 41.8529 123.478 41.7942 122.483 41.8368C119.867 41.892 117.317 42.6671 115.107 44.0781C112.606 45.6892 110.742 48.1318 109.839 50.9826C109.477 52.0858 109.247 53.2287 109.154 54.387C109.061 55.546 109.084 56.7115 109.222 57.8658C109.454 60.0797 110.213 62.2043 111.435 64.0586C112.925 66.2905 115.1 67.9694 117.625 68.8386C118.706 69.2217 119.83 69.4696 120.971 69.5769C123.383 69.8343 125.822 69.5533 128.115 68.7536C128.583 68.589 129.031 68.3872 129.484 68.18C129.55 68.1582 129.605 68.1136 129.641 68.0542C129.677 67.9949 129.69 67.9246 129.679 67.8561C129.679 66.3973 129.679 64.9332 129.679 63.4637L129.658 63.4478Z" fill="black"/>
<path d="M136.619 65.518V63.2555C136.619 62.974 136.619 62.974 136.904 62.974H137.199C137.436 62.974 137.436 62.974 137.515 63.1917C137.73 63.8175 137.99 64.4264 138.294 65.0134C138.869 66.1631 139.679 67.1768 140.67 67.9877C141.67 68.7779 142.852 69.3004 144.105 69.5067C144.742 69.6199 145.388 69.6644 146.034 69.6394C147.758 69.6201 149.427 69.02 150.775 67.9346C151.866 67.0735 152.592 65.8259 152.803 64.4452C153 63.414 152.88 62.347 152.461 61.3859C152.094 60.6316 151.552 59.9776 150.88 59.4792C150.065 58.8499 149.181 58.3154 148.246 57.8859C146.629 57.1211 145.001 56.3775 143.384 55.618C142.209 55.0849 141.117 54.3818 140.144 53.5308C139.308 52.818 138.648 51.9196 138.216 50.9062C137.783 49.8928 137.59 48.7921 137.651 47.6905C137.711 46.589 138.025 45.5167 138.566 44.5579C139.107 43.5991 139.862 42.78 140.771 42.1649C141.816 41.4404 143 40.9463 144.248 40.715C145.486 40.4797 146.751 40.4296 148.004 40.5663C149.902 40.7551 151.753 41.2707 153.478 42.0906C153.757 42.2234 154.005 42.3721 154.294 42.5261C154.338 42.5455 154.374 42.5778 154.398 42.6186C154.423 42.6595 154.434 42.7069 154.431 42.7545C154.431 44.2416 154.431 45.7287 154.431 47.2158C154.431 47.3752 154.431 47.3752 154.268 47.3752C154.105 47.3752 153.941 47.3752 153.773 47.3752C153.748 47.3797 153.722 47.3792 153.697 47.3736C153.673 47.368 153.649 47.3575 153.629 47.3426C153.608 47.3277 153.591 47.3089 153.577 47.2871C153.564 47.2653 153.555 47.2411 153.551 47.2158C153.391 46.7151 153.19 46.2284 152.951 45.7606C152.393 44.5902 151.525 43.5978 150.443 42.8926C149.604 42.3664 148.663 42.0294 147.683 41.9047C146.918 41.7922 146.143 41.778 145.375 41.8622C143.985 41.9704 142.66 42.4978 141.571 43.3759C140.478 44.2703 139.772 45.5574 139.601 46.9662C139.45 47.9399 139.541 48.9361 139.864 49.8661C140.224 50.817 140.841 51.647 141.645 52.2614C142.428 52.8696 143.283 53.378 144.19 53.7751C145.886 54.5611 147.593 55.3365 149.284 56.1332C150.35 56.6183 151.352 57.2356 152.266 57.9709C153.159 58.6701 153.865 59.5828 154.321 60.6264C154.656 61.4694 154.809 62.3748 154.768 63.282C154.746 64.4401 154.447 65.5757 153.896 66.5926C153.346 67.6096 152.561 68.4779 151.607 69.1243C150.508 69.92 149.249 70.4639 147.92 70.7176C146.668 70.9608 145.388 71.011 144.121 70.8663C141.502 70.6112 138.991 69.6822 136.83 68.1683C136.767 68.1322 136.716 68.0782 136.683 68.013C136.65 67.9479 136.637 67.8744 136.645 67.8018C136.619 67.0423 136.619 66.2828 136.619 65.518Z" fill="black"/>
<path d="M85.0621 39.7855C85.1306 39.7165 85.2149 39.7377 85.2939 39.7324H86.2738C86.2926 39.8128 86.2926 39.8964 86.2738 39.9767V50.3441C86.2763 50.3741 86.2763 50.4043 86.2738 50.4344C86.2738 50.599 86.2738 50.6149 86.0841 50.5937C85.7956 50.5565 85.5035 50.5565 85.2149 50.5937C85.0568 50.5937 85.0463 50.5937 85.041 50.445V40.0564C85.0674 39.9661 85.0621 39.8864 85.0621 39.7855Z" fill="#5194CB"/>
<path d="M82.4337 51.7475L81.459 50.2232L76.7175 42.7876L76.6543 42.692C76.6174 42.6389 76.628 42.5964 76.6859 42.5593L77.5499 42.0122C77.6395 41.9538 77.6658 42.0122 77.7027 42.0813L78.1031 42.7133L81.7066 48.3643L83.3556 50.9562C83.4557 51.1102 83.4557 51.1155 83.2924 51.2005C82.9897 51.3551 82.7022 51.5383 82.4337 51.7475Z" fill="#5094CB"/>
<path d="M88.939 51.7468C88.6588 51.5234 88.359 51.3261 88.0434 51.1573C87.917 51.0882 87.9117 51.0776 87.996 50.9501C88.2384 50.5624 88.486 50.18 88.7336 49.7923L93.4751 42.3567L93.6805 42.0327C93.7227 41.969 93.7648 41.9371 93.8438 41.9849L94.7763 42.5957L88.939 51.7468Z" fill="#5094CB"/>
<path d="M74.0994 66.6386L73.3145 65.7251C73.5156 65.5162 73.7303 65.321 73.9572 65.1408L76.2331 63.1492L78.7461 60.961L80.9219 59.0596L81.3276 58.7037C81.454 58.5975 81.454 58.5922 81.5488 58.7037C81.7293 58.9538 81.9321 59.1867 82.1547 59.3995C82.2337 59.4792 82.2337 59.527 82.1547 59.596L80.7744 60.8335L78.941 62.4268L76.0329 64.9549L74.2311 66.5483L74.0994 66.6386Z" fill="#5094CB"/>
<path d="M98.0389 65.7358L97.9598 65.842C97.7544 66.081 97.5436 66.32 97.3434 66.559C97.2697 66.6546 97.2223 66.6015 97.1643 66.559L95.5259 65.0985L92.6283 62.5916L90.4736 60.7061L89.2671 59.6439C89.1038 59.5058 89.1301 59.4899 89.2671 59.373C89.4761 59.1675 89.6666 58.9435 89.8361 58.7038C89.9257 58.587 89.9309 58.587 90.0468 58.7038L91.8117 60.2494L94.7356 62.7987L97.2433 64.9975L97.9756 65.6349C97.9967 65.6508 98.0389 65.6774 98.0389 65.7358Z" fill="#5094CB"/>
<path d="M90.5795 54.1308C90.5315 54.0904 90.4997 54.0337 90.4899 53.9714C90.3899 53.6905 90.2628 53.4202 90.1106 53.1641C90.0474 53.0632 90.0738 53.0261 90.1686 52.9836L91.3118 52.4525L95.3579 50.5936L99.6621 48.6072L99.7674 48.5647C99.8254 48.5328 99.8675 48.5647 99.8939 48.6072L100.321 49.5526C100.368 49.6535 100.294 49.6694 100.236 49.696L99.3987 50.0837L95.5265 51.8735L90.6796 54.0936L90.5795 54.1308Z" fill="#5094CB"/>
<path d="M80.8169 54.1463L79.721 53.6471L74.242 51.119L71.2601 49.7487L71.139 49.6903C71.0389 49.6584 71.0178 49.6053 71.0652 49.5044C71.2022 49.2176 71.3339 48.9308 71.4603 48.6387C71.5025 48.5377 71.5552 48.5324 71.65 48.5749L72.7721 49.106L80.8379 52.8238L81.2436 53.015C81.3068 53.0416 81.3226 53.0735 81.2857 53.1372C81.0982 53.4579 80.9413 53.7958 80.8169 54.1463Z" fill="#5094CB"/>
<path d="M70.1846 58.5815C70.0634 58.5815 70.0634 58.4965 70.0476 58.4168L69.9528 57.7264C69.9461 57.6582 69.9338 57.5907 69.9159 57.5246C69.8843 57.4183 69.9159 57.3759 70.0265 57.3599L72.5764 56.9935L74.9261 56.6482L76.9702 56.3508L78.9669 56.0587L80.4315 55.8516C80.5895 55.8516 80.5948 55.8516 80.6 56.0003C80.6087 56.2974 80.6475 56.5928 80.7159 56.8819C80.7476 57.0413 80.7159 57.0572 80.5737 57.0837L79.9046 57.1793L77.4654 57.5352L75.1579 57.8645L72.471 58.2575L70.2373 58.5762L70.1846 58.5815Z" fill="#5094CB"/>
<path d="M83.6828 60.4463C84.0117 60.5853 84.3543 60.6885 84.7048 60.7543C84.8207 60.7543 84.8366 60.8128 84.8049 60.919C84.6943 61.2801 84.5942 61.6413 84.4888 61.9812C83.6073 64.9944 82.7292 68.004 81.8547 71.0101C81.8547 71.042 81.8547 71.0686 81.8547 71.1004C81.8547 71.1323 81.8125 71.2013 81.7282 71.1748L80.7747 70.9145C80.6272 70.8667 80.6272 70.8614 80.6746 70.7021C80.8221 70.171 80.9749 69.6399 81.1277 69.1406L83.6196 60.6003L83.6828 60.4463Z" fill="#5094CB"/>
<path d="M101.14 58.5717L100.466 58.4761L98.3586 58.1734L96.3145 57.8706L94.2968 57.5838L91.9418 57.2386L90.8302 57.0846C90.6248 57.0527 90.6195 57.0474 90.6616 56.8456C90.7221 56.5659 90.7591 56.2817 90.7723 55.9958C90.7723 55.8471 90.7723 55.8418 90.9303 55.8577L92.416 56.0648L94.4706 56.3516L96.5095 56.6544L98.5325 56.9412L100.529 57.2333L101.319 57.3608C101.398 57.3608 101.446 57.3873 101.43 57.4829C101.383 57.7963 101.346 58.1096 101.293 58.423C101.319 58.4761 101.319 58.6036 101.14 58.5717Z" fill="#5094CB"/>
<path d="M89.5681 71.2222L89.0413 69.3473L87.6241 64.6151C87.2729 63.4148 86.9216 62.2145 86.5704 61.0142V60.8814C86.5441 60.807 86.5704 60.7752 86.6495 60.7592C87.0105 60.6946 87.3638 60.5914 87.7031 60.4512C87.7519 60.5102 87.783 60.5821 87.7927 60.6583C88.2563 62.2516 88.7146 63.845 89.1782 65.4065C89.6102 66.8776 90.037 68.3541 90.469 69.8306C90.5533 70.1334 90.6428 70.4361 90.7324 70.7388C90.764 70.8291 90.7324 70.8822 90.6534 70.9088C90.2582 71.0044 89.9316 71.1106 89.5681 71.2222Z" fill="#5094CB"/>
<path d="M92.7066 50.3703C92.6644 50.3703 92.6434 50.3384 92.617 50.3065L92.0006 49.5895C91.9269 49.5045 91.9269 49.4461 92.0006 49.3664C92.3905 49.0372 92.7698 48.6972 93.1544 48.3573L95.346 46.4506L97.1267 44.8892C97.2426 44.7882 97.2479 44.7882 97.3585 44.8892C97.5587 45.1175 97.7589 45.3565 97.9644 45.5849C98.0328 45.6646 98.0328 45.7124 97.9644 45.7867C97.4006 46.2701 96.8422 46.764 96.2838 47.2526L94.0763 49.1752L92.8172 50.2959C92.787 50.3295 92.749 50.355 92.7066 50.3703Z" fill="#5094CB"/>
<path d="M79.4421 49.4885L79.3736 49.5788L78.7414 50.3224C78.6782 50.3967 78.636 50.3649 78.5781 50.3224L77.6772 49.5363L74.7691 46.9976L73.3993 45.8132C73.3203 45.7442 73.3045 45.6964 73.3993 45.6114C73.61 45.3777 73.8208 45.1387 74.021 44.8891C74.1 44.7935 74.1527 44.8094 74.2317 44.8891L75.6594 46.1372L78.2145 48.3838L79.3314 49.3664C79.3736 49.3876 79.4315 49.4461 79.4421 49.4885Z" fill="#5094CB"/>
<path d="M80.4415 62.8096C80.7524 63.0061 81.0527 63.2079 81.3582 63.3938C81.4636 63.4575 81.4373 63.5106 81.3846 63.5903L80.8051 64.5038L77.8074 69.2042L77.7547 69.2785C77.6177 69.5016 77.6283 69.4963 77.4175 69.3529L76.7959 68.9492C76.6009 68.8271 76.601 68.8218 76.7327 68.6146C77.1963 67.887 77.6651 67.1594 78.1393 66.4424L80.3204 63.0167L80.4415 62.8096Z" fill="#5094CB"/>
<path d="M89.9023 63.4686L90.956 62.8047L91.8042 64.1325C92.7033 65.5488 93.6007 66.9651 94.4963 68.3814C94.5648 68.4876 94.6386 68.5938 94.7018 68.7054C94.765 68.8169 94.7913 68.8434 94.6649 68.9284L93.9115 69.417C93.7693 69.5073 93.7693 69.5073 93.6745 69.3533L91.1193 65.3806L89.9023 63.4686Z" fill="#5094CB"/>
<path d="M71.5648 62.8833C71.4963 62.8833 71.4805 62.8408 71.4647 62.7983C71.333 62.5062 71.2013 62.2088 71.0643 61.9167C71.0116 61.8105 71.0643 61.768 71.138 61.7255C71.47 61.5821 71.7913 61.4281 72.118 61.2794L75.574 59.686L77.2862 58.8947C77.4653 58.815 77.4653 58.815 77.5496 58.9956C77.6339 59.1761 77.7709 59.4895 77.8868 59.7391C78.0027 59.9887 78.0027 59.9197 77.7867 60.0206L76.0323 60.8226L72.5763 62.4159L71.6596 62.8408L71.5648 62.8833Z" fill="#5094CB"/>
<path d="M93.9456 58.8469C93.9923 58.8637 94.038 58.8832 94.0826 58.9053L96.7957 60.1534L100.141 61.699L100.268 61.7521C100.28 61.7558 100.292 61.7624 100.301 61.7714C100.311 61.7803 100.318 61.7915 100.323 61.8038C100.328 61.8162 100.329 61.8295 100.328 61.8426C100.326 61.8558 100.322 61.8684 100.315 61.8796C100.173 62.1929 100.025 62.5063 99.883 62.8249C99.8408 62.9205 99.7776 62.878 99.7196 62.8249L98.9399 62.4744L93.9772 60.1853L93.4925 59.9622C93.424 59.9304 93.3977 59.8932 93.4293 59.8188C93.5715 59.5108 93.7138 59.2027 93.8508 58.8947C93.861 58.879 93.8751 58.8663 93.8918 58.8579C93.9084 58.8495 93.927 58.8457 93.9456 58.8469Z" fill="#5094CB"/>
<path d="M76.8125 55.0499L75.7273 54.8906L73.6884 54.5932L71.6443 54.2958L70.2377 54.0939C69.9269 54.0568 69.9269 54.0568 69.9637 53.7593C70.0006 53.4619 70.027 53.2548 70.0638 52.9998C70.0638 52.8405 70.1007 52.8352 70.2693 52.8617L73.5778 53.3344L76.9759 53.8284C77.1128 53.8284 77.1234 53.8602 77.1023 53.9983L76.9759 54.8959C76.9495 54.9968 76.9232 55.0765 76.8125 55.0499Z" fill="#5094CB"/>
<path d="M94.5519 55.0504C94.4623 55.0504 94.4254 55.0132 94.4149 54.9123C94.3728 54.6149 94.3253 54.3174 94.2832 54.0147C94.2832 53.8607 94.2832 53.8447 94.4202 53.8235L98.3925 53.2446C99.3092 53.1118 100.226 52.9897 101.143 52.8516C101.274 52.8516 101.301 52.8834 101.316 52.9843C101.353 53.2446 101.395 53.5155 101.427 53.7651C101.459 54.0147 101.459 54.0519 101.164 54.0944L99.0563 54.4024C98.3819 54.498 97.7076 54.5883 97.0333 54.6892L94.9997 54.9866L94.5519 55.0504Z" fill="#5094CB"/>
<path d="M90.7087 40.6517C90.7087 40.6517 90.7087 40.6889 90.7087 40.726C90.0905 42.8505 89.4706 44.9838 88.8489 47.1259C88.7541 47.4446 88.7963 47.4287 88.4749 47.3331L87.8058 47.1366C87.5951 47.0675 87.5898 47.0675 87.6583 46.8445C87.848 46.1859 88.0429 45.5273 88.2325 44.8687L89.5022 40.418L89.5338 40.3118C89.5338 40.2427 89.597 40.2108 89.6655 40.2321L90.6349 40.5189C90.677 40.5401 90.7245 40.5561 90.7087 40.6517Z" fill="#5094CB"/>
<path d="M83.7863 47.0192C83.7863 47.0617 83.7495 47.0829 83.7073 47.0989L82.7432 47.3857C82.6273 47.4175 82.6062 47.3326 82.5799 47.2476C82.4376 46.7483 82.2901 46.2544 82.1426 45.7552C81.6737 44.1353 81.1996 42.5419 80.736 40.8955C80.6253 40.5237 80.5463 40.5768 80.9731 40.4546L81.6211 40.2634C81.7949 40.2103 81.8002 40.2103 81.8529 40.3856L82.3797 42.2073C82.8293 43.7582 83.2788 45.3055 83.7284 46.8492C83.7448 46.9069 83.7641 46.9636 83.7863 47.0192Z" fill="#5094CB"/>
<path d="M181.84 70.3204L177.431 65.7316L167.785 55.6936L167.616 55.5077C168.048 55.4811 168.438 55.4546 168.833 55.4174C169.908 55.3206 170.968 55.1015 171.994 54.7641C173.244 54.3802 174.4 53.736 175.387 52.8734C176.215 52.1607 176.845 51.2427 177.215 50.2099C177.584 49.1771 177.681 48.0651 177.494 46.9833C177.286 45.4998 176.52 44.1536 175.355 43.223C174.422 42.4585 173.347 41.8881 172.194 41.5447C170.629 41.0707 169.002 40.8397 167.368 40.8596C164.344 40.8596 161.326 40.8596 158.307 40.8596H158.149C158.075 40.8596 158.043 40.8861 158.043 40.9658C158.043 41.0455 158.043 41.2845 158.043 41.4438C158.043 41.6031 157.996 41.6403 158.249 41.6722C158.561 41.7142 158.869 41.7799 159.171 41.8687C159.484 41.9528 159.769 42.119 159.998 42.3503C160.226 42.5817 160.39 42.87 160.472 43.1859L160.535 43.4249C160.669 44.0907 160.729 44.7693 160.715 45.4484V66.2681C160.716 66.6919 160.697 67.1155 160.657 67.5374C160.633 67.8684 160.575 68.196 160.483 68.5147C160.411 68.7997 160.258 69.0572 160.043 69.2555C159.827 69.4537 159.559 69.5839 159.271 69.63L159.076 69.6725C158.768 69.7344 158.457 69.7752 158.144 69.7946C158.043 69.7946 158.012 69.8371 158.017 69.9327C158.022 70.0283 158.017 70.2036 158.017 70.3417C158.017 70.6285 157.98 70.586 158.27 70.586H165.066C165.11 70.5834 165.154 70.5834 165.198 70.586C165.298 70.586 165.324 70.5435 165.324 70.4479C165.324 70.3523 165.324 70.1027 165.324 69.9168C165.324 69.7309 165.293 69.7893 165.198 69.7787C164.876 69.7468 164.555 69.715 164.239 69.6512C163.906 69.607 163.595 69.4587 163.349 69.2273C163.103 68.9959 162.936 68.6929 162.869 68.3606C162.725 67.7826 162.656 67.1881 162.664 66.592C162.664 64.7809 162.664 62.9645 162.664 61.1534C162.664 59.3423 162.664 57.4356 162.664 55.6033C162.664 55.3908 162.664 55.4068 162.859 55.4068C163.48 55.4068 164.102 55.4068 164.724 55.4068C164.793 55.4031 164.862 55.4151 164.925 55.4417C164.989 55.4684 165.046 55.5091 165.092 55.5608C166.181 56.7116 167.275 57.8623 168.375 59.013C172.01 62.8194 175.641 66.631 179.27 70.4479C179.316 70.5004 179.374 70.5415 179.439 70.5682C179.504 70.5948 179.574 70.6064 179.644 70.6019H181.751H181.972V70.4639C181.925 70.4107 181.883 70.3629 181.84 70.3204ZM162.875 54.1162H162.716C162.648 54.1162 162.622 54.0896 162.622 54.0206C162.622 53.9515 162.622 53.9144 162.622 53.8612V48.1358C162.622 46.2238 162.622 44.3136 162.622 42.4051C162.622 42.1343 162.58 42.1608 162.853 42.1608C164.276 42.1608 165.704 42.1608 167.126 42.1608C168.541 42.1484 169.95 42.3544 171.304 42.7716C172.166 43.0346 172.969 43.4639 173.669 44.0356C174.615 44.8108 175.233 45.9197 175.397 47.1373C175.59 48.3058 175.421 49.5056 174.913 50.5736C174.447 51.5071 173.712 52.2771 172.805 52.7831C171.929 53.2967 170.972 53.656 169.976 53.8453C168.925 54.0515 167.855 54.1494 166.784 54.1374C165.488 54.1215 164.176 54.1162 162.869 54.1162H162.875Z" fill="black"/>
</svg>
