<svg width="262" height="113" viewBox="0 0 262 113" fill="none" xmlns="http://www.w3.org/2000/svg">
<path d="M64.4349 40H64.3178C64.2449 40.0012 64.1724 40.0118 64.1021 40.0315L44.9131 45.4231C44.7382 45.4678 44.5827 45.5706 44.4712 45.7154C44.3596 45.8602 44.2983 46.0388 44.2969 46.2231V46.2231C44.2976 46.4069 44.3587 46.5851 44.4705 46.729C44.5822 46.873 44.7381 46.9743 44.9131 47.0167L56.763 50.3487L64.1576 52.4146C64.2279 52.4344 64.3004 52.4449 64.3732 52.4461H64.4903C64.5633 52.4454 64.6358 52.4348 64.706 52.4146L72.0267 50.3487L83.8704 47.0167C84.0453 46.9743 84.2012 46.873 84.313 46.729C84.4248 46.5851 84.4859 46.4069 84.4866 46.2231C84.4851 46.0388 84.4238 45.8602 84.3123 45.7154C84.2007 45.5706 84.0453 45.4678 83.8704 45.4231L64.6321 40.0315C64.5678 40.0129 64.5016 40.0023 64.4349 40V40Z" fill="#003464"/>
<path d="M64.6322 54.008H64.1023C64.0307 54.0177 63.9582 54.0177 63.8866 54.008L54.0702 51.2177C53.9318 51.1736 53.7835 51.1736 53.645 51.2177L44.9132 53.6742C44.7352 53.7173 44.5769 53.8215 44.4648 53.9693C44.3527 54.1171 44.2935 54.2997 44.297 54.4867C44.2985 54.671 44.3598 54.8496 44.4713 54.9944C44.5829 55.1392 44.7383 55.242 44.9132 55.2867L56.7446 58.5935L64.1023 60.6594C64.1726 60.6791 64.245 60.6897 64.3179 60.6909H64.435C64.5018 60.6886 64.568 60.678 64.6322 60.6594L72.0268 58.5935L83.8829 55.2678C84.0578 55.2231 84.2132 55.1203 84.3248 54.9755C84.4363 54.8307 84.4976 54.6521 84.4991 54.4678C84.4984 54.2841 84.4372 54.1058 84.3255 53.9619C84.2137 53.8179 84.0578 53.7166 83.8829 53.6742L75.1079 51.2177C74.9674 51.1735 74.8171 51.1735 74.6766 51.2177L64.8602 53.9765C64.7859 53.9973 64.7092 54.0079 64.6322 54.008Z" fill="#003464"/>
<path d="M64.6321 62.2533H64.1021C64.0305 62.263 63.958 62.263 63.8864 62.2533L54.0762 59.463C53.9349 59.4251 53.7863 59.4251 53.6449 59.463L44.9131 61.9258C44.7381 61.9682 44.5822 62.0695 44.4705 62.2135C44.3587 62.3574 44.2976 62.5357 44.2969 62.7194V62.7194C44.2983 62.9037 44.3596 63.0823 44.4712 63.2271C44.5827 63.3719 44.7382 63.4747 44.9131 63.5194L64.1021 68.911C64.1724 68.9307 64.2449 68.9413 64.3178 68.9425H64.4349C64.5016 68.9402 64.5678 68.9296 64.6321 68.911L83.8457 63.5194C84.0206 63.4747 84.1761 63.3719 84.2876 63.2271C84.3992 63.0823 84.4605 62.9037 84.4619 62.7194C84.4613 62.5357 84.4001 62.3574 84.2883 62.2135C84.1766 62.0695 84.0207 61.9682 83.8457 61.9258L75.1078 59.463C74.9685 59.4251 74.8219 59.4251 74.6826 59.463L64.8601 62.2218C64.7858 62.2426 64.7091 62.2532 64.6321 62.2533Z" fill="#003464"/>
<path d="M94.8691 65.5295V44.1582H99.916L99.9098 52.6047H109.036V44.1582H114.083V65.5295H109.036V56.7807H99.9098V65.5295H94.8691Z" fill="#003464"/>
<path d="M130.61 60.2051C129.846 63.6316 127.227 65.9369 123.376 65.9369C118.699 65.9369 115.365 63.0206 115.365 58.2336C115.324 57.1568 115.5 56.0828 115.881 55.0781C116.262 54.0733 116.841 53.159 117.581 52.3917C118.321 51.6244 119.208 51.0203 120.185 50.6168C121.163 50.2132 122.211 50.0187 123.265 50.0454C128.145 50.0454 130.697 53.4718 130.697 57.6038V59.0839H120.092C120.221 61.0869 121.681 62.2333 123.542 62.2333C125.2 62.2333 126.229 61.6034 126.759 60.1988L130.61 60.2051ZM126.1 56.47C126.101 56.09 126.027 55.7136 125.883 55.3632C125.739 55.0128 125.528 54.6955 125.262 54.43C124.996 54.1646 124.68 53.9564 124.334 53.8177C123.988 53.6791 123.618 53.6129 123.247 53.623C121.318 53.623 120.424 54.8827 120.165 56.47H126.1Z" fill="#003464"/>
<path d="M154.564 65.5344V48.4021H147.293V44.1631H166.926V48.4021H159.58V65.5344H154.564Z" fill="#003464"/>
<path d="M175.016 55.2553C174.248 54.8093 173.373 54.5912 172.49 54.6255C170.499 54.6255 169.174 55.7844 169.174 58.4047V65.5347H164.393V50.4747H169.174V53.2272C169.449 52.3333 169.989 51.5494 170.721 50.9848C171.452 50.4202 172.338 50.1031 173.254 50.0778C173.988 50.0546 174.711 50.2756 175.312 50.7077L175.016 55.2553Z" fill="#003464"/>
<path d="M186.566 50.4746H191.378V65.5347H186.566V63.1979C185.765 64.8922 184.101 65.9441 181.882 65.9441C177.902 65.9441 176.645 63.1601 176.645 59.9415V50.4935H181.42V58.751C181.42 60.8863 182.117 62.0767 183.885 62.0767C185.654 62.0767 186.572 60.5525 186.572 58.1401L186.566 50.4746Z" fill="#003464"/>
<path d="M196.916 60.5137C197.113 61.975 198.247 62.7875 200.034 62.7875C201.328 62.7875 202.191 62.3151 202.191 61.5278C202.191 60.7404 201.729 60.3751 200.533 60.1673L198.278 59.7956C194.895 59.2539 193.065 58.0635 193.065 55.0779C193.065 52.0924 195.53 50.0957 199.504 50.0957C203.688 50.0957 206.178 51.9853 206.474 55.2165L202.524 55.3551C202.296 54.0324 201.291 53.2828 199.443 53.2828C198.247 53.2828 197.514 53.793 197.514 54.6055C197.514 55.2354 197.982 55.5881 198.709 55.6889L201.563 56.1991C204.779 56.7093 206.64 58.1706 206.64 61.0491C206.64 64.1984 204.015 65.9683 200.003 65.9683C195.992 65.9683 193.003 64.3055 192.738 60.6459L196.916 60.5137Z" fill="#003464"/>
<path d="M140.907 57L145.813 50.4746H140.834L138.498 53.7247L140.907 57Z" fill="#003464"/>
<path d="M143.115 61.2322L140.434 57.6293L138.012 54.4044L135.258 50.4678H129.915L135.289 57.8309L129.453 65.5279H134.426L137.717 61.0558L140.964 65.5342H146.307L143.115 61.2322Z" fill="#003464"/>
<path d="M216.296 62.0455C215.168 62.0455 214.571 61.5038 214.571 60.2126V53.9139V50.4811V46.2988H211.619L211.12 48.3018C210.756 49.6938 210.325 50.4748 208.865 50.7457L207.805 50.9157V53.9013H209.863V61.5038C209.863 64.8925 212.02 65.9128 214.411 65.9128C215.945 65.9972 217.461 65.5292 218.693 64.5901V61.4156C217.947 61.7958 217.13 62.0104 216.296 62.0455Z" fill="#003464"/>
<path d="M218.49 50.4814H215.402V53.9079H218.49V50.4814Z" fill="#003464"/>
</svg>
