<svg width="262" height="113" viewBox="0 0 262 113" fill="none" xmlns="http://www.w3.org/2000/svg">
<path d="M133.452 69.4169H128.875L122.131 48.9697H125.82C126.348 48.9697 126.816 49.3055 126.979 49.7987L133.452 69.4169Z" fill="#1B2143"/>
<path d="M129.52 69.4169H134.093L140.84 48.9697H137.151C136.624 48.9697 136.155 49.3055 135.992 49.7987L129.52 69.4169Z" fill="#1B2143"/>
<path d="M165.061 54.0539C162.379 54.0539 162.011 54.7465 162.011 54.7465C162.011 54.151 161.521 53.6709 160.919 53.6709H157.981C157.778 53.6709 157.613 53.8336 157.613 54.0329V69.1046C157.613 69.5978 158.021 69.9992 158.522 69.9992H161.465C161.769 69.9992 162.014 69.7579 162.014 69.4588V59.4845C162.014 59.4845 162.645 57.4329 164.755 57.4329C165.546 57.4329 166.127 57.7372 166.542 58.1176C167.155 58.6791 167.469 59.4871 167.469 60.3108V69.1046C167.469 69.5978 167.877 69.9992 168.377 69.9992H171.321C171.624 69.9992 171.87 69.7579 171.87 69.4588V59.5973C171.278 55.0062 167.746 54.0539 165.061 54.0539Z" fill="#1B2143"/>
<path d="M184.007 55.3761V57.5142C184.007 57.7845 183.786 58.0022 183.511 58.0022H174.383V53.6709H182.275C183.232 53.6709 184.007 54.4343 184.007 55.3761Z" fill="#1B2143"/>
<path d="M182.228 66.2346H180.387C179.375 66.2346 178.552 65.4266 178.552 64.4271V50.1923C178.552 49.5154 177.995 48.9697 177.311 48.9697H174.858C174.469 48.9697 174.154 49.2793 174.154 49.6623V65.668C174.154 68.0605 176.123 69.9993 178.552 69.9993H183.331C183.704 69.9993 184.005 69.7028 184.005 69.3355V67.9871C184.007 67.019 183.211 66.2346 182.228 66.2346Z" fill="#1B2143"/>
<path d="M195.736 54.7727V63.8709C195.736 65.2167 194.646 66.3343 193.28 66.3553C193.259 66.3553 193.237 66.3553 193.213 66.3553C193.192 66.3553 193.168 66.3553 193.147 66.3553C191.78 66.3369 190.691 65.2193 190.691 63.8709V54.7727C190.691 54.1641 190.19 53.6709 189.572 53.6709H186.815C186.527 53.6709 186.293 53.9018 186.293 54.1851V63.1415C186.293 65.0147 187.079 66.8275 188.52 68.05C189.593 68.9603 191.128 69.708 193.277 69.708C194.809 69.708 196.018 69.3302 196.966 68.7819C198.967 67.6276 200.136 65.4607 200.136 63.1783V54.3215C200.136 53.9621 199.841 53.6709 199.476 53.6709H196.857C196.237 53.6709 195.736 54.1641 195.736 54.7727Z" fill="#1B2143"/>
<path d="M211.016 54.6918C210.366 54.1488 209.42 53.792 208.054 53.792C202.364 53.792 202.303 58.7739 202.303 58.7739V68.499C202.303 69.328 202.985 69.997 203.824 69.997H206.221C206.487 69.997 206.701 69.7845 206.701 69.5248V59.6449C206.701 58.4486 207.606 57.3966 208.818 57.3048C208.882 57.2995 208.949 57.2969 209.018 57.2969C209.83 57.2969 210.432 57.4701 210.829 57.6432C211.114 57.7691 211.437 57.554 211.437 57.2471V55.6153C211.439 55.2637 211.29 54.9227 211.016 54.6918Z" fill="#1B2143"/>
<path d="M148.457 53.7939C141.683 53.7939 141.398 60.7225 141.398 61.8348C141.398 62.9498 141.899 69.7078 148.393 69.7078C154.888 69.7078 155.388 64.7993 155.388 64.7993H151.896C151.896 64.7993 151.515 66.6462 148.393 66.6462C145.269 66.6462 145.351 63.2095 145.351 63.2095H155.388C155.388 63.2095 156.56 53.7939 148.457 53.7939ZM145.351 59.9958C145.447 59.1248 146.036 56.9421 148.492 56.9421C151.558 56.9421 151.72 59.9958 151.72 59.9958H145.351Z" fill="#1B2143"/>
<path d="M220.598 53.7939C213.824 53.7939 213.539 60.7225 213.539 61.8348C213.539 62.9498 214.04 69.7078 220.534 69.7078C227.028 69.7078 227.529 64.7993 227.529 64.7993H224.037C224.037 64.7993 223.656 66.6462 220.534 66.6462C217.409 66.6462 217.492 63.2095 217.492 63.2095H227.715C227.715 63.2095 228.698 53.7939 220.598 53.7939ZM217.492 59.9958C217.588 59.1248 218.177 56.9421 220.633 56.9421C223.698 56.9421 223.861 59.9958 223.861 59.9958H217.492Z" fill="#1B2143"/>
<path d="M240.546 54.8331V57.7766C240.546 58.1911 240.064 58.4193 239.728 58.1649C238.99 57.6087 237.792 56.9397 236.279 56.9397C233.045 56.9397 233.463 59.5212 237.467 60.686C241.47 61.8508 241.119 64.2749 241.119 64.8415C241.119 65.8384 240.943 69.708 234.742 69.708C232.653 69.708 231.279 69.3434 230.373 68.858V65.7807C230.373 65.5 230.674 65.3242 230.927 65.4528C231.806 65.9066 233.617 66.7042 235.535 66.7042C238.218 66.7042 237.472 64.9701 237.472 64.9701C237.472 64.9701 237.693 64.3195 233.644 62.8031C233.644 62.8031 230.168 61.8902 230.168 58.4692C230.168 55.0482 233.468 53.6709 236.59 53.6709C239.709 53.6709 240.546 54.8331 240.546 54.8331Z" fill="#1B2143"/>
<path d="M56.0862 48.9805V56.8808H48.1367V50.0007C48.1367 49.4352 47.6721 48.9766 47.0994 48.9766H44.4082V67.8891C44.4082 68.4546 44.8728 68.9132 45.4454 68.9132H48.1367V60.0916H56.0902V67.8852C56.0822 68.4506 56.5387 68.9172 57.1114 68.9251H57.1274H59.8186V50.0007C59.8186 49.4352 59.3541 48.9766 58.7814 48.9766H56.0862V48.9805ZM71.873 53.9232V63.4012C71.8811 64.2632 71.4245 65.0659 70.6716 65.5087C68.5651 66.7108 66.3825 65.2043 66.3825 63.2272V54.9473C66.3825 54.3818 65.9179 53.9232 65.3452 53.9232H62.654V63.5673C62.662 66.6752 65.2091 69.19 68.3568 69.2058H69.8867C73.0384 69.1979 75.5935 66.6752 75.6015 63.5633V54.9473C75.6015 54.3818 75.1369 53.9232 74.5643 53.9232H71.873Z" fill="#1B2143"/>
<path d="M112.59 68.924H115.281V55.4958C115.281 54.9304 114.817 54.4717 114.244 54.4717H111.553V67.892C111.549 68.4574 112.009 68.92 112.582 68.924H112.59Z" fill="#2CA6E0"/>
<path d="M115.335 51.7861C115.775 50.7389 115.271 49.5384 114.21 49.1047C113.15 48.6709 111.934 49.1682 111.495 50.2153C111.055 51.2625 111.559 52.463 112.62 52.8967C113.68 53.3304 114.896 52.8332 115.335 51.7861Z" fill="#2CA6E0"/>
<path d="M85.2196 53.915C81.315 53.915 78.1191 56.6711 78.1191 60.5263V62.6101C78.1191 66.4654 81.315 69.2056 85.2196 69.2056C89.1243 69.2056 92.3201 66.4654 92.3201 62.6101V60.5263C92.3241 56.6711 89.1283 53.915 85.2196 53.915ZM88.5756 62.8593C88.5756 64.6821 87.0658 65.896 85.2156 65.896C83.3654 65.896 81.8596 64.6821 81.8596 62.8593V60.2574C81.8596 58.4346 83.3694 57.2207 85.2156 57.2207C87.0618 57.2207 88.5756 58.4346 88.5756 60.2574V62.8593Z" fill="#1B2143"/>
<path d="M101.94 53.914C100.771 53.9061 99.6177 54.1671 98.5644 54.6693V50.0192C98.5644 49.4538 98.0998 48.9951 97.5272 48.9951H94.8359V62.6091C94.8359 66.4644 98.0318 69.2046 101.936 69.2046C105.841 69.2046 109.037 66.4644 109.037 62.6091V60.5253C109.041 56.6701 105.853 53.914 101.94 53.914ZM105.3 62.8583C105.3 64.6811 103.791 65.895 101.94 65.895C100.094 65.895 98.5844 64.6811 98.5844 62.8583V60.2564C98.5844 58.4336 100.094 57.2197 101.94 57.2197C103.787 57.2197 105.3 58.4336 105.3 60.2564V62.8583Z" fill="#2CA6E0"/>
<path d="M33.1384 50.6124C33.1384 46.595 31.156 43.1351 29.6462 42.0122C29.6462 42.0122 29.5301 41.9489 29.5421 42.111C29.418 49.8729 25.4012 51.9765 23.1945 54.8077C18.1004 61.3478 22.8341 68.5166 27.6639 69.8412C30.3551 70.5846 27.0391 68.5285 26.6106 64.1908C26.086 58.9556 33.1384 54.954 33.1384 50.6124Z" fill="#1B2143"/>
<path d="M35.4516 53.258C35.4196 53.2383 35.3755 53.2225 35.3475 53.2739C35.2634 54.2505 34.2542 56.3383 32.9726 58.26C28.6274 64.7685 31.1024 67.908 32.4961 69.5965C33.305 70.5731 32.4961 69.5965 34.5145 68.5961C37.0095 67.1014 38.6274 64.5154 38.8677 61.6447C39.2642 57.0184 36.4528 54.1042 35.4516 53.258Z" fill="#2CA6E0"/>
</svg>
