<svg width="262" height="113" viewBox="0 0 262 113" fill="none" xmlns="http://www.w3.org/2000/svg">
<path d="M83.9492 56.6056L89.584 42.9102H104.045L98.3211 56.6056H83.9492Z" fill="black"/>
<path d="M104.348 56.6054L115.385 30C115.385 30 126.097 30 135.222 30C145.816 30 155.102 38.9275 154.826 49.4068C154.525 60.9015 145.031 69.9751 134.568 69.9751C131.445 69.9751 127.722 69.9751 127.722 69.9751L122.092 83.5196H107.821L119.074 56.7586C119.074 56.7586 128.563 56.7586 133.36 56.7586C138.157 56.7586 141.422 52.4218 141.422 49.3206C141.422 46.2194 138.422 42.8549 135.492 42.8549C132.56 42.8549 124.333 42.8549 124.333 42.8549L118.569 56.603H104.348V56.6054Z" fill="black"/>
<path d="M85.1352 73.1211H87.9669L86.3392 82.8868H83.4883L85.1352 73.1211Z" fill="black"/>
<path d="M92.224 82.9638C91.1229 82.9638 87.7812 82.504 87.7812 79.0891C87.7812 75.6742 90.6992 72.8652 93.9307 72.8652C95.197 72.8652 96.1521 73.507 96.1521 73.507L95.6374 76.6106C95.6374 76.6106 95.3071 76.7567 95.0869 76.4453C94.8667 76.134 94.2419 75.6 93.4352 75.6C92.6285 75.6 90.7543 76.3711 90.7543 78.6126C90.7543 79.7501 91.5992 80.1907 92.6261 80.1907C93.653 80.1907 94.3879 79.695 94.589 79.4747C94.7901 79.2544 95.1204 79.4747 95.1204 79.4747L94.68 82.4489C94.6823 82.4489 93.6004 82.9638 92.224 82.9638Z" fill="black"/>
<path d="M102.319 72.8652C97.6197 72.8652 96.0039 76.886 96.0039 78.8137C96.0039 81.661 98.0601 83.0931 100.593 83.0931C105.217 83.0931 106.852 79.1442 106.852 77.0153C106.852 74.884 105.129 72.8652 102.319 72.8652ZM101.04 80.3559C99.8626 80.3559 98.9075 79.6902 98.9075 78.3659C98.9075 77.4703 99.6591 75.6 101.845 75.6C103.152 75.6 103.953 76.5387 103.953 77.5302C103.951 78.5216 103.192 80.3559 101.04 80.3559Z" fill="black"/>
<path d="M133.432 73.418C132.111 73.418 129.169 73.418 129.169 73.418L127.699 83.1693H130.447L130.924 80.0034C130.924 80.0034 131.814 80.0034 132.75 80.0034C133.686 80.0034 136.211 79.2611 136.211 76.0953C136.211 74.3256 134.754 73.418 133.432 73.418ZM132.242 77.683C131.797 77.683 131.352 77.683 131.352 77.683L131.613 75.7648C131.613 75.7648 131.769 75.7648 132.379 75.7648C132.989 75.7648 133.255 76.1312 133.255 76.5982C133.253 77.0675 132.69 77.683 132.242 77.683Z" fill="black"/>
<path d="M141.562 76.3904C141.562 76.3904 141.428 76.9986 141.25 76.7256C141.073 76.4526 140.477 76.2275 139.809 76.2275C137.298 76.2275 135.783 78.5456 135.783 80.4925C135.783 82.7364 137.595 83.3471 138.531 83.3471C139.467 83.3471 140.001 83.0046 140.269 82.7675C140.537 82.5305 140.686 83.1698 140.686 83.1698H143.063L144.013 76.3928H141.562V76.3904ZM139.496 80.9547C138.663 80.9547 138.514 80.277 138.514 80.0926C138.514 79.4676 139.108 78.5169 140.09 78.5169C140.669 78.5169 141.085 79.1108 141.085 79.5275C141.085 80.3752 140.329 80.9547 139.496 80.9547Z" fill="black"/>
<path d="M176.013 76.3884C176.013 76.3884 175.879 76.9967 175.702 76.7237C175.524 76.4507 174.928 76.2256 174.261 76.2256C171.75 76.2256 170.234 78.5437 170.234 80.4906C170.234 82.7344 172.046 83.3451 172.982 83.3451C173.918 83.3451 174.452 83.0026 174.72 82.7656C174.988 82.5285 175.137 83.1679 175.137 83.1679H177.514L178.464 76.3908H176.013V76.3884ZM173.947 80.9504C173.114 80.9504 172.966 80.2727 172.966 80.0883C172.966 79.4632 173.559 78.5125 174.541 78.5125C175.12 78.5125 175.536 79.1064 175.536 79.5231C175.539 80.3708 174.78 80.9504 173.947 80.9504Z" fill="black"/>
<path d="M144.145 83.1698L145.392 76.2275H147.74C147.74 76.2275 147.577 76.8526 147.843 76.8358C148.111 76.8214 148.422 76.2275 149.834 76.2275C151.247 76.2275 152.017 76.8813 152.017 78.3373C152.017 79.7933 151.201 83.1674 151.201 83.1674H148.602C148.602 83.1674 149.269 79.719 149.269 79.0509C149.269 78.3828 149.001 78.2918 148.645 78.2918C148.288 78.2918 147.694 78.5145 147.529 79.3167C147.366 80.119 146.861 83.1674 146.861 83.1674H144.145V83.1698Z" fill="black"/>
<path d="M152.584 83.1708L153.415 78.6376H152.584L152.998 76.2285H153.771L154.128 74.4756H156.61L156.371 76.2285H157.575L157.292 78.6065L155.985 78.6208L155.286 83.1708H152.584Z" fill="black"/>
<path d="M164.247 80.3297C164.247 80.3297 164.396 79.6305 164.396 79.1707C164.396 77.3267 163.252 76.1533 161.351 76.1533C158.081 76.1533 156.982 78.8594 156.982 80.4495C156.982 81.0098 157.131 83.3327 160.221 83.3327C163.311 83.3327 164.039 80.732 164.039 80.732H161.631C161.631 81.0601 160.978 81.4912 160.501 81.4912C159.297 81.4912 159.343 80.3321 159.343 80.3321H164.247V80.3297ZM161.083 78.0116C162.004 78.0116 162.019 78.6797 162.019 78.6797H159.879C159.879 78.6797 159.999 78.0116 161.083 78.0116Z" fill="black"/>
<path d="M165.675 76.2734L164.531 83.2157H167.162C167.162 83.2157 167.564 80.6007 167.667 79.9158C167.77 79.2309 168.38 78.5772 169.228 78.5772C169.63 78.5772 170.089 79.0824 170.283 78.6059C170.477 78.1293 170.788 76.4961 170.7 76.4219C170.611 76.3477 170.224 76.2734 169.809 76.2734C169.395 76.2734 168.785 76.5848 168.546 76.8242C168.309 77.0613 167.995 76.8697 168.026 76.6901C168.055 76.5129 168.1 76.2734 168.1 76.2734H165.675Z" fill="black"/>
</svg>
