<svg width="262" height="113" viewBox="0 0 262 113" fill="none" xmlns="http://www.w3.org/2000/svg">
<path d="M67.3182 61.1858C67.2633 61.1858 67.1535 61.2407 67.1535 61.2956C67.0711 61.4054 67.0437 61.4878 67.0162 61.6251C66.824 62.4762 66.4945 63.3274 66.0827 64.0962C65.7257 64.8101 65.2864 65.4691 64.7373 66.0731C64.0508 66.8145 63.2546 67.3087 62.2936 67.5833C61.7719 67.748 61.2228 67.8578 60.6736 67.8578C58.5594 67.8853 56.4178 67.8578 54.3036 67.8578C54.2212 67.8578 54.1388 67.8304 54.029 67.8304C54.029 67.6931 54.029 67.5833 54.029 67.4734C54.029 64.5081 54.029 61.5153 54.029 58.5499C54.029 54.349 54.029 50.1206 54.029 45.9196C54.029 45.8373 54.029 45.7549 54.029 45.6725C54.029 45.5627 54.0839 45.5078 54.1938 45.5078C54.2761 45.5078 54.3585 45.5078 54.4134 45.5078C55.4019 45.5078 56.7747 45.5078 57.7357 45.5078V45.041C54.3859 45.041 50.3498 45.041 47 45.041V45.5078C48.2356 45.5078 49.4162 45.5078 50.6792 45.5078C50.6792 49.2694 50.6792 52.9761 50.6792 56.7103C50.6792 60.417 50.6792 64.1237 50.6792 67.8853C49.4437 67.8853 48.2356 67.8853 47.0275 67.8853C47.0275 68.05 47.0275 68.1599 47.0275 68.3246C47.1647 68.3246 47.2471 68.3246 47.3569 68.3246C53.9466 68.3246 60.8933 68.3246 67.483 68.3246V61.378C67.483 61.2956 67.4555 61.2132 67.3182 61.1858Z" fill="black"/>
<path d="M72.3977 39H71.6289V74.3372H72.3977V39Z" fill="black"/>
<path d="M90.8778 54.0198C90.7954 53.7452 90.7405 53.4707 90.6856 53.1961C90.3286 51.9056 89.752 50.7524 88.9832 49.6541C88.5165 49.0226 87.9948 48.4735 87.3907 47.9518C86.8416 47.485 86.2375 47.1006 85.6335 46.7437C84.947 46.3593 84.2332 46.0298 83.4644 45.7827C82.8054 45.563 82.1464 45.3434 81.4875 45.261C80.9658 45.1786 80.4166 45.0963 79.9224 45.0688C79.5655 45.0414 79.2085 45.0139 78.8516 45.0139C78.275 44.9864 77.6709 44.959 77.0943 44.959C76.7374 44.959 76.353 44.9864 76.0235 45.0139C75.694 45.0414 75.392 45.0414 75.0625 45.0688C75.1174 45.4807 75.1174 45.5081 75.5018 45.5081C75.9411 45.5081 76.3804 45.4532 76.8198 45.4532C77.8357 45.4532 78.8516 45.4532 79.8675 45.618C80.3343 45.7278 80.801 45.7827 81.2678 45.92C81.8444 46.0847 82.3935 46.3318 82.9427 46.6064C83.5742 46.9634 84.1508 47.3752 84.645 47.8694C85.4138 48.6382 85.9355 49.5169 86.3474 50.4779C86.7867 51.5487 87.0338 52.6744 87.1711 53.8002C87.1711 53.91 87.1985 54.212 87.1985 54.212C87.4182 56.793 87.2534 58.7699 87.2534 58.7699C87.2534 58.7699 87.226 58.9346 87.226 58.9895C87.1436 59.5936 87.0612 60.1977 86.9514 60.8017C86.7867 61.5705 86.567 62.2844 86.2375 62.9983C86.0179 63.465 85.7708 63.9318 85.5236 64.3986C85.2216 64.9752 84.8098 65.4694 84.3704 65.9362C83.4918 66.7599 82.4485 67.3365 81.2953 67.6385C80.5265 67.8307 79.7027 67.9131 78.9339 67.968C78.1651 68.0229 77.3963 67.9955 76.6276 67.9955C76.1882 67.9955 75.7764 67.9955 75.3096 67.9955C75.1723 68.2975 75.1998 68.3524 75.5293 68.3799C75.7489 68.4073 75.9686 68.4348 76.1882 68.4348C77.616 68.4622 79.0438 68.4897 80.4715 68.3799C81.158 68.3249 81.8169 68.2151 82.4759 68.0778C83.3271 67.8856 84.1782 67.5561 84.947 67.1443C85.5786 66.8148 86.1826 66.4304 86.7867 66.0185C87.6653 65.4145 88.4066 64.6457 89.0381 63.822C89.5598 63.0806 90.0266 62.3393 90.3835 61.5156C90.713 60.7193 90.9327 59.8956 91.0974 59.0719C91.1249 58.9072 91.1249 58.8248 91.1249 58.8248C91.4269 56.5184 91.0151 54.2395 91.0151 54.2395C90.9052 54.1846 90.8778 54.0198 90.8778 54.0198Z" fill="black"/>
<path d="M112.485 65.8535C108.312 65.8535 104.907 62.4489 104.907 58.2754C104.907 54.1019 108.312 50.6972 112.485 50.6972C114.49 50.6972 116.357 51.466 117.785 52.8663L118.938 51.6857C117.208 49.9833 114.902 49.0498 112.485 49.0498C107.406 49.0498 103.26 53.1958 103.26 58.2754C103.26 63.3549 107.406 67.5009 112.485 67.5009C114.956 67.5009 117.263 66.54 118.993 64.8102L117.839 63.657C116.412 65.0573 114.49 65.8535 112.485 65.8535Z" fill="black"/>
<path d="M163.364 49.2969H161.717V67.0341H163.364V49.2969Z" fill="black"/>
<path d="M167.592 50.7793H173.962V67.0338H175.609V50.7793H181.979V49.1318H167.592V50.7793Z" fill="black"/>
<path d="M205.895 65.4145V49.2148H204.248V67.0619H216V65.4145H205.895Z" fill="black"/>
<path d="M150.211 49.1318H142.715V49.9555V61.4326V67.0338H144.362V61.4326H150.211C153.588 61.4326 156.361 58.6869 156.361 55.2822C156.361 51.8775 153.615 49.1318 150.211 49.1318ZM150.211 59.7852H144.362V50.7793H150.211C152.682 50.7793 154.714 52.8111 154.714 55.2822C154.714 57.7534 152.709 59.7852 150.211 59.7852Z" fill="black"/>
<path d="M128.986 49.2695L121.023 67.1166H122.836L124.977 62.3116H134.917L137.113 67.1166H138.925L130.771 49.2695H128.986ZM125.719 60.6642L129.865 51.3014L134.148 60.6642H125.719Z" fill="black"/>
<path d="M190.134 49.2148L182.172 67.0619H183.984L186.126 62.2569H196.065L198.262 67.0619H200.074L191.919 49.2148H190.134ZM186.867 60.637L191.041 51.2741L195.324 60.637H186.867Z" fill="black"/>
</svg>
