<svg width="262" height="113" viewBox="0 0 262 113" fill="none" xmlns="http://www.w3.org/2000/svg">
<g clip-path="url(#clip0_2663_10417)">
<path d="M100.381 72.6825H88.7559V56.2539H92.0038V69.794L97.7069 69.8167V67.5942L100.381 67.5492V72.6825V72.6825Z" fill="#213749"/>
<path d="M101.219 56.3668H104.489V65.8678V66.0257C104.489 67.4096 104.654 68.3875 104.982 68.9592C105.272 69.4407 105.936 69.6811 106.974 69.6811C107.417 69.6811 107.852 69.6017 108.28 69.4438C108.707 69.2859 108.993 69.079 109.138 68.8239C109.451 68.2218 109.608 67.1918 109.608 65.7325V56.2539H112.878V66.68C112.878 67.8461 112.817 68.7222 112.695 69.3085C112.564 69.8576 112.347 70.358 112.04 70.8091C111.535 71.5614 110.908 72.1183 110.158 72.4794C109.798 72.645 109.321 72.7743 108.724 72.8683C108.127 72.9623 107.546 73.0098 106.98 73.0098C105.534 73.0098 104.524 72.8777 103.95 72.6146C103.193 72.2085 102.565 71.6445 102.068 70.9217C101.747 70.4409 101.536 69.9634 101.437 69.4888C101.33 69.0758 101.257 68.2519 101.219 67.0181V66.8152V56.3668H101.219Z" fill="#213749"/>
<path d="M121.6 66.7922L118.215 72.5693H114.52L119.879 64.2763L114.669 56.1406H118.352L121.6 61.8391L124.814 56.1406H128.509L123.311 64.2763L128.647 72.5693H124.963L121.6 66.7922Z" fill="#213749"/>
<path d="M152.035 61.1283H148.041C147.528 60.4889 146.953 60.0135 146.314 59.7008C145.675 59.3887 144.943 59.2325 144.116 59.2325C142.685 59.2325 141.476 59.7407 140.49 60.7558C139.503 61.7717 139.009 63.0126 139.009 64.4797C139.009 65.9462 139.502 67.1876 140.49 68.203C141.507 69.2181 142.731 69.7262 144.162 69.7262C144.965 69.7262 145.677 69.5723 146.297 69.2634C146.947 68.9631 147.49 68.5306 147.926 67.9657H151.896C151.506 68.8011 151.046 69.5339 150.518 70.1664C149.99 70.7981 149.412 71.3208 148.784 71.7346C147.506 72.5841 145.955 73.0097 144.133 73.0097C141.737 73.0097 139.723 72.1857 138.093 70.5381C137.557 70.0045 137.103 69.4087 136.732 68.7496C136.361 68.0915 136.087 67.3943 135.911 66.6569C135.735 65.9195 135.646 65.1563 135.646 64.3668C135.646 63.2006 135.865 62.1139 136.301 61.1057C136.761 60.0679 137.411 59.1351 138.253 58.3074C139.049 57.5405 139.941 56.9462 140.929 56.5243C141.955 56.1259 143.031 55.9268 144.156 55.9268C145.075 55.9268 145.919 56.0334 146.688 56.248C147.458 56.4627 148.164 56.788 148.807 57.2244C149.442 57.6305 150.034 58.1627 150.581 58.8207C151.129 59.4793 151.613 60.2485 152.035 61.1283Z" fill="#A99E69"/>
<path d="M159.125 69.2409L157.829 72.6825H154.455L160.135 58.9169H155.832L155.878 56.2539H163.004L170.177 72.6825H166.642L165.334 69.2409H159.125ZM164.255 66.1945L162.281 60.9138L160.25 66.1945H164.255Z" fill="#A99E69"/>
<path d="M176.684 72.6823H173.413L173.368 66.465H171.084V63.6218H173.368L173.413 56.2539H177.55C178.041 56.2539 178.721 56.2857 179.59 56.3496C180.46 56.4141 181.067 56.4795 181.412 56.5471C182.062 56.6824 182.563 56.8629 182.915 57.0884C183.589 57.5404 184.128 58.1457 184.533 58.9057C184.931 59.7102 185.13 60.5115 185.13 61.3087C185.13 62.881 184.602 64.1374 183.547 65.0771C183.057 65.5136 182.253 65.8385 181.137 66.0535C180.02 66.2673 178.937 66.3748 177.889 66.3748H176.684V72.6823H176.684ZM176.684 63.5991H177.533C178.153 63.5991 178.832 63.5656 179.57 63.498C180.308 63.4303 180.788 63.3097 181.01 63.1369C181.5 62.7457 181.745 62.1926 181.745 61.4784C181.745 60.741 181.508 60.1847 181.033 59.8082C180.827 59.658 180.329 59.5133 179.542 59.374C178.753 59.2347 178.076 59.1576 177.51 59.1421H176.684V63.5991H176.684Z" fill="#A99E69"/>
<path d="M186.266 72.6825V56.2539H189.513V72.6825H186.266Z" fill="#A99E69"/>
<path d="M200.405 56.2539V59.1424H197.249V72.6825H193.978V59.1424H190.834V56.2539H200.405Z" fill="#A99E69"/>
<path d="M206.706 69.2409L205.409 72.6825H202.035L207.715 58.9169H203.412L203.458 56.2539H210.584L217.757 72.6825H214.222L212.914 69.2409H206.706ZM211.835 66.1945L209.862 60.9138L207.83 66.1945H211.835Z" fill="#A99E69"/>
<path d="M230.69 72.6825H219.064V56.2539H222.312V69.794L228.015 69.8167V67.5942L230.69 67.5492V72.6825Z" fill="#A99E69"/>
<path d="M44.3462 64.8666L49.6459 53.8925L44.6896 43.4258L31.0391 72.4637H58.4264L58.3701 72.3178L54.8421 64.8666H44.3462Z" fill="#213749"/>
<path d="M83.8386 72.4631L80.4904 65.1192H66.7536L58.4261 47.5612H74.4807L71.2182 40.1328H46.6641L61.6026 72.4631H83.8386Z" fill="#A99E69"/>
</g>
<defs>
<clipPath id="clip0_2663_10417">
<rect width="200" height="33" fill="white" transform="translate(31 40)"/>
</clipPath>
</defs>
</svg>
