<svg width="262" height="113" viewBox="0 0 262 113" fill="none" xmlns="http://www.w3.org/2000/svg">
<path d="M144.818 53.001H146.909V64.5431H158.308V66.2466H144.818V53.001Z" fill="#2F2F2F"/>
<path d="M192.53 56.1617C192.53 46.6901 184.819 39.0117 175.311 39.0117C165.798 39.0117 158.09 46.6901 158.09 56.1617C158.09 64.2833 163.761 71.0781 171.374 72.8513C171.328 72.7789 171.297 72.697 171.284 72.6116C164.946 70.4887 160.377 64.5305 160.377 57.5012C160.377 48.6952 167.544 41.5556 176.385 41.5556C185.227 41.5556 192.394 48.6952 192.394 57.5012C192.394 57.8726 192.379 58.2378 192.353 58.6023C192.466 57.8041 192.53 56.9912 192.53 56.1617Z" fill="#2F2F2F"/>
<path fill-rule="evenodd" clip-rule="evenodd" d="M185.395 62.1102C185.247 61.6769 184.881 61.4337 184.557 61.1626C184.302 60.9472 184.003 60.7833 183.726 60.5915C183.648 60.5353 183.55 60.4534 183.574 60.3644C183.601 60.2716 183.71 60.2228 183.819 60.1958C184.099 60.126 184.379 60.0772 184.668 60.0741C184.7 60.0741 184.743 60.0881 184.756 60.0401C184.769 59.9979 184.73 59.9734 184.703 59.9573C184.437 59.7873 184.159 59.6369 183.851 59.5489C183.272 59.3824 182.685 59.3736 182.093 59.4116C182.082 59.456 182.055 59.4626 182.028 59.4608C182.053 59.4578 182.075 59.4447 182.093 59.4116C182.048 59.3959 181.981 59.46 181.96 59.3736C182.556 58.9774 183.108 58.5236 183.631 58.0315C184.224 57.4736 184.772 56.876 185.155 56.1493C185.261 55.9475 185.339 55.7431 185.401 55.4907C185.167 55.655 184.925 55.6511 184.706 55.7147C184.156 55.8756 183.618 55.4667 183.578 54.897C183.523 54.118 183.795 53.4167 184.077 52.7192C184.22 52.3736 184.413 52.0471 184.642 51.7053C184.551 51.7202 184.503 51.7036 184.443 51.7293C183.82 51.9874 183.236 52.3125 182.685 52.6966C182.293 52.9721 181.956 53.3195 181.546 53.5714C181.285 53.7327 181.193 53.7018 181.089 53.4175C180.983 53.1316 180.977 52.8243 180.908 52.5253C180.155 53.2162 179.683 54.0666 179.382 55.0247C179.254 55.4366 179.047 55.8063 178.678 56.0621C178.594 56.1188 178.594 56.1197 178.566 56.0573C178.386 55.6838 178.273 55.2945 178.254 54.8813C178.237 54.4981 178.224 54.1185 178.238 53.7349C178.254 53.3352 178.21 52.9311 178.191 52.5296C178.169 52.058 178.067 51.6038 177.91 51.1618C177.824 50.9107 177.75 50.65 177.595 50.3881C177.542 50.6025 177.476 50.7703 177.386 50.9268C177.259 51.1487 177.095 51.3039 176.816 51.3178C176.489 51.3344 176.221 51.1971 175.963 51.0288C175.54 50.7542 175.173 50.4138 174.833 50.045C174.499 49.6836 174.177 49.3144 173.875 48.9261C173.702 48.7072 173.52 48.4919 173.365 48.2578C173.344 48.2243 173.315 48.1802 173.268 48.1955C173.209 48.2147 173.235 48.2722 173.244 48.3075C173.273 48.4357 173.22 48.5551 173.212 48.6798C173.19 49.001 173.172 49.3249 173.116 49.6414C173.035 50.1126 172.966 50.586 172.847 51.048C172.718 51.5419 172.545 52.0096 172.259 52.4302C172.076 52.6996 171.733 52.809 171.415 52.7175C171.206 52.6565 171.056 52.5091 170.903 52.3675C170.874 52.3404 170.847 52.2894 170.799 52.3213C170.751 52.3483 170.77 52.4128 170.784 52.4363C170.872 52.5641 170.847 52.7175 170.875 52.8552C170.992 53.4328 171.203 53.9729 171.468 54.4973C171.826 55.1973 172.334 55.8067 172.68 56.5111C172.863 56.8821 173.015 57.2617 173.002 57.705C172.914 57.6048 172.813 57.6549 172.727 57.637C172.187 57.5302 171.794 57.1828 171.392 56.8572C170.746 56.3328 170.003 56.026 169.218 55.7949C169.188 55.7867 169.143 55.7906 169.122 55.8084C169.087 55.8442 169.138 55.8664 169.149 55.8948C169.246 56.1175 169.341 56.3372 169.427 56.5612C169.549 56.879 169.437 57.063 169.126 57.0407C169.018 57.0324 168.902 57.0298 168.798 57.0076C168.278 56.8982 167.75 56.8424 167.224 56.8354C166.629 56.825 166.027 56.8454 165.439 57.0028C165.52 57.0708 165.621 57.0617 165.703 57.1039C166.433 57.4862 167.094 57.9618 167.666 58.5537C167.85 58.7442 168.028 58.9517 168.132 59.1975C168.299 59.5877 168.332 59.8993 167.959 60.2263C167.669 60.4804 167.304 60.5606 166.912 60.6622C167.384 61.0741 167.916 61.3273 168.479 61.5248C169.045 61.7262 169.626 61.8539 170.218 61.9685C170.802 62.0797 171.394 62.1059 172.011 62.1974C171.141 62.5335 170.029 63.3996 169.892 64.1825C170.197 64.029 170.503 63.8983 170.822 63.7941C170.969 63.7444 171.123 63.8215 171.104 63.9331C171.088 64.0177 171.072 64.1053 171.035 64.182C170.847 64.5809 170.651 64.978 170.533 65.4043C170.453 65.6881 170.368 65.9762 170.475 66.287C170.521 66.4243 170.539 66.396 170.637 66.3445C171.031 66.1318 171.425 65.9139 171.831 65.7299C172.145 65.5882 172.45 65.4086 172.816 65.4209C173.001 65.4278 173.078 65.5019 173.102 65.682C173.145 66.0006 173.058 66.3088 173.052 66.62C173.061 66.6527 173.036 66.705 173.1 66.705C173.255 66.5769 173.415 66.4557 173.558 66.3179C174.251 65.6493 174.793 64.8559 175.359 64.0844C175.82 63.4545 176.385 62.9868 177.17 62.8142C177.26 62.7941 177.238 62.7981 177.266 62.87C177.449 63.2989 177.529 63.7492 177.571 64.2012C177.63 64.8476 177.663 65.4998 177.545 66.1549C177.453 66.6388 177.305 67.0956 177.107 67.5293C177.195 67.4678 177.299 67.4216 177.436 67.4216C177.811 67.4216 178 67.7063 178.01 67.9966C178.207 67.375 178.286 66.7307 178.312 66.0764C178.329 65.6358 178.255 65.1999 178.206 64.7613C178.179 64.5255 178.138 64.284 178.086 64.0521C177.985 63.6171 177.864 63.1877 177.73 62.7645C177.698 62.6581 177.756 62.6298 177.805 62.6172C178.351 62.4925 178.89 62.4367 179.45 62.5819C180.24 62.7863 180.95 63.183 181.717 63.4436C182.297 63.6415 182.889 63.7793 183.51 63.8865C183.297 63.5862 183.013 63.3586 182.857 63.0409C182.738 62.8007 182.808 62.6398 183.033 62.5483C183.383 62.4031 183.749 62.3953 184.104 62.3491C184.492 62.2981 184.885 62.302 185.273 62.2933C185.425 62.2902 185.442 62.251 185.395 62.1102Z" fill="#11815F"/>
<path fill-rule="evenodd" clip-rule="evenodd" d="M181.895 59.4322C181.895 59.4143 181.908 59.3982 181.927 59.3877C181.911 59.3977 181.901 59.4121 181.895 59.4322Z" fill="#11815F"/>
<path fill-rule="evenodd" clip-rule="evenodd" d="M181.908 59.4645C181.924 59.4605 181.941 59.4605 181.955 59.4614C181.942 59.4645 181.924 59.4697 181.908 59.4645Z" fill="#11815F"/>
<path fill-rule="evenodd" clip-rule="evenodd" d="M181.932 59.3853C181.933 59.3853 181.933 59.3828 181.936 59.3828C181.933 59.3828 181.933 59.3853 181.932 59.3853Z" fill="#11815F"/>
<path fill-rule="evenodd" clip-rule="evenodd" d="M173.053 66.6221C173.06 66.6548 173.037 66.7071 173.101 66.7071C173.101 66.7502 173.066 66.765 173.03 66.7912C173.035 66.731 172.955 66.6696 173.053 66.6221Z" fill="#11815F"/>
<path d="M35.248 53.001H37.7168L43.909 63.3331L50.3489 53.001H52.8176V66.2466H50.7301V56.0658L44.9532 65.2632H42.8451L37.3378 56.1608V66.247H35.248V53.001Z" fill="#2F2F2F"/>
<path d="M62.4932 53.001H65.3821L72.0692 66.2466H69.8285L68.288 63.2188H59.6048L58.066 66.2466H55.8262L62.4932 53.001ZM60.4792 61.5162H67.4158L63.9374 54.7236L60.4792 61.5162Z" fill="#2F2F2F"/>
<path d="M74.9238 53.001H84.1743C85.959 53.001 87.31 53.3671 88.2198 54.0977C89.1327 54.8309 89.5875 55.8461 89.5875 57.1446C89.5875 58.4445 89.1323 59.4658 88.2198 60.2107C87.3095 60.9544 85.959 61.3262 84.1743 61.3262H77.014V66.247H74.9243V53.001H74.9238ZM77.014 59.624H84.1743C86.39 59.624 87.4977 58.7975 87.4977 57.1446C87.4977 56.3382 87.229 55.7284 86.6903 55.32C86.1524 54.9093 85.3134 54.7036 84.1738 54.7036H77.0136V59.624H77.014Z" fill="#2F2F2F"/>
<path d="M92.6133 53.001H94.7035V64.5431H106.101V66.2466H92.6137V53.001H92.6133Z" fill="#2F2F2F"/>
<path d="M108.84 66.2466V53.001H123.471V54.7032H110.93V58.7718H122.215V60.4749H110.93V64.5427H123.471V66.2462H108.84V66.2466Z" fill="#2F2F2F"/>
<path d="M136.917 53.001C137.781 53.001 138.538 53.1553 139.198 53.4648C139.858 53.7738 140.366 54.208 140.727 54.7703C141.088 55.3308 141.267 55.9843 141.267 56.7279C141.267 57.3085 141.135 57.8516 140.871 58.3551C140.604 58.8599 140.222 59.2818 139.729 59.6236C140.212 59.964 140.589 60.3829 140.861 60.8811C141.131 61.3807 141.268 61.9203 141.268 62.4996C141.268 63.2446 141.089 63.9002 140.727 64.4673C140.367 65.0352 139.858 65.4737 139.198 65.7819C138.539 66.0927 137.781 66.2466 136.917 66.2466H126.451V53.001H136.917ZM128.541 54.7032V58.7718H136.917C137.677 58.7718 138.244 58.5826 138.619 58.2038C138.992 57.8259 139.18 57.3329 139.18 56.7275C139.18 56.136 138.991 55.6495 138.619 55.2711C138.244 54.8923 137.677 54.7027 136.917 54.7027H128.541V54.7032ZM136.917 64.5431C137.677 64.5431 138.244 64.3548 138.619 63.9747C138.992 63.5976 139.18 63.1051 139.18 62.4996C139.18 61.9068 138.992 61.4203 138.619 61.042C138.245 60.6645 137.678 60.4749 136.917 60.4749H128.541V64.5427H136.917V64.5431Z" fill="#2F2F2F"/>
<path d="M194.779 59.6058C194.779 58.3435 195.141 57.1866 195.861 56.1335C196.585 55.0799 197.587 54.2482 198.873 53.6349C200.157 53.0246 201.599 52.7178 203.196 52.7178C206.186 52.7178 208.47 53.631 210.054 55.4609L208.61 56.6535C208.064 55.997 207.342 55.4774 206.443 55.0921C205.544 54.7072 204.461 54.5145 203.196 54.5145C201.943 54.5145 200.817 54.7482 199.823 55.215C198.83 55.6814 198.056 56.3026 197.507 57.0785C196.955 57.8553 196.679 58.697 196.679 59.6054C196.679 60.5007 196.955 61.3359 197.507 62.1118C198.056 62.8873 198.83 63.5084 199.823 63.9748C200.817 64.4417 201.943 64.6753 203.196 64.6753C204.461 64.6753 205.544 64.4835 206.443 64.0995C207.343 63.7137 208.064 63.1937 208.61 62.5368L210.054 63.7477C208.458 65.5659 206.17 66.4734 203.196 66.4734C201.6 66.4734 200.157 66.1674 198.873 65.5554C197.587 64.9438 196.585 64.1113 195.861 63.0581C195.141 62.0054 194.779 60.8542 194.779 59.6058Z" fill="#2F2F2F"/>
<path d="M212.693 53.001H214.783V59.1885L223.999 53.001H227.322L218.297 59.1698L227.779 66.2466H224.397L216.55 60.3798L214.783 61.5725V66.2466H212.693V53.001Z" fill="#2F2F2F"/>
</svg>
