<svg width="262" height="113" viewBox="0 0 262 113" fill="none" xmlns="http://www.w3.org/2000/svg">
<path d="M120.311 60.7766H118.674L114.074 52.2227H116.016L119.493 58.6897L122.969 52.2227H124.911L120.311 60.7766Z" fill="#191919"/>
<path d="M137.856 52.2227V53.9319H129.166V52.2227H137.856ZM129.166 57.3576V55.6478H137.858V57.3576H129.166ZM137.858 59.0673V60.7766H129.166V59.0673H137.858Z" fill="#191919"/>
<path d="M143.818 54.2671V60.7766H142.109V52.2227H144.185L150.804 58.7369V52.2227H152.512V60.7766H150.44L143.818 54.2671Z" fill="#191919"/>
<path d="M166.309 52.2227V53.9319H162.318V60.7766H160.609V53.9319H156.762V52.2227H166.309Z" fill="#191919"/>
<path d="M173.982 60.7766C173.07 60.7766 172.265 60.4419 171.568 59.7725C170.899 59.0755 170.564 58.2705 170.564 57.3576V52.2227H172.273V57.3576C172.274 57.8107 172.455 58.2449 172.775 58.5653C173.095 58.8857 173.529 59.0662 173.982 59.0673H177.118C177.57 59.0659 178.004 58.8854 178.324 58.565C178.645 58.2447 178.825 57.8106 178.826 57.3576V52.2227H180.535V57.3576C180.535 58.2702 180.202 59.0752 179.537 59.7725C178.836 60.4419 178.03 60.7766 177.118 60.7766H173.982Z" fill="#191919"/>
<path d="M186.496 57.9256V60.7768H184.787V52.2228H190.839C191.343 52.2171 191.839 52.3503 192.273 52.608C192.698 52.8601 193.052 53.216 193.303 53.6423C193.564 54.0929 193.698 54.6066 193.688 55.1277C193.679 55.6487 193.527 56.1573 193.249 56.5982C192.966 57.0434 192.566 57.4026 192.093 57.6367L193.76 60.7451H191.819L190.309 57.9237L186.496 57.9256ZM186.496 53.9321V56.2159H190.839C191.142 56.2159 191.432 56.0956 191.646 55.8814C191.86 55.6673 191.98 55.3768 191.98 55.074C191.98 54.7711 191.86 54.4807 191.646 54.2666C191.432 54.0524 191.142 53.9321 190.839 53.9321H186.496Z" fill="#191919"/>
<path d="M206.704 52.2227V53.9319H198.012V52.2227H206.704ZM198.012 57.3576V55.6478H206.704V57.3576H198.012ZM206.704 59.0673V60.7766H198.012V59.0673H206.704Z" fill="#191919"/>
<path d="M211.835 56.7063C211.387 56.3175 211.088 55.7842 210.991 55.1985C210.894 54.6128 211.005 54.0115 211.304 53.4987C211.53 53.1152 211.849 52.7954 212.233 52.5693C212.622 52.3381 213.067 52.2182 213.52 52.2228H220.643V53.9321H213.52C213.349 53.9306 213.181 53.9811 213.04 54.0768C212.898 54.1726 212.788 54.3091 212.725 54.4684C212.663 54.6277 212.65 54.8023 212.688 54.9691C212.727 55.1359 212.815 55.2872 212.941 55.4029C213.1 55.5248 213.291 55.5984 213.49 55.6149C213.738 55.6423 213.988 55.6554 214.237 55.6541H214.386C215.055 55.666 215.725 55.6679 216.394 55.6597H216.591C216.917 55.656 217.242 55.65 217.564 55.6418C217.676 55.6418 217.79 55.6399 217.905 55.6361C218.187 55.6288 218.47 55.6406 218.75 55.6715C219.058 55.707 219.358 55.794 219.637 55.9288C220.374 56.3064 220.828 56.9063 220.999 57.7282C221.071 58.1067 221.059 58.4964 220.964 58.8696C220.863 59.2632 220.669 59.6264 220.397 59.928C220.157 60.1944 219.864 60.408 219.537 60.5553C219.214 60.7022 218.864 60.7777 218.51 60.7767H211.245V59.0674H218.51C218.741 59.0674 218.946 58.973 219.125 58.7842C219.214 58.6862 219.279 58.5684 219.313 58.4404C219.347 58.3125 219.35 58.1782 219.322 58.0488C219.301 57.9236 219.25 57.8053 219.175 57.7035C219.099 57.6018 219 57.5195 218.886 57.4634C218.631 57.3596 218.315 57.3196 217.936 57.3435C217.825 57.3478 217.713 57.3497 217.601 57.3497C217.275 57.3575 216.943 57.3635 216.604 57.3676H216.407C215.726 57.3799 215.041 57.3778 214.352 57.3615H214.219C213.823 57.367 213.429 57.3354 213.039 57.2671C212.623 57.2 212.222 57.0131 211.835 56.7063Z" fill="#191919"/>
<path d="M76.8551 66.7829L73.4331 59.1963L70.0112 66.7829H63.8533L60.4294 59.1963L57.0075 66.7829H50.8477L60.4294 45.5537L66.9313 59.9633L73.4331 45.5537L83.0145 66.7829H76.8551ZM94.8704 66.7829H89.3956V59.251H82.48L80.1534 53.7725H89.3941V46.2386H94.8714L94.8704 66.7829Z" fill="#191919"/>
<path d="M104.718 84.5H41V28.5H104.718V84.5ZM45.0673 80.43H100.651V32.57H45.0673V80.43Z" fill="#191919"/>
</svg>
