<svg width="262" height="113" viewBox="0 0 262 113" fill="none" xmlns="http://www.w3.org/2000/svg">
<path d="M171.083 47.4088C167.183 35.4444 156.77 26.8832 144.535 26.8832C132.438 26.8832 122.118 35.2566 118.116 47.0117L104.308 41.2003L103.803 40.9868C109.387 28.6125 121.861 20 136.354 20C153.23 20 167.368 31.6783 171.07 47.3619C171.074 47.3832 171.079 47.4003 171.083 47.4088Z" fill="url(#paint0_linear_2602_10432)"/>
<path d="M171.087 47.4256H170.526C169.84 45.4742 169.069 43.715 168.242 42.1052C163.451 33.3304 154.837 28.1638 144.535 28.1638C132.438 28.1638 122.834 36.9514 118.832 48.7066L103.803 42.2675C103.966 41.9088 104.133 41.5501 104.308 41.2L118.116 47.0114C122.118 35.2562 132.438 26.8828 144.535 26.8828C156.77 26.8828 167.183 35.4441 171.083 47.4085C171.087 47.4213 171.087 47.4256 171.087 47.4256Z" fill="url(#paint1_linear_2602_10432)"/>
<path d="M101.677 47.6017L101.231 47.5248C101.283 47.2302 101.321 46.9911 101.351 46.816C101.377 46.6409 101.39 46.4915 101.39 46.3719C101.39 46.0218 101.206 45.7656 100.837 45.5991C100.469 45.4325 99.873 45.3514 99.0503 45.3514C97.8761 45.3514 96.8219 45.5948 95.8834 46.0816C94.9449 46.5684 94.1692 47.2942 93.5564 48.2507C93.0122 49.0706 92.5451 49.9929 92.1508 51.0219C91.7566 52.051 91.4523 53.1142 91.2423 54.2116C91.3494 54.2799 91.4394 54.3439 91.5166 54.3952C91.5937 54.4464 91.6623 54.4891 91.7137 54.5276C92.3265 54.9289 92.7593 55.2193 93.0165 55.4029C93.2693 55.5865 93.4578 55.7488 93.5821 55.8854C93.5993 55.9025 93.6207 55.9238 93.6464 55.9495C93.6721 55.9751 93.6935 56.005 93.7107 56.0391C93.7278 56.0562 93.7493 56.0775 93.775 56.1032C93.8007 56.1288 93.8221 56.1587 93.8392 56.1928C94.0321 56.4533 94.1778 56.7223 94.2721 56.9913C94.3663 57.2603 94.4178 57.555 94.4178 57.8667C94.4178 58.0076 94.4092 58.1485 94.3921 58.2979C94.3749 58.4474 94.3492 58.5883 94.3149 58.7292C94.1906 59.3569 93.955 59.9504 93.6035 60.5098C93.2522 61.0691 92.875 61.4534 92.4722 61.6627C92.3822 61.6968 92.3008 61.7267 92.2237 61.7523C92.1465 61.7779 92.0608 61.7908 91.9751 61.7908C91.3623 61.7908 90.8738 61.4919 90.5181 60.8898C90.1581 60.2877 89.9781 59.4764 89.9781 58.4474C89.9781 57.9435 90.0038 57.4439 90.0553 56.9572C90.1067 56.4704 90.1795 56.0007 90.2653 55.5481C89.5839 55.0784 89.0311 54.6984 88.6111 54.4123C88.1911 54.1262 87.8055 53.8486 87.4541 53.5882C87.4198 53.5711 87.3898 53.554 87.3641 53.5369C87.3383 53.5198 87.3169 53.5028 87.2998 53.4857C86.9484 53.2252 86.5798 52.9434 86.1942 52.636C85.8085 52.3328 85.3071 51.9442 84.6943 51.4745C84.57 51.8759 84.4543 52.2431 84.3386 52.5719C84.2229 52.905 84.1157 53.2081 84.0086 53.4857C83.8501 53.8871 83.6915 54.2457 83.5372 54.5703C83.3787 54.8948 83.2115 55.2107 83.0358 55.5225C82.9458 55.6634 82.8601 55.8 82.7744 55.9409C82.6844 56.0818 82.5902 56.2185 82.4873 56.3594C81.4545 57.8581 80.2803 59.0751 78.9647 60.0187C77.6491 60.9581 76.3078 61.5516 74.9408 61.795C74.7137 61.8292 74.4822 61.8548 74.2423 61.8719C74.0066 61.889 73.7752 61.8975 73.5438 61.8975C71.6325 61.8975 70.064 61.3211 68.8384 60.1724C67.6128 59.0281 67 57.555 67 55.7616C67 53.9511 67.6085 52.4865 68.8256 51.3721C70.0426 50.2576 71.6325 49.6982 73.5952 49.6982C74.1737 49.6982 74.7308 49.7495 75.2665 49.8562C75.8021 49.963 76.3292 50.1252 76.8563 50.3558C77.2934 50.548 77.7391 50.7871 78.1977 51.0774C78.6519 51.3635 79.119 51.7008 79.5904 52.0851C79.8904 52.3285 80.1304 52.4993 80.3146 52.5975C80.4989 52.6957 80.6703 52.7427 80.8289 52.7427C80.846 52.7427 80.8632 52.7427 80.8803 52.7427C80.8974 52.7427 80.9232 52.7427 80.9574 52.7427C81.0646 52.7256 81.1888 52.6787 81.3388 52.5975C81.4888 52.5207 81.7117 52.3926 82.0074 52.2175C82.0416 52.2004 82.0759 52.1791 82.1145 52.1535C82.1488 52.1278 82.2002 52.0979 82.273 52.0638L82.5087 52.4566C82.3159 52.5805 82.1573 52.6829 82.0373 52.7726C81.9131 52.8623 81.7931 52.9391 81.6688 53.0075C81.6688 53.0245 81.6645 53.0331 81.656 53.0331C81.6474 53.0331 81.6345 53.0416 81.6174 53.0587C81.566 53.0928 81.5102 53.127 81.4588 53.1654C81.4074 53.1996 81.3431 53.2338 81.2746 53.2722L80.8803 53.5327C80.5632 53.7419 80.3575 53.8785 80.2632 53.9383C80.1646 53.9981 80.1004 54.0493 80.0661 54.0835C80.0489 54.1006 80.0232 54.1176 79.9889 54.1347C79.9547 54.1518 79.899 54.186 79.8304 54.2415C78.9519 53.349 78.0477 52.6189 77.1092 52.0424C76.1707 51.466 75.2365 51.0646 74.3108 50.8383C73.9937 50.7529 73.6809 50.6889 73.3638 50.6547C73.0467 50.6205 72.7338 50.6035 72.4167 50.6035C71.0497 50.6035 69.9226 51.0134 69.0398 51.8332C68.1528 52.653 67.7114 53.7077 67.7114 54.993C67.7114 56.701 68.3542 58.1058 69.6441 59.2117C70.934 60.3176 72.5753 60.8684 74.5722 60.8684C76.025 60.8684 77.3834 60.45 78.6476 59.6131C79.9075 58.7762 80.9703 57.6105 81.8274 56.1117C82.0545 55.7274 82.2645 55.3218 82.4573 54.899C82.6502 54.472 82.843 53.9981 83.0358 53.4771C83.1773 53.1099 83.3144 52.7128 83.4558 52.2773C83.5972 51.8418 83.7344 51.3635 83.8758 50.8383C83.1044 50.1765 82.4745 49.6171 81.9816 49.1602C81.4888 48.7076 81.0517 48.2806 80.666 47.875C80.576 47.7682 80.486 47.67 80.3918 47.5718C80.2932 47.4779 80.2032 47.3754 80.1175 47.2686C80.1004 47.2345 80.0789 47.2046 80.0532 47.179C80.0275 47.1533 80.0061 47.132 79.9889 47.1149C79.5518 46.5897 79.2176 46.1456 78.9905 45.7784C78.7633 45.4112 78.6476 45.1422 78.6476 44.9671C78.6476 44.8262 78.7119 44.5999 78.8448 44.2882C78.9776 43.9722 79.1576 43.5965 79.3847 43.1609L79.9889 41.9824L80.4346 42.1404C80.2589 42.5418 80.1346 42.8492 80.0661 43.0585C79.9975 43.2677 79.9589 43.4598 79.9589 43.6349C79.9589 43.968 80.1004 44.3394 80.3789 44.7494C80.6575 45.1593 81.2017 45.7741 82.0074 46.5982C82.4959 47.1235 82.9373 47.5718 83.323 47.9476C83.7086 48.3233 84.0686 48.6606 84.4029 48.9553C84.5614 48.3105 84.7886 47.781 85.0885 47.3711C85.3842 46.9612 85.7613 46.6409 86.2199 46.4146C86.1684 46.6068 86.087 46.863 85.9842 47.1875C85.877 47.512 85.7742 47.8451 85.6671 48.1952C85.6499 48.2464 85.6328 48.2977 85.6156 48.3404C85.5985 48.3831 85.5899 48.4215 85.5899 48.4599C85.5214 48.6863 85.4528 48.904 85.3928 49.1132C85.3328 49.3225 85.2728 49.5232 85.2214 49.7153C85.4828 49.9245 85.727 50.1252 85.9456 50.3174C86.1642 50.5095 86.387 50.6846 86.6141 50.8426C86.6655 50.8938 86.7213 50.9451 86.7727 50.9878C86.8241 51.0305 86.8884 51.0774 86.9569 51.1329C87.0812 51.2226 87.2012 51.3123 87.3255 51.4062C87.4498 51.5044 87.5783 51.6026 87.7197 51.7094C87.8612 51.8332 88.1654 52.0638 88.6411 52.4054C89.1125 52.747 89.781 53.2295 90.6381 53.8572C91.148 52.1791 91.6794 50.7529 92.2408 49.5744C92.8022 48.3959 93.4321 47.4223 94.1349 46.6538C94.9063 45.7998 95.8319 45.1336 96.9076 44.664C97.9875 44.1943 99.1102 43.9551 100.284 43.9551C100.409 43.9551 100.529 43.9551 100.653 43.9551C100.777 43.9551 100.889 43.9637 100.996 43.9808C101.24 43.9978 101.497 44.0277 101.759 44.0704C102.02 44.1131 102.329 44.1815 102.68 44.2668L101.677 47.6017ZM90.8438 56.2996C90.8266 56.4234 90.8181 56.5344 90.8181 56.6412C90.8009 56.765 90.7924 56.8846 90.7924 57.0084C90.7924 57.1322 90.7924 57.2603 90.7924 57.4012C90.7924 58.5712 90.9123 59.4295 91.148 59.9803C91.3837 60.5311 91.748 60.8044 92.2408 60.8044C92.5922 60.8044 92.8836 60.6464 93.1236 60.3347C93.3593 60.0187 93.4793 59.6173 93.4793 59.1306C93.4793 58.9555 93.4621 58.7847 93.4278 58.6182C93.3936 58.4516 93.3379 58.2894 93.2693 58.1357C93.1107 57.8197 92.8493 57.4952 92.4808 57.1536C92.1122 56.812 91.5851 56.3978 90.9038 55.911C90.8781 56.0434 90.8609 56.1758 90.8438 56.2996Z" fill="black"/>
<path d="M105.029 56.4835C105.055 56.5518 105.068 56.6158 105.068 56.6671C105.085 56.7012 105.094 56.7354 105.094 56.7738C105.094 56.808 105.094 56.8421 105.094 56.8806C105.094 57.1795 105.004 57.5125 104.819 57.8883C104.635 58.264 104.378 58.6526 104.044 59.054C103.902 59.212 103.757 59.3657 103.611 59.5109C103.461 59.6603 103.298 59.8055 103.122 59.9421C102.351 60.6424 101.623 61.1633 100.941 61.5135C100.26 61.8636 99.6598 62.0387 99.1542 62.0387C98.6999 62.0387 98.3357 61.8892 98.0614 61.5946C97.7914 61.3 97.6543 60.8858 97.6543 60.3649C97.6543 59.9635 97.6971 59.5493 97.7871 59.1223C97.8728 58.6953 97.9971 58.264 98.1557 57.8242C98.4728 56.9702 98.9099 56.1333 99.4713 55.322C100.033 54.5108 100.68 53.7977 101.417 53.1871C101.678 52.9778 101.953 52.7771 102.231 52.585C102.51 52.3929 102.792 52.2178 103.071 52.0598C103.581 51.7993 104.069 51.5901 104.545 51.4321C105.017 51.2741 105.449 51.1973 105.835 51.1973C106.152 51.1973 106.396 51.257 106.572 51.3809C106.748 51.5047 106.834 51.6883 106.834 51.9317C106.834 52.1068 106.782 52.3117 106.675 52.5466C106.568 52.7814 106.422 53.0205 106.229 53.2682C106.054 53.4945 105.848 53.7165 105.612 53.9343C105.377 54.1521 105.128 54.3485 104.862 54.5236C104.669 54.6474 104.455 54.7669 104.219 54.8908C103.984 55.0146 103.744 55.1171 103.495 55.2068C103.161 55.3477 102.844 55.4587 102.535 55.5484C102.227 55.638 101.978 55.6807 101.785 55.6807C101.575 55.6807 101.404 55.6295 101.271 55.5227C101.138 55.416 101.031 55.2537 100.941 55.0231C101.134 55.0402 101.288 55.053 101.4 55.0616C101.515 55.0701 101.623 55.0744 101.73 55.0744C101.747 55.0744 101.76 55.0744 101.768 55.0744C101.777 55.0744 101.79 55.0744 101.807 55.0744C101.824 55.0744 101.845 55.0744 101.871 55.0744C101.897 55.0744 101.927 55.0744 101.961 55.0744C102.75 55.0402 103.482 54.8011 104.155 54.3528C104.828 53.9087 105.201 53.4219 105.274 52.901C105.274 52.8839 105.274 52.8626 105.274 52.8369C105.274 52.8113 105.274 52.79 105.274 52.7729C105.274 52.5807 105.205 52.4313 105.064 52.3288C104.922 52.2221 104.729 52.1708 104.485 52.1708C104.241 52.1708 103.979 52.2178 103.71 52.316C103.44 52.4142 103.17 52.5466 102.908 52.7216C102.63 52.8967 102.351 53.1102 102.081 53.3621C101.811 53.6141 101.55 53.9001 101.305 54.2119C101.005 54.5962 100.735 54.9975 100.491 55.416C100.247 55.8344 100.037 56.2614 99.8613 56.7012C99.6341 57.2264 99.4584 57.7431 99.3342 58.2598C99.2099 58.7764 99.1499 59.2504 99.1499 59.6859C99.1499 60.1044 99.2442 60.4289 99.437 60.6552C99.6299 60.8815 99.8998 60.9968 100.251 60.9968C100.478 60.9968 100.71 60.9584 100.95 60.8773C101.19 60.7961 101.425 60.6894 101.674 60.5485C102.287 60.1813 102.878 59.6219 103.448 58.8704C104.018 58.1189 104.502 57.2478 104.905 56.2529C104.961 56.334 105.004 56.4109 105.029 56.4835Z" fill="black"/>
<path d="M120.892 51.6112C120.557 52.589 120.129 53.5071 119.602 54.3696C119.075 55.2321 118.436 56.0562 117.682 56.8376C117.472 57.064 117.206 57.3287 116.881 57.6361C116.555 57.9393 116.212 58.2595 115.844 58.5883C115.809 58.6054 115.775 58.631 115.736 58.6652C115.702 58.6993 115.668 58.725 115.629 58.742C115.595 58.7762 115.561 58.8061 115.522 58.8317C115.488 58.8573 115.454 58.8872 115.415 58.9214L114.914 59.3398L114.412 59.7327L113.911 60.1511C113.859 60.1853 113.812 60.2195 113.778 60.2579C113.744 60.292 113.701 60.3262 113.645 60.3604C113.504 60.4842 113.337 60.6294 113.144 60.8044C112.951 60.9795 112.574 61.3083 112.012 61.7951C112.012 61.8121 111.991 61.8335 111.948 61.8591C111.905 61.8847 111.845 61.9232 111.777 61.9787C111.884 61.5261 111.974 61.1076 112.051 60.7233C112.128 60.339 112.205 59.9547 112.274 59.5704C112.274 59.5363 112.278 59.5021 112.287 59.4637C112.295 59.4295 112.3 59.3954 112.3 59.3569C112.368 59.0409 112.437 58.725 112.497 58.4005C112.557 58.0759 112.625 57.7258 112.694 57.3415C112.835 56.4704 112.96 55.7189 113.075 55.087C113.191 54.4593 113.255 54.0835 113.272 53.9597C113.289 53.9426 113.298 53.917 113.298 53.8828C113.298 53.8487 113.307 53.8145 113.324 53.7761C113.341 53.7248 113.358 53.648 113.375 53.5541C113.392 53.4601 113.409 53.3662 113.427 53.2808C113.392 53.332 113.354 53.3833 113.307 53.426C113.264 53.4687 113.225 53.5156 113.187 53.5711C113.17 53.6053 113.148 53.6395 113.122 53.6779C113.097 53.712 113.075 53.7462 113.058 53.7846C112.968 53.9085 112.887 54.0366 112.81 54.1775C112.732 54.3184 112.638 54.502 112.535 54.7283C112.098 55.5823 111.665 56.3594 111.233 57.0597C110.804 57.76 110.371 58.3962 109.93 58.9726C109.437 59.6345 108.944 60.2109 108.443 60.702C107.941 61.193 107.431 61.5944 106.904 61.9061C107.166 61.2784 107.384 60.7447 107.56 60.3006C107.736 59.8565 107.886 59.4252 108.006 59.0068C108.04 58.883 108.074 58.7549 108.113 58.6139C108.147 58.473 108.181 58.3364 108.22 58.1955C108.254 58.0759 108.288 57.9478 108.327 57.8155C108.361 57.6831 108.396 57.5507 108.434 57.4098C108.61 56.6241 108.747 55.9367 108.841 55.3474C108.936 54.7539 108.987 54.2842 108.987 53.9383C108.987 53.537 108.94 53.2381 108.841 53.0374C108.743 52.8367 108.601 52.7385 108.408 52.7385C108.318 52.7385 108.216 52.7684 108.091 52.8282C107.967 52.8879 107.813 52.999 107.62 53.1527L107.41 52.7855C107.813 52.525 108.134 52.3115 108.37 52.145C108.606 51.9784 108.82 51.829 109.013 51.6881C109.03 51.671 109.051 51.6539 109.077 51.6368C109.103 51.6198 109.124 51.6027 109.141 51.5856C109.193 51.5514 109.248 51.513 109.3 51.466C109.351 51.4233 109.407 51.3849 109.458 51.3465C109.827 51.5216 110.097 51.7649 110.273 52.0809C110.448 52.3969 110.534 52.7983 110.534 53.285C110.534 53.7035 110.483 54.2202 110.375 54.8308C110.268 55.4414 110.123 56.0691 109.93 56.7181C109.93 56.7522 109.925 56.7864 109.917 56.8248C109.908 56.859 109.895 56.8932 109.878 56.9316C109.878 56.9487 109.874 56.9615 109.865 56.97C109.857 56.9786 109.853 56.9914 109.853 57.0084C109.801 57.2348 109.72 57.5038 109.617 57.8069C109.51 58.1144 109.33 58.6481 109.064 59.4167C109.15 59.2929 109.227 59.1904 109.287 59.1007C109.347 59.0153 109.407 58.9342 109.458 58.8659C109.476 58.8659 109.488 58.8573 109.497 58.8403C109.506 58.8232 109.51 58.8061 109.51 58.789C109.634 58.6139 109.793 58.3535 109.994 58.0033C110.195 57.6532 110.568 56.9828 111.113 55.9879C111.76 54.8009 112.42 53.8231 113.084 53.0545C113.748 52.2859 114.459 51.6753 115.214 51.2227L113.345 59.9462C113.397 59.8949 113.452 59.8522 113.504 59.8138C113.555 59.7796 113.589 59.754 113.611 59.7369C113.645 59.7028 113.821 59.5576 114.138 59.3057C114.455 59.0538 114.832 58.7506 115.269 58.4005C116.092 57.7557 116.786 57.1365 117.348 56.5388C117.909 55.9452 118.363 55.3517 118.715 54.7582C118.89 54.4636 119.036 54.1647 119.148 53.8658C119.263 53.5711 119.353 53.2722 119.422 52.9733H117.635C117.583 52.9733 117.528 52.9733 117.476 52.9733C117.425 52.9733 117.369 52.9733 117.318 52.9733C117.018 52.9733 116.799 52.9904 116.662 53.0246C116.521 53.0587 116.401 53.1484 116.294 53.285C116.242 53.3747 116.178 53.4815 116.109 53.6138C116.041 53.7462 115.951 53.917 115.848 54.1262C115.848 54.1433 115.839 54.1689 115.822 54.2031C115.805 54.2372 115.779 54.2799 115.745 54.3355H115.299L116.508 51.6112H120.892Z" fill="black"/>
<path d="M140.057 57.5295C139.795 57.6533 139.551 57.7601 139.332 57.8583C139.114 57.9565 138.9 58.0291 138.69 58.0803C138.411 58.1486 138.128 58.2041 137.85 58.2383C137.571 58.2725 137.254 58.2895 136.903 58.2895C135.026 58.2895 133.431 57.5764 132.116 56.1546C130.8 54.7327 130.145 53.0076 130.145 50.9794C130.145 48.554 130.929 46.5215 132.497 44.8904C134.066 43.2593 136.007 42.4395 138.321 42.4395C140.039 42.4395 141.591 42.9305 142.975 43.9083C144.359 44.8861 145.456 46.2739 146.262 48.0715C146.613 48.823 146.9 49.6471 147.127 50.5481C147.355 51.4491 147.556 52.4909 147.732 53.678C147.8 53.6609 147.852 53.6481 147.877 53.6395C147.903 53.631 147.925 53.6182 147.942 53.6011C147.993 53.584 148.07 53.5584 148.164 53.5243C148.259 53.4901 148.503 53.409 148.889 53.2894C149.921 52.9222 150.761 52.6233 151.4 52.3842C152.038 52.1493 152.587 51.9358 153.041 51.7437C153.234 51.6369 153.414 51.543 153.581 51.4576C153.748 51.3722 153.92 51.274 154.095 51.1715C154.34 51.0306 154.593 50.8683 154.845 50.6847C155.098 50.5011 155.394 50.2876 155.728 50.0442C155.66 49.4678 155.45 48.9341 155.098 48.4473C154.747 47.9605 154.275 47.5207 153.68 47.1364C153.59 47.0852 153.5 47.0297 153.405 46.9656C153.307 46.9058 153.217 46.846 153.131 46.7948C152.621 46.5343 152.077 46.3294 151.49 46.1799C150.903 46.0305 150.084 45.8981 149.03 45.7743C148.962 45.7572 148.893 45.7444 148.833 45.7359C148.773 45.7273 148.704 45.7231 148.636 45.7231C148.687 45.6718 148.743 45.6248 148.794 45.5779C148.846 45.5352 148.889 45.4967 148.927 45.4583C149.013 45.39 149.099 45.3131 149.176 45.2363C149.253 45.1594 149.33 45.074 149.399 44.9886C149.45 44.9032 149.514 44.8135 149.583 44.7281C149.652 44.6428 149.724 44.5445 149.793 44.4421C149.934 44.4421 150.059 44.4463 150.174 44.4549C150.29 44.4634 150.406 44.4677 150.53 44.4677C150.847 44.4848 151.19 44.4976 151.567 44.5061C151.944 44.5147 152.476 44.5189 153.157 44.5189C153.577 44.5189 154.061 44.5147 154.601 44.5061C155.145 44.4976 155.707 44.4933 156.285 44.4933C156.564 44.4933 156.851 44.489 157.138 44.4805C157.425 44.472 157.704 44.4677 157.965 44.4677C158.107 44.4677 158.235 44.4677 158.359 44.4677C158.484 44.4677 158.595 44.4591 158.702 44.4421C158.861 44.4421 159.006 44.4421 159.135 44.4421C159.264 44.4421 159.392 44.4421 159.516 44.4421C159.744 44.425 159.979 44.4122 160.228 44.4036C160.472 44.3951 160.781 44.3737 161.149 44.3396C160.763 45.232 160.224 46.1159 159.534 46.9998C158.839 47.8836 158.021 48.7334 157.074 49.5532C157.074 49.677 157.061 49.7966 157.035 49.9204C157.009 50.0442 156.988 50.1638 156.971 50.2876C156.778 51.1245 156.247 52.0511 155.381 53.0631C154.515 54.0751 153.046 55.5354 150.976 57.4398C150.397 57.9821 149.921 58.4262 149.544 58.7763C149.167 59.1264 148.829 59.4595 148.533 59.7712C148.499 59.8054 148.464 59.8395 148.426 59.878C148.392 59.9121 148.357 59.9548 148.319 60.0103C148.04 60.2879 147.749 60.5953 147.453 60.9284C147.153 61.2614 146.789 61.6628 146.347 62.1325C146.365 61.9062 146.382 61.6884 146.399 61.4792C146.416 61.27 146.433 61.0607 146.45 60.8515C146.45 60.6081 146.455 60.3562 146.463 60.1043C146.472 59.8523 146.476 59.5662 146.476 59.2545C146.476 58.6781 146.467 58.1486 146.45 57.6704C146.433 57.1922 146.407 56.7225 146.373 56.2698C146.356 56.0777 146.339 55.8855 146.322 55.6934C146.305 55.5012 146.279 55.3006 146.245 55.0913C144.809 55.6336 143.712 56.304 142.958 57.1068C142.204 57.9095 141.826 58.7934 141.826 59.7541C141.826 59.8609 141.831 59.9634 141.839 60.0701C141.848 60.1768 141.861 60.2793 141.878 60.3861C141.912 60.5611 141.964 60.7362 142.036 60.9113C142.105 61.0864 142.204 61.287 142.324 61.5133C141.886 61.4792 141.548 61.3297 141.312 61.0693C141.076 60.8088 140.957 60.4587 140.957 60.0231C140.957 59.7797 140.986 59.5321 141.046 59.2759C141.106 59.024 141.201 58.772 141.321 58.5286C141.689 57.743 142.298 56.9829 143.146 56.2485C143.995 55.5141 145.01 54.8864 146.185 54.3612C145.992 52.7002 145.688 51.2783 145.276 50.0912C144.865 48.9042 144.308 47.8495 143.605 46.9229C142.765 45.8383 141.792 45.0014 140.687 44.4079C139.581 43.8144 138.424 43.5155 137.215 43.5155C135.377 43.5155 133.851 44.1731 132.643 45.4925C131.434 46.8119 130.83 48.4729 130.83 50.4841C130.83 52.4739 131.537 54.1562 132.947 55.5269C134.357 56.8975 136.088 57.585 138.141 57.585C138.3 57.585 138.445 57.5807 138.574 57.5722C138.707 57.5636 138.831 57.5508 138.955 57.5337C139.114 57.5167 139.277 57.491 139.439 57.4569C139.607 57.4227 139.787 57.38 139.979 57.3245L140.057 57.5295ZM150.916 56.7694C152.231 55.5311 153.217 54.5277 153.873 53.7591C154.528 52.9905 155.008 52.2732 155.304 51.6113C155.355 51.4704 155.411 51.3338 155.462 51.1929C155.514 51.052 155.557 50.9153 155.595 50.7744C155.295 51.0349 155.017 51.2655 154.755 51.4576C154.494 51.6497 154.228 51.8334 153.967 52.0084C153.825 52.1152 153.68 52.2134 153.521 52.3116C153.363 52.4098 153.204 52.4995 153.05 52.5849C152.613 52.8112 152.158 53.0247 151.696 53.2254C151.233 53.426 150.761 53.6054 150.29 53.7634L149.527 53.9726L148.79 54.2075L148.053 54.4423C148.019 54.4594 147.985 54.4765 147.946 54.4935C147.929 54.4935 147.907 54.4978 147.882 54.5063C147.856 54.5149 147.835 54.5192 147.817 54.5192C147.817 54.6259 147.822 54.7284 147.83 54.8351C147.839 54.9419 147.843 55.0444 147.843 55.1511C147.86 55.3945 147.873 55.655 147.882 55.924C147.89 56.193 147.895 56.5218 147.895 56.9061C147.895 57.3587 147.89 57.7515 147.882 58.0846C147.873 58.4176 147.86 58.7379 147.843 59.0539C147.843 59.1777 147.839 59.2972 147.83 59.4211C147.822 59.5449 147.809 59.6645 147.792 59.7883C147.933 59.6474 148.053 59.5235 148.16 59.4083C148.267 59.293 148.37 59.1948 148.477 59.1051C148.477 59.088 148.486 59.0709 148.503 59.0539C148.61 58.9685 148.709 58.8745 148.807 58.7806C148.902 58.6866 149.013 58.5756 149.137 58.4518C149.172 58.4176 149.21 58.3835 149.257 58.345C149.3 58.3109 149.339 58.2682 149.377 58.2127C149.412 58.1785 149.45 58.1444 149.497 58.1059C149.54 58.0718 149.579 58.0376 149.617 57.9992L150.063 57.5807L150.483 57.1879L150.916 56.7694ZM155.908 45.454C155.295 45.4711 154.888 45.4797 154.687 45.4797C154.485 45.4797 154.34 45.4797 154.254 45.4797C154.237 45.4797 154.22 45.4797 154.203 45.4797C154.151 45.4967 154.095 45.5053 154.044 45.5053C153.993 45.5053 153.911 45.5053 153.808 45.5053C154.841 45.9237 155.621 46.4148 156.148 46.9741C156.675 47.5335 156.971 48.1868 157.044 48.9383C157.622 48.4131 158.107 47.8751 158.501 47.3157C158.895 46.7564 159.251 46.1202 159.564 45.4028C159.474 45.4028 159.409 45.4071 159.366 45.4156C159.324 45.4242 159.285 45.4284 159.246 45.4284C159.178 45.4284 159.088 45.4284 158.985 45.4284C158.878 45.4284 158.659 45.4284 158.329 45.4284C157.768 45.4455 157.215 45.454 156.675 45.454H155.908Z" fill="black"/>
<path d="M162.559 51.1118C162.559 51.3893 162.503 51.7437 162.388 52.1707C162.272 52.5977 162.1 53.1144 161.873 53.725C161.766 53.9854 161.642 54.2971 161.492 54.6515C161.342 55.0102 161.162 55.4116 160.952 55.8642L160.005 57.9821C159.726 58.6098 159.529 59.0838 159.413 59.404C159.298 59.7285 159.234 59.9591 159.216 60.0957C159.216 60.2025 159.259 60.2879 159.349 60.3562C159.435 60.4245 159.542 60.4587 159.666 60.4587C159.735 60.4587 159.851 60.4331 160.009 60.3818C160.168 60.3306 160.335 60.2665 160.511 60.1982L160.669 60.5654C160.652 60.5825 160.635 60.5953 160.618 60.6039C160.601 60.6124 160.583 60.6167 160.566 60.6167C160.408 60.7021 160.223 60.796 160.013 60.89C159.803 60.9839 159.486 61.1205 159.066 61.2956C158.788 61.4194 158.561 61.5134 158.398 61.5817C158.231 61.65 158.068 61.7141 157.909 61.7653C157.875 61.7824 157.841 61.7952 157.802 61.8037C157.768 61.8123 157.734 61.8251 157.695 61.8422C157.661 61.8592 157.626 61.8678 157.588 61.8678C157.554 61.8678 157.511 61.8763 157.455 61.8934C157.472 61.7183 157.489 61.539 157.507 61.3596C157.524 61.176 157.541 60.9967 157.558 60.8259C157.644 60.305 157.815 59.7243 158.072 59.088C158.325 58.4518 158.724 57.5423 159.268 56.3595C159.812 55.1768 160.181 54.3398 160.373 53.8531C160.566 53.3663 160.669 53.0247 160.691 52.8325C160.691 52.7301 160.661 52.6361 160.601 52.5593C160.541 52.4824 160.455 52.444 160.352 52.444C160.283 52.444 160.129 52.4781 159.893 52.5507C159.658 52.6191 159.396 52.7173 159.118 52.8368L159.011 52.4184C159.345 52.2945 159.623 52.1921 159.851 52.1024C160.078 52.017 160.288 51.9359 160.481 51.8675C160.498 51.8505 160.519 51.8376 160.545 51.8291C160.571 51.8206 160.592 51.8163 160.609 51.8163C160.871 51.7095 161.149 51.5985 161.436 51.4747C161.728 51.3509 162.096 51.1886 162.555 50.9751V51.1118H162.559ZM163.729 47.8495C163.845 47.9648 163.9 48.0972 163.9 48.2552C163.9 48.4815 163.81 48.6864 163.639 48.87C163.463 49.0536 163.262 49.1433 163.035 49.1433C162.876 49.1433 162.735 49.0878 162.615 48.9725C162.49 48.8572 162.43 48.7249 162.43 48.5669C162.43 48.3235 162.516 48.1142 162.692 47.9392C162.867 47.7641 163.069 47.6787 163.296 47.6787C163.472 47.6787 163.617 47.7385 163.729 47.8495Z" fill="black"/>
<path d="M164.849 56.2573C164.797 56.1335 164.75 56.0096 164.716 55.8773C164.682 55.7449 164.665 55.6083 164.665 55.4674C164.647 55.4161 164.639 55.3691 164.639 55.3222C164.639 55.2752 164.639 55.2282 164.639 55.177C164.639 54.8269 164.733 54.4554 164.926 54.0625C165.119 53.6697 165.397 53.2598 165.766 52.8413C165.835 52.7901 165.903 52.726 165.963 52.6577C166.023 52.5894 166.092 52.5168 166.16 52.4485C166.229 52.3802 166.302 52.3119 166.37 52.2521C166.439 52.1923 166.512 52.1325 166.58 52.0813C166.966 51.7653 167.377 51.5433 167.814 51.4152C168.251 51.2828 168.779 51.2188 169.391 51.2188C169.499 51.2188 169.589 51.223 169.666 51.2316C169.743 51.2401 169.828 51.2444 169.914 51.2444C169.966 51.2444 170.021 51.2486 170.073 51.2572C170.124 51.2657 170.188 51.2785 170.257 51.2956C170.223 51.3639 170.197 51.4152 170.18 51.4408C170.163 51.4664 170.146 51.4878 170.128 51.5048C170.111 51.539 170.09 51.5774 170.064 51.6244C170.038 51.6671 169.991 51.7525 169.918 51.8721C169.709 52.2393 169.546 52.5125 169.43 52.6962C169.314 52.8798 169.216 53.042 169.126 53.1829C169.126 53.2 169.117 53.2085 169.1 53.2085C169.049 53.2982 168.984 53.3964 168.916 53.5117C168.847 53.627 168.757 53.7594 168.654 53.9174L168.311 53.6825C168.346 53.6484 168.367 53.6099 168.376 53.563C168.384 53.5203 168.397 53.4904 168.414 53.4733C168.521 53.2641 168.59 53.1018 168.624 52.9865C168.659 52.8712 168.676 52.7816 168.676 52.7132C168.676 52.5382 168.611 52.4101 168.479 52.3332C168.346 52.2564 168.131 52.2137 167.836 52.2137C167.309 52.2137 166.85 52.4101 166.456 52.8072C166.062 53.2 165.865 53.6526 165.865 54.1608C165.865 54.2846 165.89 54.4298 165.942 54.5963C165.993 54.7628 166.057 54.9422 166.126 55.1343L166.336 55.5826L166.52 56.0011L166.73 56.4494C166.799 56.6074 166.863 56.774 166.914 56.949C166.966 57.1241 167 57.2992 167.022 57.4742C167.039 57.5639 167.047 57.6408 167.047 57.7091C167.047 57.7774 167.047 57.85 167.047 57.9183C167.047 58.2685 166.996 58.6015 166.889 58.9175C166.782 59.2335 166.61 59.5409 166.362 59.8355C166.22 60.0106 166.057 60.1899 165.873 60.3735C165.689 60.5571 165.475 60.745 165.23 60.9372C164.737 61.3215 164.292 61.5947 163.889 61.7613C163.486 61.9278 163.092 62.0089 162.706 62.0089C162.286 62.0089 161.935 61.9022 161.656 61.693C161.378 61.4837 161.236 61.2062 161.236 60.856C161.236 60.7706 161.245 60.6767 161.262 60.5828C161.279 60.4888 161.296 60.3863 161.313 60.2796C161.348 60.1729 161.382 60.0746 161.421 59.9764C161.455 59.8825 161.498 59.7886 161.553 59.7032C161.832 60.1729 162.128 60.5187 162.436 60.7365C162.74 60.9543 163.096 61.0653 163.499 61.0653C164.129 61.0653 164.682 60.8518 165.153 60.4205C165.625 59.9935 165.865 59.4982 165.865 58.9346C165.865 58.8278 165.852 58.7211 165.826 58.6058C165.8 58.4905 165.77 58.3752 165.736 58.2514C165.719 58.2001 165.702 58.1404 165.685 58.0806C165.667 58.0208 165.642 57.961 165.607 57.9098L165.372 57.3589L165.11 56.8081L164.849 56.2573Z" fill="black"/>
<path d="M174.258 51.1118C174.258 51.3893 174.202 51.7437 174.087 52.1707C173.971 52.5977 173.8 53.1144 173.573 53.725C173.465 53.9854 173.341 54.2971 173.191 54.6515C173.041 55.0102 172.861 55.4116 172.651 55.8642L171.704 57.9821C171.426 58.6098 171.228 59.0838 171.113 59.404C170.997 59.7285 170.933 59.9591 170.916 60.0957C170.916 60.2025 170.958 60.2879 171.048 60.3562C171.134 60.4245 171.241 60.4587 171.366 60.4587C171.434 60.4587 171.55 60.4331 171.708 60.3818C171.867 60.3306 172.034 60.2665 172.21 60.1982L172.368 60.5654C172.351 60.5825 172.334 60.5953 172.317 60.6039C172.3 60.6124 172.283 60.6167 172.265 60.6167C172.107 60.7021 171.923 60.796 171.713 60.89C171.503 60.9839 171.186 61.1205 170.766 61.2956C170.487 61.4194 170.26 61.5134 170.097 61.5817C169.93 61.65 169.767 61.7141 169.609 61.7653C169.574 61.7824 169.54 61.7952 169.501 61.8037C169.467 61.8123 169.433 61.8251 169.394 61.8422C169.36 61.8592 169.326 61.8678 169.287 61.8678C169.253 61.8678 169.21 61.8763 169.154 61.8934C169.171 61.7183 169.189 61.539 169.206 61.3596C169.223 61.176 169.24 60.9967 169.257 60.8259C169.343 60.305 169.514 59.7243 169.771 59.088C170.024 58.4518 170.423 57.5423 170.967 56.3595C171.511 55.1768 171.88 54.3398 172.073 53.8531C172.265 53.3663 172.368 53.0247 172.39 52.8325C172.39 52.7301 172.36 52.6361 172.3 52.5593C172.24 52.4824 172.154 52.444 172.051 52.444C171.983 52.444 171.828 52.4781 171.593 52.5507C171.357 52.6191 171.096 52.7173 170.817 52.8368L170.71 52.4184C171.044 52.2945 171.323 52.1921 171.55 52.1024C171.777 52.017 171.987 51.9359 172.18 51.8675C172.197 51.8505 172.218 51.8376 172.244 51.8291C172.27 51.8206 172.291 51.8163 172.308 51.8163C172.57 51.7095 172.848 51.5985 173.135 51.4747C173.427 51.3509 173.795 51.1886 174.254 50.9751V51.1118H174.258ZM175.428 47.8495C175.544 47.9648 175.599 48.0972 175.599 48.2552C175.599 48.4815 175.509 48.6864 175.338 48.87C175.162 49.0536 174.961 49.1433 174.734 49.1433C174.575 49.1433 174.434 49.0878 174.314 48.9725C174.19 48.8572 174.13 48.7249 174.13 48.5669C174.13 48.3235 174.215 48.1142 174.391 47.9392C174.567 47.7641 174.768 47.6787 174.995 47.6787C175.171 47.6787 175.312 47.7385 175.428 47.8495Z" fill="black"/>
<path d="M183.052 52.4095C182.867 52.401 182.687 52.3967 182.512 52.3967C181.462 52.3967 180.527 52.5803 179.713 52.9476C178.899 53.3148 178.201 53.8741 177.622 54.6299C177.361 54.963 177.112 55.3387 176.885 55.7615C176.658 56.1842 176.456 56.6112 176.281 57.051C176.088 57.5079 175.938 57.9519 175.835 58.3917C175.728 58.8316 175.676 59.2244 175.676 59.5745C175.676 59.9973 175.801 60.3431 176.045 60.6121C176.289 60.8854 176.598 61.0178 176.966 61.0178C177.262 61.0178 177.601 60.911 177.978 60.7018C178.355 60.4926 178.736 60.1851 179.122 59.7838C179.28 59.6258 179.439 59.4507 179.593 59.2585C179.752 59.0664 179.91 58.8657 180.065 58.6522C180.15 58.5284 180.24 58.4046 180.326 58.2722C180.412 58.1398 180.493 58.0032 180.562 57.8665C180.879 57.3584 181.119 56.8503 181.286 56.3422C181.453 55.834 181.535 55.3686 181.535 54.9502C181.535 54.6854 181.466 54.4634 181.325 54.2798C181.183 54.0962 181.007 54.0022 180.797 54.0022C180.463 54.0022 180.133 54.173 179.799 54.5146C179.465 54.8562 179.152 55.3643 178.852 56.0475C178.835 55.9621 178.818 55.8896 178.8 55.8383C178.783 55.7871 178.775 55.7316 178.775 55.6803C178.775 55.6632 178.775 55.6504 178.775 55.6419C178.775 55.6334 178.775 55.6205 178.775 55.6035C178.775 55.3088 178.865 55.0142 179.049 54.7239C179.233 54.4378 179.516 54.1431 179.902 53.8485C180.253 53.571 180.566 53.3703 180.849 53.2464C181.127 53.1226 181.393 53.0628 181.637 53.0628C182.04 53.0628 182.379 53.2251 182.649 53.5496C182.919 53.8741 183.056 54.2627 183.056 54.7196C183.056 55.2619 182.923 55.834 182.662 56.4276C182.4 57.0211 182.014 57.6274 181.505 58.238C181.346 58.4302 181.179 58.6181 181.003 58.8017C180.827 58.9853 180.643 59.1646 180.45 59.3397C179.572 60.1467 178.732 60.7744 177.926 61.2313C177.121 61.6882 176.435 61.9145 175.878 61.9145C175.385 61.9145 174.978 61.7394 174.657 61.3893C174.331 61.0391 174.168 60.6036 174.168 60.0784C174.168 59.7112 174.211 59.3311 174.301 58.934C174.387 58.5412 174.511 58.1526 174.669 57.7641C175.038 56.8887 175.578 56.0347 176.285 55.2021C176.992 54.3694 177.823 53.6393 178.77 53.0073C179.032 52.8323 179.315 52.6657 179.61 52.5077C179.91 52.3498 180.206 52.2003 180.506 52.0594C181.016 51.8331 181.505 51.658 181.98 51.5342C182.452 51.4104 182.876 51.3506 183.24 51.3506C183.416 51.3506 183.557 51.3976 183.66 51.4958C183.767 51.594 183.819 51.7093 183.819 51.8502C183.819 51.8673 183.819 51.8801 183.819 51.8886C183.819 51.8971 183.819 51.9099 183.819 51.927C183.819 51.9783 183.806 52.0466 183.78 52.1235C183.754 52.2003 183.716 52.3199 183.66 52.4779C183.442 52.4394 183.236 52.4181 183.052 52.4095Z" fill="black"/>
<path d="M192.399 60.3857C191.855 60.77 191.293 61.086 190.715 61.3294C190.136 61.5727 189.481 61.7649 188.744 61.9058C188.744 61.8546 188.748 61.799 188.757 61.735C188.765 61.6752 188.778 61.6069 188.795 61.5386C188.864 61.1714 188.971 60.7785 189.112 60.3601C189.254 59.9416 189.455 59.4079 189.716 58.7631C189.909 58.2763 190.136 57.7639 190.398 57.2302C190.659 56.6965 190.942 56.1328 191.238 55.5393L191.525 55.0141L191.786 54.4633L192.073 53.9381C192.232 53.6221 192.339 53.3915 192.403 53.2421C192.463 53.0926 192.493 52.9773 192.493 52.8876C192.493 52.7809 192.468 52.6998 192.416 52.64C192.365 52.5802 192.292 52.5503 192.206 52.5503C191.996 52.5503 191.636 52.7382 191.126 53.114C190.616 53.4897 190.076 53.9551 189.498 54.5145C189.271 54.7408 189.044 54.9757 188.812 55.2233C188.585 55.4667 188.367 55.7144 188.157 55.9577C187.509 56.7093 186.914 57.5376 186.37 58.4471C185.825 59.3566 185.328 60.3259 184.87 61.355C184.835 61.355 184.801 61.3592 184.763 61.3678C184.728 61.3763 184.694 61.3891 184.655 61.4062C184.463 61.4575 184.253 61.5258 184.025 61.6026C183.798 61.6795 183.516 61.7905 183.186 61.9314C183.22 61.8973 183.25 61.8503 183.276 61.7862C183.301 61.7265 183.323 61.6667 183.34 61.6154C183.374 61.53 183.413 61.4361 183.46 61.3422C183.503 61.2482 183.541 61.1543 183.58 61.0689C183.858 60.4583 184.158 59.7794 184.475 59.0407C184.793 58.2977 185.195 57.3327 185.684 56.1456C186.104 55.1166 186.387 54.3907 186.524 53.9722C186.665 53.5538 186.734 53.2292 186.734 53.0029C186.734 52.862 186.704 52.7553 186.644 52.6741C186.584 52.5973 186.49 52.5546 186.37 52.5546C186.352 52.5546 186.34 52.5546 186.331 52.5546C186.322 52.5546 186.31 52.5546 186.292 52.5546C186.224 52.5546 186.13 52.5717 186.018 52.6058C185.902 52.64 185.697 52.704 185.401 52.7894L185.324 52.371C185.41 52.3539 185.495 52.3326 185.572 52.3069C185.65 52.2813 185.727 52.26 185.795 52.2429C186.112 52.1361 186.408 52.0422 186.691 51.9568C186.97 51.8714 187.252 51.7646 187.531 51.6408C187.724 51.5725 187.921 51.4914 188.122 51.406C188.324 51.3206 188.529 51.2309 188.739 51.1455C188.757 51.1967 188.765 51.2437 188.765 51.2779C188.765 51.312 188.765 51.3462 188.765 51.3846C188.765 51.7518 188.598 52.3966 188.264 53.3232C187.929 54.2498 187.475 55.3386 186.897 56.5982C188.457 54.8518 189.819 53.5196 190.985 52.6016C192.151 51.6835 193.085 51.2266 193.783 51.2266C193.976 51.2266 194.13 51.2821 194.242 51.3974C194.357 51.5127 194.413 51.6622 194.413 51.8543C194.413 52.1319 194.31 52.5119 194.109 52.9944C193.908 53.4769 193.449 54.4035 192.729 55.7827C192.622 55.9919 192.502 56.2268 192.361 56.4915C192.219 56.752 192.091 57.0252 191.966 57.3028C191.949 57.3369 191.932 57.3668 191.915 57.3925C191.898 57.4181 191.881 57.448 191.863 57.4821C191.722 57.781 191.576 58.0756 191.431 58.3745C191.281 58.6734 191.156 58.9424 191.049 59.1858C190.925 59.4121 190.839 59.6086 190.788 59.7751C190.736 59.9416 190.711 60.0697 190.711 60.1551C190.711 60.2619 190.741 60.3473 190.801 60.4156C190.861 60.4839 190.946 60.5223 191.049 60.5223C191.118 60.5223 191.221 60.501 191.353 60.4583C191.486 60.4156 191.619 60.3686 191.761 60.3131C191.829 60.2789 191.902 60.2405 191.971 60.1935C192.039 60.1508 192.112 60.1039 192.181 60.0484L192.399 60.3857Z" fill="black"/>
<path d="M169.518 70.3475C163.939 82.7219 151.477 92.0005 136.984 92.0005C120.108 92.0005 104.561 80.5613 101.943 63.6053C101.938 63.5797 101.947 63.5754 101.96 63.5797L102.367 63.0801C105.337 71.8292 110.586 80.1813 117.781 83.1147C120.948 85.2198 125.662 84.4512 128.786 84.4512C140.884 84.4512 151.203 76.0778 155.21 64.3226L168.734 70.0145L169.013 70.134L169.518 70.3475Z" fill="url(#paint2_linear_2602_10432)"/>
<path d="M168.97 69.5021C168.893 69.6729 168.812 69.8437 168.735 70.0145C163.048 82.1241 151.066 90.8433 136.774 90.8433C106.58 90.8433 102.371 63.0886 102.367 63.0801C105.337 71.8292 112.009 77.9908 119.204 80.9242C122.127 82.1155 125.14 82.7731 128.019 82.8542C140.113 83.1958 150.655 75.2324 154.657 63.4772L168.465 69.2886L168.97 69.5021Z" fill="url(#paint3_linear_2602_10432)"/>
<defs>
<linearGradient id="paint0_linear_2602_10432" x1="87.168" y1="47.422" x2="161.237" y2="31.5937" gradientUnits="userSpaceOnUse">
<stop offset="0.255208" stop-color="#754229"/>
<stop offset="0.34375" stop-color="#BA7C51"/>
<stop offset="0.4961" stop-color="#F4EFED"/>
<stop offset="0.5211" stop-color="white"/>
<stop offset="0.640625" stop-color="#BA7C51"/>
<stop offset="0.7087" stop-color="#723A20"/>
<stop offset="0.8663" stop-color="#201619"/>
</linearGradient>
<linearGradient id="paint1_linear_2602_10432" x1="123.784" y1="37.7947" x2="153.366" y2="37.7947" gradientUnits="userSpaceOnUse">
<stop stop-color="#201619"/>
<stop offset="0.5515" stop-color="#5F5644"/>
<stop offset="1" stop-color="#8F8665"/>
</linearGradient>
<linearGradient id="paint2_linear_2602_10432" x1="99.648" y1="71.7717" x2="167.386" y2="81.4294" gradientUnits="userSpaceOnUse">
<stop stop-color="#8F8665"/>
<stop offset="0.2781" stop-color="#50463A"/>
<stop offset="0.5043" stop-color="#201619"/>
<stop offset="1" stop-color="#8F8665"/>
</linearGradient>
<linearGradient id="paint3_linear_2602_10432" x1="84.327" y1="84.8232" x2="165.431" y2="67.4914" gradientUnits="userSpaceOnUse">
<stop offset="0.224" stop-color="#201619"/>
<stop offset="0.3655" stop-color="#723A20"/>
<stop offset="0.4144" stop-color="#BA7C51"/>
<stop offset="0.4658" stop-color="#D6C6BF"/>
<stop offset="0.5026" stop-color="#F4EFED"/>
<stop offset="0.5211" stop-color="white"/>
<stop offset="0.6819" stop-color="#BA7C51"/>
<stop offset="0.760417" stop-color="#723A20"/>
<stop offset="0.8682" stop-color="#201619"/>
</linearGradient>
</defs>
</svg>
