<svg width="262" height="113" viewBox="0 0 262 113" fill="none" xmlns="http://www.w3.org/2000/svg">
<path d="M133.381 55.9602C133.381 57.3294 133.169 58.6215 132.725 59.8171C132.281 61.0321 131.664 62.0734 130.835 62.9798C130.006 63.8862 129.003 64.5997 127.788 65.1397C126.573 65.6797 125.204 65.9304 123.661 65.9304C122.118 65.9304 120.749 65.6604 119.534 65.1397C118.319 64.5997 117.316 63.8862 116.487 62.9798C115.658 62.0734 115.022 61.0128 114.597 59.8171C114.173 58.6022 113.961 57.3294 113.961 55.9602C113.961 54.6103 114.173 53.3182 114.597 52.1032C115.022 50.8883 115.658 49.8276 116.487 48.9213C117.316 48.0149 118.339 47.3013 119.534 46.7614C120.749 46.2214 122.118 45.9707 123.661 45.9707C125.204 45.9707 126.573 46.2407 127.788 46.7614C129.003 47.3013 130.006 48.0149 130.835 48.9213C131.664 49.8276 132.281 50.8883 132.725 52.1032C133.169 53.3182 133.381 54.6103 133.381 55.9602ZM123.68 62.7677C124.625 62.7677 125.455 62.5941 126.149 62.247C126.862 61.8999 127.441 61.4178 127.923 60.8199C128.405 60.2028 128.752 59.4893 128.984 58.66C129.215 57.8308 129.331 56.9244 129.331 55.9602C129.331 54.996 129.215 54.0896 128.984 53.2603C128.752 52.4311 128.405 51.7175 127.923 51.1004C127.441 50.4833 126.862 50.0205 126.149 49.6734C125.435 49.3262 124.625 49.1527 123.68 49.1527C122.735 49.1527 121.906 49.3262 121.212 49.6734C120.498 50.0205 119.92 50.5026 119.438 51.1004C118.956 51.7175 118.609 52.4311 118.377 53.2603C118.146 54.0896 118.03 54.996 118.03 55.9602C118.03 56.9244 118.146 57.8308 118.377 58.66C118.609 59.4893 118.956 60.2028 119.438 60.8199C119.92 61.437 120.498 61.8999 121.212 62.247C121.906 62.5941 122.735 62.7677 123.68 62.7677ZM135.926 65.6025V46.3178H139.976V55.5745L146.668 46.3178H151.354L144.257 55.8445L151.836 65.6025H146.822L139.957 56.1337V65.6025H135.926ZM153.456 46.3178H165.046V49.5384H157.525V54.2053H164.699V57.4065H157.525V62.382H165.143V65.6025H153.475V46.3178H153.456ZM179.49 46.3178H183.887L177.543 55.9023L184.003 65.6025H179.568L175.402 59.0265L171.237 65.6025H166.801L173.261 55.9023L166.917 46.3178H171.314L175.402 52.8361L179.49 46.3178Z" fill="#1A1A1A"/>
<path d="M88.8895 54.0709C94.0018 54.0709 98.1461 49.9266 98.1461 44.8143C98.1461 39.702 94.0018 35.5576 88.8895 35.5576C83.7772 35.5576 79.6328 39.702 79.6328 44.8143C79.6328 49.9266 83.7772 54.0709 88.8895 54.0709Z" fill="#88BDF3"/>
<path d="M88.8895 76.4401C94.0018 76.4401 98.1461 72.2957 98.1461 67.1834C98.1461 62.0711 94.0018 57.9268 88.8895 57.9268C83.7772 57.9268 79.6328 62.0711 79.6328 67.1834C79.6328 72.2957 83.7772 76.4401 88.8895 76.4401Z" fill="#3075EE"/>
<path d="M100.077 65.2565C105.189 65.2565 109.334 61.1121 109.334 55.9998C109.334 50.8875 105.189 46.7432 100.077 46.7432C94.9647 46.7432 90.8203 50.8875 90.8203 55.9998C90.8203 61.1121 94.9647 65.2565 100.077 65.2565Z" fill="#5795F1"/>
<path d="M77.7059 65.2565C82.8182 65.2565 86.9625 61.1121 86.9625 55.9998C86.9625 50.8875 82.8182 46.7432 77.7059 46.7432C72.5936 46.7432 68.4492 50.8875 68.4492 55.9998C68.4492 61.1121 72.5936 65.2565 77.7059 65.2565Z" fill="#205FEC"/>
<path fill-rule="evenodd" clip-rule="evenodd" d="M86.7022 53.8115C83.3479 52.9983 80.7077 50.3581 79.8945 47.0039C83.2487 47.8171 85.889 50.4573 86.7022 53.8115Z" fill="#134BEF"/>
<path fill-rule="evenodd" clip-rule="evenodd" d="M79.8945 64.9951C80.7077 61.6409 83.3479 59.0007 86.7022 58.1875C85.889 61.5417 83.2487 64.1819 79.8945 64.9951Z" fill="#0932E8"/>
<path fill-rule="evenodd" clip-rule="evenodd" d="M91.082 58.1875C94.4362 59.0007 97.0765 61.6409 97.8897 64.9951C94.5354 64.1819 91.8952 61.5417 91.082 58.1875Z" fill="#164BEA"/>
<path fill-rule="evenodd" clip-rule="evenodd" d="M97.8897 47.0039C97.0765 50.3581 94.4362 52.9983 91.082 53.8115C91.8952 50.4573 94.5354 47.8171 97.8897 47.0039Z" fill="#3170F1"/>
</svg>
