<svg width="262" height="113" viewBox="0 0 262 113" fill="none" xmlns="http://www.w3.org/2000/svg">
<path d="M149.204 51.6763V43.4222C149.204 43.19 149.394 43 149.626 43H157.88C158.113 43 158.303 43.19 158.303 43.4222V51.6763C158.324 51.9085 158.134 52.0985 157.88 52.0985H149.626C149.394 52.0985 149.204 51.9085 149.204 51.6763ZM175.719 43.0211H167.464C167.232 43.0211 167.042 43.2111 167.042 43.4433V51.6974C167.042 51.9296 167.232 52.1196 167.464 52.1196H175.719C175.951 52.1196 176.141 51.9296 176.141 51.6974V43.4433C176.141 43.2111 175.951 43.0211 175.719 43.0211ZM157.88 60.8804H149.626C149.394 60.8804 149.204 61.0704 149.204 61.3026V69.5567C149.204 69.7889 149.394 69.9789 149.626 69.9789H157.88C158.134 69.9789 158.324 69.7678 158.303 69.5567V61.3026C158.303 61.0704 158.113 60.8804 157.88 60.8804ZM175.719 60.8804H167.464C167.232 60.8804 167.042 61.0704 167.042 61.3026V69.5567C167.042 69.7889 167.232 69.9789 167.464 69.9789H175.719C175.951 69.9789 176.141 69.7889 176.141 69.5567V61.3026C176.141 61.0704 175.951 60.8804 175.719 60.8804ZM167.232 60.6693V52.4152C167.232 52.183 167.042 51.993 166.81 51.993H158.556C158.324 51.993 158.134 52.183 158.134 52.4152V60.6693C158.134 60.9015 158.324 61.0915 158.556 61.0915H166.81C167.042 61.0704 167.232 60.8804 167.232 60.6693ZM144.116 43.0211H135.862C135.63 43.0211 135.44 43.2111 135.44 43.4433V51.6974C135.44 51.9296 135.63 52.1196 135.862 52.1196H144.116C144.349 52.1196 144.539 51.9296 144.539 51.6974V43.4433C144.539 43.2111 144.328 43.0211 144.116 43.0211ZM144.116 60.8804H135.862C135.63 60.8804 135.44 61.0704 135.44 61.3026V69.5567C135.44 69.7889 135.63 69.9789 135.862 69.9789H144.116C144.349 69.9789 144.539 69.7889 144.539 69.5567V61.3026C144.539 61.0704 144.328 60.8804 144.116 60.8804ZM135.609 60.6693V52.4152C135.609 52.183 135.419 51.993 135.187 51.993H126.933C126.827 51.993 126.743 52.0352 126.679 52.0985V43.4433C126.679 43.2111 126.489 43.0211 126.257 43.0211H118.024C117.792 43.0211 117.602 43.2111 117.602 43.4433V69.5567C117.602 69.7889 117.792 69.9789 118.024 69.9789H126.278C126.532 69.9789 126.722 69.7889 126.701 69.5567V60.9859C126.764 61.0493 126.869 61.0915 126.954 61.0915H135.208C135.44 61.0704 135.63 60.8804 135.609 60.6693ZM112.81 43.1478C112.894 43.2322 112.958 43.3378 112.958 43.4644V51.7185C112.958 51.7607 112.958 51.803 112.937 51.8241V61.197C112.958 61.2392 112.958 61.2815 112.958 61.3026V69.5567C112.958 69.62 112.937 69.6833 112.916 69.7256C112.852 69.8733 112.704 70 112.514 70H104.26C104.218 70 104.176 70 104.155 69.9789H94.7819C94.7396 70 94.6974 70 94.6552 70H86.4222C86.3589 70 86.2955 69.9789 86.2533 69.9578C86.1056 69.8944 86 69.7467 86 69.5567V61.3026C86 61.2604 86 61.2181 86.0211 61.197V51.803C86.0211 51.7607 86 51.7185 86 51.6763V43.4433C86 43.3167 86.0422 43.2111 86.1267 43.1478C86.2111 43.0633 86.3167 43.0211 86.4222 43.0211H94.6763C94.7185 43.0211 94.7608 43.0211 94.7819 43.0422H104.155C104.197 43.0422 104.218 43.0211 104.26 43.0211H112.514C112.62 43 112.726 43.0633 112.81 43.1478ZM103.838 52.1196H95.0774V60.8804H103.838V52.1196Z" fill="black"/>
</svg>
