<svg width="262" height="113" viewBox="0 0 262 113" fill="none" xmlns="http://www.w3.org/2000/svg">
<path d="M244.001 48.1143H18.2852V69.886H244.001V48.1143Z" fill="#176754"/>
<path d="M41.7557 55.3428L45.9219 64.3255H43.4245L42.5686 62.3354H38.066L37.2237 64.3255H34.7285L38.8947 55.3428H41.7557ZM38.7412 60.7457H41.8957L40.3241 57.024L38.7412 60.7457Z" fill="white"/>
<path d="M47.3496 59.8356C47.3496 59.1265 47.4851 58.4837 47.7561 57.9095C48.027 57.3354 48.4199 56.8482 48.9348 56.4456C49.4496 56.043 50.0774 55.7342 50.8203 55.5146C51.5632 55.2973 52.4123 55.1875 53.3652 55.1875C53.9252 55.1875 54.4717 55.2241 55.0001 55.2973C55.5285 55.3705 55.9891 55.4757 56.382 55.6107L56.2127 57.253C55.8943 57.1067 55.5104 56.9969 55.0633 56.9191C54.6139 56.8413 54.1375 56.8047 53.6339 56.8047C52.3332 56.8047 51.351 57.0746 50.6826 57.6122C50.0142 58.152 49.68 58.8908 49.68 59.8333C49.68 60.8169 50.0277 61.5671 50.7255 62.0864C51.421 62.6034 52.41 62.8618 53.6926 62.8618C54.1691 62.8618 54.632 62.8229 55.0813 62.7475C55.5307 62.6697 55.9327 62.5507 56.2872 62.3883L56.4543 64.0559C56.0139 64.2023 55.5307 64.3075 55.0023 64.3761C54.4739 64.4447 53.9433 64.479 53.4104 64.479C52.4461 64.479 51.5926 64.3715 50.8429 64.1588C50.0955 63.9461 49.4609 63.6373 48.9416 63.2347C48.4222 62.8321 48.027 62.3449 47.7561 61.7707C47.4851 61.2012 47.3496 60.5538 47.3496 59.8356Z" fill="white"/>
<path d="M60.9416 55.3428V64.3255H58.6406V55.3428H60.9416Z" fill="white"/>
<path d="M63.2422 55.3428H70.913V56.9348H65.5409V58.9249H70.5607V60.5169H65.5409V64.3278H63.2422V55.3428Z" fill="white"/>
<path d="M75.4475 55.3428V64.3255H73.1465V55.3428H75.4475Z" fill="white"/>
<path d="M77.9297 59.8356C77.9297 59.1265 78.0652 58.4837 78.3361 57.9095C78.6071 57.3354 79 56.8482 79.5149 56.4456C80.0297 56.043 80.6575 55.7342 81.4004 55.5146C82.1433 55.295 82.9923 55.1875 83.9453 55.1875C84.5053 55.1875 85.0517 55.2241 85.5801 55.2973C86.1085 55.3705 86.5692 55.4757 86.9621 55.6107L86.7927 57.253C86.4743 57.1067 86.0905 56.9969 85.6434 56.9191C85.194 56.8413 84.7175 56.8047 84.214 56.8047C82.9133 56.8047 81.931 57.0746 81.2626 57.6122C80.5942 58.152 80.26 58.8908 80.26 59.8333C80.26 60.8169 80.6078 61.5671 81.3055 62.0864C82.001 62.6034 82.9901 62.8618 84.2727 62.8618C84.7491 62.8618 85.2121 62.8229 85.6614 62.7475C86.1108 62.6697 86.5127 62.5507 86.8672 62.3883L87.0343 64.0559C86.594 64.2023 86.1108 64.3075 85.5824 64.3761C85.054 64.4447 84.5233 64.479 83.9904 64.479C83.0262 64.479 82.1727 64.3715 81.423 64.1588C80.6755 63.9461 80.041 63.6373 79.5216 63.2347C79.0023 62.8321 78.6071 62.3449 78.3361 61.7707C78.0652 61.2012 77.9297 60.5538 77.9297 59.8356Z" fill="white"/>
<path d="M108.143 55.3428H115.814V56.9348H110.442V58.9249H115.461V60.5169H110.442V62.738H115.924V64.3301H108.141V55.3428H108.143Z" fill="white"/>
<path d="M125.883 64.3278L121.24 57.8727V64.3278H119.012V55.3428H121.816L126.459 61.7979V55.3428H128.688V64.3255H125.883V64.3278Z" fill="white"/>
<path d="M134.074 56.9485H130.68V55.3428H139.766V56.9463H136.372V64.3255H134.071V56.9485H134.074Z" fill="white"/>
<path d="M146.86 64.4811C146.14 64.4811 145.481 64.4033 144.882 64.25C144.284 64.0968 143.769 63.8635 143.34 63.5501C142.911 63.239 142.577 62.8455 142.337 62.3766C142.098 61.9054 141.98 61.3541 141.98 60.7205V55.3428H144.281V60.6313C144.281 61.3587 144.482 61.9123 144.884 62.2943C145.286 62.674 145.946 62.8661 146.862 62.8661C147.779 62.8661 148.439 62.6763 148.841 62.2943C149.243 61.9146 149.444 61.3587 149.444 60.6313V55.3428H151.74V60.7205C151.74 61.3541 151.62 61.9054 151.383 62.3766C151.144 62.8478 150.81 63.239 150.381 63.5501C149.952 63.8635 149.437 64.0945 148.838 64.25C148.238 64.4033 147.581 64.4811 146.86 64.4811Z" fill="white"/>
<path d="M162.321 58.1678C162.321 58.8082 162.129 59.3389 161.745 59.7598C161.361 60.1784 160.842 60.4918 160.19 60.6976L163.247 64.3301H160.625L157.947 60.9927H156.055V64.3301H153.754V55.3428H157.947C158.573 55.3428 159.155 55.4 159.693 55.5166C160.23 55.631 160.693 55.8048 161.081 56.0359C161.47 56.2669 161.772 56.5597 161.994 56.9142C162.211 57.2711 162.321 57.6874 162.321 58.1678ZM159.993 58.1678C159.993 57.7492 159.806 57.4426 159.433 57.2505C159.058 57.0583 158.507 56.9623 157.778 56.9623H156.053V59.3755H157.778C158.507 59.3755 159.058 59.2794 159.433 59.0873C159.806 58.8929 159.993 58.5864 159.993 58.1678Z" fill="white"/>
<path d="M169.788 60.7983V64.3278H167.487V60.7983L163.043 55.3428H165.651L168.639 59.1033L171.626 55.3428H174.234L169.788 60.7983Z" fill="white"/>
<path d="M202.776 58.1678C202.776 58.8082 202.584 59.3389 202.2 59.7598C201.817 60.1784 201.297 60.4918 200.645 60.6976L203.702 64.3301H201.08L198.402 60.9927H196.51V64.3301H194.209V55.3428H198.402C199.028 55.3428 199.61 55.4 200.148 55.5166C200.685 55.631 201.148 55.8048 201.537 56.0359C201.925 56.2669 202.227 56.5597 202.449 56.9142C202.666 57.2711 202.776 57.6874 202.776 58.1678ZM200.448 58.1678C200.448 57.7492 200.261 57.4426 199.888 57.2505C199.513 57.0583 198.962 56.9623 198.233 56.9623H196.508V59.3755H198.233C198.962 59.3755 199.513 59.2794 199.888 59.0873C200.261 58.8929 200.448 58.5864 200.448 58.1678Z" fill="white"/>
<path d="M214.976 59.8359C214.976 60.4946 214.857 61.1054 214.62 61.6704C214.38 62.2354 214.032 62.7272 213.574 63.1458C213.116 63.5644 212.551 63.8915 211.876 64.1271C211.203 64.3627 210.431 64.4794 209.561 64.4794C208.692 64.4794 207.92 64.3627 207.247 64.1271C206.574 63.8915 206.007 63.5644 205.549 63.1458C205.09 62.7272 204.743 62.2354 204.503 61.6704C204.264 61.1054 204.146 60.4946 204.146 59.8359C204.146 59.1771 204.266 58.5663 204.503 58.0013C204.743 57.4364 205.09 56.9446 205.549 56.526C206.007 56.1074 206.572 55.7803 207.247 55.5446C207.92 55.309 208.692 55.1924 209.561 55.1924C210.431 55.1924 211.203 55.309 211.876 55.5446C212.549 55.7803 213.116 56.1074 213.574 56.526C214.032 56.9446 214.38 57.4364 214.62 58.0013C214.857 58.5663 214.976 59.1771 214.976 59.8359ZM206.477 59.8359C206.477 60.8103 206.743 61.5606 207.276 62.0821C207.809 62.6037 208.57 62.8644 209.561 62.8644C210.553 62.8644 211.314 62.6037 211.847 62.0821C212.38 61.5606 212.646 60.8126 212.646 59.8359C212.646 58.8591 212.38 58.1111 211.847 57.5896C211.314 57.0681 210.553 56.8073 209.561 56.8073C208.57 56.8073 207.809 57.0681 207.276 57.5896C206.743 58.1111 206.477 58.8614 206.477 59.8359Z" fill="white"/>
<path d="M221.821 64.4811C221.101 64.4811 220.441 64.4033 219.843 64.25C219.245 64.0968 218.73 63.8635 218.301 63.5501C217.872 63.239 217.538 62.8455 217.298 62.3766C217.059 61.9054 216.941 61.3541 216.941 60.7205V55.3428H219.242V60.6313C219.242 61.3587 219.443 61.9123 219.845 62.2943C220.247 62.674 220.907 62.8661 221.823 62.8661C222.74 62.8661 223.4 62.6763 223.802 62.2943C224.203 61.9146 224.404 61.3587 224.404 60.6313V55.3428H226.705V60.7205C226.705 61.3541 226.586 61.9054 226.349 62.3766C226.109 62.8478 225.775 63.239 225.346 63.5501C224.917 63.8635 224.402 64.0945 223.804 64.25C223.201 64.4033 222.542 64.4811 221.821 64.4811Z" fill="white"/>
<path d="M233.616 55.3428C234.307 55.3428 234.93 55.4068 235.481 55.5349C236.032 55.663 236.502 55.8529 236.89 56.1068C237.279 56.3584 237.575 56.6695 237.78 57.0378C237.986 57.406 238.089 57.8338 238.089 58.321C238.089 58.8082 237.986 59.236 237.78 59.6043C237.575 59.9725 237.277 60.2836 236.89 60.5352C236.502 60.7869 236.032 60.979 235.481 61.1071C234.93 61.2352 234.307 61.2992 233.616 61.2992H231.905V64.3278H229.604V55.3428H233.616ZM231.907 59.682H233.393C234.187 59.682 234.781 59.5837 235.174 59.387C235.567 59.1902 235.764 58.8357 235.764 58.321C235.764 57.8086 235.567 57.4518 235.174 57.2551C234.781 57.0583 234.187 56.96 233.393 56.96H231.907V59.682Z" fill="white"/>
<path d="M29.2035 53.1143C30.0661 53.1143 30.8429 53.1943 31.5316 53.3544C32.2203 53.5146 32.8074 53.7525 33.2906 54.0681C33.7739 54.3838 34.1465 54.7704 34.4016 55.2301C34.6591 55.6899 34.7878 56.2229 34.7878 56.8313C34.7878 57.4398 34.6591 57.975 34.4016 58.4325C34.1442 58.8923 33.7739 59.2789 33.2906 59.5945C32.8074 59.9102 32.2203 60.1481 31.5316 60.3082C30.8429 60.4683 30.0661 60.5484 29.2035 60.5484H27.0673V64.3295H24.1973V53.1143H29.2035ZM27.0673 58.5286H28.9235C29.9148 58.5286 30.6577 58.4051 31.1477 58.1603C31.6377 57.9156 31.8838 57.4718 31.8838 56.8313C31.8838 56.1909 31.6377 55.7471 31.1477 55.5023C30.6577 55.2576 29.917 55.1341 28.9235 55.1341H27.0673V58.5286Z" fill="white"/>
<path d="M93.707 58.8544C93.707 57.992 93.8832 57.2166 94.2354 56.5235C94.5877 55.8327 95.1003 55.2402 95.7777 54.7484C96.4529 54.2566 97.2771 53.8769 98.2481 53.6093C99.2191 53.3417 100.323 53.209 101.563 53.209C102.324 53.209 103.051 53.2547 103.749 53.3462C104.447 53.4377 105.047 53.5681 105.555 53.7374L105.323 55.867C104.914 55.684 104.417 55.549 103.835 55.4575C103.25 55.366 102.649 55.3203 102.028 55.3203C100.409 55.3203 99.1874 55.6291 98.3655 56.249C97.5413 56.8689 97.1303 57.7358 97.1303 58.8521C97.1303 60.0049 97.5548 60.8787 98.4084 61.4735C99.2597 62.0682 100.488 62.3656 102.094 62.3656C102.672 62.3656 103.252 62.3198 103.835 62.2283C104.419 62.1368 104.95 61.9881 105.429 61.7823L105.661 63.9668C105.083 64.1498 104.44 64.2801 103.728 64.3579C103.017 64.4357 102.304 64.4769 101.586 64.4769C100.332 64.4769 99.2213 64.3465 98.2503 64.0857C97.2793 63.8249 96.4551 63.4521 95.78 62.9649C95.1048 62.4799 94.5899 61.8898 94.2377 61.199C93.8832 60.5127 93.707 59.7304 93.707 58.8544Z" fill="white"/>
<path d="M186.607 58.644V60.6615H189.14V62.5966C188.856 62.6836 188.537 62.743 188.185 62.7751C187.833 62.8071 187.465 62.8231 187.086 62.8231C185.369 62.8231 184.037 62.5051 183.089 61.8715C182.143 61.2379 181.668 60.2818 181.668 59.0008C181.668 57.7885 182.133 56.846 183.064 56.1781C183.994 55.5125 185.347 55.1785 187.124 55.1785C187.853 55.1785 188.576 55.2403 189.298 55.3638C190.019 55.4896 190.671 55.6657 191.256 55.8945L191.489 53.7649C190.809 53.5476 190.062 53.3852 189.244 53.2754C188.427 53.1678 187.596 53.1152 186.749 53.1152C185.437 53.1152 184.281 53.2639 183.281 53.5613C182.278 53.8586 181.438 54.2704 180.758 54.7965C180.079 55.3226 179.566 55.9448 179.218 56.6608C178.873 57.3767 178.701 58.1544 178.701 59.0008C178.701 59.8792 178.889 60.6821 179.266 61.4095C179.641 62.1346 180.182 62.7568 180.892 63.2714C181.601 63.7884 182.47 64.1841 183.493 64.4678C184.518 64.7491 185.681 64.8909 186.979 64.8909C190.283 64.8909 191.753 63.1799 191.753 63.1799V58.644H186.607Z" fill="white"/>
</svg>
