<svg width="262" height="113" viewBox="0 0 262 113" fill="none" xmlns="http://www.w3.org/2000/svg">
<path d="M113.047 31.0703L112.499 31.5088C112.288 31.2582 112.076 30.9952 111.902 30.7447L112.437 30.3689C112.549 30.5192 112.748 30.7572 113.047 31.0703ZM112.661 30.206C112.86 30.444 113.06 30.6695 113.271 30.895L113.744 30.5192C113.495 30.2687 113.296 30.0432 113.147 29.8678L112.661 30.206ZM118.998 32.8741C119.185 32.9869 119.322 33.062 119.409 33.0996L119.683 32.5986C119.546 32.5234 119.422 32.4482 119.285 32.3731L118.998 32.8741ZM118.488 33.776C118.749 33.9263 118.899 34.0015 118.924 34.014L119.173 33.538C119.036 33.4503 118.899 33.3627 118.762 33.2875L118.488 33.776ZM118.015 34.5902C118.301 34.7531 118.463 34.8408 118.476 34.8408L118.687 34.4524C118.538 34.3648 118.388 34.2771 118.251 34.1894L118.015 34.5902ZM117.479 35.5297C117.641 35.6174 117.803 35.7176 117.965 35.8053L118.239 35.2792C118.077 35.1915 117.928 35.0913 117.778 35.0036L117.479 35.5297ZM116.496 34.9284C116.658 35.0287 116.82 35.1414 116.994 35.2416L117.33 34.703C117.168 34.5902 117.006 34.49 116.857 34.3773L116.496 34.9284ZM117.828 33.9138C117.666 33.8011 117.504 33.7009 117.355 33.5881L117.081 34.014C117.255 34.1268 117.417 34.227 117.567 34.3272L117.828 33.9138ZM117.579 33.2249C117.753 33.3376 117.915 33.4378 118.065 33.5255L118.376 33.037C118.214 32.9242 118.052 32.824 117.903 32.7113L117.579 33.2249ZM118.625 32.6612L118.936 32.1852C118.737 32.0725 118.55 31.9472 118.363 31.8219L118.451 31.8846L118.139 32.3606C118.326 32.4608 118.488 32.561 118.625 32.6612ZM117.828 32.1351L118.139 31.6716C117.953 31.5463 117.753 31.4086 117.579 31.2833L117.629 31.3209L117.305 31.7843C117.492 31.9096 117.666 32.0223 117.828 32.1351ZM117.592 32.4858C117.417 32.3606 117.255 32.2353 117.094 32.11L116.72 32.6487C116.907 32.7739 117.069 32.8992 117.243 32.9994L117.592 32.4858ZM117.006 33.3501C116.832 33.2249 116.658 33.0996 116.496 32.9743L116.185 33.4253C116.371 33.5506 116.546 33.6758 116.708 33.7886L117.006 33.3501ZM115.575 34.3021C115.749 34.4274 115.923 34.5527 116.098 34.6654L116.471 34.1142C116.297 33.989 116.122 33.8637 115.961 33.7384L115.575 34.3021ZM116.533 31.1956C116.708 31.3334 116.882 31.4712 117.056 31.5839L117.405 31.133C117.23 31.0077 117.069 30.8825 116.907 30.7447L116.533 31.1956ZM116.82 31.8846C116.645 31.7468 116.471 31.5965 116.309 31.4587L115.861 31.9973C116.048 32.1476 116.234 32.2854 116.421 32.4232L116.82 31.8846ZM116.172 32.7238C115.985 32.5735 115.799 32.4232 115.612 32.2729L115.238 32.7113C115.438 32.8741 115.637 33.0244 115.824 33.1622L116.172 32.7238ZM115.027 32.9743L114.566 33.5255C114.765 33.6883 114.977 33.8512 115.189 34.014L115.624 33.4503C115.4 33.2875 115.214 33.1247 115.027 32.9743ZM115.699 30.5067C115.886 30.6695 116.073 30.8323 116.259 30.9827L116.645 30.5442C116.459 30.3939 116.284 30.2436 116.122 30.0808L115.699 30.5067ZM116.035 31.2457C115.836 31.0703 115.649 30.9075 115.475 30.7447L114.952 31.2708C115.151 31.4461 115.363 31.6215 115.562 31.7843L116.035 31.2457ZM115.35 32.0349C115.139 31.847 114.94 31.6716 114.74 31.4962L114.317 31.9221C114.529 32.1226 114.74 32.2979 114.952 32.4733L115.35 32.0349ZM114.093 32.1351L113.57 32.6612C113.782 32.8616 114.006 33.0746 114.242 33.275L114.728 32.7238C114.504 32.5234 114.292 32.323 114.093 32.1351ZM115.438 29.3793L114.927 29.7927C115.114 29.9806 115.313 30.1559 115.512 30.3313L115.948 29.9054C115.911 29.8678 115.873 29.8302 115.824 29.7927C115.687 29.6549 115.562 29.5171 115.438 29.3793ZM114.105 30.4691C114.317 30.682 114.529 30.8825 114.753 31.0829L115.288 30.5693C115.077 30.3689 114.877 30.181 114.703 29.9931L114.105 30.4691ZM113.881 30.657L113.408 31.0453C113.632 31.2833 113.856 31.5088 114.093 31.7217L114.529 31.2958C114.28 31.0703 114.068 30.8449 113.881 30.657ZM113.172 31.2207L112.611 31.6716C112.836 31.9221 113.072 32.1852 113.334 32.4357L113.856 31.9221C113.607 31.6716 113.371 31.4336 113.172 31.2207ZM114.242 29.0787C114.429 29.2791 114.616 29.4795 114.803 29.6674L115.326 29.254C115.151 29.0536 114.989 28.8532 114.852 28.6653L114.242 29.0787ZM113.383 29.6925C113.57 29.9179 113.769 30.1184 113.981 30.3313L114.579 29.8553C114.367 29.6298 114.18 29.4294 114.018 29.254L113.383 29.6925ZM144.721 21.2998L144.658 20.636C144.347 20.6735 144.024 20.7111 143.7 20.7737L143.799 21.4752C144.223 21.3875 144.534 21.3249 144.721 21.2998ZM143.936 22.3646C144.273 22.2769 144.571 22.2143 144.795 22.1767L144.746 21.5879C144.447 21.6381 144.148 21.7007 143.849 21.7633L143.936 22.3646ZM144.447 39.939C141.434 42.795 138.097 44.7741 135.059 45.7386C134.947 45.7762 134.835 45.8263 134.711 45.8639C131.013 47.0915 126.967 46.2898 124.028 43.8221C123.979 43.7845 123.941 43.747 123.891 43.7094C123.879 43.6968 123.879 43.6968 123.866 43.6843C123.916 43.7344 123.966 43.772 124.028 43.8221C124.589 46.0518 125.41 48.1813 126.444 49.9725C128.436 53.4548 130.776 55.0206 131.959 54.7325C132.569 54.5822 133.179 53.8807 133.665 52.8285L134.35 53.1417L134.611 53.2669L135.308 53.5926L135.57 53.7179L136.105 53.9684L136.367 54.0937L136.952 54.3692C135.993 56.4361 134.586 57.8516 132.806 58.29C128.087 59.4299 122.572 53.2419 120.468 44.461C119.484 40.3398 119.434 36.369 120.144 33.2123C120.368 31.9221 120.816 30.657 121.513 29.467C122.87 27.1371 124.937 25.4836 127.278 24.6193C125.074 23.993 122.833 23.6548 120.791 23.6548C116.795 23.6548 114.28 24.9074 113.931 26.0849C113.757 26.6861 114.056 27.5755 114.716 28.5275L114.093 28.9659L113.856 29.1288L113.234 29.5672L112.997 29.73L112.512 30.0682L112.275 30.2311L111.752 30.6069C110.445 28.7405 109.935 26.8114 110.445 25.0327C111.815 20.3478 119.907 18.6317 128.51 21.1746C134.599 22.9784 139.317 26.4356 141.073 29.968C142.256 32.2228 142.592 34.7155 142.193 37.0579C143.824 35.4796 145.219 33.7259 146.24 31.9722C148.257 28.5025 148.456 25.684 147.622 24.7947C147.198 24.3312 146.289 24.1433 145.132 24.2435L145.069 23.4794L145.044 23.1913L144.982 22.4272L144.957 22.1391L144.907 21.5504L144.883 21.2623L144.82 20.6109C147.074 20.423 149.004 20.9491 150.249 22.3019C153.598 25.8594 150.996 33.751 144.447 39.939ZM127.39 41.5924C128.087 42.0058 128.822 42.2939 129.569 42.4567C132.631 43.1332 135.906 41.7929 137.574 38.9243C138.097 38.035 138.408 37.0704 138.533 36.1059C138.545 36.0433 138.545 35.9807 138.558 35.9305C138.558 35.893 138.558 35.8679 138.57 35.8303C138.583 35.7301 138.583 35.6424 138.595 35.5422C138.595 35.5297 138.595 35.5047 138.595 35.4921C138.595 35.3794 138.608 35.2667 138.608 35.1539C138.608 35.1414 138.608 35.1289 138.608 35.1163C138.608 34.5151 138.533 33.9389 138.396 33.3752C138.396 33.3752 138.396 33.3752 138.396 33.3627C138.346 33.1748 138.296 32.9869 138.234 32.8115C137.749 31.3334 136.827 30.0557 135.62 29.1413C134.088 28.0139 132.158 27.5129 130.266 27.7509C129.32 27.8761 128.374 28.1768 127.502 28.6904C126.805 29.0912 126.195 29.6048 125.684 30.1685C123.593 32.5109 123.119 36.0308 124.775 38.9118C125.062 39.4254 125.41 39.8889 125.796 40.3022C125.834 40.3398 125.859 40.3649 125.896 40.4024C125.921 40.4275 125.946 40.4525 125.958 40.4651C126.369 40.891 126.855 41.2667 127.39 41.5924ZM123.742 43.5591C123.705 43.5215 123.667 43.4964 123.63 43.4588C123.617 43.4463 123.617 43.4463 123.605 43.4338C123.655 43.4839 123.717 43.534 123.767 43.5841C123.767 43.5716 123.754 43.5591 123.742 43.5591ZM139.541 26.2227L139.255 25.7216C139.068 25.8344 138.931 25.9095 138.857 25.9596L139.155 26.4481C139.28 26.373 139.404 26.2978 139.541 26.2227ZM139.018 25.3208L138.745 24.8323C138.496 24.9826 138.334 25.0828 138.321 25.0953L138.595 25.5463C138.732 25.4711 138.882 25.3959 139.018 25.3208ZM137.823 24.2811L138.06 24.6569C138.209 24.5692 138.359 24.494 138.508 24.4064L138.271 23.993C137.998 24.1809 137.836 24.2811 137.823 24.2811ZM138.035 23.6047L137.736 23.0786C137.574 23.1663 137.412 23.2665 137.263 23.3667L137.574 23.8677C137.724 23.7675 137.886 23.6924 138.035 23.6047ZM139.043 23.1036L138.757 22.5274C138.583 22.6151 138.408 22.7028 138.247 22.803L138.533 23.3667C138.707 23.2665 138.869 23.1913 139.043 23.1036ZM139.467 23.9429L139.243 23.4919C139.056 23.5922 138.882 23.6798 138.732 23.7675L138.956 24.2059C139.131 24.1057 139.292 24.018 139.467 23.9429ZM139.666 24.3312C139.479 24.4314 139.305 24.5191 139.155 24.6068L139.417 25.1329C139.591 25.0452 139.766 24.97 139.94 24.8824L139.666 24.3312ZM140.475 25.7216L140.376 25.7717L140.127 25.2707C139.94 25.3709 139.766 25.4586 139.616 25.5337L139.878 26.0473C140.089 25.922 140.276 25.8218 140.475 25.7216ZM141.334 25.3083L141.272 25.3333L141.035 24.8197C140.836 24.9074 140.649 24.9951 140.475 25.0828L140.712 25.5964C140.923 25.4962 141.135 25.3959 141.334 25.3083ZM140.874 24.469L140.6 23.8677C140.4 23.9554 140.214 24.0556 140.027 24.1433L140.301 24.7195C140.5 24.6318 140.687 24.5442 140.874 24.469ZM139.641 23.2915L139.865 23.7675C140.064 23.6798 140.251 23.5922 140.45 23.517L140.226 23.0159C140.002 23.1162 139.815 23.2038 139.641 23.2915ZM140.052 22.6652L139.766 22.0389C139.579 22.1266 139.38 22.2143 139.18 22.3145L139.467 22.9157C139.653 22.8281 139.853 22.7529 140.052 22.6652ZM142.131 24.9826L141.944 24.4439C141.733 24.5316 141.533 24.6068 141.347 24.6945L141.558 25.2206C141.745 25.1329 141.944 25.0577 142.131 24.9826ZM141.596 23.4418C141.372 23.5295 141.16 23.6172 140.948 23.7174L141.197 24.3437C141.409 24.256 141.621 24.1809 141.82 24.1057L141.596 23.4418ZM140.811 23.3667C141.035 23.279 141.26 23.1913 141.484 23.1162L141.297 22.565C141.06 22.6527 140.836 22.7529 140.612 22.8531L140.811 23.3667ZM141.172 22.2393L140.936 21.5504C140.687 21.6381 140.45 21.7383 140.201 21.8385L140.463 22.4898C140.712 22.4022 140.948 22.3145 141.172 22.2393ZM143.102 24.6569L142.953 24.0807C142.716 24.1558 142.492 24.2435 142.268 24.3312L142.442 24.8824C142.654 24.7947 142.878 24.7195 143.102 24.6569ZM142.866 23.755L142.679 23.041C142.417 23.1287 142.168 23.2164 141.932 23.304L142.156 23.9805C142.393 23.9053 142.629 23.8302 142.866 23.755ZM141.82 22.9909C142.094 22.9032 142.343 22.8155 142.592 22.7404L142.442 22.1516C142.168 22.2393 141.907 22.327 141.646 22.4272L141.82 22.9909ZM142.355 21.851L142.168 21.137C141.882 21.2247 141.596 21.3124 141.309 21.4126L141.533 22.1015C141.82 22.0138 142.106 21.9262 142.355 21.851ZM143.488 24.5442C143.675 24.494 143.862 24.4439 144.048 24.4064L143.949 23.755C143.687 23.8302 143.438 23.9053 143.189 23.9805L143.326 24.5817C143.389 24.5692 143.438 24.5567 143.488 24.5442ZM143.911 23.4669L143.799 22.7028C143.513 22.7779 143.227 22.8656 142.953 22.9533L143.127 23.6798C143.401 23.6047 143.662 23.5295 143.911 23.4669ZM142.878 22.6527C143.189 22.5525 143.488 22.4773 143.75 22.4147L143.662 21.8134C143.351 21.8886 143.04 21.9763 142.741 22.0639L142.878 22.6527ZM143.613 21.5253L143.513 20.8113C143.177 20.8739 142.841 20.9616 142.492 21.0493L142.666 21.7633C143.015 21.6631 143.339 21.5879 143.613 21.5253ZM144.97 24.256L144.907 23.517C144.646 23.5796 144.385 23.6423 144.123 23.7049L144.223 24.3688C144.484 24.3187 144.733 24.2811 144.97 24.256ZM143.974 22.6527L144.086 23.4168C144.385 23.3416 144.658 23.279 144.883 23.2289L144.82 22.4648C144.534 22.5149 144.248 22.5901 143.974 22.6527ZM136.441 53.8932L137.039 54.1688C137.163 53.8807 137.288 53.5801 137.4 53.2544L136.74 52.9914C136.616 53.4172 136.504 53.7179 136.441 53.8932ZM136.466 52.9037L135.906 52.6782C135.806 53.0164 135.719 53.3045 135.644 53.53L136.18 53.7805C136.292 53.4924 136.379 53.1918 136.466 52.9037ZM134.748 46.4777C134.748 46.628 134.748 46.7783 134.748 46.9286H135.321C135.321 46.7032 135.321 46.5528 135.321 46.4652L134.748 46.4777ZM136.329 46.4151L135.794 46.4276C135.794 46.5904 135.781 46.7533 135.781 46.9161H136.342C136.342 46.6155 136.342 46.4401 136.329 46.4151ZM137.275 46.39L136.84 46.4025C136.84 46.5779 136.827 46.7407 136.827 46.9161H137.3C137.288 46.5904 137.275 46.4025 137.275 46.39ZM137.773 46.3775C137.773 46.5654 137.761 46.7407 137.761 46.9161H138.371C138.371 46.7282 138.371 46.5403 138.371 46.3524L137.773 46.3775ZM137.686 48.0435L138.334 48.081C138.346 47.8932 138.346 47.6927 138.359 47.4923L137.736 47.4673C137.724 47.6552 137.699 47.8556 137.686 48.0435ZM136.753 47.9934L137.263 48.0184C137.275 47.8055 137.275 47.6176 137.288 47.4422L136.802 47.4172C136.79 47.6176 136.777 47.8055 136.753 47.9934ZM135.719 47.9433L136.329 47.9808C136.342 47.7679 136.342 47.58 136.342 47.4046L135.757 47.3796C135.757 47.5675 135.732 47.7554 135.719 47.9433ZM134.723 47.8932L135.283 47.9182C135.296 47.7053 135.308 47.5174 135.308 47.342L134.736 47.3169C134.736 47.5424 134.723 47.7679 134.711 47.9934L134.723 47.8932ZM134.648 48.9579L134.661 48.8953L135.221 48.9454C135.246 48.7324 135.259 48.5195 135.271 48.319L134.711 48.2689C134.686 48.4944 134.673 48.7199 134.648 48.9579ZM135.607 48.9704L136.267 49.0205C136.292 48.795 136.304 48.5946 136.317 48.3942L135.694 48.3441C135.657 48.557 135.632 48.7575 135.607 48.9704ZM136.64 49.0581L137.176 49.1082C137.201 48.8827 137.213 48.6698 137.226 48.4694L136.703 48.4318C136.69 48.6322 136.678 48.8452 136.64 49.0581ZM137.574 49.1333L138.259 49.1959C138.284 48.9829 138.296 48.77 138.309 48.557L137.649 48.5069C137.624 48.7074 137.599 48.9203 137.574 49.1333ZM134.536 49.8097L135.097 49.9099C135.134 49.6844 135.159 49.4715 135.184 49.2585L134.624 49.1834C134.599 49.3963 134.574 49.6093 134.536 49.8097ZM135.445 49.9725L136.13 50.0978C136.167 49.8598 136.192 49.6218 136.217 49.3963L135.557 49.3086C135.52 49.5466 135.483 49.7596 135.445 49.9725ZM136.479 50.1604L137.051 50.2606C137.089 50.0101 137.126 49.7596 137.151 49.5216L136.603 49.4464C136.553 49.6969 136.516 49.9349 136.479 50.1604ZM137.388 50.3358L138.097 50.461C138.135 50.198 138.172 49.9475 138.209 49.6719L137.512 49.5717C137.475 49.8473 137.425 50.0978 137.388 50.3358ZM134.35 50.8118L134.922 50.9621C134.972 50.7116 135.01 50.4736 135.047 50.2356L134.487 50.1228C134.449 50.3608 134.399 50.5863 134.35 50.8118ZM135.234 51.0498L135.943 51.2377C135.993 50.9746 136.043 50.7116 136.08 50.4485L135.383 50.3107C135.333 50.5738 135.283 50.8118 135.234 51.0498ZM136.255 51.3254L136.84 51.4757C136.902 51.1876 136.952 50.912 137.002 50.6364L136.429 50.5112C136.367 50.7993 136.304 51.0748 136.255 51.3254ZM137.126 51.5634L137.836 51.7513C137.898 51.4631 137.96 51.1625 138.022 50.8619L137.313 50.7116C137.251 51.0122 137.188 51.2878 137.126 51.5634ZM134.873 51.2251L134.287 51.0498C134.275 51.0999 134.262 51.1625 134.25 51.2126C134.2 51.4005 134.15 51.5884 134.088 51.7638L134.698 52.0018C134.76 51.7387 134.823 51.4757 134.873 51.2251ZM135.893 51.5258L135.184 51.3128C135.122 51.6009 135.047 51.864 134.985 52.1145L135.694 52.3901C135.757 52.102 135.831 51.8139 135.893 51.5258ZM135.956 52.4903L136.528 52.7158C136.616 52.4026 136.703 52.0895 136.765 51.7763L136.18 51.6009C136.105 51.9266 136.03 52.2272 135.956 52.4903ZM136.79 52.816L137.45 53.079C137.562 52.7534 137.661 52.4151 137.749 52.0769L137.051 51.8765C136.964 52.2272 136.877 52.5404 136.79 52.816ZM133.764 52.6531L134.437 52.9663C134.524 52.7032 134.599 52.4527 134.661 52.1897L134.038 51.9391C133.951 52.1897 133.852 52.4277 133.764 52.6531ZM135.632 52.578L134.922 52.3024C134.835 52.603 134.76 52.8661 134.686 53.0916L135.383 53.4172C135.483 53.1291 135.557 52.8536 135.632 52.578Z" fill="#5A23AF"/>
<path d="M120.319 76.5535H126.606V79.1715H120.319H117.717V76.5535V67.0335H120.319V76.5535ZM91.4966 70.9668C91.4966 72.0565 91.0608 73.0336 90.3511 73.7476C89.6415 74.4616 88.6704 74.9 87.5872 74.9H83.7525V79.184H81.1504V74.9V67.046H83.7525H87.5872C89.7411 67.0335 91.4966 68.7997 91.4966 70.9668ZM88.9318 70.9668C88.9318 70.115 88.247 69.4135 87.388 69.4135H83.7525V72.5075H87.388C88.2346 72.52 88.9318 71.8185 88.9318 70.9668ZM106.96 74.399C106.96 75.7518 105.864 76.8541 104.52 76.8541H103.636C102.291 76.8541 101.195 75.7518 101.195 74.399V67.0335H98.5932V74.399C98.5932 77.0295 100.722 79.1715 103.337 79.1715H104.831C107.445 79.1715 109.574 77.0295 109.574 74.399V67.0335H106.972V74.399H106.96ZM161.841 76.4282L163.086 79.1715H160.484L159.239 76.4282H153.262L152.017 79.1715H149.403L150.648 76.4282L151.781 73.948L154.931 67.0335H157.558L160.708 73.948L161.841 76.4282ZM158.106 73.948L156.25 69.877L154.395 73.948H158.106ZM180.852 79.1715H177.914C177.914 79.1715 176.993 77.2925 176.42 76.09C175.847 74.8875 175.212 74.9 175.212 74.9H172.013V79.184H169.41V74.9V67.046H172.013H175.623C177.777 67.046 179.532 68.7997 179.532 70.9793C179.532 72.0691 179.097 73.0461 178.387 73.7601C178.287 73.8603 178.175 73.9605 178.076 74.0482C179.408 75.5138 180.852 79.1715 180.852 79.1715ZM172.013 72.52H175.411C176.258 72.52 176.955 71.8311 176.955 70.9668C176.955 70.115 176.271 69.4135 175.411 69.4135H172.013V72.52ZM139.156 71.9188C139.156 71.9188 135.272 71.4052 135.633 70.2152C136.006 69.0252 139.405 68.5993 141.385 70.8039L143.153 69.1504C143.153 69.1504 141.684 66.9834 137.799 66.9834C133.915 66.9834 133.155 69.2632 133.155 69.2632C133.155 69.2632 131.699 72.7455 136.878 73.7852C136.878 73.7852 141.173 74.4365 140.775 75.7267C140.389 77.0044 136.977 77.756 134.438 75.1631L132.533 76.9418C132.533 76.9418 134.114 79.2717 138.285 79.2717C142.456 79.2717 143.277 76.8165 143.277 76.8165C143.277 76.8165 144.722 73.0336 139.156 71.9188Z" fill="#5A23AF"/>
<path d="M105.764 88.4912H109.71V89.4808H108.366V92.913H107.121V89.4808H105.776V88.4912H105.764ZM116.595 91.5225L117.542 92.913H116.209L115.413 91.7355H114.74V92.913H113.495V88.4912H115.5C115.898 88.4912 116.247 88.5538 116.533 88.6916C116.832 88.8294 117.056 89.0173 117.205 89.2553C117.367 89.5058 117.442 89.7939 117.442 90.1196C117.442 90.4453 117.367 90.7209 117.218 90.9589C117.093 91.1968 116.869 91.3847 116.595 91.5225ZM116.209 90.1321C116.209 89.9317 116.147 89.7689 116.01 89.6561C115.873 89.5434 115.687 89.4808 115.438 89.4808H114.753V90.771H115.438C115.687 90.771 115.886 90.7209 116.01 90.6081C116.135 90.4954 116.209 90.3325 116.209 90.1321ZM124.103 88.4912L126.045 92.913H124.75L124.402 92.0486H122.547L122.198 92.913H120.928L122.87 88.4912H124.103ZM124.053 91.1342L123.493 89.7188L122.933 91.1342H124.053ZM133.951 89.5309C134.15 89.8691 134.262 90.2574 134.262 90.6958C134.262 91.1467 134.163 91.5351 133.951 91.8607C133.752 92.199 133.453 92.4495 133.08 92.6374C132.706 92.8253 132.283 92.913 131.797 92.913H129.718V88.4912H131.797C132.283 88.4912 132.706 88.5789 133.08 88.7668C133.466 88.9421 133.752 89.2052 133.951 89.5309ZM133.005 90.6958C133.005 90.32 132.893 90.0194 132.669 89.8064C132.445 89.5935 132.133 89.4808 131.76 89.4808H130.975V91.9109H131.76C132.133 91.9109 132.445 91.7981 132.669 91.5852C132.893 91.3722 133.005 91.0841 133.005 90.6958ZM138.246 92.913H139.491V88.4912H138.246V92.913ZM146.663 90.8461L144.721 88.4912H143.7V92.913H144.92V90.558L146.862 92.913H147.883V88.4912H146.663V90.8461ZM154.145 91.3221H155.029V91.8232C154.818 91.9234 154.594 91.9735 154.357 91.9735C154.108 91.9735 153.896 91.9234 153.71 91.8106C153.523 91.6979 153.374 91.5601 153.274 91.3597C153.174 91.1718 153.112 90.9463 153.112 90.7083C153.112 90.32 153.224 90.0194 153.461 89.7939C153.685 89.5684 153.996 89.4557 154.37 89.4557C154.78 89.4557 155.141 89.6185 155.44 89.9442L156.237 89.2302C156.025 88.9672 155.752 88.7668 155.415 88.629C155.079 88.4912 154.718 88.416 154.307 88.416C153.834 88.416 153.423 88.5162 153.05 88.7041C152.676 88.892 152.39 89.1676 152.178 89.5183C151.967 89.8691 151.867 90.2699 151.867 90.7083C151.867 91.1467 151.967 91.5476 152.178 91.8983C152.39 92.2491 152.676 92.5246 153.05 92.7125C153.423 92.913 153.834 93.0006 154.295 93.0006C154.619 93.0006 154.942 92.9505 155.278 92.8503C155.602 92.7501 155.888 92.6123 156.15 92.437V91.3221V90.6081V90.5204H154.17V91.3221H154.145Z" fill="#5A23AF"/>
</svg>
