<svg width="262" height="113" viewBox="0 0 262 113" fill="none" xmlns="http://www.w3.org/2000/svg">
<path d="M111.128 45.0976C113.037 44.8283 114.749 43.8412 116.637 42.7345L116.722 42.685C118.844 41.4408 121.206 40.0562 124.066 40.0562C126.927 40.0562 129.289 41.4408 131.411 42.685L131.495 42.7345C133.714 44.0348 135.69 45.1699 138.027 45.1699C140.363 45.1699 142.339 44.0348 144.557 42.7345L144.642 42.685C145.808 42.0011 147.047 41.2748 148.402 40.7593C147.417 31.5382 139.436 24.3496 129.735 24.3496C119.37 24.3496 110.967 32.558 110.967 42.6835C110.967 43.5018 111.022 44.3076 111.128 45.0976Z" fill="#DA3427"/>
<path d="M111.984 48.3888C113.56 47.9871 115.035 47.1346 116.637 46.1959L116.721 46.1464C118.843 44.9022 121.205 43.5176 124.065 43.5176C126.926 43.5176 129.288 44.9022 131.41 46.1464L131.494 46.1959C133.713 47.4962 135.689 48.6313 138.026 48.6313C140.362 48.6313 142.338 47.4962 144.556 46.1959L144.641 46.1464C145.867 45.4277 147.173 44.6622 148.608 44.1437C148.556 44.8048 148.468 45.4561 148.346 46.0957C147.395 46.5249 146.449 47.0747 145.454 47.6575L145.37 47.7071C143.247 48.9512 140.886 50.3359 138.026 50.3359C135.165 50.3359 132.803 48.9512 130.681 47.7071L130.597 47.6575C128.378 46.3573 126.402 45.2221 124.065 45.2221C121.729 45.2221 119.753 46.3573 117.534 47.6575L117.45 47.7071C115.978 48.5698 114.391 49.5001 112.603 49.9895C112.372 49.468 112.166 48.934 111.984 48.3888Z" fill="#242424"/>
<path d="M114.082 52.6874C114.403 53.1716 114.747 53.64 115.113 54.0913C115.929 53.6856 116.704 53.2311 117.45 52.794L117.534 52.7445C119.753 51.4443 121.728 50.3091 124.065 50.3091C126.402 50.3091 128.378 51.4443 130.596 52.7445L130.681 52.794C132.803 54.0382 135.165 55.4228 138.025 55.4228C140.886 55.4228 143.247 54.0382 145.37 52.794L145.454 52.7445C145.541 52.6937 145.627 52.643 145.714 52.5926C146.286 51.7184 146.784 50.7936 147.201 49.8268C146.303 50.259 145.454 50.7565 144.641 51.2333L144.556 51.2829C142.337 52.5831 140.362 53.7183 138.025 53.7183C135.689 53.7183 133.712 52.5831 131.494 51.2829L131.41 51.2333C129.287 49.9892 126.925 48.6045 124.065 48.6045C121.205 48.6045 118.843 49.9892 116.721 51.2333L116.636 51.2829C115.759 51.7968 114.92 52.285 114.082 52.6874Z" fill="#242424"/>
<path d="M138.025 58.8061C138.377 58.8061 138.721 58.7803 139.06 58.732L139.027 58.7496C140.909 58.4752 142.6 57.5002 144.464 56.4079L144.548 56.3588C146.656 55.1233 149.001 53.7483 151.841 53.7483V55.441C149.521 55.441 147.558 56.5682 145.356 57.8593L145.271 57.9085C143.164 59.1439 140.819 60.519 137.979 60.519C135.139 60.519 132.793 59.1439 130.686 57.9085L130.602 57.8593C128.399 56.5682 126.437 55.3971 124.116 55.3971C124.099 55.397 124.082 55.3969 124.065 55.3969C122.054 55.3969 120.31 56.2376 118.449 57.3006C117.96 56.9344 117.489 56.5452 117.039 56.1346C119.079 54.9427 121.347 53.6924 124.065 53.6924C126.925 53.6924 129.287 55.077 131.409 56.3212L131.494 56.3707C133.712 57.671 135.688 58.8061 138.025 58.8061Z" fill="#242424"/>
<path d="M130.799 61.052C128.835 59.9144 126.655 58.7803 124.066 58.7803C123.157 58.7803 122.299 58.9201 121.482 59.1507C124.007 60.3817 126.854 61.0742 129.867 61.0742C130.18 61.0742 130.49 61.0667 130.799 61.052Z" fill="#242424"/>
<path d="M76.7921 88.6187H88.1207V87.0571C86.4669 87.1648 83.6555 87.2456 81.8087 87.2994V87.2456C86.4118 86.0878 88.2034 83.126 88.2034 79.1681C88.2034 74.2408 84.3721 70.2559 76.7921 70.2559C69.1571 70.2559 65.3809 74.2408 65.3809 79.3565C65.3809 84.8762 69.1295 88.6187 76.7921 88.6187ZM76.7921 87.0571C70.3423 87.0571 67.2 83.9876 67.2 79.3565C67.2 75.1023 70.3699 71.8175 76.7921 71.8175C83.2145 71.8175 86.3843 75.1023 86.3843 79.3565C86.3843 83.6376 83.3798 87.0571 76.7921 87.0571Z" fill="#242424"/>
<path d="M104.677 88.6189C111.099 88.6189 114.793 85.9533 114.793 80.326V70.5791H113.084V80.1375C113.084 84.8225 110.052 87.0573 104.677 87.0573C99.3294 87.0573 96.2975 84.8225 96.2975 80.1375V70.5791H94.5059V80.326C94.5059 85.9533 98.282 88.6189 104.677 88.6189Z" fill="#242424"/>
<path d="M121.84 88.2958H131.046C138.35 88.2958 141.245 85.0379 141.245 79.4375C141.245 74.7256 138.626 70.5791 130.302 70.5791H121.84V88.2958ZM123.632 86.7342V72.1408H130.302C137.276 72.1408 139.425 75.3718 139.425 79.4375C139.425 84.2302 137.027 86.7342 131.018 86.7342H123.632Z" fill="#242424"/>
<path d="M167.543 88.2958H169.693L158.365 70.5791H156.353L145.023 88.2958H147.036L149.847 83.8801H164.732L167.543 88.2958ZM150.757 82.4531L157.262 72.2216H157.317L163.822 82.4531H150.757Z" fill="#242424"/>
<path d="M174.154 88.2958H176.663L185.29 80.4337L194.028 88.2958H196.619L186.668 79.2759L196.343 70.5791H193.835L185.483 78.1989L177.021 70.5791H174.43L184.105 79.3029L174.154 88.2958Z" fill="#242424"/>
</svg>
