<svg width="262" height="113" viewBox="0 0 262 113" fill="none" xmlns="http://www.w3.org/2000/svg">
<path d="M109.301 40.6664H97.0209L94.5645 37.0674H109.301C113.395 37.0674 115.441 38.6671 115.441 41.8664V43.0658C115.441 45.6336 114.123 47.1693 111.487 47.6732L115.441 53.864H109.301L103.161 44.2658H109.301C110.12 44.2658 110.529 43.8658 110.529 43.0659V41.8663C110.529 41.0666 110.12 40.6666 109.301 40.6664ZM101.933 53.864H97.0209V41.8663H101.933V53.864Z" fill="#191919"/>
<path d="M136.096 40.6664H118.904L116.447 37.0674H136.096V40.6664ZM118.904 41.8663H123.816V50.2645H136.096V53.864H118.904V41.8663ZM136.096 47.865H128.728L125.044 44.2659H136.096V47.865Z" fill="#191919"/>
<path d="M151.838 40.6664H139.558L137.102 37.0674H151.838C155.932 37.0674 157.978 38.6671 157.979 41.8664V49.0649C157.979 52.2645 155.932 53.8642 151.838 53.864H145.698V50.2645H151.838C152.657 50.2645 153.066 49.8646 153.066 49.0649V41.8663C153.066 41.0666 152.657 40.6666 151.838 40.6664ZM144.47 53.864H139.558V41.8663H144.47V53.864Z" fill="#191919"/>
<path d="M166.354 49.0649H161.441V37.0674H166.354V49.0649ZM161.441 50.2645H178.634V53.864H161.441V50.2645Z" fill="#191919"/>
<path d="M182.098 37.0674H187.01V53.864H182.098V37.0674Z" fill="#191919"/>
<path d="M190.471 33.4668L208.891 51.4635V57.4626L190.471 39.4659V33.4668ZM195.383 45.9446V53.863H190.471V41.1456L195.383 45.9446ZM203.979 44.9847V37.0665H208.891V49.7839L203.979 44.9847Z" fill="#191919"/>
<path d="M229.547 40.6664H212.355L209.898 37.0674H229.547V40.6664ZM212.355 41.8663H217.267V50.2645H229.547V53.864H212.355V41.8663ZM229.547 47.865H222.179L218.495 44.2659H229.547V47.865Z" fill="#191919"/>
<path d="M110.254 66.0874H97.974L95.5176 62.4883H110.254C114.348 62.4883 116.394 64.088 116.395 67.2873V74.4859C116.395 77.6855 114.348 79.2852 110.254 79.285H104.114V75.6855H110.254C111.073 75.6855 111.482 75.2857 111.482 74.4859V67.2873C111.482 66.4876 111.073 66.0876 110.254 66.0874ZM102.886 79.285H97.974V67.2873H102.886V79.285Z" fill="#191919"/>
<path d="M126.832 71.7021L122.89 79.2848H117.609L124.265 66.7352L126.832 71.7021ZM125.014 65.3194L127.556 60.5322L137.504 79.2848H132.223L125.014 65.3194Z" fill="#191919"/>
<path d="M143.668 74.4859C143.668 75.2857 144.077 75.6855 144.896 75.6855V79.285C140.802 79.285 138.756 77.6853 138.756 74.4859V67.2873C138.756 64.0881 140.803 62.4884 144.896 62.4883H149.808V66.0874H144.896C144.077 66.0874 143.668 66.4874 143.668 67.2873V74.4859ZM152.264 67.2873C152.264 66.4876 151.855 66.0876 151.036 66.0874V62.4883C155.13 62.4883 157.176 64.088 157.176 67.2873V74.4859C157.176 77.6855 155.13 79.2852 151.036 79.285H146.124V75.6855H151.036C151.855 75.6855 152.264 75.2857 152.264 74.4859V67.2873Z" fill="#191919"/>
<path d="M58.7368 80.5481C44.4139 80.5481 32.5386 71.4336 32.265 60.2306L32.168 56.2637L34.2325 59.681C38.9809 67.5439 48.3706 72.428 58.7368 72.428C69.1019 72.428 78.4915 67.5439 83.241 59.681L85.3056 56.2642L85.2086 60.2306C84.935 71.4336 73.0597 80.5481 58.7368 80.5481Z" fill="url(#paint0_linear_2770_10421)"/>
<path d="M58.7368 84.8133C44.4139 84.8133 32.5386 74.098 32.265 60.9274L32.168 56.2637L34.2325 60.2812C38.9809 69.525 48.3706 75.2671 58.7368 75.2671C69.1019 75.2671 78.4915 69.525 83.241 60.2812L85.3056 56.2643L85.2086 60.9274C84.935 74.098 73.0597 84.8133 58.7368 84.8133Z" fill="#FF5F44"/>
<path d="M58.7382 64.9207L56.4248 66.9825L57.3528 32.9257H53.8047L58.7382 28.1074L63.6693 32.9257H60.1235L61.0516 66.9825L58.7382 64.9207Z" fill="#FF5F44"/>
<path d="M58.7372 46.1842C66.0598 46.1842 72.7397 48.5122 77.82 52.3397C76.4771 48.4342 73.9127 45.0394 70.4887 42.6344C67.0648 40.2294 62.9542 38.9355 58.7372 38.9355C54.5201 38.9355 50.4095 40.2294 46.9856 42.6344C43.5617 45.0394 40.9972 48.4342 39.6543 52.3397C44.7346 48.5122 51.4145 46.1842 58.7372 46.1842Z" fill="#FF5F44"/>
<defs>
<linearGradient id="paint0_linear_2770_10421" x1="32.1679" y1="68.4059" x2="85.3056" y2="68.4059" gradientUnits="userSpaceOnUse">
<stop stop-color="#FF5E44"/>
<stop offset="1" stop-color="#FF3B44"/>
</linearGradient>
</defs>
</svg>
