<svg width="262" height="113" viewBox="0 0 262 113" fill="none" xmlns="http://www.w3.org/2000/svg">
<path fill-rule="evenodd" clip-rule="evenodd" d="M88.0677 35C89.6254 35 91.0498 35.2834 92.3411 35.8501C93.6323 36.4169 94.7493 37.1658 95.6921 38.0969C97.4834 39.9429 98.4239 42.0446 98.5134 44.402L98.5205 44.7764V47.8125H92.2488V46.4159L92.2418 46.0657C92.1901 44.7963 91.8543 43.6884 91.2343 42.7422C90.5579 41.7099 89.4204 41.1937 87.8217 41.1937C86.9609 41.1937 86.2641 41.3557 85.7312 41.6795C85.1983 42.0034 84.7679 42.4082 84.4399 42.894C84.112 43.4203 83.8866 44.0174 83.7636 44.6853C83.6406 45.3533 83.5791 46.0516 83.5791 46.7803C83.5791 47.6304 83.6099 48.3388 83.6714 48.9056C83.7328 49.4723 83.8866 49.9783 84.1325 50.4236C84.3785 50.8689 84.7371 51.2535 85.2085 51.5774C85.6126 51.855 86.1446 52.1326 86.8047 52.4101L87.1454 52.5489L91.9414 54.4314L92.3961 54.6101C93.5823 55.0959 94.558 55.6537 95.3232 56.2834C96.184 56.9918 96.8604 57.8116 97.3523 58.7427C97.8032 59.7143 98.1106 60.8174 98.2746 62.0521C98.4385 63.2868 98.5205 64.6935 98.5205 66.2723C98.5205 68.0864 98.3376 69.77 97.9717 71.3231L100.612 70.5406C100.24 71.8515 99.6954 72.9847 98.9789 73.94C98.118 75.0735 96.9908 75.9641 95.5971 76.6118C94.2034 77.2595 92.5022 77.5834 90.4936 77.5834C88.977 77.5834 87.5628 77.3202 86.251 76.794C85.61 76.5368 85.013 76.2313 84.4601 75.8774L81.104 76.8705C80.7393 76.5999 80.3961 76.3057 80.0744 75.988C79.1316 75.0569 78.3835 73.974 77.8301 72.7393C77.332 71.6281 77.0581 70.4267 77.0083 69.1351L77 68.7013V66.3938H83.2717V68.3369L83.2801 68.6433C83.336 69.6553 83.6714 70.5754 84.2862 71.4034C84.9626 72.3143 86.1001 72.7697 87.6988 72.7697C88.7645 72.7697 89.5946 72.6179 90.189 72.3143C90.7834 72.0107 91.2445 71.5755 91.5725 71.0087C91.9004 70.442 92.0951 69.7639 92.1566 68.9745C92.2181 68.1851 92.2488 67.3046 92.2488 66.3331C92.2488 65.1996 92.2078 64.2685 92.1258 63.5398C92.0439 62.8111 91.8799 62.2241 91.6339 61.7788C91.347 61.3335 90.9678 60.9692 90.4964 60.6858C90.0924 60.4429 89.5754 60.1852 88.9455 59.9125L88.6211 59.775L84.1325 57.9533L83.7127 57.7778C81.2386 56.7069 79.5647 55.3182 78.6909 53.6116C77.7686 51.8101 77.3074 49.5533 77.3074 46.841C77.3074 45.2217 77.5329 43.6834 77.9838 42.226C78.4347 40.7687 79.1111 39.5137 80.0129 38.4612C80.8737 37.4087 81.9702 36.5687 83.3024 35.9412C84.6347 35.3137 86.2231 35 88.0677 35ZM161.5 35C162.771 35 164.031 35.2227 165.282 35.668C166.532 36.1133 167.669 36.761 168.694 37.6111C169.678 38.5017 170.477 39.6149 171.092 40.9509C171.651 42.1653 171.956 43.5471 172.007 45.0961L172.014 45.5658L172.014 49.3829L174.808 48.5561L174.809 67.0176L174.803 67.4675C174.756 69.0972 174.451 70.5058 173.887 71.6932C173.272 72.9887 172.473 74.0614 171.489 74.9116C170.464 75.8022 169.327 76.4701 168.076 76.9154C166.826 77.3607 165.566 77.5834 164.295 77.5834C163.024 77.5834 161.764 77.3607 160.514 76.9154C159.263 76.4701 158.146 75.8022 157.163 74.9116C156.138 74.0614 155.318 72.9887 154.703 71.6932C154.139 70.5058 153.834 69.0972 153.787 67.4675L153.781 67.0176L153.779 55.3378L150.985 56.1653L150.986 45.5658L150.993 45.0961C151.044 43.5471 151.349 42.1653 151.908 40.9509C152.523 39.6149 153.343 38.5017 154.368 37.6111C155.351 36.761 156.468 36.1133 157.719 35.668C158.969 35.2227 160.229 35 161.5 35ZM116.206 35.3643L124.261 58.2569H124.384L132.378 35.3643H138.465L138.464 59.3217L141.259 58.4949L141.26 77.219H134.988L134.987 60.9046L132.193 61.7321L132.193 52.306H132.07L128.764 62.1958L131.354 61.4293L128.655 69.5072H125.519L123.772 64.2272L120.811 65.1046L116.575 52.306H116.452L116.452 65.8438L119.247 65.0169L119.247 77.219H112.976L112.975 67.4267L110.181 68.2541L110.181 35.3643H116.206ZM161.5 41.1937C160.352 41.1937 159.358 41.548 158.518 42.2564C157.734 42.9176 157.315 43.9226 157.263 45.2715L157.258 45.5658L157.257 53.755L160.051 52.9281L160.052 67.0176L160.058 67.3119C160.11 68.6607 160.529 69.6658 161.313 70.327C162.153 71.0354 163.147 71.3896 164.295 71.3896C165.443 71.3896 166.437 71.0354 167.277 70.327C168.061 69.6658 168.48 68.6607 168.532 67.3119L168.538 67.0176L168.537 50.9658L165.742 51.7932L165.743 45.5658L165.737 45.2715C165.685 43.9226 165.267 42.9176 164.482 42.2564C163.642 41.548 162.648 41.1937 161.5 41.1937ZM177.954 41.2904L185.027 45.0782L181.149 52.3863L177.954 41.2904Z" fill="#1A1A1A"/>
</svg>
