<svg width="262" height="113" viewBox="0 0 262 113" fill="none" xmlns="http://www.w3.org/2000/svg">
<path d="M100.469 71.2322H96V69.1699H107.263V71.2322H102.794V84.239H100.469V71.2322Z" fill="black"/>
<path d="M109.875 69.1689H112.2V84.2387H109.875V69.1689Z" fill="black"/>
<path d="M119.258 71.2322H114.787V69.1699H126.053V71.2322H121.583V84.239H119.258V71.2322Z" fill="black"/>
<path d="M144.708 75.4422C144.113 74.7991 143.295 73.7581 143.295 73.7581C143.295 73.7581 143.448 74.9968 143.448 75.9297V84.2399H141.279V69.0176H141.59L149.889 77.9468C150.463 78.5677 151.283 79.6291 151.283 79.6291C151.283 79.6291 151.128 78.2984 151.128 77.4588V69.1702H153.299V84.3943H153.009L144.708 75.4422Z" fill="black"/>
<path d="M155.576 81.3123L157.503 80.2484C158.213 81.4247 159.117 82.3558 160.954 82.3558C162.483 82.3558 163.567 81.536 163.567 80.2948C163.567 78.9862 162.683 78.4104 161.046 77.6796L160.049 77.2354C157.856 76.2599 156.53 75.1527 156.53 72.8261C156.53 70.5884 158.254 68.9932 160.755 68.9932C162.749 68.9932 164.099 69.7463 165.007 71.3656L163.168 72.4961C162.593 71.4978 161.93 71.0313 160.755 71.0313C159.561 71.0313 158.809 71.7628 158.809 72.7828C158.809 73.9128 159.451 74.4212 160.978 75.0872L161.951 75.5296C164.519 76.6596 165.89 77.8563 165.89 80.2713C165.89 82.9063 163.831 84.4378 160.998 84.4378C158.144 84.4384 156.417 83.0187 155.576 81.3123Z" fill="black"/>
<path d="M136.39 84.2388H138.824L132.227 69.0166H131.964L125.523 84.2388H127.781L128.526 82.3879H135.635L136.39 84.2388ZM129.281 80.514L131.323 75.4418C131.699 74.5547 132.052 73.2041 132.052 73.2041C132.052 73.2041 132.429 74.5553 132.803 75.4418L134.871 80.514H129.281Z" fill="black"/>
<path d="M108.483 95.3522C108.461 95.4072 108.438 95.4715 108.417 95.5382C108.395 95.4721 108.373 95.4084 108.351 95.3535L105.921 89.1426H105.115L108.238 97.029H108.572L111.683 89.1426H110.912L108.483 95.3522Z" fill="black"/>
<path d="M113.656 94.25H117.127V93.5488H113.656V89.8444H117.527V89.1426H112.908V96.94H117.68V96.2382H113.656V94.25Z" fill="black"/>
<path d="M124.304 95.3543C124.304 95.3604 124.304 95.3672 124.304 95.3734C124.292 95.358 124.281 95.3425 124.27 95.3277L119.494 89.0557H119.139V96.9402H119.855V90.7269C119.855 90.7207 119.855 90.7145 119.855 90.7083C119.866 90.7244 119.878 90.7398 119.889 90.7546L124.664 97.0285H125.019V89.1422H124.304V95.3543Z" fill="black"/>
<path d="M126.199 89.8444H128.547V96.94H129.294V89.8444H131.645V89.1426H126.199V89.8444Z" fill="black"/>
<path d="M137.288 94.2642C137.288 95.5542 136.577 96.3247 135.385 96.3247C134.2 96.3247 133.492 95.5542 133.492 94.2642V89.1426H132.744V94.297C132.744 95.9564 133.781 97.029 135.385 97.029C136.995 97.029 138.035 95.9564 138.035 94.297V89.1426H137.288V94.2642Z" fill="black"/>
<path d="M144.636 92.0271C144.636 90.2478 143.449 89.1426 141.539 89.1426H139.9V96.94H140.647V94.9031H141.539C141.846 94.9031 142.142 94.8753 142.401 94.8227L143.931 96.94H144.838L143.134 94.5707C144.091 94.1116 144.636 93.1954 144.636 92.0271ZM140.647 89.8444H141.497C143.571 89.8444 143.881 91.2116 143.881 92.0271C143.881 92.8377 143.571 94.1981 141.497 94.1981H140.647V89.8444Z" fill="black"/>
<path d="M147.042 94.25H150.511V93.5488H147.042V89.8444H150.914V89.1426H146.295V96.94H151.064V96.2382H147.042V94.25Z" fill="black"/>
<path d="M154.913 92.5914L154.229 92.2738C153.313 91.8432 153.033 91.5152 153.033 90.8696C153.033 90.1733 153.493 89.7575 154.263 89.7575C155.055 89.7575 155.423 90.1838 155.678 90.6002L155.759 90.733L156.363 90.3333L156.283 90.2054C155.8 89.4319 155.139 89.0557 154.263 89.0557C153.125 89.0557 152.298 89.8248 152.298 90.8844C152.298 91.9619 152.949 92.4882 153.927 92.9485L154.614 93.2704C155.664 93.7622 156.037 94.2039 156.037 94.9582C156.037 95.7626 155.374 96.3249 154.426 96.3249C153.254 96.3249 152.766 95.6799 152.471 95.1176L152.403 94.9873L151.756 95.3079L151.821 95.4457C152.167 96.1685 152.901 97.0298 154.435 97.0298C155.811 97.0298 156.772 96.1778 156.772 94.9589C156.773 93.903 156.217 93.195 154.913 92.5914Z" fill="black"/>
<path d="M131.862 42.9764L121.633 27.0227H130.322V34.4834L132.794 37.9715V23.8916H115.727L131.862 48.2532L146.15 27.0227H152.431L131.862 59.4096L108.949 24.0572L108.841 23.8916H105.373L131.559 64.2199L131.862 64.6833L158.339 23.8916H144.544L131.862 42.9764Z" fill="black"/>
<path d="M101.291 16L103.024 18.6486H160.689L162.422 16H101.291Z" fill="black"/>
</svg>
