<svg width="262" height="113" viewBox="0 0 262 113" fill="none" xmlns="http://www.w3.org/2000/svg">
<path d="M169.444 52.8582C169.432 52.8463 169.423 52.8367 169.411 52.8248C169.476 52.8224 169.538 52.8224 169.603 52.82C169.631 52.82 169.66 52.8081 169.444 52.8582ZM161.278 51.2114C161.301 48.3475 161.285 45.4859 161.29 42.6219C161.29 42.3928 161.33 42.1661 161.352 41.9489C163.401 41.7341 164.355 42.2305 164.482 43.7389C164.547 44.4978 164.442 45.4215 164.041 46.0277C163.67 46.5933 162.807 46.8391 162.272 47.1589C162.541 47.6172 162.953 48.1899 163.236 48.8224C164.835 52.3833 165.607 52.9202 169.411 52.8248C168.821 52.2544 168.131 51.6911 167.584 51.0133C166.647 49.8534 165.806 48.6172 164.938 47.4334C166.693 46.5909 167.452 45.4 167.179 43.7771C166.932 42.3188 165.796 41.3164 164.029 41.2401C162.001 41.1542 159.966 41.221 157.749 41.221C158.658 41.5694 158.823 42.1542 158.816 42.9012C158.787 45.6458 158.789 48.3904 158.813 51.1327C158.821 51.9226 158.624 52.5241 157.576 52.789C159.302 52.789 160.798 52.789 162.294 52.789C161.481 52.5455 161.27 51.9895 161.278 51.2114ZM199.669 42.6864C199.66 44.2067 199.667 45.7293 199.667 47.2496C199.667 47.7365 199.667 48.2234 199.667 48.968C196.723 46.1804 193.995 43.5981 191.246 40.9919C191.246 44.474 191.239 47.8129 191.251 51.1494C191.253 51.9656 191.093 52.6243 190.158 52.8105C191.646 52.8105 193.133 52.8105 194.621 52.8105C193.753 52.5861 193.566 51.9799 193.602 51.1828C193.641 50.3188 193.612 49.4525 193.612 48.5885C193.612 47.474 193.612 46.3618 193.612 45.0205C196.534 47.789 199.269 50.3809 202.031 52.999C202.031 49.5432 202.04 46.1828 202.023 42.8224C202.021 42.1184 202.126 41.5241 203.121 41.221C201.491 41.221 200.122 41.221 198.751 41.221C199.475 41.4644 199.674 42.0014 199.669 42.6864ZM150.529 58.6124C148.503 58.5193 146.471 58.5885 144.225 58.5885C145.157 58.9298 145.31 59.5264 145.306 60.2568C145.286 62.9966 145.289 65.7365 145.303 68.4787C145.308 69.2257 145.14 69.8343 144.352 70.1637C145.833 70.1637 147.314 70.1637 148.793 70.1637C147.947 69.9131 147.756 69.314 147.763 68.5193C147.787 65.6887 147.77 62.8606 147.775 60.03C147.775 59.7747 147.815 59.5169 147.837 59.2782C149.872 59.0515 150.819 59.6291 151.052 61.1804C151.32 62.9751 150.423 64.1517 148.479 64.5646C148.506 64.6171 148.52 64.6816 148.561 64.7174C148.626 64.7747 148.705 64.8224 148.786 64.8582C150.136 65.4715 151.428 65.3641 152.559 64.4095C153.707 63.4405 153.957 62.1374 153.54 60.7508C153.103 59.3021 151.922 58.6768 150.529 58.6124ZM141.034 41.2878C138.937 41.1589 136.825 41.2568 134.972 41.2568C135.144 41.7341 135.492 42.2592 135.502 42.7938C135.557 45.5933 135.514 48.3928 135.535 51.1923C135.542 51.9823 135.31 52.5575 134.507 52.8057C135.991 52.8057 137.472 52.8057 138.754 52.8057C138.527 52.4214 138.047 51.9847 138.038 51.5384C137.971 48.5026 137.99 45.462 138.023 42.4238C138.026 42.2305 138.368 41.894 138.579 41.8701C140.428 41.6649 141.533 42.8224 141.317 44.6744C141.14 46.1947 140.224 46.9942 138.661 47.209C139.96 48.0611 141.367 48.0539 142.539 47.2639C143.668 46.5026 144.174 45.116 143.863 43.6267C143.609 42.3809 142.58 41.3809 141.034 41.2878ZM209.287 52.0372C209.287 50.536 209.287 49.0324 209.287 47.5336C212.024 47.2544 212.518 47.4286 213.028 48.6482C213.028 48.1112 213.028 47.5766 213.028 47.0396C213.028 46.5026 213.028 45.9656 213.028 45.431C212.578 46.7365 211.883 46.9608 209.291 46.6434C209.291 45.0826 209.291 43.5193 209.291 41.8153C210.909 42.1828 212.894 40.9799 213.779 43.2019C213.779 42.5121 213.779 41.7556 213.779 41.1327C211.092 41.1327 208.484 41.1327 206.106 41.1327C206.338 41.7174 206.712 42.2377 206.724 42.7651C206.784 45.5074 206.734 48.252 206.762 50.9966C206.772 51.8129 206.635 52.4835 205.554 52.8033C208.539 52.8033 211.291 52.8033 214.1 52.8033C214.337 51.7508 214.575 50.7126 214.809 49.6768C213.563 52.0324 212.561 52.3856 209.287 52.0372ZM111.881 37.7508C110.586 38.4238 109.805 39.6076 109.234 40.9203C108.165 43.3785 107.108 45.8415 106.044 48.2997C105.931 48.5599 105.799 48.8105 105.588 49.2448C104.598 46.8463 103.661 44.6363 102.796 42.4C102.671 42.0778 102.903 41.6219 102.968 41.2472C101.635 41.2472 100.142 41.2472 98.8691 41.2472C99.2191 41.6983 99.7249 42.1613 100.001 42.7365C101.631 46.147 103.208 49.5813 104.852 53.1136C106.715 49.0444 108.505 45.1255 110.303 41.2067C111.176 39.3069 112.259 37.6172 114.496 37.0205C113.573 37.1565 112.669 37.3427 111.881 37.7508ZM112.513 52.7866C115.162 52.8296 117.765 52.8367 120.369 52.8152C120.584 52.8128 120.944 52.6553 120.987 52.5002C121.239 51.5909 121.416 50.6625 121.618 49.7413C120.362 51.968 118.619 52.6983 116.121 52.0014C116.121 50.4883 116.121 48.9847 116.121 47.3952C117.437 47.6697 119.019 46.7532 119.844 48.7842C119.844 48.0658 119.844 47.5718 119.844 47.0754C119.844 46.5623 119.844 46.0468 119.844 45.5336C119.326 46.7436 118.731 46.9465 116.049 46.6362C116.049 45.8821 116.049 45.1136 116.049 44.3451C116.049 43.5479 116.049 42.7532 116.049 41.8678C117.046 41.8678 117.938 41.8749 118.827 41.8654C119.863 41.8558 120.354 42.5026 120.666 43.5336C120.666 42.5909 120.666 41.8176 120.666 41.1351C117.952 41.1351 115.32 41.1351 112.691 41.1351C113.424 41.5289 113.578 42.0706 113.573 42.7627C113.556 45.567 113.547 48.3713 113.578 51.1732C113.585 51.9775 113.35 52.5408 112.513 52.7866ZM149.867 52.03C149.867 50.5288 149.867 49.0253 149.867 47.4191C151.195 47.6506 152.765 46.7508 153.578 48.6768C153.578 47.5479 153.578 46.5384 153.578 45.4668C152.948 46.8009 151.874 47.1207 149.879 46.6219C149.879 45.0587 149.879 43.4931 149.879 41.8654C150.63 41.8654 151.318 41.8964 152.001 41.8582C153.199 41.7914 154.134 42.0873 154.386 43.6267C154.386 42.5957 154.386 41.7866 154.386 41.1088C151.692 41.1088 149.069 41.1088 146.447 41.1088C147.183 41.5217 147.346 42.0802 147.338 42.8033C147.314 45.6076 147.312 48.4119 147.338 51.2138C147.346 51.9918 147.104 52.5312 146.36 52.8081C149.112 52.8081 151.862 52.8081 154.693 52.8081C154.93 51.7723 155.165 50.7436 155.4 49.715C154.093 52.0396 153.207 52.3952 149.867 52.03ZM141.063 68.5073C141.386 69.147 141.938 69.672 142.319 70.1637H137.695C138.517 69.8009 138.476 69.3045 138.256 68.7126C137.587 66.9322 137.599 66.9274 135.717 66.9274H135.449C133.498 66.9274 133.505 66.9322 132.802 68.7269C132.57 69.3164 132.546 69.8128 133.39 70.1613H130.47C130.83 69.7054 131.424 69.1804 131.726 68.524C133.284 65.1446 134.766 61.7293 136.329 58.2066C137.235 60.1852 138.105 62.073 138.97 63.9632C139.663 65.4811 140.308 67.0229 141.063 68.5073ZM137.237 66.2066C136.698 64.8415 136.194 63.5694 135.605 62.0825C134.974 63.5861 134.449 64.8367 133.874 66.2066H137.237ZM186.55 70.1708H181.792C182.499 69.7269 182.437 69.1804 182.159 68.5837C181.993 68.2353 181.931 67.82 181.708 67.5193C181.514 67.2615 181.171 66.9775 180.874 66.956C179.951 66.882 179.018 66.8892 178.096 66.9536C177.82 66.9727 177.491 67.2353 177.321 67.4787C177.084 67.8128 176.993 68.2424 176.808 68.6147C176.497 69.252 176.439 69.8081 177.4 70.1804H174.15C175.013 69.9369 175.392 69.2734 175.722 68.5169C177.216 65.1064 178.733 61.7078 180.275 58.2329C180.471 58.6386 180.658 58.999 180.826 59.3689C182.216 62.4047 183.609 65.4381 184.985 68.4787C185.32 69.2233 185.673 69.9226 186.55 70.1708ZM181.185 66.1828C180.636 64.8033 180.133 63.536 179.558 62.0897C178.937 63.5694 178.405 64.8462 177.846 66.1828H181.185ZM128.406 65.6911C128.286 66.1183 128.188 66.5503 128.044 66.9704C127.407 68.8486 126.297 69.6649 124.319 69.7341C122.493 69.7985 121.076 68.9226 120.426 67.1637C119.709 65.2257 119.678 63.2448 120.522 61.326C121.215 59.7484 122.502 58.9704 124.214 58.9608C125.93 58.9513 127.193 59.7078 127.886 61.3188C127.951 61.4692 128.027 61.6171 128.097 61.7651C128.224 61.1613 128.176 60.579 128.236 60.0038C128.303 59.3427 128.013 59.0396 127.419 58.8439C125.309 58.1565 123.185 58.0658 121.076 58.7675C119.264 59.3689 118.012 60.5861 117.483 62.4548C116.313 66.5742 118.787 70.0658 123.092 70.3641C124.789 70.4811 126.474 70.4357 127.824 69.2066C128.193 68.8701 128.555 68.3689 128.627 67.8988C128.739 67.1851 128.598 66.431 128.562 65.6935C128.516 65.6911 128.461 65.6911 128.406 65.6911ZM130.391 46.8821C129.221 46.1064 128.03 45.3618 126.862 44.5814C126.323 44.221 125.872 43.7651 126.026 43.0348C126.184 42.283 126.695 41.7985 127.435 41.7198C128.068 41.6506 128.794 41.6124 129.348 41.8558C129.909 42.1016 130.309 42.7126 130.748 43.1327C130.791 42.5575 130.844 41.8654 130.911 41.0038C129.502 41.0038 128.188 40.9227 126.886 41.0253C125.465 41.1374 124.453 42.0587 124.175 43.2639C123.842 44.7126 124.312 45.9059 125.573 46.7484C126.74 47.5288 127.924 48.2854 129.089 49.0682C129.739 49.505 130.079 50.1088 129.89 50.9083C129.696 51.7317 129.099 52.1494 128.313 52.3069C126.186 52.7317 124.679 51.6171 124.425 49.4572C124.338 49.4382 124.254 49.4167 124.168 49.3976C124.053 50.0467 123.828 50.7031 123.861 51.3451C123.88 51.7293 124.218 52.2806 124.561 52.4382C126.385 53.2687 128.289 53.3665 130.103 52.4549C132.371 51.314 132.5 48.2806 130.391 46.8821ZM174.43 41.9083C174.43 44.9752 174.414 48.0133 174.44 51.0515C174.447 51.8677 174.289 52.5145 173.193 52.7818C174.924 52.7818 176.418 52.7818 178.182 52.7818C177.153 52.5384 176.897 52.0348 176.907 51.2806C176.931 49.0754 176.916 46.8678 176.916 44.6625C176.916 43.746 176.916 42.8296 176.916 41.8439C177.784 41.8439 178.553 41.8224 179.323 41.8487C180.258 41.8797 180.677 42.5408 180.962 43.4334C180.962 42.5265 180.962 41.758 180.962 41.0539C177.405 41.0539 173.891 41.0539 170.346 41.0539C170.346 41.7818 170.346 42.6124 170.346 43.4167C170.959 41.8081 171.676 41.5265 174.43 41.9083ZM170.07 70.1851C170.065 70.1851 170.06 70.1851 170.056 70.1851C170.025 70.1851 169.991 70.1851 169.96 70.1851C169.967 70.1947 169.974 70.2066 169.979 70.2162C170.022 70.2019 170.051 70.1923 170.07 70.1851ZM162.625 60.9059C163.15 59.1995 164.173 58.8057 166.707 59.2997C166.707 59.598 166.707 59.9179 166.707 60.2353C166.707 62.9179 166.688 65.6028 166.717 68.2854C166.726 69.1159 166.637 69.8319 165.441 70.1899C167.143 70.1899 168.553 70.1899 169.957 70.1875C169.703 69.7603 169.238 69.3164 169.231 68.8606C169.166 65.7317 169.202 62.6004 169.21 59.4692C169.21 59.3928 169.277 59.3164 169.305 59.2544C171.832 58.9155 172.467 59.147 173.217 60.5957C173.217 59.8892 173.217 59.1088 173.217 58.4143C169.646 58.4143 166.144 58.4143 162.625 58.4143C162.625 59.1708 162.625 59.9823 162.625 60.9059ZM170.07 70.1851C170.099 70.1828 170.118 70.1708 170.07 70.1851V70.1851ZM191.661 69.388C191.661 69.1398 191.661 68.8773 191.661 68.6171C191.661 65.8152 191.677 63.0133 191.649 60.2138C191.642 59.4883 191.819 58.9322 192.682 58.5861C191.093 58.5861 189.697 58.5861 188.072 58.5861C189.022 58.9059 189.192 59.462 189.185 60.1828C189.161 62.9847 189.158 65.7866 189.185 68.5861C189.192 69.3665 188.935 69.894 187.907 70.1613C190.934 70.1613 193.698 70.1613 196.541 70.1613C196.776 69.1326 197.011 68.104 197.246 67.0777C195.932 69.4047 195.055 69.7532 191.661 69.388ZM186.553 51.2234C186.567 48.3952 186.529 45.5646 186.586 42.7389C186.596 42.2162 186.953 41.6983 187.137 41.2138C185.972 41.2138 184.604 41.2138 182.998 41.2138C183.98 41.5718 184.1 42.1971 184.095 42.9226C184.079 45.6028 184.074 48.283 184.098 50.9608C184.105 51.7675 183.98 52.4501 182.883 52.82C184.62 52.82 186.085 52.82 187.547 52.82C186.739 52.5718 186.55 51.9847 186.553 51.2234ZM160.508 58.6195C158.974 58.6195 157.572 58.6195 155.942 58.6195C156.864 58.9011 157.037 59.4095 157.032 60.0754C157.018 62.8486 157.004 65.6219 157.039 68.3952C157.049 69.2186 156.896 69.8629 155.858 70.166C157.538 70.166 159.022 70.166 160.506 70.166C159.667 69.8916 159.494 69.2782 159.501 68.4882C159.525 65.746 159.528 63.0014 159.501 60.2591C159.494 59.5145 159.626 58.9155 160.508 58.6195Z" fill="#222222"/>
<path d="M94.0594 53.9997C94.0594 48.8995 92.415 44.1835 89.6272 40.3458L91.6647 35.8661H85.3699C85.3532 35.8517 85.3364 35.8398 85.3196 35.8255H82.0236C82.0452 35.8398 82.0644 35.8517 82.0859 35.8661H76.3065L74.5135 39.8064L72.7205 35.8661H59.1625C62.4825 33.7825 66.4113 32.5749 70.6254 32.5749C73.5786 32.5749 76.3928 33.1668 78.9553 34.2408H83.0903C79.4803 31.9758 75.2063 30.668 70.6254 30.668C65.0378 30.668 59.908 32.6155 55.8809 35.8661H49.3943L51.5062 40.5081C48.7903 44.3171 47.1914 48.9734 47.1914 53.9997C47.1914 65.4293 55.447 74.94 66.3442 76.94L65.3638 74.7777C56.0223 72.4412 49.1067 64.0259 49.1067 53.9997C49.1067 49.7897 50.3268 45.8613 52.4339 42.551L70.5295 82.3314L72.8523 77.2264C84.7515 76.1094 94.0594 66.1357 94.0594 53.9997ZM70.3162 39.8064L71.4165 42.224L74.5135 49.0379L77.6129 42.224L78.7132 39.8064H85.5785L84.4734 42.224H80.3888L74.5135 55.0689L68.6406 42.224H63.3838L73.9286 65.2837L72.5479 68.3052L60.6199 42.224H59.5964L72.0349 69.4245L70.5295 72.718L55.4806 39.8064H70.3162ZM73.7776 75.1954L78.1667 65.5486L76.086 60.5701L82.7092 46.088H87.0191L88.7067 42.3768C90.8833 45.7252 92.1465 49.7157 92.1465 53.9997C92.1441 64.7658 84.169 73.6775 73.7776 75.1954Z" fill="url(#paint0_radial_2602_10442)"/>
<defs>
<radialGradient id="paint0_radial_2602_10442" cx="0" cy="0" r="1" gradientUnits="userSpaceOnUse" gradientTransform="translate(70.6265 56.4991) scale(24.7214 24.6135)">
<stop stop-color="#606060"/>
<stop offset="0.2526" stop-color="#5D5D5D"/>
<stop offset="0.4692" stop-color="#525252"/>
<stop offset="0.6726" stop-color="#404040"/>
<stop offset="0.8668" stop-color="#282828"/>
<stop offset="1" stop-color="#121212"/>
</radialGradient>
</defs>
</svg>
