<svg width="262" height="113" viewBox="0 0 262 113" fill="none" xmlns="http://www.w3.org/2000/svg">
<path d="M61.5514 67.1703C61.2614 67.1703 60.9814 67.0703 60.7414 66.8803C60.2014 66.4303 60.1214 65.6303 60.5714 65.0803L76.2315 46.0803C76.6815 45.5403 77.4814 45.4603 78.0314 45.9103C78.5714 46.3603 78.6514 47.1603 78.2014 47.7103L62.5414 66.7103C62.2814 67.0103 61.9114 67.1703 61.5514 67.1703Z" fill="#02021B"/>
<path d="M68.4011 67.1703C68.1111 67.1703 67.8311 67.0703 67.5911 66.8803C67.0511 66.4303 66.9711 65.6303 67.4211 65.0803L83.0811 46.0803C83.5311 45.5403 84.3311 45.4603 84.8811 45.9103C85.4211 46.3603 85.5011 47.1603 85.0511 47.7103L69.3911 66.7103C69.1311 67.0103 68.7611 67.1703 68.4011 67.1703Z" fill="#02021B"/>
<path d="M68.4507 47.0404L72.8507 52.1804L69.6207 56.1104L63.0407 48.4304C62.1307 47.3704 62.8907 45.7404 64.2807 45.7404H65.6007C66.7007 45.7304 67.7407 46.2104 68.4507 47.0404Z" fill="#02021B"/>
<path d="M82.0313 67.03H80.7113C79.6113 67.03 78.5713 66.55 77.8613 65.72L73.1113 60.17L76.3513 56.25L83.2713 64.33C84.1813 65.4 83.4313 67.03 82.0313 67.03Z" fill="#02021B"/>
<path d="M73.1108 33.9404C60.6508 33.9404 50.5508 44.0404 50.5508 56.5004C50.5508 68.9604 60.6508 79.0604 73.1108 79.0604C85.5708 79.0604 95.6708 68.9604 95.6708 56.5004C95.6708 44.0404 85.5708 33.9404 73.1108 33.9404ZM73.1108 75.8404C62.4308 75.8404 53.7708 67.1804 53.7708 56.5004C53.7708 45.8204 62.4308 37.1604 73.1108 37.1604C83.7908 37.1604 92.4508 45.8204 92.4508 56.5004C92.4508 67.1804 83.7908 75.8404 73.1108 75.8404Z" fill="#02021B"/>
<path d="M120.83 65.7002H115.29L100.24 46.9502H105.78L120.83 65.7002Z" fill="#2E2E34"/>
<path d="M100.24 65.7002H105.78L120.83 46.9502H115.29L100.24 65.7002Z" fill="#2E2E34"/>
<path d="M139.801 46.9502V50.1402H119.861L122.421 46.9502H139.801Z" fill="#2E2E34"/>
<path d="M132.491 49.4404H127.941V65.7104H132.491V49.4404Z" fill="#2E2E34"/>
<path d="M137.912 64.5106C139.049 64.5106 139.972 63.5883 139.972 62.4506C139.972 61.3129 139.049 60.3906 137.912 60.3906C136.774 60.3906 135.852 61.3129 135.852 62.4506C135.852 63.5883 136.774 64.5106 137.912 64.5106Z" fill="#2E2E34"/>
<path d="M148.411 56.33C148.411 57.78 149.001 59.1 149.951 60.05C150.901 61 152.221 61.59 153.671 61.59H160.441V65.71H152.211C147.371 65.71 143.441 61.79 143.441 56.94V55.72C143.441 50.88 147.361 46.96 152.211 46.96H160.441V51.08H153.671C150.761 51.07 148.411 53.42 148.411 56.33Z" fill="#2E2E34"/>
<path d="M172.37 46.96C166.97 46.96 162.59 51.16 162.59 56.33C162.59 61.51 166.97 65.71 172.37 65.71C177.77 65.71 182.15 61.51 182.15 56.33C182.15 51.16 177.77 46.96 172.37 46.96ZM172.37 62.08C169.78 62.08 167.69 59.51 167.69 56.33C167.69 53.16 169.79 50.59 172.37 50.59C174.96 50.59 177.05 53.16 177.05 56.33C177.05 59.51 174.96 62.08 172.37 62.08Z" fill="#2E2E34"/>
<path d="M177.051 56.3308C177.051 59.5108 174.951 62.0808 172.371 62.0808C169.781 62.0808 167.691 59.5108 167.691 56.3308C167.691 53.1608 169.791 50.5908 172.371 50.5908C174.961 50.5908 177.051 53.1608 177.051 56.3308Z" stroke="#2E2E34" stroke-miterlimit="10"/>
<path d="M211.451 52.5009V65.7109H206.631V53.4809C206.631 52.1809 205.581 51.1309 204.281 51.1309H201.171V65.7109H196.131V51.1309H190.671V65.7109H185.891V47.1709H206.121C209.061 47.1709 211.451 49.5509 211.451 52.5009Z" fill="#2E2E34"/>
</svg>
