<svg width="120" height="66" viewBox="0 0 120 66" fill="none" xmlns="http://www.w3.org/2000/svg">
<g clip-path="url(#clip0_1489_5319)">
<path fill-rule="evenodd" clip-rule="evenodd" d="M34.2269 2.83569C34.2269 2.96246 34.2269 3.08923 34.2269 3.216C34.2269 4.23015 34.5599 4.48368 35.596 4.33881C36.1511 4.24826 36.7246 4.21204 37.2981 4.17582C39.2593 4.01283 39.3333 3.9585 39.2778 2.00264C39.2778 1.91209 39.2778 1.83965 39.2778 1.7491C39.2223 1.1877 38.9448 0.861719 38.3342 0.916049C37.2611 1.0066 36.1881 1.06093 35.115 1.1877C34.5599 1.26014 34.2084 1.62233 34.2269 2.21996C34.2269 2.41916 34.2269 2.63648 34.2269 2.83569ZM49.7495 27.791C48.917 30.1091 48.1029 32.4272 47.2519 34.8358C49.028 34.6909 50.7116 34.546 52.4692 34.4011C51.5997 32.1374 50.7486 29.9461 49.916 27.7729L49.7495 27.791ZM11.1373 34.3106C11.8588 34.2562 12.5434 34.2381 13.2094 34.1657C14.153 34.057 15.0965 33.9665 16.0216 33.7673C16.8357 33.6043 17.4277 33.0791 17.6497 32.2823C18.0568 30.8516 17.6682 29.765 16.0771 29.6926C14.4305 29.6201 12.7839 29.7831 11.1188 29.8374V34.3106H11.1373ZM28.8985 33.1697C30.1566 33.061 31.3962 33.0067 32.5988 32.8256C33.4314 32.6807 34.2824 32.4453 35.041 32.065C35.855 31.6665 36.1326 30.5981 35.8735 29.5839C35.67 28.8052 34.9485 28.1713 34.0604 28.1713C32.3398 28.1894 30.6377 28.3162 28.8985 28.3887V33.1697ZM16.6692 36.683C15.4111 36.5743 14.1345 36.7011 12.8764 36.7373C12.3028 36.7554 11.7108 36.8278 11.1373 36.8822V41.8443C12.5619 41.7356 13.9125 41.6813 15.2631 41.5002C16.0031 41.3915 16.7617 41.1561 17.4092 40.8301C18.4453 40.2868 18.6488 39.2908 18.5193 38.2404C18.3898 37.3349 17.8532 36.7735 16.6692 36.683ZM101.812 25.636C102.645 25.9619 103.551 26.1068 104.439 26.2879C106.66 26.7588 109.028 26.8674 110.582 28.8595V23.0644C110.545 23.0644 110.526 23.0644 110.489 23.0463C110.378 23.3541 110.267 23.6801 110.119 23.988C109.601 25.0564 107.973 25.3643 107.381 24.1691C107.233 23.8974 107.104 23.5896 106.9 23.3722C106.475 22.9376 106.068 22.34 105.513 22.1589C104.051 21.6699 102.608 21.9053 101.405 22.9014C100.369 23.7888 100.554 25.1289 101.812 25.636ZM72.4137 22.5211C69.8235 22.7384 67.1223 22.9738 64.3656 23.2092C66.9743 26.8493 69.5275 30.4351 72.0807 34.0208C72.1362 34.0027 72.1732 34.0027 72.2287 33.9846V33.3326C72.2287 30.5437 72.2102 27.7548 72.2287 24.9659C72.2472 24.1691 72.3397 23.3722 72.4137 22.5211ZM38.7042 7.6529C38.6487 7.0915 38.2602 6.7293 37.6867 6.78363C37.0576 6.83796 36.4286 6.89229 35.7995 7.00095C35.0595 7.12772 34.893 7.36315 34.893 8.08754C34.893 10.3875 34.893 12.6693 34.893 14.9693C34.893 17.3054 34.893 19.6416 34.893 21.9778C34.893 22.5935 35.189 22.9014 35.7625 22.8833C36.3361 22.8471 36.8911 22.7565 37.4647 22.7203C38.5007 22.666 38.7227 22.1227 38.7227 21.2353C38.7042 16.8527 38.7227 12.4882 38.7227 8.10565C38.7042 7.94266 38.7042 7.79778 38.7042 7.6529ZM83.0889 35.9223C84.31 35.7956 85.4756 35.6507 86.6597 35.5602C88.7504 35.4153 89.9159 34.22 90.4895 32.3728C91.0815 30.5256 91.1 28.6422 90.619 26.7769C90.138 24.8935 88.9169 24.0061 86.9372 24.0242C85.8826 24.0242 84.8096 24.1328 83.755 24.1328C83.1814 24.1328 83.0334 24.3321 83.0519 24.8572C83.0704 28.3343 83.0704 31.8114 83.0704 35.2885C83.0519 35.5058 83.0704 35.6869 83.0889 35.9223ZM95.7253 17.2873C97.742 17.6314 99.6846 17.1968 101.59 16.6535C103.588 16.074 103.181 15.911 103.2 14.4984C103.218 13.4118 102.904 13.2488 101.794 13.4662C100.351 13.7559 98.8891 14.0095 97.4275 14.1543C96.3729 14.263 95.6699 13.5024 95.6699 12.4701C95.6699 11.5103 95.6699 10.5505 95.6699 9.59066C95.6699 8.73949 95.7439 7.87022 95.6513 7.03717C95.5218 5.76948 96.5764 4.61045 98.112 4.64667C99.4626 4.68289 100.832 4.66478 102.182 4.68289C102.885 4.68289 103.181 4.39314 103.2 3.70496C103.2 3.34276 103.181 2.99868 103.2 2.63648C103.237 2.05697 102.978 1.7491 102.404 1.64044C100.406 1.22392 98.371 1.26013 96.4099 1.71288C93.7272 2.32861 91.8956 4.50179 91.8401 7.00095C91.7846 8.95681 91.8031 10.9127 91.8401 12.8685C91.9141 15.1866 93.4312 16.8889 95.7253 17.2873ZM17.3907 23.2817C17.3907 24.1872 17.7237 24.4769 18.6488 24.4226C19.0743 24.3864 19.4999 24.3321 19.9069 24.2958C20.8505 24.2415 21.202 23.9155 21.202 22.9919C21.202 19.8046 21.202 16.6173 21.202 13.4299C21.202 12.3252 21.9975 11.4016 23.0336 11.293C23.8107 11.2205 24.5877 11.13 25.3648 11.0576C26.6229 10.9308 27.4554 11.6552 27.4554 12.8866C27.4554 13.3937 27.4554 13.8827 27.4554 14.3898C27.4554 17.07 27.4554 19.7684 27.4554 22.4486C27.4554 23.3179 27.881 23.6439 28.7505 23.5352C29.1206 23.4809 29.5091 23.4628 29.8976 23.4266C30.9337 23.336 31.3407 22.9738 31.3037 21.9959C31.2482 20.3841 31.2852 18.7904 31.2852 17.1787C31.2852 15.6212 31.2852 14.0457 31.2852 12.4882C31.2852 10.2426 29.9531 8.48596 27.6959 8.06943C25.4943 7.65291 23.2741 7.85211 21.1835 8.59461C19.0373 9.35523 17.5942 10.8946 17.4277 13.2488C17.3167 15.0055 17.3722 16.7803 17.3537 18.555C17.3722 20.1125 17.3722 21.688 17.3907 23.2817ZM10.0272 21.6518C10.0272 21.7786 9.69415 21.9959 9.49064 22.014C8.26955 22.1408 7.02996 22.2313 5.80887 22.3038C4.69879 22.3762 3.97724 21.9053 3.81073 20.9998C3.64422 20.04 4.23626 19.0621 5.23533 18.7904C5.75337 18.6456 6.32691 18.6456 6.86345 18.5731C7.38149 18.5188 7.91803 18.4645 8.45457 18.4101C8.9541 18.3739 9.47214 18.3558 10.0642 18.3196C10.0457 19.4605 10.0642 20.5652 10.0272 21.6518ZM13.82 23.4628C13.82 20.4022 13.82 17.3417 13.82 14.2811C13.82 13.8102 13.82 13.3213 13.7089 12.8504C13.2094 10.8402 11.3408 9.35523 9.21312 9.42767C7.65901 9.482 6.08639 9.69932 4.55078 9.97096C3.14468 10.2245 3.03367 10.4599 3.03367 11.8544C3.03367 12.0174 3.03367 12.1804 3.03367 12.3615C3.07068 13.0859 3.3667 13.3032 4.08825 13.1945C5.34634 12.9953 6.60443 12.9048 7.84402 12.6512C9.23162 12.3615 10.3972 13.5748 9.93467 15.1323C8.8616 15.2228 7.75151 15.3496 6.65994 15.422C4.88381 15.5307 3.25569 15.9291 1.83109 17.07C-0.296565 18.7904 -0.740597 21.9597 0.980027 23.9155C2.34913 25.473 4.19926 25.7084 6.1419 25.5273C8.23255 25.3462 10.3232 25.1108 12.4138 24.9478C13.5794 24.821 13.82 24.6218 13.82 23.4628ZM115.392 12.615C114.264 12.7237 113.172 12.8142 112.081 12.9048C111.618 12.941 111.137 13.0496 110.693 12.9953C109.786 12.9048 109.176 12.2166 109.139 11.3654C109.102 10.5505 109.86 9.53633 110.711 9.42767C112.247 9.22846 113.783 9.1198 115.392 8.97492V12.615ZM119.185 4.41125C119.167 2.21996 117.464 0.427083 115.244 0.155435C113.468 -0.0799924 111.748 0.264094 110.027 0.626291C108.399 0.988487 108.399 1.04282 108.417 2.6727C108.417 2.79947 108.417 2.92624 108.417 3.05301C108.454 3.74118 108.824 3.9585 109.527 3.84984C110.915 3.63252 112.321 3.43331 113.727 3.30655C114.079 3.27033 114.504 3.48764 114.8 3.70496C115.485 4.19393 115.448 4.95454 115.374 5.76948C114.338 5.86003 113.339 5.93247 112.34 6.02302C110.989 6.14979 109.638 6.24034 108.417 6.89229C106.216 8.05132 105.106 10.0434 105.365 12.452C105.605 14.6433 107.992 16.3818 110.6 16.1826C113.117 16.0015 115.633 15.748 118.149 15.5307C118.908 15.4582 119.185 15.1685 119.185 14.4079C119.204 11.0757 119.204 7.74345 119.185 4.41125ZM42.201 21.3258C42.201 21.362 42.2195 21.4164 42.2195 21.4526C42.2565 21.9959 42.5895 22.2313 43.1076 22.1951C43.6811 22.1589 44.2546 22.0864 44.8282 22.0502C45.7162 21.9778 45.9753 21.7061 45.9753 20.8369C45.9753 17.6857 45.9753 14.5346 45.9753 11.4016C45.9753 10.0977 46.7893 9.17413 48.0474 9.06547C48.732 9.01114 49.398 8.97492 50.0826 8.9387C51.6737 8.84816 52.2657 9.39145 52.2657 10.9489C52.2657 13.9551 52.2657 16.9432 52.2657 19.9495C52.2657 20.1487 52.2472 20.366 52.2842 20.5652C52.3582 21.0723 52.5987 21.362 53.1723 21.3258C53.7273 21.2715 54.2639 21.2353 54.8189 21.1991C55.6885 21.1447 56.0585 20.7825 56.0585 19.9133C56.0585 16.7803 56.0585 13.6654 56.0585 10.5324C56.0585 9.10169 56.9096 8.25053 58.3527 8.17809C58.9262 8.15998 59.4997 8.10565 60.0733 8.03321C61.6459 7.87022 62.3859 8.50407 62.3859 10.0434C62.3859 12.6693 62.3859 15.2953 62.3859 17.9212C62.3859 18.4826 62.3859 19.044 62.4044 19.6054C62.423 20.1668 62.719 20.4566 63.2925 20.4203C63.9586 20.3841 64.6061 20.366 65.2537 20.2755C65.9012 20.1849 66.1417 19.8408 66.1417 19.1164C66.1417 15.7842 66.1232 12.452 66.1417 9.1198C66.1602 7.00095 64.6246 5.58839 62.9225 5.04509C61.7199 4.66478 60.4988 4.82777 59.2592 4.90021C57.4091 5.00887 55.633 5.29863 54.2639 6.49388C53.5053 6.24034 52.8763 5.87814 52.2472 5.82381C51.0446 5.73326 49.842 5.75137 48.6395 5.86003C47.6959 5.95058 46.7338 6.09546 45.8643 6.43955C43.7181 7.2726 42.275 8.79382 42.2195 11.1481C42.164 14.5346 42.2195 17.9393 42.201 21.3258ZM79.2962 13.7921C79.9252 13.8102 80.3507 14.2449 80.3507 14.8606C80.3322 15.5669 79.7772 16.074 79.0187 16.0559C78.4266 16.0378 78.0011 15.6212 78.0011 15.0236C78.0196 14.3354 78.5931 13.774 79.2962 13.7921ZM83.348 13.4118C83.903 13.4299 84.4025 13.9189 84.4025 14.4441C84.421 15.0779 83.755 15.748 83.1074 15.7299C82.5339 15.7299 81.9974 15.2047 82.0159 14.6433C82.0159 14.0276 82.7004 13.3937 83.348 13.4118ZM67.3628 5.44351C67.8438 5.38918 68.2879 5.13564 68.6024 5.00887C69.8975 6.1679 71.1926 7.32693 72.6172 8.59461C71.6921 8.90248 70.9706 9.13791 70.2675 9.37334C69.805 8.68517 69.324 8.48596 68.6764 8.66706C68.1584 8.81193 67.7328 9.37334 67.6958 9.91663C67.6588 10.4961 67.9178 10.8765 68.4359 11.0938C69.0649 11.3473 69.583 11.0938 70.323 10.1521C70.9151 10.4237 71.5256 10.7135 72.1547 10.967C72.5062 11.0938 72.5617 11.3111 72.5802 11.6371C72.5987 12.1804 72.6357 12.7237 72.7837 13.2307C73.8938 17.396 77.7791 19.714 82.1084 18.9534C87.0852 18.0842 91.026 13.0496 89.8049 7.87022C88.8614 3.81362 85.1796 1.65855 81.4053 1.94831C79.7217 2.07508 78.1491 2.61837 76.7615 3.5963C76.484 3.79551 76.2804 3.83173 75.9844 3.5963C75.5034 3.216 74.9854 2.90813 74.5043 2.58215C74.8188 1.568 74.7078 1.11526 74.1343 0.734951C73.6533 0.427084 72.9872 0.481413 72.4877 0.861719C72.0251 1.22392 71.8031 1.96642 72.0251 2.4916C72.2842 3.10734 72.7467 3.28844 73.8753 3.16167C74.0048 3.97661 74.1343 4.79155 74.2823 5.69704C72.5802 5.13564 71.0076 4.62856 69.4535 4.08527C69.3055 4.03094 69.1574 3.79551 69.1019 3.61441C68.8614 2.6727 68.2324 2.25618 67.2703 2.41916C66.4377 2.56404 65.8457 3.37899 65.9382 4.26637C65.9752 4.95454 66.6043 5.53406 67.3628 5.44351ZM109.786 34.8176C107.677 37.3892 102.626 37.9506 99.9066 36.7735C98.2785 36.0672 97.0204 34.2744 97.0759 32.735C97.0944 32.0106 97.631 31.3587 98.334 31.1957C99.1481 30.9965 99.7031 31.2319 100.129 31.9925C100.406 32.4815 100.647 32.9886 100.906 33.4775C101.257 34.1295 101.849 34.5098 102.552 34.6366C103.903 34.872 105.217 34.7452 106.382 33.9484C107.233 33.3689 107.714 32.572 107.548 31.5579C107.381 30.5618 106.604 30.1272 105.698 29.928C104.236 29.6201 102.756 29.3847 101.294 29.0406C100.018 28.7509 98.8336 28.2257 98.0565 27.1029C97.0389 25.6179 97.224 23.2092 98.5376 21.851C99.2221 21.1447 100.073 20.6014 100.776 20.0581C96.9649 20.3841 92.9872 20.7282 88.9909 21.0904C89.0279 21.1266 89.0464 21.1447 89.0464 21.1628C89.1574 21.1991 89.2499 21.2172 89.3609 21.2353C91.8031 21.7423 93.3017 23.2455 94.0417 25.5092C94.8558 27.9902 94.8188 30.5075 94.0232 32.9704C93.1167 35.7956 91.211 37.6609 88.1583 38.1861C86.7337 38.4215 85.3091 38.5483 83.866 38.675C82.9224 38.7656 81.9604 38.8018 80.9983 38.8018C80.1472 38.8018 79.7587 38.4758 79.5922 37.6609C79.5182 37.3349 79.4812 37.0089 79.4812 36.683C79.4812 32.6264 79.4812 28.5516 79.4627 24.495C79.4627 23.5171 79.4442 22.5573 80.4062 21.8329C78.6116 21.9959 76.928 22.1408 75.3369 22.2856C75.4294 22.9738 75.5774 23.6077 75.5774 24.2415C75.5959 28.3706 75.5959 32.4996 75.5774 36.6286C75.5774 37.0995 75.5589 37.5885 75.5034 38.0593C75.4109 38.8742 74.9854 39.4357 74.1713 39.7073C73.0612 40.0695 72.0992 39.7073 71.2851 38.5664C69.805 36.52 68.3619 34.4373 66.9003 32.3909C66.0122 31.1414 65.1426 29.8918 64.1436 28.4973V32.3004C64.1436 34.4736 64.1436 36.6286 64.1436 38.8018C64.1436 39.9246 63.3665 40.7033 62.3304 40.7033C61.3499 40.7033 60.8503 40.1238 60.8133 38.8924C60.8133 38.7113 60.8133 38.5121 60.8133 38.331C60.8133 34.22 60.7948 30.1272 60.8318 26.0163C60.8318 25.2013 61.0168 24.3864 61.1094 23.5352C58.0936 23.7888 54.9299 24.0604 51.7847 24.3321C52.0807 24.8754 52.3767 25.3643 52.5987 25.8895C53.6903 28.4249 54.7819 30.9603 55.855 33.4956C56.6135 35.3066 57.3721 37.1176 58.0751 38.9648C58.4082 39.816 57.8346 40.7396 56.9096 41.1018C56.003 41.4458 55.2999 41.1742 54.8374 40.2325C54.4304 39.3813 54.0418 38.4939 53.7088 37.6066C53.5608 37.2081 53.3758 37.0633 52.9318 37.0995C50.7301 37.2987 48.5285 37.4617 46.3268 37.6428C46.2713 37.8239 46.2158 37.9869 46.1418 38.168C45.7162 39.2546 45.3092 40.323 44.8467 41.3915C44.5692 42.0254 44.0141 42.2789 43.2926 42.2608C42.645 42.2427 42.09 41.971 41.942 41.4096C41.8125 40.8663 41.8495 40.2144 42.0345 39.6892C42.497 38.2947 43.0706 36.9365 43.6071 35.5602C45.0317 31.9382 46.4563 28.3343 47.8809 24.6943C44.3101 25.0021 40.6469 25.31 36.7616 25.6541C39.2593 26.6682 39.9253 28.5154 39.5923 30.7429C39.2408 33.061 37.4462 34.1114 35.374 34.7995C35.411 34.872 35.411 34.9263 35.448 34.9444C37.6127 36.2845 38.8893 38.2766 39.8328 40.5222C39.9623 40.8482 39.9623 41.301 39.8513 41.6451C39.6108 42.3513 38.9448 42.623 38.2602 42.6954C37.4647 42.786 36.8726 42.3332 36.4656 41.7175C35.67 40.5404 34.93 39.327 34.1344 38.168C33.7089 37.5522 33.2649 36.9365 32.7283 36.4113C31.6552 35.3428 30.2861 35.7412 28.9355 35.7412C28.9355 37.4255 28.954 39.0372 28.9355 40.6671C28.9355 41.1923 28.8985 41.7175 28.806 42.2065C28.621 43.0576 27.7515 43.6371 26.7894 43.5828C25.9568 43.5285 25.4758 43.0214 25.3648 42.0435C25.3278 41.7356 25.3093 41.4277 25.3093 41.1018C25.3093 36.9727 25.2908 32.8437 25.3278 28.7146C25.3278 28.0084 25.5128 27.3021 25.6053 26.5777C23.5517 26.7588 21.387 26.9399 19.0743 27.1391C22.2011 28.6784 22.3121 32.9342 19.1113 34.6547C19.8329 35.1255 20.795 35.5058 21.4055 36.194C22.7191 37.7152 22.5341 39.4719 21.6645 41.138C20.6284 43.1119 18.7413 43.782 16.6322 44.0355C14.93 44.2348 13.2094 44.434 11.5073 44.5064C10.3787 44.5607 9.17612 45.0316 8.08454 44.271C7.89953 44.7962 8.14004 44.941 8.60258 45.0497C20.2954 48.0378 32.0068 51.0441 43.6996 54.0322C59.0187 57.962 74.3563 61.8918 89.6754 65.8398C90.1009 65.9484 90.323 65.8941 90.545 65.5319C97.187 55.2636 103.847 45.0135 110.489 34.7452C110.656 34.4736 110.711 34.1295 110.822 33.8216C110.304 34.1295 110.064 34.4736 109.786 34.8176Z" fill="#31A4DE"/>
</g>
<defs>
<clipPath id="clip0_1489_5319">
<rect width="119.226" height="66" fill="white"/>
</clipPath>
</defs>
</svg>
